M48
; DRILL file {KiCad (5.1.2-1)-1} date 2019 August 06, Tuesday 22:00:58
; FORMAT={-:-/ absolute / inch / decimal}
; #@! TF.CreationDate,2019-08-06T22:00:58+02:00
; #@! TF.GenerationSoftware,Kicad,Pcbnew,(5.1.2-1)-1
; #@! TF.FileFunction,Plated,1,2,PTH
FMAT,2
INCH
T1C0.0157
T2C0.0197
T3C0.0315
T4C0.0394
T5C0.0433
T6C0.1378
%
G90
G05
T1
X4.23Y-4.21
X4.39Y-2.79
X4.65Y-4.21
X4.7851Y-2.5351
X4.95Y-2.34
X4.95Y-2.48
X4.98Y-2.74
X5.09Y-4.21
X5.14Y-2.57
X5.23Y-5.18
X5.445Y-2.94
X5.445Y-3.06
X5.59Y-3.51
X5.59Y-3.56
X5.59Y-3.61
X5.68Y-2.82
X5.72Y-3.01
X5.7319Y-2.6881
X5.75Y-5.18
X5.94Y-3.27
X6.02Y-3.355
X6.11Y-3.13
X6.16Y-3.12
X6.18Y-5.18
X6.21Y-3.01
X6.21Y-3.11
T2
X4.27Y-4.37
X4.45Y-4.33
X4.69Y-4.37
X4.79Y-2.48
X4.88Y-4.33
X5.022Y-4.95
X5.13Y-4.37
X5.32Y-4.33
X5.56Y-5.56
X5.78Y-3.063
X6.08Y-5.56
X6.6Y-5.56
X5.156Y-3.211
X5.09Y-3.65
X6.11Y-3.24
X4.23Y-3.65
X5.054Y-3.1565
X4.65Y-3.65
T3
X4.04Y-3.79
X4.525Y-5.21
X4.6445Y-4.7055
X4.6445Y-4.7855
X4.87Y-5.19
X4.87Y-5.36
X6.01Y-5.84
X6.09Y-5.84
X6.17Y-5.84
T4
X6.56Y-3.155
X6.66Y-3.155
X6.76Y-3.155
X6.86Y-3.155
X6.96Y-3.155
X7.06Y-3.155
T5
X5.71Y-5.3
X5.71Y-5.4772
X5.9659Y-5.3
X5.9659Y-5.4772
X5.1952Y-5.3
X5.1952Y-5.4772
X5.4511Y-5.3
X5.4511Y-5.4772
X6.225Y-5.3
X6.225Y-5.4772
X6.4809Y-5.3
X6.4809Y-5.4772
T6
X5.837Y-2.0098
X7.4906Y-4.874
X4.1834Y-4.874
T0
M30
