G04 #@! TF.GenerationSoftware,KiCad,Pcbnew,(5.1.2-1)-1*
G04 #@! TF.CreationDate,2019-08-06T22:00:45+02:00*
G04 #@! TF.ProjectId,RGB-Controller#R,5247422d-436f-46e7-9472-6f6c6c657223,rev?*
G04 #@! TF.SameCoordinates,Original*
G04 #@! TF.FileFunction,Copper,L1,Top*
G04 #@! TF.FilePolarity,Positive*
%FSLAX46Y46*%
G04 Gerber Fmt 4.6, Leading zero omitted, Abs format (unit mm)*
G04 Created by KiCad (PCBNEW (5.1.2-1)-1) date 2019-08-06 22:00:45*
%MOMM*%
%LPD*%
G04 APERTURE LIST*
%ADD10O,1.700000X1.700000*%
%ADD11R,1.700000X1.700000*%
%ADD12C,1.000000*%
%ADD13C,7.000000*%
%ADD14C,0.100000*%
%ADD15C,0.875000*%
%ADD16C,0.950000*%
%ADD17C,1.600000*%
%ADD18C,0.975000*%
%ADD19R,2.000000X4.000000*%
%ADD20O,5.000000X1.300000*%
%ADD21C,0.300000*%
%ADD22R,0.900000X0.800000*%
%ADD23C,2.000000*%
%ADD24C,0.500000*%
%ADD25R,2.000000X1.500000*%
%ADD26R,2.000000X3.800000*%
%ADD27C,0.700000*%
%ADD28C,0.800000*%
%ADD29C,1.500000*%
%ADD30C,1.500000*%
%ADD31C,0.800000*%
%ADD32C,0.400000*%
%ADD33C,0.600000*%
%ADD34C,1.000000*%
%ADD35C,2.000000*%
%ADD36C,0.500000*%
G04 APERTURE END LIST*
D10*
X166624000Y-80137000D03*
X169164000Y-80137000D03*
X171704000Y-80137000D03*
X174244000Y-80137000D03*
X176784000Y-80137000D03*
D11*
X179324000Y-80137000D03*
D12*
X130962400Y-81559400D03*
X128371600Y-80175100D03*
D13*
X106257767Y-123800000D03*
X190262232Y-123800000D03*
X148260000Y-51050000D03*
D14*
G36*
X123887191Y-64804053D02*
G01*
X123908426Y-64807203D01*
X123929250Y-64812419D01*
X123949462Y-64819651D01*
X123968868Y-64828830D01*
X123987281Y-64839866D01*
X124004524Y-64852654D01*
X124020430Y-64867070D01*
X124034846Y-64882976D01*
X124047634Y-64900219D01*
X124058670Y-64918632D01*
X124067849Y-64938038D01*
X124075081Y-64958250D01*
X124080297Y-64979074D01*
X124083447Y-65000309D01*
X124084500Y-65021750D01*
X124084500Y-65534250D01*
X124083447Y-65555691D01*
X124080297Y-65576926D01*
X124075081Y-65597750D01*
X124067849Y-65617962D01*
X124058670Y-65637368D01*
X124047634Y-65655781D01*
X124034846Y-65673024D01*
X124020430Y-65688930D01*
X124004524Y-65703346D01*
X123987281Y-65716134D01*
X123968868Y-65727170D01*
X123949462Y-65736349D01*
X123929250Y-65743581D01*
X123908426Y-65748797D01*
X123887191Y-65751947D01*
X123865750Y-65753000D01*
X123428250Y-65753000D01*
X123406809Y-65751947D01*
X123385574Y-65748797D01*
X123364750Y-65743581D01*
X123344538Y-65736349D01*
X123325132Y-65727170D01*
X123306719Y-65716134D01*
X123289476Y-65703346D01*
X123273570Y-65688930D01*
X123259154Y-65673024D01*
X123246366Y-65655781D01*
X123235330Y-65637368D01*
X123226151Y-65617962D01*
X123218919Y-65597750D01*
X123213703Y-65576926D01*
X123210553Y-65555691D01*
X123209500Y-65534250D01*
X123209500Y-65021750D01*
X123210553Y-65000309D01*
X123213703Y-64979074D01*
X123218919Y-64958250D01*
X123226151Y-64938038D01*
X123235330Y-64918632D01*
X123246366Y-64900219D01*
X123259154Y-64882976D01*
X123273570Y-64867070D01*
X123289476Y-64852654D01*
X123306719Y-64839866D01*
X123325132Y-64828830D01*
X123344538Y-64819651D01*
X123364750Y-64812419D01*
X123385574Y-64807203D01*
X123406809Y-64804053D01*
X123428250Y-64803000D01*
X123865750Y-64803000D01*
X123887191Y-64804053D01*
X123887191Y-64804053D01*
G37*
D15*
X123647000Y-65278000D03*
D14*
G36*
X125462191Y-64804053D02*
G01*
X125483426Y-64807203D01*
X125504250Y-64812419D01*
X125524462Y-64819651D01*
X125543868Y-64828830D01*
X125562281Y-64839866D01*
X125579524Y-64852654D01*
X125595430Y-64867070D01*
X125609846Y-64882976D01*
X125622634Y-64900219D01*
X125633670Y-64918632D01*
X125642849Y-64938038D01*
X125650081Y-64958250D01*
X125655297Y-64979074D01*
X125658447Y-65000309D01*
X125659500Y-65021750D01*
X125659500Y-65534250D01*
X125658447Y-65555691D01*
X125655297Y-65576926D01*
X125650081Y-65597750D01*
X125642849Y-65617962D01*
X125633670Y-65637368D01*
X125622634Y-65655781D01*
X125609846Y-65673024D01*
X125595430Y-65688930D01*
X125579524Y-65703346D01*
X125562281Y-65716134D01*
X125543868Y-65727170D01*
X125524462Y-65736349D01*
X125504250Y-65743581D01*
X125483426Y-65748797D01*
X125462191Y-65751947D01*
X125440750Y-65753000D01*
X125003250Y-65753000D01*
X124981809Y-65751947D01*
X124960574Y-65748797D01*
X124939750Y-65743581D01*
X124919538Y-65736349D01*
X124900132Y-65727170D01*
X124881719Y-65716134D01*
X124864476Y-65703346D01*
X124848570Y-65688930D01*
X124834154Y-65673024D01*
X124821366Y-65655781D01*
X124810330Y-65637368D01*
X124801151Y-65617962D01*
X124793919Y-65597750D01*
X124788703Y-65576926D01*
X124785553Y-65555691D01*
X124784500Y-65534250D01*
X124784500Y-65021750D01*
X124785553Y-65000309D01*
X124788703Y-64979074D01*
X124793919Y-64958250D01*
X124801151Y-64938038D01*
X124810330Y-64918632D01*
X124821366Y-64900219D01*
X124834154Y-64882976D01*
X124848570Y-64867070D01*
X124864476Y-64852654D01*
X124881719Y-64839866D01*
X124900132Y-64828830D01*
X124919538Y-64819651D01*
X124939750Y-64812419D01*
X124960574Y-64807203D01*
X124981809Y-64804053D01*
X125003250Y-64803000D01*
X125440750Y-64803000D01*
X125462191Y-64804053D01*
X125462191Y-64804053D01*
G37*
D15*
X125222000Y-65278000D03*
D14*
G36*
X125462191Y-69122053D02*
G01*
X125483426Y-69125203D01*
X125504250Y-69130419D01*
X125524462Y-69137651D01*
X125543868Y-69146830D01*
X125562281Y-69157866D01*
X125579524Y-69170654D01*
X125595430Y-69185070D01*
X125609846Y-69200976D01*
X125622634Y-69218219D01*
X125633670Y-69236632D01*
X125642849Y-69256038D01*
X125650081Y-69276250D01*
X125655297Y-69297074D01*
X125658447Y-69318309D01*
X125659500Y-69339750D01*
X125659500Y-69852250D01*
X125658447Y-69873691D01*
X125655297Y-69894926D01*
X125650081Y-69915750D01*
X125642849Y-69935962D01*
X125633670Y-69955368D01*
X125622634Y-69973781D01*
X125609846Y-69991024D01*
X125595430Y-70006930D01*
X125579524Y-70021346D01*
X125562281Y-70034134D01*
X125543868Y-70045170D01*
X125524462Y-70054349D01*
X125504250Y-70061581D01*
X125483426Y-70066797D01*
X125462191Y-70069947D01*
X125440750Y-70071000D01*
X125003250Y-70071000D01*
X124981809Y-70069947D01*
X124960574Y-70066797D01*
X124939750Y-70061581D01*
X124919538Y-70054349D01*
X124900132Y-70045170D01*
X124881719Y-70034134D01*
X124864476Y-70021346D01*
X124848570Y-70006930D01*
X124834154Y-69991024D01*
X124821366Y-69973781D01*
X124810330Y-69955368D01*
X124801151Y-69935962D01*
X124793919Y-69915750D01*
X124788703Y-69894926D01*
X124785553Y-69873691D01*
X124784500Y-69852250D01*
X124784500Y-69339750D01*
X124785553Y-69318309D01*
X124788703Y-69297074D01*
X124793919Y-69276250D01*
X124801151Y-69256038D01*
X124810330Y-69236632D01*
X124821366Y-69218219D01*
X124834154Y-69200976D01*
X124848570Y-69185070D01*
X124864476Y-69170654D01*
X124881719Y-69157866D01*
X124900132Y-69146830D01*
X124919538Y-69137651D01*
X124939750Y-69130419D01*
X124960574Y-69125203D01*
X124981809Y-69122053D01*
X125003250Y-69121000D01*
X125440750Y-69121000D01*
X125462191Y-69122053D01*
X125462191Y-69122053D01*
G37*
D15*
X125222000Y-69596000D03*
D14*
G36*
X123887191Y-69122053D02*
G01*
X123908426Y-69125203D01*
X123929250Y-69130419D01*
X123949462Y-69137651D01*
X123968868Y-69146830D01*
X123987281Y-69157866D01*
X124004524Y-69170654D01*
X124020430Y-69185070D01*
X124034846Y-69200976D01*
X124047634Y-69218219D01*
X124058670Y-69236632D01*
X124067849Y-69256038D01*
X124075081Y-69276250D01*
X124080297Y-69297074D01*
X124083447Y-69318309D01*
X124084500Y-69339750D01*
X124084500Y-69852250D01*
X124083447Y-69873691D01*
X124080297Y-69894926D01*
X124075081Y-69915750D01*
X124067849Y-69935962D01*
X124058670Y-69955368D01*
X124047634Y-69973781D01*
X124034846Y-69991024D01*
X124020430Y-70006930D01*
X124004524Y-70021346D01*
X123987281Y-70034134D01*
X123968868Y-70045170D01*
X123949462Y-70054349D01*
X123929250Y-70061581D01*
X123908426Y-70066797D01*
X123887191Y-70069947D01*
X123865750Y-70071000D01*
X123428250Y-70071000D01*
X123406809Y-70069947D01*
X123385574Y-70066797D01*
X123364750Y-70061581D01*
X123344538Y-70054349D01*
X123325132Y-70045170D01*
X123306719Y-70034134D01*
X123289476Y-70021346D01*
X123273570Y-70006930D01*
X123259154Y-69991024D01*
X123246366Y-69973781D01*
X123235330Y-69955368D01*
X123226151Y-69935962D01*
X123218919Y-69915750D01*
X123213703Y-69894926D01*
X123210553Y-69873691D01*
X123209500Y-69852250D01*
X123209500Y-69339750D01*
X123210553Y-69318309D01*
X123213703Y-69297074D01*
X123218919Y-69276250D01*
X123226151Y-69256038D01*
X123235330Y-69236632D01*
X123246366Y-69218219D01*
X123259154Y-69200976D01*
X123273570Y-69185070D01*
X123289476Y-69170654D01*
X123306719Y-69157866D01*
X123325132Y-69146830D01*
X123344538Y-69137651D01*
X123364750Y-69130419D01*
X123385574Y-69125203D01*
X123406809Y-69122053D01*
X123428250Y-69121000D01*
X123865750Y-69121000D01*
X123887191Y-69122053D01*
X123887191Y-69122053D01*
G37*
D15*
X123647000Y-69596000D03*
D14*
G36*
X108672691Y-109254053D02*
G01*
X108693926Y-109257203D01*
X108714750Y-109262419D01*
X108734962Y-109269651D01*
X108754368Y-109278830D01*
X108772781Y-109289866D01*
X108790024Y-109302654D01*
X108805930Y-109317070D01*
X108820346Y-109332976D01*
X108833134Y-109350219D01*
X108844170Y-109368632D01*
X108853349Y-109388038D01*
X108860581Y-109408250D01*
X108865797Y-109429074D01*
X108868947Y-109450309D01*
X108870000Y-109471750D01*
X108870000Y-109984250D01*
X108868947Y-110005691D01*
X108865797Y-110026926D01*
X108860581Y-110047750D01*
X108853349Y-110067962D01*
X108844170Y-110087368D01*
X108833134Y-110105781D01*
X108820346Y-110123024D01*
X108805930Y-110138930D01*
X108790024Y-110153346D01*
X108772781Y-110166134D01*
X108754368Y-110177170D01*
X108734962Y-110186349D01*
X108714750Y-110193581D01*
X108693926Y-110198797D01*
X108672691Y-110201947D01*
X108651250Y-110203000D01*
X108213750Y-110203000D01*
X108192309Y-110201947D01*
X108171074Y-110198797D01*
X108150250Y-110193581D01*
X108130038Y-110186349D01*
X108110632Y-110177170D01*
X108092219Y-110166134D01*
X108074976Y-110153346D01*
X108059070Y-110138930D01*
X108044654Y-110123024D01*
X108031866Y-110105781D01*
X108020830Y-110087368D01*
X108011651Y-110067962D01*
X108004419Y-110047750D01*
X107999203Y-110026926D01*
X107996053Y-110005691D01*
X107995000Y-109984250D01*
X107995000Y-109471750D01*
X107996053Y-109450309D01*
X107999203Y-109429074D01*
X108004419Y-109408250D01*
X108011651Y-109388038D01*
X108020830Y-109368632D01*
X108031866Y-109350219D01*
X108044654Y-109332976D01*
X108059070Y-109317070D01*
X108074976Y-109302654D01*
X108092219Y-109289866D01*
X108110632Y-109278830D01*
X108130038Y-109269651D01*
X108150250Y-109262419D01*
X108171074Y-109257203D01*
X108192309Y-109254053D01*
X108213750Y-109253000D01*
X108651250Y-109253000D01*
X108672691Y-109254053D01*
X108672691Y-109254053D01*
G37*
D15*
X108432500Y-109728000D03*
D14*
G36*
X110247691Y-109254053D02*
G01*
X110268926Y-109257203D01*
X110289750Y-109262419D01*
X110309962Y-109269651D01*
X110329368Y-109278830D01*
X110347781Y-109289866D01*
X110365024Y-109302654D01*
X110380930Y-109317070D01*
X110395346Y-109332976D01*
X110408134Y-109350219D01*
X110419170Y-109368632D01*
X110428349Y-109388038D01*
X110435581Y-109408250D01*
X110440797Y-109429074D01*
X110443947Y-109450309D01*
X110445000Y-109471750D01*
X110445000Y-109984250D01*
X110443947Y-110005691D01*
X110440797Y-110026926D01*
X110435581Y-110047750D01*
X110428349Y-110067962D01*
X110419170Y-110087368D01*
X110408134Y-110105781D01*
X110395346Y-110123024D01*
X110380930Y-110138930D01*
X110365024Y-110153346D01*
X110347781Y-110166134D01*
X110329368Y-110177170D01*
X110309962Y-110186349D01*
X110289750Y-110193581D01*
X110268926Y-110198797D01*
X110247691Y-110201947D01*
X110226250Y-110203000D01*
X109788750Y-110203000D01*
X109767309Y-110201947D01*
X109746074Y-110198797D01*
X109725250Y-110193581D01*
X109705038Y-110186349D01*
X109685632Y-110177170D01*
X109667219Y-110166134D01*
X109649976Y-110153346D01*
X109634070Y-110138930D01*
X109619654Y-110123024D01*
X109606866Y-110105781D01*
X109595830Y-110087368D01*
X109586651Y-110067962D01*
X109579419Y-110047750D01*
X109574203Y-110026926D01*
X109571053Y-110005691D01*
X109570000Y-109984250D01*
X109570000Y-109471750D01*
X109571053Y-109450309D01*
X109574203Y-109429074D01*
X109579419Y-109408250D01*
X109586651Y-109388038D01*
X109595830Y-109368632D01*
X109606866Y-109350219D01*
X109619654Y-109332976D01*
X109634070Y-109317070D01*
X109649976Y-109302654D01*
X109667219Y-109289866D01*
X109685632Y-109278830D01*
X109705038Y-109269651D01*
X109725250Y-109262419D01*
X109746074Y-109257203D01*
X109767309Y-109254053D01*
X109788750Y-109253000D01*
X110226250Y-109253000D01*
X110247691Y-109254053D01*
X110247691Y-109254053D01*
G37*
D15*
X110007500Y-109728000D03*
D14*
G36*
X119366191Y-109254053D02*
G01*
X119387426Y-109257203D01*
X119408250Y-109262419D01*
X119428462Y-109269651D01*
X119447868Y-109278830D01*
X119466281Y-109289866D01*
X119483524Y-109302654D01*
X119499430Y-109317070D01*
X119513846Y-109332976D01*
X119526634Y-109350219D01*
X119537670Y-109368632D01*
X119546849Y-109388038D01*
X119554081Y-109408250D01*
X119559297Y-109429074D01*
X119562447Y-109450309D01*
X119563500Y-109471750D01*
X119563500Y-109984250D01*
X119562447Y-110005691D01*
X119559297Y-110026926D01*
X119554081Y-110047750D01*
X119546849Y-110067962D01*
X119537670Y-110087368D01*
X119526634Y-110105781D01*
X119513846Y-110123024D01*
X119499430Y-110138930D01*
X119483524Y-110153346D01*
X119466281Y-110166134D01*
X119447868Y-110177170D01*
X119428462Y-110186349D01*
X119408250Y-110193581D01*
X119387426Y-110198797D01*
X119366191Y-110201947D01*
X119344750Y-110203000D01*
X118907250Y-110203000D01*
X118885809Y-110201947D01*
X118864574Y-110198797D01*
X118843750Y-110193581D01*
X118823538Y-110186349D01*
X118804132Y-110177170D01*
X118785719Y-110166134D01*
X118768476Y-110153346D01*
X118752570Y-110138930D01*
X118738154Y-110123024D01*
X118725366Y-110105781D01*
X118714330Y-110087368D01*
X118705151Y-110067962D01*
X118697919Y-110047750D01*
X118692703Y-110026926D01*
X118689553Y-110005691D01*
X118688500Y-109984250D01*
X118688500Y-109471750D01*
X118689553Y-109450309D01*
X118692703Y-109429074D01*
X118697919Y-109408250D01*
X118705151Y-109388038D01*
X118714330Y-109368632D01*
X118725366Y-109350219D01*
X118738154Y-109332976D01*
X118752570Y-109317070D01*
X118768476Y-109302654D01*
X118785719Y-109289866D01*
X118804132Y-109278830D01*
X118823538Y-109269651D01*
X118843750Y-109262419D01*
X118864574Y-109257203D01*
X118885809Y-109254053D01*
X118907250Y-109253000D01*
X119344750Y-109253000D01*
X119366191Y-109254053D01*
X119366191Y-109254053D01*
G37*
D15*
X119126000Y-109728000D03*
D14*
G36*
X120941191Y-109254053D02*
G01*
X120962426Y-109257203D01*
X120983250Y-109262419D01*
X121003462Y-109269651D01*
X121022868Y-109278830D01*
X121041281Y-109289866D01*
X121058524Y-109302654D01*
X121074430Y-109317070D01*
X121088846Y-109332976D01*
X121101634Y-109350219D01*
X121112670Y-109368632D01*
X121121849Y-109388038D01*
X121129081Y-109408250D01*
X121134297Y-109429074D01*
X121137447Y-109450309D01*
X121138500Y-109471750D01*
X121138500Y-109984250D01*
X121137447Y-110005691D01*
X121134297Y-110026926D01*
X121129081Y-110047750D01*
X121121849Y-110067962D01*
X121112670Y-110087368D01*
X121101634Y-110105781D01*
X121088846Y-110123024D01*
X121074430Y-110138930D01*
X121058524Y-110153346D01*
X121041281Y-110166134D01*
X121022868Y-110177170D01*
X121003462Y-110186349D01*
X120983250Y-110193581D01*
X120962426Y-110198797D01*
X120941191Y-110201947D01*
X120919750Y-110203000D01*
X120482250Y-110203000D01*
X120460809Y-110201947D01*
X120439574Y-110198797D01*
X120418750Y-110193581D01*
X120398538Y-110186349D01*
X120379132Y-110177170D01*
X120360719Y-110166134D01*
X120343476Y-110153346D01*
X120327570Y-110138930D01*
X120313154Y-110123024D01*
X120300366Y-110105781D01*
X120289330Y-110087368D01*
X120280151Y-110067962D01*
X120272919Y-110047750D01*
X120267703Y-110026926D01*
X120264553Y-110005691D01*
X120263500Y-109984250D01*
X120263500Y-109471750D01*
X120264553Y-109450309D01*
X120267703Y-109429074D01*
X120272919Y-109408250D01*
X120280151Y-109388038D01*
X120289330Y-109368632D01*
X120300366Y-109350219D01*
X120313154Y-109332976D01*
X120327570Y-109317070D01*
X120343476Y-109302654D01*
X120360719Y-109289866D01*
X120379132Y-109278830D01*
X120398538Y-109269651D01*
X120418750Y-109262419D01*
X120439574Y-109257203D01*
X120460809Y-109254053D01*
X120482250Y-109253000D01*
X120919750Y-109253000D01*
X120941191Y-109254053D01*
X120941191Y-109254053D01*
G37*
D15*
X120701000Y-109728000D03*
D14*
G36*
X130516691Y-109254053D02*
G01*
X130537926Y-109257203D01*
X130558750Y-109262419D01*
X130578962Y-109269651D01*
X130598368Y-109278830D01*
X130616781Y-109289866D01*
X130634024Y-109302654D01*
X130649930Y-109317070D01*
X130664346Y-109332976D01*
X130677134Y-109350219D01*
X130688170Y-109368632D01*
X130697349Y-109388038D01*
X130704581Y-109408250D01*
X130709797Y-109429074D01*
X130712947Y-109450309D01*
X130714000Y-109471750D01*
X130714000Y-109984250D01*
X130712947Y-110005691D01*
X130709797Y-110026926D01*
X130704581Y-110047750D01*
X130697349Y-110067962D01*
X130688170Y-110087368D01*
X130677134Y-110105781D01*
X130664346Y-110123024D01*
X130649930Y-110138930D01*
X130634024Y-110153346D01*
X130616781Y-110166134D01*
X130598368Y-110177170D01*
X130578962Y-110186349D01*
X130558750Y-110193581D01*
X130537926Y-110198797D01*
X130516691Y-110201947D01*
X130495250Y-110203000D01*
X130057750Y-110203000D01*
X130036309Y-110201947D01*
X130015074Y-110198797D01*
X129994250Y-110193581D01*
X129974038Y-110186349D01*
X129954632Y-110177170D01*
X129936219Y-110166134D01*
X129918976Y-110153346D01*
X129903070Y-110138930D01*
X129888654Y-110123024D01*
X129875866Y-110105781D01*
X129864830Y-110087368D01*
X129855651Y-110067962D01*
X129848419Y-110047750D01*
X129843203Y-110026926D01*
X129840053Y-110005691D01*
X129839000Y-109984250D01*
X129839000Y-109471750D01*
X129840053Y-109450309D01*
X129843203Y-109429074D01*
X129848419Y-109408250D01*
X129855651Y-109388038D01*
X129864830Y-109368632D01*
X129875866Y-109350219D01*
X129888654Y-109332976D01*
X129903070Y-109317070D01*
X129918976Y-109302654D01*
X129936219Y-109289866D01*
X129954632Y-109278830D01*
X129974038Y-109269651D01*
X129994250Y-109262419D01*
X130015074Y-109257203D01*
X130036309Y-109254053D01*
X130057750Y-109253000D01*
X130495250Y-109253000D01*
X130516691Y-109254053D01*
X130516691Y-109254053D01*
G37*
D15*
X130276500Y-109728000D03*
D14*
G36*
X132091691Y-109254053D02*
G01*
X132112926Y-109257203D01*
X132133750Y-109262419D01*
X132153962Y-109269651D01*
X132173368Y-109278830D01*
X132191781Y-109289866D01*
X132209024Y-109302654D01*
X132224930Y-109317070D01*
X132239346Y-109332976D01*
X132252134Y-109350219D01*
X132263170Y-109368632D01*
X132272349Y-109388038D01*
X132279581Y-109408250D01*
X132284797Y-109429074D01*
X132287947Y-109450309D01*
X132289000Y-109471750D01*
X132289000Y-109984250D01*
X132287947Y-110005691D01*
X132284797Y-110026926D01*
X132279581Y-110047750D01*
X132272349Y-110067962D01*
X132263170Y-110087368D01*
X132252134Y-110105781D01*
X132239346Y-110123024D01*
X132224930Y-110138930D01*
X132209024Y-110153346D01*
X132191781Y-110166134D01*
X132173368Y-110177170D01*
X132153962Y-110186349D01*
X132133750Y-110193581D01*
X132112926Y-110198797D01*
X132091691Y-110201947D01*
X132070250Y-110203000D01*
X131632750Y-110203000D01*
X131611309Y-110201947D01*
X131590074Y-110198797D01*
X131569250Y-110193581D01*
X131549038Y-110186349D01*
X131529632Y-110177170D01*
X131511219Y-110166134D01*
X131493976Y-110153346D01*
X131478070Y-110138930D01*
X131463654Y-110123024D01*
X131450866Y-110105781D01*
X131439830Y-110087368D01*
X131430651Y-110067962D01*
X131423419Y-110047750D01*
X131418203Y-110026926D01*
X131415053Y-110005691D01*
X131414000Y-109984250D01*
X131414000Y-109471750D01*
X131415053Y-109450309D01*
X131418203Y-109429074D01*
X131423419Y-109408250D01*
X131430651Y-109388038D01*
X131439830Y-109368632D01*
X131450866Y-109350219D01*
X131463654Y-109332976D01*
X131478070Y-109317070D01*
X131493976Y-109302654D01*
X131511219Y-109289866D01*
X131529632Y-109278830D01*
X131549038Y-109269651D01*
X131569250Y-109262419D01*
X131590074Y-109257203D01*
X131611309Y-109254053D01*
X131632750Y-109253000D01*
X132070250Y-109253000D01*
X132091691Y-109254053D01*
X132091691Y-109254053D01*
G37*
D15*
X131851500Y-109728000D03*
D14*
G36*
X108672691Y-106460053D02*
G01*
X108693926Y-106463203D01*
X108714750Y-106468419D01*
X108734962Y-106475651D01*
X108754368Y-106484830D01*
X108772781Y-106495866D01*
X108790024Y-106508654D01*
X108805930Y-106523070D01*
X108820346Y-106538976D01*
X108833134Y-106556219D01*
X108844170Y-106574632D01*
X108853349Y-106594038D01*
X108860581Y-106614250D01*
X108865797Y-106635074D01*
X108868947Y-106656309D01*
X108870000Y-106677750D01*
X108870000Y-107190250D01*
X108868947Y-107211691D01*
X108865797Y-107232926D01*
X108860581Y-107253750D01*
X108853349Y-107273962D01*
X108844170Y-107293368D01*
X108833134Y-107311781D01*
X108820346Y-107329024D01*
X108805930Y-107344930D01*
X108790024Y-107359346D01*
X108772781Y-107372134D01*
X108754368Y-107383170D01*
X108734962Y-107392349D01*
X108714750Y-107399581D01*
X108693926Y-107404797D01*
X108672691Y-107407947D01*
X108651250Y-107409000D01*
X108213750Y-107409000D01*
X108192309Y-107407947D01*
X108171074Y-107404797D01*
X108150250Y-107399581D01*
X108130038Y-107392349D01*
X108110632Y-107383170D01*
X108092219Y-107372134D01*
X108074976Y-107359346D01*
X108059070Y-107344930D01*
X108044654Y-107329024D01*
X108031866Y-107311781D01*
X108020830Y-107293368D01*
X108011651Y-107273962D01*
X108004419Y-107253750D01*
X107999203Y-107232926D01*
X107996053Y-107211691D01*
X107995000Y-107190250D01*
X107995000Y-106677750D01*
X107996053Y-106656309D01*
X107999203Y-106635074D01*
X108004419Y-106614250D01*
X108011651Y-106594038D01*
X108020830Y-106574632D01*
X108031866Y-106556219D01*
X108044654Y-106538976D01*
X108059070Y-106523070D01*
X108074976Y-106508654D01*
X108092219Y-106495866D01*
X108110632Y-106484830D01*
X108130038Y-106475651D01*
X108150250Y-106468419D01*
X108171074Y-106463203D01*
X108192309Y-106460053D01*
X108213750Y-106459000D01*
X108651250Y-106459000D01*
X108672691Y-106460053D01*
X108672691Y-106460053D01*
G37*
D15*
X108432500Y-106934000D03*
D14*
G36*
X110247691Y-106460053D02*
G01*
X110268926Y-106463203D01*
X110289750Y-106468419D01*
X110309962Y-106475651D01*
X110329368Y-106484830D01*
X110347781Y-106495866D01*
X110365024Y-106508654D01*
X110380930Y-106523070D01*
X110395346Y-106538976D01*
X110408134Y-106556219D01*
X110419170Y-106574632D01*
X110428349Y-106594038D01*
X110435581Y-106614250D01*
X110440797Y-106635074D01*
X110443947Y-106656309D01*
X110445000Y-106677750D01*
X110445000Y-107190250D01*
X110443947Y-107211691D01*
X110440797Y-107232926D01*
X110435581Y-107253750D01*
X110428349Y-107273962D01*
X110419170Y-107293368D01*
X110408134Y-107311781D01*
X110395346Y-107329024D01*
X110380930Y-107344930D01*
X110365024Y-107359346D01*
X110347781Y-107372134D01*
X110329368Y-107383170D01*
X110309962Y-107392349D01*
X110289750Y-107399581D01*
X110268926Y-107404797D01*
X110247691Y-107407947D01*
X110226250Y-107409000D01*
X109788750Y-107409000D01*
X109767309Y-107407947D01*
X109746074Y-107404797D01*
X109725250Y-107399581D01*
X109705038Y-107392349D01*
X109685632Y-107383170D01*
X109667219Y-107372134D01*
X109649976Y-107359346D01*
X109634070Y-107344930D01*
X109619654Y-107329024D01*
X109606866Y-107311781D01*
X109595830Y-107293368D01*
X109586651Y-107273962D01*
X109579419Y-107253750D01*
X109574203Y-107232926D01*
X109571053Y-107211691D01*
X109570000Y-107190250D01*
X109570000Y-106677750D01*
X109571053Y-106656309D01*
X109574203Y-106635074D01*
X109579419Y-106614250D01*
X109586651Y-106594038D01*
X109595830Y-106574632D01*
X109606866Y-106556219D01*
X109619654Y-106538976D01*
X109634070Y-106523070D01*
X109649976Y-106508654D01*
X109667219Y-106495866D01*
X109685632Y-106484830D01*
X109705038Y-106475651D01*
X109725250Y-106468419D01*
X109746074Y-106463203D01*
X109767309Y-106460053D01*
X109788750Y-106459000D01*
X110226250Y-106459000D01*
X110247691Y-106460053D01*
X110247691Y-106460053D01*
G37*
D15*
X110007500Y-106934000D03*
D14*
G36*
X119366191Y-106460053D02*
G01*
X119387426Y-106463203D01*
X119408250Y-106468419D01*
X119428462Y-106475651D01*
X119447868Y-106484830D01*
X119466281Y-106495866D01*
X119483524Y-106508654D01*
X119499430Y-106523070D01*
X119513846Y-106538976D01*
X119526634Y-106556219D01*
X119537670Y-106574632D01*
X119546849Y-106594038D01*
X119554081Y-106614250D01*
X119559297Y-106635074D01*
X119562447Y-106656309D01*
X119563500Y-106677750D01*
X119563500Y-107190250D01*
X119562447Y-107211691D01*
X119559297Y-107232926D01*
X119554081Y-107253750D01*
X119546849Y-107273962D01*
X119537670Y-107293368D01*
X119526634Y-107311781D01*
X119513846Y-107329024D01*
X119499430Y-107344930D01*
X119483524Y-107359346D01*
X119466281Y-107372134D01*
X119447868Y-107383170D01*
X119428462Y-107392349D01*
X119408250Y-107399581D01*
X119387426Y-107404797D01*
X119366191Y-107407947D01*
X119344750Y-107409000D01*
X118907250Y-107409000D01*
X118885809Y-107407947D01*
X118864574Y-107404797D01*
X118843750Y-107399581D01*
X118823538Y-107392349D01*
X118804132Y-107383170D01*
X118785719Y-107372134D01*
X118768476Y-107359346D01*
X118752570Y-107344930D01*
X118738154Y-107329024D01*
X118725366Y-107311781D01*
X118714330Y-107293368D01*
X118705151Y-107273962D01*
X118697919Y-107253750D01*
X118692703Y-107232926D01*
X118689553Y-107211691D01*
X118688500Y-107190250D01*
X118688500Y-106677750D01*
X118689553Y-106656309D01*
X118692703Y-106635074D01*
X118697919Y-106614250D01*
X118705151Y-106594038D01*
X118714330Y-106574632D01*
X118725366Y-106556219D01*
X118738154Y-106538976D01*
X118752570Y-106523070D01*
X118768476Y-106508654D01*
X118785719Y-106495866D01*
X118804132Y-106484830D01*
X118823538Y-106475651D01*
X118843750Y-106468419D01*
X118864574Y-106463203D01*
X118885809Y-106460053D01*
X118907250Y-106459000D01*
X119344750Y-106459000D01*
X119366191Y-106460053D01*
X119366191Y-106460053D01*
G37*
D15*
X119126000Y-106934000D03*
D14*
G36*
X120941191Y-106460053D02*
G01*
X120962426Y-106463203D01*
X120983250Y-106468419D01*
X121003462Y-106475651D01*
X121022868Y-106484830D01*
X121041281Y-106495866D01*
X121058524Y-106508654D01*
X121074430Y-106523070D01*
X121088846Y-106538976D01*
X121101634Y-106556219D01*
X121112670Y-106574632D01*
X121121849Y-106594038D01*
X121129081Y-106614250D01*
X121134297Y-106635074D01*
X121137447Y-106656309D01*
X121138500Y-106677750D01*
X121138500Y-107190250D01*
X121137447Y-107211691D01*
X121134297Y-107232926D01*
X121129081Y-107253750D01*
X121121849Y-107273962D01*
X121112670Y-107293368D01*
X121101634Y-107311781D01*
X121088846Y-107329024D01*
X121074430Y-107344930D01*
X121058524Y-107359346D01*
X121041281Y-107372134D01*
X121022868Y-107383170D01*
X121003462Y-107392349D01*
X120983250Y-107399581D01*
X120962426Y-107404797D01*
X120941191Y-107407947D01*
X120919750Y-107409000D01*
X120482250Y-107409000D01*
X120460809Y-107407947D01*
X120439574Y-107404797D01*
X120418750Y-107399581D01*
X120398538Y-107392349D01*
X120379132Y-107383170D01*
X120360719Y-107372134D01*
X120343476Y-107359346D01*
X120327570Y-107344930D01*
X120313154Y-107329024D01*
X120300366Y-107311781D01*
X120289330Y-107293368D01*
X120280151Y-107273962D01*
X120272919Y-107253750D01*
X120267703Y-107232926D01*
X120264553Y-107211691D01*
X120263500Y-107190250D01*
X120263500Y-106677750D01*
X120264553Y-106656309D01*
X120267703Y-106635074D01*
X120272919Y-106614250D01*
X120280151Y-106594038D01*
X120289330Y-106574632D01*
X120300366Y-106556219D01*
X120313154Y-106538976D01*
X120327570Y-106523070D01*
X120343476Y-106508654D01*
X120360719Y-106495866D01*
X120379132Y-106484830D01*
X120398538Y-106475651D01*
X120418750Y-106468419D01*
X120439574Y-106463203D01*
X120460809Y-106460053D01*
X120482250Y-106459000D01*
X120919750Y-106459000D01*
X120941191Y-106460053D01*
X120941191Y-106460053D01*
G37*
D15*
X120701000Y-106934000D03*
D14*
G36*
X130542191Y-106460053D02*
G01*
X130563426Y-106463203D01*
X130584250Y-106468419D01*
X130604462Y-106475651D01*
X130623868Y-106484830D01*
X130642281Y-106495866D01*
X130659524Y-106508654D01*
X130675430Y-106523070D01*
X130689846Y-106538976D01*
X130702634Y-106556219D01*
X130713670Y-106574632D01*
X130722849Y-106594038D01*
X130730081Y-106614250D01*
X130735297Y-106635074D01*
X130738447Y-106656309D01*
X130739500Y-106677750D01*
X130739500Y-107190250D01*
X130738447Y-107211691D01*
X130735297Y-107232926D01*
X130730081Y-107253750D01*
X130722849Y-107273962D01*
X130713670Y-107293368D01*
X130702634Y-107311781D01*
X130689846Y-107329024D01*
X130675430Y-107344930D01*
X130659524Y-107359346D01*
X130642281Y-107372134D01*
X130623868Y-107383170D01*
X130604462Y-107392349D01*
X130584250Y-107399581D01*
X130563426Y-107404797D01*
X130542191Y-107407947D01*
X130520750Y-107409000D01*
X130083250Y-107409000D01*
X130061809Y-107407947D01*
X130040574Y-107404797D01*
X130019750Y-107399581D01*
X129999538Y-107392349D01*
X129980132Y-107383170D01*
X129961719Y-107372134D01*
X129944476Y-107359346D01*
X129928570Y-107344930D01*
X129914154Y-107329024D01*
X129901366Y-107311781D01*
X129890330Y-107293368D01*
X129881151Y-107273962D01*
X129873919Y-107253750D01*
X129868703Y-107232926D01*
X129865553Y-107211691D01*
X129864500Y-107190250D01*
X129864500Y-106677750D01*
X129865553Y-106656309D01*
X129868703Y-106635074D01*
X129873919Y-106614250D01*
X129881151Y-106594038D01*
X129890330Y-106574632D01*
X129901366Y-106556219D01*
X129914154Y-106538976D01*
X129928570Y-106523070D01*
X129944476Y-106508654D01*
X129961719Y-106495866D01*
X129980132Y-106484830D01*
X129999538Y-106475651D01*
X130019750Y-106468419D01*
X130040574Y-106463203D01*
X130061809Y-106460053D01*
X130083250Y-106459000D01*
X130520750Y-106459000D01*
X130542191Y-106460053D01*
X130542191Y-106460053D01*
G37*
D15*
X130302000Y-106934000D03*
D14*
G36*
X132117191Y-106460053D02*
G01*
X132138426Y-106463203D01*
X132159250Y-106468419D01*
X132179462Y-106475651D01*
X132198868Y-106484830D01*
X132217281Y-106495866D01*
X132234524Y-106508654D01*
X132250430Y-106523070D01*
X132264846Y-106538976D01*
X132277634Y-106556219D01*
X132288670Y-106574632D01*
X132297849Y-106594038D01*
X132305081Y-106614250D01*
X132310297Y-106635074D01*
X132313447Y-106656309D01*
X132314500Y-106677750D01*
X132314500Y-107190250D01*
X132313447Y-107211691D01*
X132310297Y-107232926D01*
X132305081Y-107253750D01*
X132297849Y-107273962D01*
X132288670Y-107293368D01*
X132277634Y-107311781D01*
X132264846Y-107329024D01*
X132250430Y-107344930D01*
X132234524Y-107359346D01*
X132217281Y-107372134D01*
X132198868Y-107383170D01*
X132179462Y-107392349D01*
X132159250Y-107399581D01*
X132138426Y-107404797D01*
X132117191Y-107407947D01*
X132095750Y-107409000D01*
X131658250Y-107409000D01*
X131636809Y-107407947D01*
X131615574Y-107404797D01*
X131594750Y-107399581D01*
X131574538Y-107392349D01*
X131555132Y-107383170D01*
X131536719Y-107372134D01*
X131519476Y-107359346D01*
X131503570Y-107344930D01*
X131489154Y-107329024D01*
X131476366Y-107311781D01*
X131465330Y-107293368D01*
X131456151Y-107273962D01*
X131448919Y-107253750D01*
X131443703Y-107232926D01*
X131440553Y-107211691D01*
X131439500Y-107190250D01*
X131439500Y-106677750D01*
X131440553Y-106656309D01*
X131443703Y-106635074D01*
X131448919Y-106614250D01*
X131456151Y-106594038D01*
X131465330Y-106574632D01*
X131476366Y-106556219D01*
X131489154Y-106538976D01*
X131503570Y-106523070D01*
X131519476Y-106508654D01*
X131536719Y-106495866D01*
X131555132Y-106484830D01*
X131574538Y-106475651D01*
X131594750Y-106468419D01*
X131615574Y-106463203D01*
X131636809Y-106460053D01*
X131658250Y-106459000D01*
X132095750Y-106459000D01*
X132117191Y-106460053D01*
X132117191Y-106460053D01*
G37*
D15*
X131877000Y-106934000D03*
D14*
G36*
X167917691Y-137968053D02*
G01*
X167938926Y-137971203D01*
X167959750Y-137976419D01*
X167979962Y-137983651D01*
X167999368Y-137992830D01*
X168017781Y-138003866D01*
X168035024Y-138016654D01*
X168050930Y-138031070D01*
X168065346Y-138046976D01*
X168078134Y-138064219D01*
X168089170Y-138082632D01*
X168098349Y-138102038D01*
X168105581Y-138122250D01*
X168110797Y-138143074D01*
X168113947Y-138164309D01*
X168115000Y-138185750D01*
X168115000Y-138623250D01*
X168113947Y-138644691D01*
X168110797Y-138665926D01*
X168105581Y-138686750D01*
X168098349Y-138706962D01*
X168089170Y-138726368D01*
X168078134Y-138744781D01*
X168065346Y-138762024D01*
X168050930Y-138777930D01*
X168035024Y-138792346D01*
X168017781Y-138805134D01*
X167999368Y-138816170D01*
X167979962Y-138825349D01*
X167959750Y-138832581D01*
X167938926Y-138837797D01*
X167917691Y-138840947D01*
X167896250Y-138842000D01*
X167383750Y-138842000D01*
X167362309Y-138840947D01*
X167341074Y-138837797D01*
X167320250Y-138832581D01*
X167300038Y-138825349D01*
X167280632Y-138816170D01*
X167262219Y-138805134D01*
X167244976Y-138792346D01*
X167229070Y-138777930D01*
X167214654Y-138762024D01*
X167201866Y-138744781D01*
X167190830Y-138726368D01*
X167181651Y-138706962D01*
X167174419Y-138686750D01*
X167169203Y-138665926D01*
X167166053Y-138644691D01*
X167165000Y-138623250D01*
X167165000Y-138185750D01*
X167166053Y-138164309D01*
X167169203Y-138143074D01*
X167174419Y-138122250D01*
X167181651Y-138102038D01*
X167190830Y-138082632D01*
X167201866Y-138064219D01*
X167214654Y-138046976D01*
X167229070Y-138031070D01*
X167244976Y-138016654D01*
X167262219Y-138003866D01*
X167280632Y-137992830D01*
X167300038Y-137983651D01*
X167320250Y-137976419D01*
X167341074Y-137971203D01*
X167362309Y-137968053D01*
X167383750Y-137967000D01*
X167896250Y-137967000D01*
X167917691Y-137968053D01*
X167917691Y-137968053D01*
G37*
D15*
X167640000Y-138404500D03*
D14*
G36*
X167917691Y-139543053D02*
G01*
X167938926Y-139546203D01*
X167959750Y-139551419D01*
X167979962Y-139558651D01*
X167999368Y-139567830D01*
X168017781Y-139578866D01*
X168035024Y-139591654D01*
X168050930Y-139606070D01*
X168065346Y-139621976D01*
X168078134Y-139639219D01*
X168089170Y-139657632D01*
X168098349Y-139677038D01*
X168105581Y-139697250D01*
X168110797Y-139718074D01*
X168113947Y-139739309D01*
X168115000Y-139760750D01*
X168115000Y-140198250D01*
X168113947Y-140219691D01*
X168110797Y-140240926D01*
X168105581Y-140261750D01*
X168098349Y-140281962D01*
X168089170Y-140301368D01*
X168078134Y-140319781D01*
X168065346Y-140337024D01*
X168050930Y-140352930D01*
X168035024Y-140367346D01*
X168017781Y-140380134D01*
X167999368Y-140391170D01*
X167979962Y-140400349D01*
X167959750Y-140407581D01*
X167938926Y-140412797D01*
X167917691Y-140415947D01*
X167896250Y-140417000D01*
X167383750Y-140417000D01*
X167362309Y-140415947D01*
X167341074Y-140412797D01*
X167320250Y-140407581D01*
X167300038Y-140400349D01*
X167280632Y-140391170D01*
X167262219Y-140380134D01*
X167244976Y-140367346D01*
X167229070Y-140352930D01*
X167214654Y-140337024D01*
X167201866Y-140319781D01*
X167190830Y-140301368D01*
X167181651Y-140281962D01*
X167174419Y-140261750D01*
X167169203Y-140240926D01*
X167166053Y-140219691D01*
X167165000Y-140198250D01*
X167165000Y-139760750D01*
X167166053Y-139739309D01*
X167169203Y-139718074D01*
X167174419Y-139697250D01*
X167181651Y-139677038D01*
X167190830Y-139657632D01*
X167201866Y-139639219D01*
X167214654Y-139621976D01*
X167229070Y-139606070D01*
X167244976Y-139591654D01*
X167262219Y-139578866D01*
X167280632Y-139567830D01*
X167300038Y-139558651D01*
X167320250Y-139551419D01*
X167341074Y-139546203D01*
X167362309Y-139543053D01*
X167383750Y-139542000D01*
X167896250Y-139542000D01*
X167917691Y-139543053D01*
X167917691Y-139543053D01*
G37*
D15*
X167640000Y-139979500D03*
D14*
G36*
X158291191Y-129586053D02*
G01*
X158312426Y-129589203D01*
X158333250Y-129594419D01*
X158353462Y-129601651D01*
X158372868Y-129610830D01*
X158391281Y-129621866D01*
X158408524Y-129634654D01*
X158424430Y-129649070D01*
X158438846Y-129664976D01*
X158451634Y-129682219D01*
X158462670Y-129700632D01*
X158471849Y-129720038D01*
X158479081Y-129740250D01*
X158484297Y-129761074D01*
X158487447Y-129782309D01*
X158488500Y-129803750D01*
X158488500Y-130241250D01*
X158487447Y-130262691D01*
X158484297Y-130283926D01*
X158479081Y-130304750D01*
X158471849Y-130324962D01*
X158462670Y-130344368D01*
X158451634Y-130362781D01*
X158438846Y-130380024D01*
X158424430Y-130395930D01*
X158408524Y-130410346D01*
X158391281Y-130423134D01*
X158372868Y-130434170D01*
X158353462Y-130443349D01*
X158333250Y-130450581D01*
X158312426Y-130455797D01*
X158291191Y-130458947D01*
X158269750Y-130460000D01*
X157757250Y-130460000D01*
X157735809Y-130458947D01*
X157714574Y-130455797D01*
X157693750Y-130450581D01*
X157673538Y-130443349D01*
X157654132Y-130434170D01*
X157635719Y-130423134D01*
X157618476Y-130410346D01*
X157602570Y-130395930D01*
X157588154Y-130380024D01*
X157575366Y-130362781D01*
X157564330Y-130344368D01*
X157555151Y-130324962D01*
X157547919Y-130304750D01*
X157542703Y-130283926D01*
X157539553Y-130262691D01*
X157538500Y-130241250D01*
X157538500Y-129803750D01*
X157539553Y-129782309D01*
X157542703Y-129761074D01*
X157547919Y-129740250D01*
X157555151Y-129720038D01*
X157564330Y-129700632D01*
X157575366Y-129682219D01*
X157588154Y-129664976D01*
X157602570Y-129649070D01*
X157618476Y-129634654D01*
X157635719Y-129621866D01*
X157654132Y-129610830D01*
X157673538Y-129601651D01*
X157693750Y-129594419D01*
X157714574Y-129589203D01*
X157735809Y-129586053D01*
X157757250Y-129585000D01*
X158269750Y-129585000D01*
X158291191Y-129586053D01*
X158291191Y-129586053D01*
G37*
D15*
X158013500Y-130022500D03*
D14*
G36*
X158291191Y-131161053D02*
G01*
X158312426Y-131164203D01*
X158333250Y-131169419D01*
X158353462Y-131176651D01*
X158372868Y-131185830D01*
X158391281Y-131196866D01*
X158408524Y-131209654D01*
X158424430Y-131224070D01*
X158438846Y-131239976D01*
X158451634Y-131257219D01*
X158462670Y-131275632D01*
X158471849Y-131295038D01*
X158479081Y-131315250D01*
X158484297Y-131336074D01*
X158487447Y-131357309D01*
X158488500Y-131378750D01*
X158488500Y-131816250D01*
X158487447Y-131837691D01*
X158484297Y-131858926D01*
X158479081Y-131879750D01*
X158471849Y-131899962D01*
X158462670Y-131919368D01*
X158451634Y-131937781D01*
X158438846Y-131955024D01*
X158424430Y-131970930D01*
X158408524Y-131985346D01*
X158391281Y-131998134D01*
X158372868Y-132009170D01*
X158353462Y-132018349D01*
X158333250Y-132025581D01*
X158312426Y-132030797D01*
X158291191Y-132033947D01*
X158269750Y-132035000D01*
X157757250Y-132035000D01*
X157735809Y-132033947D01*
X157714574Y-132030797D01*
X157693750Y-132025581D01*
X157673538Y-132018349D01*
X157654132Y-132009170D01*
X157635719Y-131998134D01*
X157618476Y-131985346D01*
X157602570Y-131970930D01*
X157588154Y-131955024D01*
X157575366Y-131937781D01*
X157564330Y-131919368D01*
X157555151Y-131899962D01*
X157547919Y-131879750D01*
X157542703Y-131858926D01*
X157539553Y-131837691D01*
X157538500Y-131816250D01*
X157538500Y-131378750D01*
X157539553Y-131357309D01*
X157542703Y-131336074D01*
X157547919Y-131315250D01*
X157555151Y-131295038D01*
X157564330Y-131275632D01*
X157575366Y-131257219D01*
X157588154Y-131239976D01*
X157602570Y-131224070D01*
X157618476Y-131209654D01*
X157635719Y-131196866D01*
X157654132Y-131185830D01*
X157673538Y-131176651D01*
X157693750Y-131169419D01*
X157714574Y-131164203D01*
X157735809Y-131161053D01*
X157757250Y-131160000D01*
X158269750Y-131160000D01*
X158291191Y-131161053D01*
X158291191Y-131161053D01*
G37*
D15*
X158013500Y-131597500D03*
D14*
G36*
X154709691Y-137968053D02*
G01*
X154730926Y-137971203D01*
X154751750Y-137976419D01*
X154771962Y-137983651D01*
X154791368Y-137992830D01*
X154809781Y-138003866D01*
X154827024Y-138016654D01*
X154842930Y-138031070D01*
X154857346Y-138046976D01*
X154870134Y-138064219D01*
X154881170Y-138082632D01*
X154890349Y-138102038D01*
X154897581Y-138122250D01*
X154902797Y-138143074D01*
X154905947Y-138164309D01*
X154907000Y-138185750D01*
X154907000Y-138623250D01*
X154905947Y-138644691D01*
X154902797Y-138665926D01*
X154897581Y-138686750D01*
X154890349Y-138706962D01*
X154881170Y-138726368D01*
X154870134Y-138744781D01*
X154857346Y-138762024D01*
X154842930Y-138777930D01*
X154827024Y-138792346D01*
X154809781Y-138805134D01*
X154791368Y-138816170D01*
X154771962Y-138825349D01*
X154751750Y-138832581D01*
X154730926Y-138837797D01*
X154709691Y-138840947D01*
X154688250Y-138842000D01*
X154175750Y-138842000D01*
X154154309Y-138840947D01*
X154133074Y-138837797D01*
X154112250Y-138832581D01*
X154092038Y-138825349D01*
X154072632Y-138816170D01*
X154054219Y-138805134D01*
X154036976Y-138792346D01*
X154021070Y-138777930D01*
X154006654Y-138762024D01*
X153993866Y-138744781D01*
X153982830Y-138726368D01*
X153973651Y-138706962D01*
X153966419Y-138686750D01*
X153961203Y-138665926D01*
X153958053Y-138644691D01*
X153957000Y-138623250D01*
X153957000Y-138185750D01*
X153958053Y-138164309D01*
X153961203Y-138143074D01*
X153966419Y-138122250D01*
X153973651Y-138102038D01*
X153982830Y-138082632D01*
X153993866Y-138064219D01*
X154006654Y-138046976D01*
X154021070Y-138031070D01*
X154036976Y-138016654D01*
X154054219Y-138003866D01*
X154072632Y-137992830D01*
X154092038Y-137983651D01*
X154112250Y-137976419D01*
X154133074Y-137971203D01*
X154154309Y-137968053D01*
X154175750Y-137967000D01*
X154688250Y-137967000D01*
X154709691Y-137968053D01*
X154709691Y-137968053D01*
G37*
D15*
X154432000Y-138404500D03*
D14*
G36*
X154709691Y-139543053D02*
G01*
X154730926Y-139546203D01*
X154751750Y-139551419D01*
X154771962Y-139558651D01*
X154791368Y-139567830D01*
X154809781Y-139578866D01*
X154827024Y-139591654D01*
X154842930Y-139606070D01*
X154857346Y-139621976D01*
X154870134Y-139639219D01*
X154881170Y-139657632D01*
X154890349Y-139677038D01*
X154897581Y-139697250D01*
X154902797Y-139718074D01*
X154905947Y-139739309D01*
X154907000Y-139760750D01*
X154907000Y-140198250D01*
X154905947Y-140219691D01*
X154902797Y-140240926D01*
X154897581Y-140261750D01*
X154890349Y-140281962D01*
X154881170Y-140301368D01*
X154870134Y-140319781D01*
X154857346Y-140337024D01*
X154842930Y-140352930D01*
X154827024Y-140367346D01*
X154809781Y-140380134D01*
X154791368Y-140391170D01*
X154771962Y-140400349D01*
X154751750Y-140407581D01*
X154730926Y-140412797D01*
X154709691Y-140415947D01*
X154688250Y-140417000D01*
X154175750Y-140417000D01*
X154154309Y-140415947D01*
X154133074Y-140412797D01*
X154112250Y-140407581D01*
X154092038Y-140400349D01*
X154072632Y-140391170D01*
X154054219Y-140380134D01*
X154036976Y-140367346D01*
X154021070Y-140352930D01*
X154006654Y-140337024D01*
X153993866Y-140319781D01*
X153982830Y-140301368D01*
X153973651Y-140281962D01*
X153966419Y-140261750D01*
X153961203Y-140240926D01*
X153958053Y-140219691D01*
X153957000Y-140198250D01*
X153957000Y-139760750D01*
X153958053Y-139739309D01*
X153961203Y-139718074D01*
X153966419Y-139697250D01*
X153973651Y-139677038D01*
X153982830Y-139657632D01*
X153993866Y-139639219D01*
X154006654Y-139621976D01*
X154021070Y-139606070D01*
X154036976Y-139591654D01*
X154054219Y-139578866D01*
X154072632Y-139567830D01*
X154092038Y-139558651D01*
X154112250Y-139551419D01*
X154133074Y-139546203D01*
X154154309Y-139543053D01*
X154175750Y-139542000D01*
X154688250Y-139542000D01*
X154709691Y-139543053D01*
X154709691Y-139543053D01*
G37*
D15*
X154432000Y-139979500D03*
D14*
G36*
X145311691Y-129586053D02*
G01*
X145332926Y-129589203D01*
X145353750Y-129594419D01*
X145373962Y-129601651D01*
X145393368Y-129610830D01*
X145411781Y-129621866D01*
X145429024Y-129634654D01*
X145444930Y-129649070D01*
X145459346Y-129664976D01*
X145472134Y-129682219D01*
X145483170Y-129700632D01*
X145492349Y-129720038D01*
X145499581Y-129740250D01*
X145504797Y-129761074D01*
X145507947Y-129782309D01*
X145509000Y-129803750D01*
X145509000Y-130241250D01*
X145507947Y-130262691D01*
X145504797Y-130283926D01*
X145499581Y-130304750D01*
X145492349Y-130324962D01*
X145483170Y-130344368D01*
X145472134Y-130362781D01*
X145459346Y-130380024D01*
X145444930Y-130395930D01*
X145429024Y-130410346D01*
X145411781Y-130423134D01*
X145393368Y-130434170D01*
X145373962Y-130443349D01*
X145353750Y-130450581D01*
X145332926Y-130455797D01*
X145311691Y-130458947D01*
X145290250Y-130460000D01*
X144777750Y-130460000D01*
X144756309Y-130458947D01*
X144735074Y-130455797D01*
X144714250Y-130450581D01*
X144694038Y-130443349D01*
X144674632Y-130434170D01*
X144656219Y-130423134D01*
X144638976Y-130410346D01*
X144623070Y-130395930D01*
X144608654Y-130380024D01*
X144595866Y-130362781D01*
X144584830Y-130344368D01*
X144575651Y-130324962D01*
X144568419Y-130304750D01*
X144563203Y-130283926D01*
X144560053Y-130262691D01*
X144559000Y-130241250D01*
X144559000Y-129803750D01*
X144560053Y-129782309D01*
X144563203Y-129761074D01*
X144568419Y-129740250D01*
X144575651Y-129720038D01*
X144584830Y-129700632D01*
X144595866Y-129682219D01*
X144608654Y-129664976D01*
X144623070Y-129649070D01*
X144638976Y-129634654D01*
X144656219Y-129621866D01*
X144674632Y-129610830D01*
X144694038Y-129601651D01*
X144714250Y-129594419D01*
X144735074Y-129589203D01*
X144756309Y-129586053D01*
X144777750Y-129585000D01*
X145290250Y-129585000D01*
X145311691Y-129586053D01*
X145311691Y-129586053D01*
G37*
D15*
X145034000Y-130022500D03*
D14*
G36*
X145311691Y-131161053D02*
G01*
X145332926Y-131164203D01*
X145353750Y-131169419D01*
X145373962Y-131176651D01*
X145393368Y-131185830D01*
X145411781Y-131196866D01*
X145429024Y-131209654D01*
X145444930Y-131224070D01*
X145459346Y-131239976D01*
X145472134Y-131257219D01*
X145483170Y-131275632D01*
X145492349Y-131295038D01*
X145499581Y-131315250D01*
X145504797Y-131336074D01*
X145507947Y-131357309D01*
X145509000Y-131378750D01*
X145509000Y-131816250D01*
X145507947Y-131837691D01*
X145504797Y-131858926D01*
X145499581Y-131879750D01*
X145492349Y-131899962D01*
X145483170Y-131919368D01*
X145472134Y-131937781D01*
X145459346Y-131955024D01*
X145444930Y-131970930D01*
X145429024Y-131985346D01*
X145411781Y-131998134D01*
X145393368Y-132009170D01*
X145373962Y-132018349D01*
X145353750Y-132025581D01*
X145332926Y-132030797D01*
X145311691Y-132033947D01*
X145290250Y-132035000D01*
X144777750Y-132035000D01*
X144756309Y-132033947D01*
X144735074Y-132030797D01*
X144714250Y-132025581D01*
X144694038Y-132018349D01*
X144674632Y-132009170D01*
X144656219Y-131998134D01*
X144638976Y-131985346D01*
X144623070Y-131970930D01*
X144608654Y-131955024D01*
X144595866Y-131937781D01*
X144584830Y-131919368D01*
X144575651Y-131899962D01*
X144568419Y-131879750D01*
X144563203Y-131858926D01*
X144560053Y-131837691D01*
X144559000Y-131816250D01*
X144559000Y-131378750D01*
X144560053Y-131357309D01*
X144563203Y-131336074D01*
X144568419Y-131315250D01*
X144575651Y-131295038D01*
X144584830Y-131275632D01*
X144595866Y-131257219D01*
X144608654Y-131239976D01*
X144623070Y-131224070D01*
X144638976Y-131209654D01*
X144656219Y-131196866D01*
X144674632Y-131185830D01*
X144694038Y-131176651D01*
X144714250Y-131169419D01*
X144735074Y-131164203D01*
X144756309Y-131161053D01*
X144777750Y-131160000D01*
X145290250Y-131160000D01*
X145311691Y-131161053D01*
X145311691Y-131161053D01*
G37*
D15*
X145034000Y-131597500D03*
D14*
G36*
X141501691Y-137968053D02*
G01*
X141522926Y-137971203D01*
X141543750Y-137976419D01*
X141563962Y-137983651D01*
X141583368Y-137992830D01*
X141601781Y-138003866D01*
X141619024Y-138016654D01*
X141634930Y-138031070D01*
X141649346Y-138046976D01*
X141662134Y-138064219D01*
X141673170Y-138082632D01*
X141682349Y-138102038D01*
X141689581Y-138122250D01*
X141694797Y-138143074D01*
X141697947Y-138164309D01*
X141699000Y-138185750D01*
X141699000Y-138623250D01*
X141697947Y-138644691D01*
X141694797Y-138665926D01*
X141689581Y-138686750D01*
X141682349Y-138706962D01*
X141673170Y-138726368D01*
X141662134Y-138744781D01*
X141649346Y-138762024D01*
X141634930Y-138777930D01*
X141619024Y-138792346D01*
X141601781Y-138805134D01*
X141583368Y-138816170D01*
X141563962Y-138825349D01*
X141543750Y-138832581D01*
X141522926Y-138837797D01*
X141501691Y-138840947D01*
X141480250Y-138842000D01*
X140967750Y-138842000D01*
X140946309Y-138840947D01*
X140925074Y-138837797D01*
X140904250Y-138832581D01*
X140884038Y-138825349D01*
X140864632Y-138816170D01*
X140846219Y-138805134D01*
X140828976Y-138792346D01*
X140813070Y-138777930D01*
X140798654Y-138762024D01*
X140785866Y-138744781D01*
X140774830Y-138726368D01*
X140765651Y-138706962D01*
X140758419Y-138686750D01*
X140753203Y-138665926D01*
X140750053Y-138644691D01*
X140749000Y-138623250D01*
X140749000Y-138185750D01*
X140750053Y-138164309D01*
X140753203Y-138143074D01*
X140758419Y-138122250D01*
X140765651Y-138102038D01*
X140774830Y-138082632D01*
X140785866Y-138064219D01*
X140798654Y-138046976D01*
X140813070Y-138031070D01*
X140828976Y-138016654D01*
X140846219Y-138003866D01*
X140864632Y-137992830D01*
X140884038Y-137983651D01*
X140904250Y-137976419D01*
X140925074Y-137971203D01*
X140946309Y-137968053D01*
X140967750Y-137967000D01*
X141480250Y-137967000D01*
X141501691Y-137968053D01*
X141501691Y-137968053D01*
G37*
D15*
X141224000Y-138404500D03*
D14*
G36*
X141501691Y-139543053D02*
G01*
X141522926Y-139546203D01*
X141543750Y-139551419D01*
X141563962Y-139558651D01*
X141583368Y-139567830D01*
X141601781Y-139578866D01*
X141619024Y-139591654D01*
X141634930Y-139606070D01*
X141649346Y-139621976D01*
X141662134Y-139639219D01*
X141673170Y-139657632D01*
X141682349Y-139677038D01*
X141689581Y-139697250D01*
X141694797Y-139718074D01*
X141697947Y-139739309D01*
X141699000Y-139760750D01*
X141699000Y-140198250D01*
X141697947Y-140219691D01*
X141694797Y-140240926D01*
X141689581Y-140261750D01*
X141682349Y-140281962D01*
X141673170Y-140301368D01*
X141662134Y-140319781D01*
X141649346Y-140337024D01*
X141634930Y-140352930D01*
X141619024Y-140367346D01*
X141601781Y-140380134D01*
X141583368Y-140391170D01*
X141563962Y-140400349D01*
X141543750Y-140407581D01*
X141522926Y-140412797D01*
X141501691Y-140415947D01*
X141480250Y-140417000D01*
X140967750Y-140417000D01*
X140946309Y-140415947D01*
X140925074Y-140412797D01*
X140904250Y-140407581D01*
X140884038Y-140400349D01*
X140864632Y-140391170D01*
X140846219Y-140380134D01*
X140828976Y-140367346D01*
X140813070Y-140352930D01*
X140798654Y-140337024D01*
X140785866Y-140319781D01*
X140774830Y-140301368D01*
X140765651Y-140281962D01*
X140758419Y-140261750D01*
X140753203Y-140240926D01*
X140750053Y-140219691D01*
X140749000Y-140198250D01*
X140749000Y-139760750D01*
X140750053Y-139739309D01*
X140753203Y-139718074D01*
X140758419Y-139697250D01*
X140765651Y-139677038D01*
X140774830Y-139657632D01*
X140785866Y-139639219D01*
X140798654Y-139621976D01*
X140813070Y-139606070D01*
X140828976Y-139591654D01*
X140846219Y-139578866D01*
X140864632Y-139567830D01*
X140884038Y-139558651D01*
X140904250Y-139551419D01*
X140925074Y-139546203D01*
X140946309Y-139543053D01*
X140967750Y-139542000D01*
X141480250Y-139542000D01*
X141501691Y-139543053D01*
X141501691Y-139543053D01*
G37*
D15*
X141224000Y-139979500D03*
D14*
G36*
X132103691Y-129560553D02*
G01*
X132124926Y-129563703D01*
X132145750Y-129568919D01*
X132165962Y-129576151D01*
X132185368Y-129585330D01*
X132203781Y-129596366D01*
X132221024Y-129609154D01*
X132236930Y-129623570D01*
X132251346Y-129639476D01*
X132264134Y-129656719D01*
X132275170Y-129675132D01*
X132284349Y-129694538D01*
X132291581Y-129714750D01*
X132296797Y-129735574D01*
X132299947Y-129756809D01*
X132301000Y-129778250D01*
X132301000Y-130215750D01*
X132299947Y-130237191D01*
X132296797Y-130258426D01*
X132291581Y-130279250D01*
X132284349Y-130299462D01*
X132275170Y-130318868D01*
X132264134Y-130337281D01*
X132251346Y-130354524D01*
X132236930Y-130370430D01*
X132221024Y-130384846D01*
X132203781Y-130397634D01*
X132185368Y-130408670D01*
X132165962Y-130417849D01*
X132145750Y-130425081D01*
X132124926Y-130430297D01*
X132103691Y-130433447D01*
X132082250Y-130434500D01*
X131569750Y-130434500D01*
X131548309Y-130433447D01*
X131527074Y-130430297D01*
X131506250Y-130425081D01*
X131486038Y-130417849D01*
X131466632Y-130408670D01*
X131448219Y-130397634D01*
X131430976Y-130384846D01*
X131415070Y-130370430D01*
X131400654Y-130354524D01*
X131387866Y-130337281D01*
X131376830Y-130318868D01*
X131367651Y-130299462D01*
X131360419Y-130279250D01*
X131355203Y-130258426D01*
X131352053Y-130237191D01*
X131351000Y-130215750D01*
X131351000Y-129778250D01*
X131352053Y-129756809D01*
X131355203Y-129735574D01*
X131360419Y-129714750D01*
X131367651Y-129694538D01*
X131376830Y-129675132D01*
X131387866Y-129656719D01*
X131400654Y-129639476D01*
X131415070Y-129623570D01*
X131430976Y-129609154D01*
X131448219Y-129596366D01*
X131466632Y-129585330D01*
X131486038Y-129576151D01*
X131506250Y-129568919D01*
X131527074Y-129563703D01*
X131548309Y-129560553D01*
X131569750Y-129559500D01*
X132082250Y-129559500D01*
X132103691Y-129560553D01*
X132103691Y-129560553D01*
G37*
D15*
X131826000Y-129997000D03*
D14*
G36*
X132103691Y-131135553D02*
G01*
X132124926Y-131138703D01*
X132145750Y-131143919D01*
X132165962Y-131151151D01*
X132185368Y-131160330D01*
X132203781Y-131171366D01*
X132221024Y-131184154D01*
X132236930Y-131198570D01*
X132251346Y-131214476D01*
X132264134Y-131231719D01*
X132275170Y-131250132D01*
X132284349Y-131269538D01*
X132291581Y-131289750D01*
X132296797Y-131310574D01*
X132299947Y-131331809D01*
X132301000Y-131353250D01*
X132301000Y-131790750D01*
X132299947Y-131812191D01*
X132296797Y-131833426D01*
X132291581Y-131854250D01*
X132284349Y-131874462D01*
X132275170Y-131893868D01*
X132264134Y-131912281D01*
X132251346Y-131929524D01*
X132236930Y-131945430D01*
X132221024Y-131959846D01*
X132203781Y-131972634D01*
X132185368Y-131983670D01*
X132165962Y-131992849D01*
X132145750Y-132000081D01*
X132124926Y-132005297D01*
X132103691Y-132008447D01*
X132082250Y-132009500D01*
X131569750Y-132009500D01*
X131548309Y-132008447D01*
X131527074Y-132005297D01*
X131506250Y-132000081D01*
X131486038Y-131992849D01*
X131466632Y-131983670D01*
X131448219Y-131972634D01*
X131430976Y-131959846D01*
X131415070Y-131945430D01*
X131400654Y-131929524D01*
X131387866Y-131912281D01*
X131376830Y-131893868D01*
X131367651Y-131874462D01*
X131360419Y-131854250D01*
X131355203Y-131833426D01*
X131352053Y-131812191D01*
X131351000Y-131790750D01*
X131351000Y-131353250D01*
X131352053Y-131331809D01*
X131355203Y-131310574D01*
X131360419Y-131289750D01*
X131367651Y-131269538D01*
X131376830Y-131250132D01*
X131387866Y-131231719D01*
X131400654Y-131214476D01*
X131415070Y-131198570D01*
X131430976Y-131184154D01*
X131448219Y-131171366D01*
X131466632Y-131160330D01*
X131486038Y-131151151D01*
X131506250Y-131143919D01*
X131527074Y-131138703D01*
X131548309Y-131135553D01*
X131569750Y-131134500D01*
X132082250Y-131134500D01*
X132103691Y-131135553D01*
X132103691Y-131135553D01*
G37*
D15*
X131826000Y-131572000D03*
D14*
G36*
X145867691Y-68880053D02*
G01*
X145888926Y-68883203D01*
X145909750Y-68888419D01*
X145929962Y-68895651D01*
X145949368Y-68904830D01*
X145967781Y-68915866D01*
X145985024Y-68928654D01*
X146000930Y-68943070D01*
X146015346Y-68958976D01*
X146028134Y-68976219D01*
X146039170Y-68994632D01*
X146048349Y-69014038D01*
X146055581Y-69034250D01*
X146060797Y-69055074D01*
X146063947Y-69076309D01*
X146065000Y-69097750D01*
X146065000Y-69535250D01*
X146063947Y-69556691D01*
X146060797Y-69577926D01*
X146055581Y-69598750D01*
X146048349Y-69618962D01*
X146039170Y-69638368D01*
X146028134Y-69656781D01*
X146015346Y-69674024D01*
X146000930Y-69689930D01*
X145985024Y-69704346D01*
X145967781Y-69717134D01*
X145949368Y-69728170D01*
X145929962Y-69737349D01*
X145909750Y-69744581D01*
X145888926Y-69749797D01*
X145867691Y-69752947D01*
X145846250Y-69754000D01*
X145333750Y-69754000D01*
X145312309Y-69752947D01*
X145291074Y-69749797D01*
X145270250Y-69744581D01*
X145250038Y-69737349D01*
X145230632Y-69728170D01*
X145212219Y-69717134D01*
X145194976Y-69704346D01*
X145179070Y-69689930D01*
X145164654Y-69674024D01*
X145151866Y-69656781D01*
X145140830Y-69638368D01*
X145131651Y-69618962D01*
X145124419Y-69598750D01*
X145119203Y-69577926D01*
X145116053Y-69556691D01*
X145115000Y-69535250D01*
X145115000Y-69097750D01*
X145116053Y-69076309D01*
X145119203Y-69055074D01*
X145124419Y-69034250D01*
X145131651Y-69014038D01*
X145140830Y-68994632D01*
X145151866Y-68976219D01*
X145164654Y-68958976D01*
X145179070Y-68943070D01*
X145194976Y-68928654D01*
X145212219Y-68915866D01*
X145230632Y-68904830D01*
X145250038Y-68895651D01*
X145270250Y-68888419D01*
X145291074Y-68883203D01*
X145312309Y-68880053D01*
X145333750Y-68879000D01*
X145846250Y-68879000D01*
X145867691Y-68880053D01*
X145867691Y-68880053D01*
G37*
D15*
X145590000Y-69316500D03*
D14*
G36*
X145867691Y-70455053D02*
G01*
X145888926Y-70458203D01*
X145909750Y-70463419D01*
X145929962Y-70470651D01*
X145949368Y-70479830D01*
X145967781Y-70490866D01*
X145985024Y-70503654D01*
X146000930Y-70518070D01*
X146015346Y-70533976D01*
X146028134Y-70551219D01*
X146039170Y-70569632D01*
X146048349Y-70589038D01*
X146055581Y-70609250D01*
X146060797Y-70630074D01*
X146063947Y-70651309D01*
X146065000Y-70672750D01*
X146065000Y-71110250D01*
X146063947Y-71131691D01*
X146060797Y-71152926D01*
X146055581Y-71173750D01*
X146048349Y-71193962D01*
X146039170Y-71213368D01*
X146028134Y-71231781D01*
X146015346Y-71249024D01*
X146000930Y-71264930D01*
X145985024Y-71279346D01*
X145967781Y-71292134D01*
X145949368Y-71303170D01*
X145929962Y-71312349D01*
X145909750Y-71319581D01*
X145888926Y-71324797D01*
X145867691Y-71327947D01*
X145846250Y-71329000D01*
X145333750Y-71329000D01*
X145312309Y-71327947D01*
X145291074Y-71324797D01*
X145270250Y-71319581D01*
X145250038Y-71312349D01*
X145230632Y-71303170D01*
X145212219Y-71292134D01*
X145194976Y-71279346D01*
X145179070Y-71264930D01*
X145164654Y-71249024D01*
X145151866Y-71231781D01*
X145140830Y-71213368D01*
X145131651Y-71193962D01*
X145124419Y-71173750D01*
X145119203Y-71152926D01*
X145116053Y-71131691D01*
X145115000Y-71110250D01*
X145115000Y-70672750D01*
X145116053Y-70651309D01*
X145119203Y-70630074D01*
X145124419Y-70609250D01*
X145131651Y-70589038D01*
X145140830Y-70569632D01*
X145151866Y-70551219D01*
X145164654Y-70533976D01*
X145179070Y-70518070D01*
X145194976Y-70503654D01*
X145212219Y-70490866D01*
X145230632Y-70479830D01*
X145250038Y-70470651D01*
X145270250Y-70463419D01*
X145291074Y-70458203D01*
X145312309Y-70455053D01*
X145333750Y-70454000D01*
X145846250Y-70454000D01*
X145867691Y-70455053D01*
X145867691Y-70455053D01*
G37*
D15*
X145590000Y-70891500D03*
D14*
G36*
X153168779Y-83550144D02*
G01*
X153191834Y-83553563D01*
X153214443Y-83559227D01*
X153236387Y-83567079D01*
X153257457Y-83577044D01*
X153277448Y-83589026D01*
X153296168Y-83602910D01*
X153313438Y-83618562D01*
X153329090Y-83635832D01*
X153342974Y-83654552D01*
X153354956Y-83674543D01*
X153364921Y-83695613D01*
X153372773Y-83717557D01*
X153378437Y-83740166D01*
X153381856Y-83763221D01*
X153383000Y-83786500D01*
X153383000Y-84361500D01*
X153381856Y-84384779D01*
X153378437Y-84407834D01*
X153372773Y-84430443D01*
X153364921Y-84452387D01*
X153354956Y-84473457D01*
X153342974Y-84493448D01*
X153329090Y-84512168D01*
X153313438Y-84529438D01*
X153296168Y-84545090D01*
X153277448Y-84558974D01*
X153257457Y-84570956D01*
X153236387Y-84580921D01*
X153214443Y-84588773D01*
X153191834Y-84594437D01*
X153168779Y-84597856D01*
X153145500Y-84599000D01*
X152670500Y-84599000D01*
X152647221Y-84597856D01*
X152624166Y-84594437D01*
X152601557Y-84588773D01*
X152579613Y-84580921D01*
X152558543Y-84570956D01*
X152538552Y-84558974D01*
X152519832Y-84545090D01*
X152502562Y-84529438D01*
X152486910Y-84512168D01*
X152473026Y-84493448D01*
X152461044Y-84473457D01*
X152451079Y-84452387D01*
X152443227Y-84430443D01*
X152437563Y-84407834D01*
X152434144Y-84384779D01*
X152433000Y-84361500D01*
X152433000Y-83786500D01*
X152434144Y-83763221D01*
X152437563Y-83740166D01*
X152443227Y-83717557D01*
X152451079Y-83695613D01*
X152461044Y-83674543D01*
X152473026Y-83654552D01*
X152486910Y-83635832D01*
X152502562Y-83618562D01*
X152519832Y-83602910D01*
X152538552Y-83589026D01*
X152558543Y-83577044D01*
X152579613Y-83567079D01*
X152601557Y-83559227D01*
X152624166Y-83553563D01*
X152647221Y-83550144D01*
X152670500Y-83549000D01*
X153145500Y-83549000D01*
X153168779Y-83550144D01*
X153168779Y-83550144D01*
G37*
D16*
X152908000Y-84074000D03*
D14*
G36*
X153168779Y-81800144D02*
G01*
X153191834Y-81803563D01*
X153214443Y-81809227D01*
X153236387Y-81817079D01*
X153257457Y-81827044D01*
X153277448Y-81839026D01*
X153296168Y-81852910D01*
X153313438Y-81868562D01*
X153329090Y-81885832D01*
X153342974Y-81904552D01*
X153354956Y-81924543D01*
X153364921Y-81945613D01*
X153372773Y-81967557D01*
X153378437Y-81990166D01*
X153381856Y-82013221D01*
X153383000Y-82036500D01*
X153383000Y-82611500D01*
X153381856Y-82634779D01*
X153378437Y-82657834D01*
X153372773Y-82680443D01*
X153364921Y-82702387D01*
X153354956Y-82723457D01*
X153342974Y-82743448D01*
X153329090Y-82762168D01*
X153313438Y-82779438D01*
X153296168Y-82795090D01*
X153277448Y-82808974D01*
X153257457Y-82820956D01*
X153236387Y-82830921D01*
X153214443Y-82838773D01*
X153191834Y-82844437D01*
X153168779Y-82847856D01*
X153145500Y-82849000D01*
X152670500Y-82849000D01*
X152647221Y-82847856D01*
X152624166Y-82844437D01*
X152601557Y-82838773D01*
X152579613Y-82830921D01*
X152558543Y-82820956D01*
X152538552Y-82808974D01*
X152519832Y-82795090D01*
X152502562Y-82779438D01*
X152486910Y-82762168D01*
X152473026Y-82743448D01*
X152461044Y-82723457D01*
X152451079Y-82702387D01*
X152443227Y-82680443D01*
X152437563Y-82657834D01*
X152434144Y-82634779D01*
X152433000Y-82611500D01*
X152433000Y-82036500D01*
X152434144Y-82013221D01*
X152437563Y-81990166D01*
X152443227Y-81967557D01*
X152451079Y-81945613D01*
X152461044Y-81924543D01*
X152473026Y-81904552D01*
X152486910Y-81885832D01*
X152502562Y-81868562D01*
X152519832Y-81852910D01*
X152538552Y-81839026D01*
X152558543Y-81827044D01*
X152579613Y-81817079D01*
X152601557Y-81809227D01*
X152624166Y-81803563D01*
X152647221Y-81800144D01*
X152670500Y-81799000D01*
X153145500Y-81799000D01*
X153168779Y-81800144D01*
X153168779Y-81800144D01*
G37*
D16*
X152908000Y-82324000D03*
D14*
G36*
X125095504Y-133186204D02*
G01*
X125119773Y-133189804D01*
X125143571Y-133195765D01*
X125166671Y-133204030D01*
X125188849Y-133214520D01*
X125209893Y-133227133D01*
X125229598Y-133241747D01*
X125247777Y-133258223D01*
X125264253Y-133276402D01*
X125278867Y-133296107D01*
X125291480Y-133317151D01*
X125301970Y-133339329D01*
X125310235Y-133362429D01*
X125316196Y-133386227D01*
X125319796Y-133410496D01*
X125321000Y-133435000D01*
X125321000Y-134535000D01*
X125319796Y-134559504D01*
X125316196Y-134583773D01*
X125310235Y-134607571D01*
X125301970Y-134630671D01*
X125291480Y-134652849D01*
X125278867Y-134673893D01*
X125264253Y-134693598D01*
X125247777Y-134711777D01*
X125229598Y-134728253D01*
X125209893Y-134742867D01*
X125188849Y-134755480D01*
X125166671Y-134765970D01*
X125143571Y-134774235D01*
X125119773Y-134780196D01*
X125095504Y-134783796D01*
X125071000Y-134785000D01*
X122071000Y-134785000D01*
X122046496Y-134783796D01*
X122022227Y-134780196D01*
X121998429Y-134774235D01*
X121975329Y-134765970D01*
X121953151Y-134755480D01*
X121932107Y-134742867D01*
X121912402Y-134728253D01*
X121894223Y-134711777D01*
X121877747Y-134693598D01*
X121863133Y-134673893D01*
X121850520Y-134652849D01*
X121840030Y-134630671D01*
X121831765Y-134607571D01*
X121825804Y-134583773D01*
X121822204Y-134559504D01*
X121821000Y-134535000D01*
X121821000Y-133435000D01*
X121822204Y-133410496D01*
X121825804Y-133386227D01*
X121831765Y-133362429D01*
X121840030Y-133339329D01*
X121850520Y-133317151D01*
X121863133Y-133296107D01*
X121877747Y-133276402D01*
X121894223Y-133258223D01*
X121912402Y-133241747D01*
X121932107Y-133227133D01*
X121953151Y-133214520D01*
X121975329Y-133204030D01*
X121998429Y-133195765D01*
X122022227Y-133189804D01*
X122046496Y-133186204D01*
X122071000Y-133185000D01*
X125071000Y-133185000D01*
X125095504Y-133186204D01*
X125095504Y-133186204D01*
G37*
D17*
X123571000Y-133985000D03*
D14*
G36*
X119495504Y-133186204D02*
G01*
X119519773Y-133189804D01*
X119543571Y-133195765D01*
X119566671Y-133204030D01*
X119588849Y-133214520D01*
X119609893Y-133227133D01*
X119629598Y-133241747D01*
X119647777Y-133258223D01*
X119664253Y-133276402D01*
X119678867Y-133296107D01*
X119691480Y-133317151D01*
X119701970Y-133339329D01*
X119710235Y-133362429D01*
X119716196Y-133386227D01*
X119719796Y-133410496D01*
X119721000Y-133435000D01*
X119721000Y-134535000D01*
X119719796Y-134559504D01*
X119716196Y-134583773D01*
X119710235Y-134607571D01*
X119701970Y-134630671D01*
X119691480Y-134652849D01*
X119678867Y-134673893D01*
X119664253Y-134693598D01*
X119647777Y-134711777D01*
X119629598Y-134728253D01*
X119609893Y-134742867D01*
X119588849Y-134755480D01*
X119566671Y-134765970D01*
X119543571Y-134774235D01*
X119519773Y-134780196D01*
X119495504Y-134783796D01*
X119471000Y-134785000D01*
X116471000Y-134785000D01*
X116446496Y-134783796D01*
X116422227Y-134780196D01*
X116398429Y-134774235D01*
X116375329Y-134765970D01*
X116353151Y-134755480D01*
X116332107Y-134742867D01*
X116312402Y-134728253D01*
X116294223Y-134711777D01*
X116277747Y-134693598D01*
X116263133Y-134673893D01*
X116250520Y-134652849D01*
X116240030Y-134630671D01*
X116231765Y-134607571D01*
X116225804Y-134583773D01*
X116222204Y-134559504D01*
X116221000Y-134535000D01*
X116221000Y-133435000D01*
X116222204Y-133410496D01*
X116225804Y-133386227D01*
X116231765Y-133362429D01*
X116240030Y-133339329D01*
X116250520Y-133317151D01*
X116263133Y-133296107D01*
X116277747Y-133276402D01*
X116294223Y-133258223D01*
X116312402Y-133241747D01*
X116332107Y-133227133D01*
X116353151Y-133214520D01*
X116375329Y-133204030D01*
X116398429Y-133195765D01*
X116422227Y-133189804D01*
X116446496Y-133186204D01*
X116471000Y-133185000D01*
X119471000Y-133185000D01*
X119495504Y-133186204D01*
X119495504Y-133186204D01*
G37*
D17*
X117971000Y-133985000D03*
D14*
G36*
X141506779Y-74126144D02*
G01*
X141529834Y-74129563D01*
X141552443Y-74135227D01*
X141574387Y-74143079D01*
X141595457Y-74153044D01*
X141615448Y-74165026D01*
X141634168Y-74178910D01*
X141651438Y-74194562D01*
X141667090Y-74211832D01*
X141680974Y-74230552D01*
X141692956Y-74250543D01*
X141702921Y-74271613D01*
X141710773Y-74293557D01*
X141716437Y-74316166D01*
X141719856Y-74339221D01*
X141721000Y-74362500D01*
X141721000Y-74837500D01*
X141719856Y-74860779D01*
X141716437Y-74883834D01*
X141710773Y-74906443D01*
X141702921Y-74928387D01*
X141692956Y-74949457D01*
X141680974Y-74969448D01*
X141667090Y-74988168D01*
X141651438Y-75005438D01*
X141634168Y-75021090D01*
X141615448Y-75034974D01*
X141595457Y-75046956D01*
X141574387Y-75056921D01*
X141552443Y-75064773D01*
X141529834Y-75070437D01*
X141506779Y-75073856D01*
X141483500Y-75075000D01*
X140908500Y-75075000D01*
X140885221Y-75073856D01*
X140862166Y-75070437D01*
X140839557Y-75064773D01*
X140817613Y-75056921D01*
X140796543Y-75046956D01*
X140776552Y-75034974D01*
X140757832Y-75021090D01*
X140740562Y-75005438D01*
X140724910Y-74988168D01*
X140711026Y-74969448D01*
X140699044Y-74949457D01*
X140689079Y-74928387D01*
X140681227Y-74906443D01*
X140675563Y-74883834D01*
X140672144Y-74860779D01*
X140671000Y-74837500D01*
X140671000Y-74362500D01*
X140672144Y-74339221D01*
X140675563Y-74316166D01*
X140681227Y-74293557D01*
X140689079Y-74271613D01*
X140699044Y-74250543D01*
X140711026Y-74230552D01*
X140724910Y-74211832D01*
X140740562Y-74194562D01*
X140757832Y-74178910D01*
X140776552Y-74165026D01*
X140796543Y-74153044D01*
X140817613Y-74143079D01*
X140839557Y-74135227D01*
X140862166Y-74129563D01*
X140885221Y-74126144D01*
X140908500Y-74125000D01*
X141483500Y-74125000D01*
X141506779Y-74126144D01*
X141506779Y-74126144D01*
G37*
D16*
X141196000Y-74600000D03*
D14*
G36*
X139756779Y-74126144D02*
G01*
X139779834Y-74129563D01*
X139802443Y-74135227D01*
X139824387Y-74143079D01*
X139845457Y-74153044D01*
X139865448Y-74165026D01*
X139884168Y-74178910D01*
X139901438Y-74194562D01*
X139917090Y-74211832D01*
X139930974Y-74230552D01*
X139942956Y-74250543D01*
X139952921Y-74271613D01*
X139960773Y-74293557D01*
X139966437Y-74316166D01*
X139969856Y-74339221D01*
X139971000Y-74362500D01*
X139971000Y-74837500D01*
X139969856Y-74860779D01*
X139966437Y-74883834D01*
X139960773Y-74906443D01*
X139952921Y-74928387D01*
X139942956Y-74949457D01*
X139930974Y-74969448D01*
X139917090Y-74988168D01*
X139901438Y-75005438D01*
X139884168Y-75021090D01*
X139865448Y-75034974D01*
X139845457Y-75046956D01*
X139824387Y-75056921D01*
X139802443Y-75064773D01*
X139779834Y-75070437D01*
X139756779Y-75073856D01*
X139733500Y-75075000D01*
X139158500Y-75075000D01*
X139135221Y-75073856D01*
X139112166Y-75070437D01*
X139089557Y-75064773D01*
X139067613Y-75056921D01*
X139046543Y-75046956D01*
X139026552Y-75034974D01*
X139007832Y-75021090D01*
X138990562Y-75005438D01*
X138974910Y-74988168D01*
X138961026Y-74969448D01*
X138949044Y-74949457D01*
X138939079Y-74928387D01*
X138931227Y-74906443D01*
X138925563Y-74883834D01*
X138922144Y-74860779D01*
X138921000Y-74837500D01*
X138921000Y-74362500D01*
X138922144Y-74339221D01*
X138925563Y-74316166D01*
X138931227Y-74293557D01*
X138939079Y-74271613D01*
X138949044Y-74250543D01*
X138961026Y-74230552D01*
X138974910Y-74211832D01*
X138990562Y-74194562D01*
X139007832Y-74178910D01*
X139026552Y-74165026D01*
X139046543Y-74153044D01*
X139067613Y-74143079D01*
X139089557Y-74135227D01*
X139112166Y-74129563D01*
X139135221Y-74126144D01*
X139158500Y-74125000D01*
X139733500Y-74125000D01*
X139756779Y-74126144D01*
X139756779Y-74126144D01*
G37*
D16*
X139446000Y-74600000D03*
D14*
G36*
X139756779Y-77326144D02*
G01*
X139779834Y-77329563D01*
X139802443Y-77335227D01*
X139824387Y-77343079D01*
X139845457Y-77353044D01*
X139865448Y-77365026D01*
X139884168Y-77378910D01*
X139901438Y-77394562D01*
X139917090Y-77411832D01*
X139930974Y-77430552D01*
X139942956Y-77450543D01*
X139952921Y-77471613D01*
X139960773Y-77493557D01*
X139966437Y-77516166D01*
X139969856Y-77539221D01*
X139971000Y-77562500D01*
X139971000Y-78037500D01*
X139969856Y-78060779D01*
X139966437Y-78083834D01*
X139960773Y-78106443D01*
X139952921Y-78128387D01*
X139942956Y-78149457D01*
X139930974Y-78169448D01*
X139917090Y-78188168D01*
X139901438Y-78205438D01*
X139884168Y-78221090D01*
X139865448Y-78234974D01*
X139845457Y-78246956D01*
X139824387Y-78256921D01*
X139802443Y-78264773D01*
X139779834Y-78270437D01*
X139756779Y-78273856D01*
X139733500Y-78275000D01*
X139158500Y-78275000D01*
X139135221Y-78273856D01*
X139112166Y-78270437D01*
X139089557Y-78264773D01*
X139067613Y-78256921D01*
X139046543Y-78246956D01*
X139026552Y-78234974D01*
X139007832Y-78221090D01*
X138990562Y-78205438D01*
X138974910Y-78188168D01*
X138961026Y-78169448D01*
X138949044Y-78149457D01*
X138939079Y-78128387D01*
X138931227Y-78106443D01*
X138925563Y-78083834D01*
X138922144Y-78060779D01*
X138921000Y-78037500D01*
X138921000Y-77562500D01*
X138922144Y-77539221D01*
X138925563Y-77516166D01*
X138931227Y-77493557D01*
X138939079Y-77471613D01*
X138949044Y-77450543D01*
X138961026Y-77430552D01*
X138974910Y-77411832D01*
X138990562Y-77394562D01*
X139007832Y-77378910D01*
X139026552Y-77365026D01*
X139046543Y-77353044D01*
X139067613Y-77343079D01*
X139089557Y-77335227D01*
X139112166Y-77329563D01*
X139135221Y-77326144D01*
X139158500Y-77325000D01*
X139733500Y-77325000D01*
X139756779Y-77326144D01*
X139756779Y-77326144D01*
G37*
D16*
X139446000Y-77800000D03*
D14*
G36*
X141506779Y-77326144D02*
G01*
X141529834Y-77329563D01*
X141552443Y-77335227D01*
X141574387Y-77343079D01*
X141595457Y-77353044D01*
X141615448Y-77365026D01*
X141634168Y-77378910D01*
X141651438Y-77394562D01*
X141667090Y-77411832D01*
X141680974Y-77430552D01*
X141692956Y-77450543D01*
X141702921Y-77471613D01*
X141710773Y-77493557D01*
X141716437Y-77516166D01*
X141719856Y-77539221D01*
X141721000Y-77562500D01*
X141721000Y-78037500D01*
X141719856Y-78060779D01*
X141716437Y-78083834D01*
X141710773Y-78106443D01*
X141702921Y-78128387D01*
X141692956Y-78149457D01*
X141680974Y-78169448D01*
X141667090Y-78188168D01*
X141651438Y-78205438D01*
X141634168Y-78221090D01*
X141615448Y-78234974D01*
X141595457Y-78246956D01*
X141574387Y-78256921D01*
X141552443Y-78264773D01*
X141529834Y-78270437D01*
X141506779Y-78273856D01*
X141483500Y-78275000D01*
X140908500Y-78275000D01*
X140885221Y-78273856D01*
X140862166Y-78270437D01*
X140839557Y-78264773D01*
X140817613Y-78256921D01*
X140796543Y-78246956D01*
X140776552Y-78234974D01*
X140757832Y-78221090D01*
X140740562Y-78205438D01*
X140724910Y-78188168D01*
X140711026Y-78169448D01*
X140699044Y-78149457D01*
X140689079Y-78128387D01*
X140681227Y-78106443D01*
X140675563Y-78083834D01*
X140672144Y-78060779D01*
X140671000Y-78037500D01*
X140671000Y-77562500D01*
X140672144Y-77539221D01*
X140675563Y-77516166D01*
X140681227Y-77493557D01*
X140689079Y-77471613D01*
X140699044Y-77450543D01*
X140711026Y-77430552D01*
X140724910Y-77411832D01*
X140740562Y-77394562D01*
X140757832Y-77378910D01*
X140776552Y-77365026D01*
X140796543Y-77353044D01*
X140817613Y-77343079D01*
X140839557Y-77335227D01*
X140862166Y-77329563D01*
X140885221Y-77326144D01*
X140908500Y-77325000D01*
X141483500Y-77325000D01*
X141506779Y-77326144D01*
X141506779Y-77326144D01*
G37*
D16*
X141196000Y-77800000D03*
D14*
G36*
X125095504Y-116676204D02*
G01*
X125119773Y-116679804D01*
X125143571Y-116685765D01*
X125166671Y-116694030D01*
X125188849Y-116704520D01*
X125209893Y-116717133D01*
X125229598Y-116731747D01*
X125247777Y-116748223D01*
X125264253Y-116766402D01*
X125278867Y-116786107D01*
X125291480Y-116807151D01*
X125301970Y-116829329D01*
X125310235Y-116852429D01*
X125316196Y-116876227D01*
X125319796Y-116900496D01*
X125321000Y-116925000D01*
X125321000Y-118025000D01*
X125319796Y-118049504D01*
X125316196Y-118073773D01*
X125310235Y-118097571D01*
X125301970Y-118120671D01*
X125291480Y-118142849D01*
X125278867Y-118163893D01*
X125264253Y-118183598D01*
X125247777Y-118201777D01*
X125229598Y-118218253D01*
X125209893Y-118232867D01*
X125188849Y-118245480D01*
X125166671Y-118255970D01*
X125143571Y-118264235D01*
X125119773Y-118270196D01*
X125095504Y-118273796D01*
X125071000Y-118275000D01*
X122071000Y-118275000D01*
X122046496Y-118273796D01*
X122022227Y-118270196D01*
X121998429Y-118264235D01*
X121975329Y-118255970D01*
X121953151Y-118245480D01*
X121932107Y-118232867D01*
X121912402Y-118218253D01*
X121894223Y-118201777D01*
X121877747Y-118183598D01*
X121863133Y-118163893D01*
X121850520Y-118142849D01*
X121840030Y-118120671D01*
X121831765Y-118097571D01*
X121825804Y-118073773D01*
X121822204Y-118049504D01*
X121821000Y-118025000D01*
X121821000Y-116925000D01*
X121822204Y-116900496D01*
X121825804Y-116876227D01*
X121831765Y-116852429D01*
X121840030Y-116829329D01*
X121850520Y-116807151D01*
X121863133Y-116786107D01*
X121877747Y-116766402D01*
X121894223Y-116748223D01*
X121912402Y-116731747D01*
X121932107Y-116717133D01*
X121953151Y-116704520D01*
X121975329Y-116694030D01*
X121998429Y-116685765D01*
X122022227Y-116679804D01*
X122046496Y-116676204D01*
X122071000Y-116675000D01*
X125071000Y-116675000D01*
X125095504Y-116676204D01*
X125095504Y-116676204D01*
G37*
D17*
X123571000Y-117475000D03*
D14*
G36*
X119495504Y-116676204D02*
G01*
X119519773Y-116679804D01*
X119543571Y-116685765D01*
X119566671Y-116694030D01*
X119588849Y-116704520D01*
X119609893Y-116717133D01*
X119629598Y-116731747D01*
X119647777Y-116748223D01*
X119664253Y-116766402D01*
X119678867Y-116786107D01*
X119691480Y-116807151D01*
X119701970Y-116829329D01*
X119710235Y-116852429D01*
X119716196Y-116876227D01*
X119719796Y-116900496D01*
X119721000Y-116925000D01*
X119721000Y-118025000D01*
X119719796Y-118049504D01*
X119716196Y-118073773D01*
X119710235Y-118097571D01*
X119701970Y-118120671D01*
X119691480Y-118142849D01*
X119678867Y-118163893D01*
X119664253Y-118183598D01*
X119647777Y-118201777D01*
X119629598Y-118218253D01*
X119609893Y-118232867D01*
X119588849Y-118245480D01*
X119566671Y-118255970D01*
X119543571Y-118264235D01*
X119519773Y-118270196D01*
X119495504Y-118273796D01*
X119471000Y-118275000D01*
X116471000Y-118275000D01*
X116446496Y-118273796D01*
X116422227Y-118270196D01*
X116398429Y-118264235D01*
X116375329Y-118255970D01*
X116353151Y-118245480D01*
X116332107Y-118232867D01*
X116312402Y-118218253D01*
X116294223Y-118201777D01*
X116277747Y-118183598D01*
X116263133Y-118163893D01*
X116250520Y-118142849D01*
X116240030Y-118120671D01*
X116231765Y-118097571D01*
X116225804Y-118073773D01*
X116222204Y-118049504D01*
X116221000Y-118025000D01*
X116221000Y-116925000D01*
X116222204Y-116900496D01*
X116225804Y-116876227D01*
X116231765Y-116852429D01*
X116240030Y-116829329D01*
X116250520Y-116807151D01*
X116263133Y-116786107D01*
X116277747Y-116766402D01*
X116294223Y-116748223D01*
X116312402Y-116731747D01*
X116332107Y-116717133D01*
X116353151Y-116704520D01*
X116375329Y-116694030D01*
X116398429Y-116685765D01*
X116422227Y-116679804D01*
X116446496Y-116676204D01*
X116471000Y-116675000D01*
X119471000Y-116675000D01*
X119495504Y-116676204D01*
X119495504Y-116676204D01*
G37*
D17*
X117971000Y-117475000D03*
D14*
G36*
X115576779Y-124938144D02*
G01*
X115599834Y-124941563D01*
X115622443Y-124947227D01*
X115644387Y-124955079D01*
X115665457Y-124965044D01*
X115685448Y-124977026D01*
X115704168Y-124990910D01*
X115721438Y-125006562D01*
X115737090Y-125023832D01*
X115750974Y-125042552D01*
X115762956Y-125062543D01*
X115772921Y-125083613D01*
X115780773Y-125105557D01*
X115786437Y-125128166D01*
X115789856Y-125151221D01*
X115791000Y-125174500D01*
X115791000Y-125749500D01*
X115789856Y-125772779D01*
X115786437Y-125795834D01*
X115780773Y-125818443D01*
X115772921Y-125840387D01*
X115762956Y-125861457D01*
X115750974Y-125881448D01*
X115737090Y-125900168D01*
X115721438Y-125917438D01*
X115704168Y-125933090D01*
X115685448Y-125946974D01*
X115665457Y-125958956D01*
X115644387Y-125968921D01*
X115622443Y-125976773D01*
X115599834Y-125982437D01*
X115576779Y-125985856D01*
X115553500Y-125987000D01*
X115078500Y-125987000D01*
X115055221Y-125985856D01*
X115032166Y-125982437D01*
X115009557Y-125976773D01*
X114987613Y-125968921D01*
X114966543Y-125958956D01*
X114946552Y-125946974D01*
X114927832Y-125933090D01*
X114910562Y-125917438D01*
X114894910Y-125900168D01*
X114881026Y-125881448D01*
X114869044Y-125861457D01*
X114859079Y-125840387D01*
X114851227Y-125818443D01*
X114845563Y-125795834D01*
X114842144Y-125772779D01*
X114841000Y-125749500D01*
X114841000Y-125174500D01*
X114842144Y-125151221D01*
X114845563Y-125128166D01*
X114851227Y-125105557D01*
X114859079Y-125083613D01*
X114869044Y-125062543D01*
X114881026Y-125042552D01*
X114894910Y-125023832D01*
X114910562Y-125006562D01*
X114927832Y-124990910D01*
X114946552Y-124977026D01*
X114966543Y-124965044D01*
X114987613Y-124955079D01*
X115009557Y-124947227D01*
X115032166Y-124941563D01*
X115055221Y-124938144D01*
X115078500Y-124937000D01*
X115553500Y-124937000D01*
X115576779Y-124938144D01*
X115576779Y-124938144D01*
G37*
D16*
X115316000Y-125462000D03*
D14*
G36*
X115576779Y-123188144D02*
G01*
X115599834Y-123191563D01*
X115622443Y-123197227D01*
X115644387Y-123205079D01*
X115665457Y-123215044D01*
X115685448Y-123227026D01*
X115704168Y-123240910D01*
X115721438Y-123256562D01*
X115737090Y-123273832D01*
X115750974Y-123292552D01*
X115762956Y-123312543D01*
X115772921Y-123333613D01*
X115780773Y-123355557D01*
X115786437Y-123378166D01*
X115789856Y-123401221D01*
X115791000Y-123424500D01*
X115791000Y-123999500D01*
X115789856Y-124022779D01*
X115786437Y-124045834D01*
X115780773Y-124068443D01*
X115772921Y-124090387D01*
X115762956Y-124111457D01*
X115750974Y-124131448D01*
X115737090Y-124150168D01*
X115721438Y-124167438D01*
X115704168Y-124183090D01*
X115685448Y-124196974D01*
X115665457Y-124208956D01*
X115644387Y-124218921D01*
X115622443Y-124226773D01*
X115599834Y-124232437D01*
X115576779Y-124235856D01*
X115553500Y-124237000D01*
X115078500Y-124237000D01*
X115055221Y-124235856D01*
X115032166Y-124232437D01*
X115009557Y-124226773D01*
X114987613Y-124218921D01*
X114966543Y-124208956D01*
X114946552Y-124196974D01*
X114927832Y-124183090D01*
X114910562Y-124167438D01*
X114894910Y-124150168D01*
X114881026Y-124131448D01*
X114869044Y-124111457D01*
X114859079Y-124090387D01*
X114851227Y-124068443D01*
X114845563Y-124045834D01*
X114842144Y-124022779D01*
X114841000Y-123999500D01*
X114841000Y-123424500D01*
X114842144Y-123401221D01*
X114845563Y-123378166D01*
X114851227Y-123355557D01*
X114859079Y-123333613D01*
X114869044Y-123312543D01*
X114881026Y-123292552D01*
X114894910Y-123273832D01*
X114910562Y-123256562D01*
X114927832Y-123240910D01*
X114946552Y-123227026D01*
X114966543Y-123215044D01*
X114987613Y-123205079D01*
X115009557Y-123197227D01*
X115032166Y-123191563D01*
X115055221Y-123188144D01*
X115078500Y-123187000D01*
X115553500Y-123187000D01*
X115576779Y-123188144D01*
X115576779Y-123188144D01*
G37*
D16*
X115316000Y-123712000D03*
D14*
G36*
X141484779Y-135733144D02*
G01*
X141507834Y-135736563D01*
X141530443Y-135742227D01*
X141552387Y-135750079D01*
X141573457Y-135760044D01*
X141593448Y-135772026D01*
X141612168Y-135785910D01*
X141629438Y-135801562D01*
X141645090Y-135818832D01*
X141658974Y-135837552D01*
X141670956Y-135857543D01*
X141680921Y-135878613D01*
X141688773Y-135900557D01*
X141694437Y-135923166D01*
X141697856Y-135946221D01*
X141699000Y-135969500D01*
X141699000Y-136544500D01*
X141697856Y-136567779D01*
X141694437Y-136590834D01*
X141688773Y-136613443D01*
X141680921Y-136635387D01*
X141670956Y-136656457D01*
X141658974Y-136676448D01*
X141645090Y-136695168D01*
X141629438Y-136712438D01*
X141612168Y-136728090D01*
X141593448Y-136741974D01*
X141573457Y-136753956D01*
X141552387Y-136763921D01*
X141530443Y-136771773D01*
X141507834Y-136777437D01*
X141484779Y-136780856D01*
X141461500Y-136782000D01*
X140986500Y-136782000D01*
X140963221Y-136780856D01*
X140940166Y-136777437D01*
X140917557Y-136771773D01*
X140895613Y-136763921D01*
X140874543Y-136753956D01*
X140854552Y-136741974D01*
X140835832Y-136728090D01*
X140818562Y-136712438D01*
X140802910Y-136695168D01*
X140789026Y-136676448D01*
X140777044Y-136656457D01*
X140767079Y-136635387D01*
X140759227Y-136613443D01*
X140753563Y-136590834D01*
X140750144Y-136567779D01*
X140749000Y-136544500D01*
X140749000Y-135969500D01*
X140750144Y-135946221D01*
X140753563Y-135923166D01*
X140759227Y-135900557D01*
X140767079Y-135878613D01*
X140777044Y-135857543D01*
X140789026Y-135837552D01*
X140802910Y-135818832D01*
X140818562Y-135801562D01*
X140835832Y-135785910D01*
X140854552Y-135772026D01*
X140874543Y-135760044D01*
X140895613Y-135750079D01*
X140917557Y-135742227D01*
X140940166Y-135736563D01*
X140963221Y-135733144D01*
X140986500Y-135732000D01*
X141461500Y-135732000D01*
X141484779Y-135733144D01*
X141484779Y-135733144D01*
G37*
D16*
X141224000Y-136257000D03*
D14*
G36*
X141484779Y-133983144D02*
G01*
X141507834Y-133986563D01*
X141530443Y-133992227D01*
X141552387Y-134000079D01*
X141573457Y-134010044D01*
X141593448Y-134022026D01*
X141612168Y-134035910D01*
X141629438Y-134051562D01*
X141645090Y-134068832D01*
X141658974Y-134087552D01*
X141670956Y-134107543D01*
X141680921Y-134128613D01*
X141688773Y-134150557D01*
X141694437Y-134173166D01*
X141697856Y-134196221D01*
X141699000Y-134219500D01*
X141699000Y-134794500D01*
X141697856Y-134817779D01*
X141694437Y-134840834D01*
X141688773Y-134863443D01*
X141680921Y-134885387D01*
X141670956Y-134906457D01*
X141658974Y-134926448D01*
X141645090Y-134945168D01*
X141629438Y-134962438D01*
X141612168Y-134978090D01*
X141593448Y-134991974D01*
X141573457Y-135003956D01*
X141552387Y-135013921D01*
X141530443Y-135021773D01*
X141507834Y-135027437D01*
X141484779Y-135030856D01*
X141461500Y-135032000D01*
X140986500Y-135032000D01*
X140963221Y-135030856D01*
X140940166Y-135027437D01*
X140917557Y-135021773D01*
X140895613Y-135013921D01*
X140874543Y-135003956D01*
X140854552Y-134991974D01*
X140835832Y-134978090D01*
X140818562Y-134962438D01*
X140802910Y-134945168D01*
X140789026Y-134926448D01*
X140777044Y-134906457D01*
X140767079Y-134885387D01*
X140759227Y-134863443D01*
X140753563Y-134840834D01*
X140750144Y-134817779D01*
X140749000Y-134794500D01*
X140749000Y-134219500D01*
X140750144Y-134196221D01*
X140753563Y-134173166D01*
X140759227Y-134150557D01*
X140767079Y-134128613D01*
X140777044Y-134107543D01*
X140789026Y-134087552D01*
X140802910Y-134068832D01*
X140818562Y-134051562D01*
X140835832Y-134035910D01*
X140854552Y-134022026D01*
X140874543Y-134010044D01*
X140895613Y-134000079D01*
X140917557Y-133992227D01*
X140940166Y-133986563D01*
X140963221Y-133983144D01*
X140986500Y-133982000D01*
X141461500Y-133982000D01*
X141484779Y-133983144D01*
X141484779Y-133983144D01*
G37*
D16*
X141224000Y-134507000D03*
D14*
G36*
X154692779Y-133983144D02*
G01*
X154715834Y-133986563D01*
X154738443Y-133992227D01*
X154760387Y-134000079D01*
X154781457Y-134010044D01*
X154801448Y-134022026D01*
X154820168Y-134035910D01*
X154837438Y-134051562D01*
X154853090Y-134068832D01*
X154866974Y-134087552D01*
X154878956Y-134107543D01*
X154888921Y-134128613D01*
X154896773Y-134150557D01*
X154902437Y-134173166D01*
X154905856Y-134196221D01*
X154907000Y-134219500D01*
X154907000Y-134794500D01*
X154905856Y-134817779D01*
X154902437Y-134840834D01*
X154896773Y-134863443D01*
X154888921Y-134885387D01*
X154878956Y-134906457D01*
X154866974Y-134926448D01*
X154853090Y-134945168D01*
X154837438Y-134962438D01*
X154820168Y-134978090D01*
X154801448Y-134991974D01*
X154781457Y-135003956D01*
X154760387Y-135013921D01*
X154738443Y-135021773D01*
X154715834Y-135027437D01*
X154692779Y-135030856D01*
X154669500Y-135032000D01*
X154194500Y-135032000D01*
X154171221Y-135030856D01*
X154148166Y-135027437D01*
X154125557Y-135021773D01*
X154103613Y-135013921D01*
X154082543Y-135003956D01*
X154062552Y-134991974D01*
X154043832Y-134978090D01*
X154026562Y-134962438D01*
X154010910Y-134945168D01*
X153997026Y-134926448D01*
X153985044Y-134906457D01*
X153975079Y-134885387D01*
X153967227Y-134863443D01*
X153961563Y-134840834D01*
X153958144Y-134817779D01*
X153957000Y-134794500D01*
X153957000Y-134219500D01*
X153958144Y-134196221D01*
X153961563Y-134173166D01*
X153967227Y-134150557D01*
X153975079Y-134128613D01*
X153985044Y-134107543D01*
X153997026Y-134087552D01*
X154010910Y-134068832D01*
X154026562Y-134051562D01*
X154043832Y-134035910D01*
X154062552Y-134022026D01*
X154082543Y-134010044D01*
X154103613Y-134000079D01*
X154125557Y-133992227D01*
X154148166Y-133986563D01*
X154171221Y-133983144D01*
X154194500Y-133982000D01*
X154669500Y-133982000D01*
X154692779Y-133983144D01*
X154692779Y-133983144D01*
G37*
D16*
X154432000Y-134507000D03*
D14*
G36*
X154692779Y-135733144D02*
G01*
X154715834Y-135736563D01*
X154738443Y-135742227D01*
X154760387Y-135750079D01*
X154781457Y-135760044D01*
X154801448Y-135772026D01*
X154820168Y-135785910D01*
X154837438Y-135801562D01*
X154853090Y-135818832D01*
X154866974Y-135837552D01*
X154878956Y-135857543D01*
X154888921Y-135878613D01*
X154896773Y-135900557D01*
X154902437Y-135923166D01*
X154905856Y-135946221D01*
X154907000Y-135969500D01*
X154907000Y-136544500D01*
X154905856Y-136567779D01*
X154902437Y-136590834D01*
X154896773Y-136613443D01*
X154888921Y-136635387D01*
X154878956Y-136656457D01*
X154866974Y-136676448D01*
X154853090Y-136695168D01*
X154837438Y-136712438D01*
X154820168Y-136728090D01*
X154801448Y-136741974D01*
X154781457Y-136753956D01*
X154760387Y-136763921D01*
X154738443Y-136771773D01*
X154715834Y-136777437D01*
X154692779Y-136780856D01*
X154669500Y-136782000D01*
X154194500Y-136782000D01*
X154171221Y-136780856D01*
X154148166Y-136777437D01*
X154125557Y-136771773D01*
X154103613Y-136763921D01*
X154082543Y-136753956D01*
X154062552Y-136741974D01*
X154043832Y-136728090D01*
X154026562Y-136712438D01*
X154010910Y-136695168D01*
X153997026Y-136676448D01*
X153985044Y-136656457D01*
X153975079Y-136635387D01*
X153967227Y-136613443D01*
X153961563Y-136590834D01*
X153958144Y-136567779D01*
X153957000Y-136544500D01*
X153957000Y-135969500D01*
X153958144Y-135946221D01*
X153961563Y-135923166D01*
X153967227Y-135900557D01*
X153975079Y-135878613D01*
X153985044Y-135857543D01*
X153997026Y-135837552D01*
X154010910Y-135818832D01*
X154026562Y-135801562D01*
X154043832Y-135785910D01*
X154062552Y-135772026D01*
X154082543Y-135760044D01*
X154103613Y-135750079D01*
X154125557Y-135742227D01*
X154148166Y-135736563D01*
X154171221Y-135733144D01*
X154194500Y-135732000D01*
X154669500Y-135732000D01*
X154692779Y-135733144D01*
X154692779Y-135733144D01*
G37*
D16*
X154432000Y-136257000D03*
D14*
G36*
X167900779Y-135733144D02*
G01*
X167923834Y-135736563D01*
X167946443Y-135742227D01*
X167968387Y-135750079D01*
X167989457Y-135760044D01*
X168009448Y-135772026D01*
X168028168Y-135785910D01*
X168045438Y-135801562D01*
X168061090Y-135818832D01*
X168074974Y-135837552D01*
X168086956Y-135857543D01*
X168096921Y-135878613D01*
X168104773Y-135900557D01*
X168110437Y-135923166D01*
X168113856Y-135946221D01*
X168115000Y-135969500D01*
X168115000Y-136544500D01*
X168113856Y-136567779D01*
X168110437Y-136590834D01*
X168104773Y-136613443D01*
X168096921Y-136635387D01*
X168086956Y-136656457D01*
X168074974Y-136676448D01*
X168061090Y-136695168D01*
X168045438Y-136712438D01*
X168028168Y-136728090D01*
X168009448Y-136741974D01*
X167989457Y-136753956D01*
X167968387Y-136763921D01*
X167946443Y-136771773D01*
X167923834Y-136777437D01*
X167900779Y-136780856D01*
X167877500Y-136782000D01*
X167402500Y-136782000D01*
X167379221Y-136780856D01*
X167356166Y-136777437D01*
X167333557Y-136771773D01*
X167311613Y-136763921D01*
X167290543Y-136753956D01*
X167270552Y-136741974D01*
X167251832Y-136728090D01*
X167234562Y-136712438D01*
X167218910Y-136695168D01*
X167205026Y-136676448D01*
X167193044Y-136656457D01*
X167183079Y-136635387D01*
X167175227Y-136613443D01*
X167169563Y-136590834D01*
X167166144Y-136567779D01*
X167165000Y-136544500D01*
X167165000Y-135969500D01*
X167166144Y-135946221D01*
X167169563Y-135923166D01*
X167175227Y-135900557D01*
X167183079Y-135878613D01*
X167193044Y-135857543D01*
X167205026Y-135837552D01*
X167218910Y-135818832D01*
X167234562Y-135801562D01*
X167251832Y-135785910D01*
X167270552Y-135772026D01*
X167290543Y-135760044D01*
X167311613Y-135750079D01*
X167333557Y-135742227D01*
X167356166Y-135736563D01*
X167379221Y-135733144D01*
X167402500Y-135732000D01*
X167877500Y-135732000D01*
X167900779Y-135733144D01*
X167900779Y-135733144D01*
G37*
D16*
X167640000Y-136257000D03*
D14*
G36*
X167900779Y-133983144D02*
G01*
X167923834Y-133986563D01*
X167946443Y-133992227D01*
X167968387Y-134000079D01*
X167989457Y-134010044D01*
X168009448Y-134022026D01*
X168028168Y-134035910D01*
X168045438Y-134051562D01*
X168061090Y-134068832D01*
X168074974Y-134087552D01*
X168086956Y-134107543D01*
X168096921Y-134128613D01*
X168104773Y-134150557D01*
X168110437Y-134173166D01*
X168113856Y-134196221D01*
X168115000Y-134219500D01*
X168115000Y-134794500D01*
X168113856Y-134817779D01*
X168110437Y-134840834D01*
X168104773Y-134863443D01*
X168096921Y-134885387D01*
X168086956Y-134906457D01*
X168074974Y-134926448D01*
X168061090Y-134945168D01*
X168045438Y-134962438D01*
X168028168Y-134978090D01*
X168009448Y-134991974D01*
X167989457Y-135003956D01*
X167968387Y-135013921D01*
X167946443Y-135021773D01*
X167923834Y-135027437D01*
X167900779Y-135030856D01*
X167877500Y-135032000D01*
X167402500Y-135032000D01*
X167379221Y-135030856D01*
X167356166Y-135027437D01*
X167333557Y-135021773D01*
X167311613Y-135013921D01*
X167290543Y-135003956D01*
X167270552Y-134991974D01*
X167251832Y-134978090D01*
X167234562Y-134962438D01*
X167218910Y-134945168D01*
X167205026Y-134926448D01*
X167193044Y-134906457D01*
X167183079Y-134885387D01*
X167175227Y-134863443D01*
X167169563Y-134840834D01*
X167166144Y-134817779D01*
X167165000Y-134794500D01*
X167165000Y-134219500D01*
X167166144Y-134196221D01*
X167169563Y-134173166D01*
X167175227Y-134150557D01*
X167183079Y-134128613D01*
X167193044Y-134107543D01*
X167205026Y-134087552D01*
X167218910Y-134068832D01*
X167234562Y-134051562D01*
X167251832Y-134035910D01*
X167270552Y-134022026D01*
X167290543Y-134010044D01*
X167311613Y-134000079D01*
X167333557Y-133992227D01*
X167356166Y-133986563D01*
X167379221Y-133983144D01*
X167402500Y-133982000D01*
X167877500Y-133982000D01*
X167900779Y-133983144D01*
X167900779Y-133983144D01*
G37*
D16*
X167640000Y-134507000D03*
D14*
G36*
X124996779Y-62518144D02*
G01*
X125019834Y-62521563D01*
X125042443Y-62527227D01*
X125064387Y-62535079D01*
X125085457Y-62545044D01*
X125105448Y-62557026D01*
X125124168Y-62570910D01*
X125141438Y-62586562D01*
X125157090Y-62603832D01*
X125170974Y-62622552D01*
X125182956Y-62642543D01*
X125192921Y-62663613D01*
X125200773Y-62685557D01*
X125206437Y-62708166D01*
X125209856Y-62731221D01*
X125211000Y-62754500D01*
X125211000Y-63229500D01*
X125209856Y-63252779D01*
X125206437Y-63275834D01*
X125200773Y-63298443D01*
X125192921Y-63320387D01*
X125182956Y-63341457D01*
X125170974Y-63361448D01*
X125157090Y-63380168D01*
X125141438Y-63397438D01*
X125124168Y-63413090D01*
X125105448Y-63426974D01*
X125085457Y-63438956D01*
X125064387Y-63448921D01*
X125042443Y-63456773D01*
X125019834Y-63462437D01*
X124996779Y-63465856D01*
X124973500Y-63467000D01*
X124398500Y-63467000D01*
X124375221Y-63465856D01*
X124352166Y-63462437D01*
X124329557Y-63456773D01*
X124307613Y-63448921D01*
X124286543Y-63438956D01*
X124266552Y-63426974D01*
X124247832Y-63413090D01*
X124230562Y-63397438D01*
X124214910Y-63380168D01*
X124201026Y-63361448D01*
X124189044Y-63341457D01*
X124179079Y-63320387D01*
X124171227Y-63298443D01*
X124165563Y-63275834D01*
X124162144Y-63252779D01*
X124161000Y-63229500D01*
X124161000Y-62754500D01*
X124162144Y-62731221D01*
X124165563Y-62708166D01*
X124171227Y-62685557D01*
X124179079Y-62663613D01*
X124189044Y-62642543D01*
X124201026Y-62622552D01*
X124214910Y-62603832D01*
X124230562Y-62586562D01*
X124247832Y-62570910D01*
X124266552Y-62557026D01*
X124286543Y-62545044D01*
X124307613Y-62535079D01*
X124329557Y-62527227D01*
X124352166Y-62521563D01*
X124375221Y-62518144D01*
X124398500Y-62517000D01*
X124973500Y-62517000D01*
X124996779Y-62518144D01*
X124996779Y-62518144D01*
G37*
D16*
X124686000Y-62992000D03*
D14*
G36*
X123246779Y-62518144D02*
G01*
X123269834Y-62521563D01*
X123292443Y-62527227D01*
X123314387Y-62535079D01*
X123335457Y-62545044D01*
X123355448Y-62557026D01*
X123374168Y-62570910D01*
X123391438Y-62586562D01*
X123407090Y-62603832D01*
X123420974Y-62622552D01*
X123432956Y-62642543D01*
X123442921Y-62663613D01*
X123450773Y-62685557D01*
X123456437Y-62708166D01*
X123459856Y-62731221D01*
X123461000Y-62754500D01*
X123461000Y-63229500D01*
X123459856Y-63252779D01*
X123456437Y-63275834D01*
X123450773Y-63298443D01*
X123442921Y-63320387D01*
X123432956Y-63341457D01*
X123420974Y-63361448D01*
X123407090Y-63380168D01*
X123391438Y-63397438D01*
X123374168Y-63413090D01*
X123355448Y-63426974D01*
X123335457Y-63438956D01*
X123314387Y-63448921D01*
X123292443Y-63456773D01*
X123269834Y-63462437D01*
X123246779Y-63465856D01*
X123223500Y-63467000D01*
X122648500Y-63467000D01*
X122625221Y-63465856D01*
X122602166Y-63462437D01*
X122579557Y-63456773D01*
X122557613Y-63448921D01*
X122536543Y-63438956D01*
X122516552Y-63426974D01*
X122497832Y-63413090D01*
X122480562Y-63397438D01*
X122464910Y-63380168D01*
X122451026Y-63361448D01*
X122439044Y-63341457D01*
X122429079Y-63320387D01*
X122421227Y-63298443D01*
X122415563Y-63275834D01*
X122412144Y-63252779D01*
X122411000Y-63229500D01*
X122411000Y-62754500D01*
X122412144Y-62731221D01*
X122415563Y-62708166D01*
X122421227Y-62685557D01*
X122429079Y-62663613D01*
X122439044Y-62642543D01*
X122451026Y-62622552D01*
X122464910Y-62603832D01*
X122480562Y-62586562D01*
X122497832Y-62570910D01*
X122516552Y-62557026D01*
X122536543Y-62545044D01*
X122557613Y-62535079D01*
X122579557Y-62527227D01*
X122602166Y-62521563D01*
X122625221Y-62518144D01*
X122648500Y-62517000D01*
X123223500Y-62517000D01*
X123246779Y-62518144D01*
X123246779Y-62518144D01*
G37*
D16*
X122936000Y-62992000D03*
D14*
G36*
X129729142Y-64579174D02*
G01*
X129752803Y-64582684D01*
X129776007Y-64588496D01*
X129798529Y-64596554D01*
X129820153Y-64606782D01*
X129840670Y-64619079D01*
X129859883Y-64633329D01*
X129877607Y-64649393D01*
X129893671Y-64667117D01*
X129907921Y-64686330D01*
X129920218Y-64706847D01*
X129930446Y-64728471D01*
X129938504Y-64750993D01*
X129944316Y-64774197D01*
X129947826Y-64797858D01*
X129949000Y-64821750D01*
X129949000Y-65734250D01*
X129947826Y-65758142D01*
X129944316Y-65781803D01*
X129938504Y-65805007D01*
X129930446Y-65827529D01*
X129920218Y-65849153D01*
X129907921Y-65869670D01*
X129893671Y-65888883D01*
X129877607Y-65906607D01*
X129859883Y-65922671D01*
X129840670Y-65936921D01*
X129820153Y-65949218D01*
X129798529Y-65959446D01*
X129776007Y-65967504D01*
X129752803Y-65973316D01*
X129729142Y-65976826D01*
X129705250Y-65978000D01*
X129217750Y-65978000D01*
X129193858Y-65976826D01*
X129170197Y-65973316D01*
X129146993Y-65967504D01*
X129124471Y-65959446D01*
X129102847Y-65949218D01*
X129082330Y-65936921D01*
X129063117Y-65922671D01*
X129045393Y-65906607D01*
X129029329Y-65888883D01*
X129015079Y-65869670D01*
X129002782Y-65849153D01*
X128992554Y-65827529D01*
X128984496Y-65805007D01*
X128978684Y-65781803D01*
X128975174Y-65758142D01*
X128974000Y-65734250D01*
X128974000Y-64821750D01*
X128975174Y-64797858D01*
X128978684Y-64774197D01*
X128984496Y-64750993D01*
X128992554Y-64728471D01*
X129002782Y-64706847D01*
X129015079Y-64686330D01*
X129029329Y-64667117D01*
X129045393Y-64649393D01*
X129063117Y-64633329D01*
X129082330Y-64619079D01*
X129102847Y-64606782D01*
X129124471Y-64596554D01*
X129146993Y-64588496D01*
X129170197Y-64582684D01*
X129193858Y-64579174D01*
X129217750Y-64578000D01*
X129705250Y-64578000D01*
X129729142Y-64579174D01*
X129729142Y-64579174D01*
G37*
D18*
X129461500Y-65278000D03*
D14*
G36*
X127854142Y-64579174D02*
G01*
X127877803Y-64582684D01*
X127901007Y-64588496D01*
X127923529Y-64596554D01*
X127945153Y-64606782D01*
X127965670Y-64619079D01*
X127984883Y-64633329D01*
X128002607Y-64649393D01*
X128018671Y-64667117D01*
X128032921Y-64686330D01*
X128045218Y-64706847D01*
X128055446Y-64728471D01*
X128063504Y-64750993D01*
X128069316Y-64774197D01*
X128072826Y-64797858D01*
X128074000Y-64821750D01*
X128074000Y-65734250D01*
X128072826Y-65758142D01*
X128069316Y-65781803D01*
X128063504Y-65805007D01*
X128055446Y-65827529D01*
X128045218Y-65849153D01*
X128032921Y-65869670D01*
X128018671Y-65888883D01*
X128002607Y-65906607D01*
X127984883Y-65922671D01*
X127965670Y-65936921D01*
X127945153Y-65949218D01*
X127923529Y-65959446D01*
X127901007Y-65967504D01*
X127877803Y-65973316D01*
X127854142Y-65976826D01*
X127830250Y-65978000D01*
X127342750Y-65978000D01*
X127318858Y-65976826D01*
X127295197Y-65973316D01*
X127271993Y-65967504D01*
X127249471Y-65959446D01*
X127227847Y-65949218D01*
X127207330Y-65936921D01*
X127188117Y-65922671D01*
X127170393Y-65906607D01*
X127154329Y-65888883D01*
X127140079Y-65869670D01*
X127127782Y-65849153D01*
X127117554Y-65827529D01*
X127109496Y-65805007D01*
X127103684Y-65781803D01*
X127100174Y-65758142D01*
X127099000Y-65734250D01*
X127099000Y-64821750D01*
X127100174Y-64797858D01*
X127103684Y-64774197D01*
X127109496Y-64750993D01*
X127117554Y-64728471D01*
X127127782Y-64706847D01*
X127140079Y-64686330D01*
X127154329Y-64667117D01*
X127170393Y-64649393D01*
X127188117Y-64633329D01*
X127207330Y-64619079D01*
X127227847Y-64606782D01*
X127249471Y-64596554D01*
X127271993Y-64588496D01*
X127295197Y-64582684D01*
X127318858Y-64579174D01*
X127342750Y-64578000D01*
X127830250Y-64578000D01*
X127854142Y-64579174D01*
X127854142Y-64579174D01*
G37*
D18*
X127586500Y-65278000D03*
D19*
X146431000Y-148336000D03*
X149987000Y-148336000D03*
D20*
X98679000Y-102844600D03*
X98679000Y-100644600D03*
X98679000Y-98444600D03*
X98679000Y-96244600D03*
D21*
X123227000Y-59436000D03*
D14*
G36*
X124227000Y-59436000D02*
G01*
X123727000Y-60186000D01*
X122727000Y-60186000D01*
X122727000Y-58686000D01*
X123727000Y-58686000D01*
X124227000Y-59436000D01*
X124227000Y-59436000D01*
G37*
D21*
X124677000Y-59436000D03*
D14*
G36*
X125177000Y-60186000D02*
G01*
X124027000Y-60186000D01*
X124527000Y-59436000D01*
X124027000Y-58686000D01*
X125177000Y-58686000D01*
X125177000Y-60186000D01*
X125177000Y-60186000D01*
G37*
D22*
X137128000Y-107950000D03*
X135128000Y-108900000D03*
X135128000Y-107000000D03*
X123952000Y-107000000D03*
X123952000Y-108900000D03*
X125952000Y-107950000D03*
X115030000Y-107950000D03*
X113030000Y-108900000D03*
X113030000Y-107000000D03*
D23*
X138457000Y-134620000D03*
X138457000Y-139120000D03*
X131957000Y-134620000D03*
X131957000Y-139120000D03*
X145034000Y-139120000D03*
X145034000Y-134620000D03*
X151534000Y-139120000D03*
X151534000Y-134620000D03*
X164615000Y-134620000D03*
X164615000Y-139120000D03*
X158115000Y-134620000D03*
X158115000Y-139120000D03*
D12*
X129286000Y-92710000D03*
X118110000Y-92710000D03*
X107442000Y-92710000D03*
X155194000Y-82296000D03*
D14*
G36*
X144927252Y-72475602D02*
G01*
X144939386Y-72477402D01*
X144951286Y-72480382D01*
X144962835Y-72484515D01*
X144973925Y-72489760D01*
X144984446Y-72496066D01*
X144994299Y-72503374D01*
X145003388Y-72511612D01*
X145011626Y-72520701D01*
X145018934Y-72530554D01*
X145025240Y-72541075D01*
X145030485Y-72552165D01*
X145034618Y-72563714D01*
X145037598Y-72575614D01*
X145039398Y-72587748D01*
X145040000Y-72600000D01*
X145040000Y-73850000D01*
X145039398Y-73862252D01*
X145037598Y-73874386D01*
X145034618Y-73886286D01*
X145030485Y-73897835D01*
X145025240Y-73908925D01*
X145018934Y-73919446D01*
X145011626Y-73929299D01*
X145003388Y-73938388D01*
X144994299Y-73946626D01*
X144984446Y-73953934D01*
X144973925Y-73960240D01*
X144962835Y-73965485D01*
X144951286Y-73969618D01*
X144939386Y-73972598D01*
X144927252Y-73974398D01*
X144915000Y-73975000D01*
X144665000Y-73975000D01*
X144652748Y-73974398D01*
X144640614Y-73972598D01*
X144628714Y-73969618D01*
X144617165Y-73965485D01*
X144606075Y-73960240D01*
X144595554Y-73953934D01*
X144585701Y-73946626D01*
X144576612Y-73938388D01*
X144568374Y-73929299D01*
X144561066Y-73919446D01*
X144554760Y-73908925D01*
X144549515Y-73897835D01*
X144545382Y-73886286D01*
X144542402Y-73874386D01*
X144540602Y-73862252D01*
X144540000Y-73850000D01*
X144540000Y-72600000D01*
X144540602Y-72587748D01*
X144542402Y-72575614D01*
X144545382Y-72563714D01*
X144549515Y-72552165D01*
X144554760Y-72541075D01*
X144561066Y-72530554D01*
X144568374Y-72520701D01*
X144576612Y-72511612D01*
X144585701Y-72503374D01*
X144595554Y-72496066D01*
X144606075Y-72489760D01*
X144617165Y-72484515D01*
X144628714Y-72480382D01*
X144640614Y-72477402D01*
X144652748Y-72475602D01*
X144665000Y-72475000D01*
X144915000Y-72475000D01*
X144927252Y-72475602D01*
X144927252Y-72475602D01*
G37*
D24*
X144790000Y-73225000D03*
D14*
G36*
X145727252Y-72475602D02*
G01*
X145739386Y-72477402D01*
X145751286Y-72480382D01*
X145762835Y-72484515D01*
X145773925Y-72489760D01*
X145784446Y-72496066D01*
X145794299Y-72503374D01*
X145803388Y-72511612D01*
X145811626Y-72520701D01*
X145818934Y-72530554D01*
X145825240Y-72541075D01*
X145830485Y-72552165D01*
X145834618Y-72563714D01*
X145837598Y-72575614D01*
X145839398Y-72587748D01*
X145840000Y-72600000D01*
X145840000Y-73850000D01*
X145839398Y-73862252D01*
X145837598Y-73874386D01*
X145834618Y-73886286D01*
X145830485Y-73897835D01*
X145825240Y-73908925D01*
X145818934Y-73919446D01*
X145811626Y-73929299D01*
X145803388Y-73938388D01*
X145794299Y-73946626D01*
X145784446Y-73953934D01*
X145773925Y-73960240D01*
X145762835Y-73965485D01*
X145751286Y-73969618D01*
X145739386Y-73972598D01*
X145727252Y-73974398D01*
X145715000Y-73975000D01*
X145465000Y-73975000D01*
X145452748Y-73974398D01*
X145440614Y-73972598D01*
X145428714Y-73969618D01*
X145417165Y-73965485D01*
X145406075Y-73960240D01*
X145395554Y-73953934D01*
X145385701Y-73946626D01*
X145376612Y-73938388D01*
X145368374Y-73929299D01*
X145361066Y-73919446D01*
X145354760Y-73908925D01*
X145349515Y-73897835D01*
X145345382Y-73886286D01*
X145342402Y-73874386D01*
X145340602Y-73862252D01*
X145340000Y-73850000D01*
X145340000Y-72600000D01*
X145340602Y-72587748D01*
X145342402Y-72575614D01*
X145345382Y-72563714D01*
X145349515Y-72552165D01*
X145354760Y-72541075D01*
X145361066Y-72530554D01*
X145368374Y-72520701D01*
X145376612Y-72511612D01*
X145385701Y-72503374D01*
X145395554Y-72496066D01*
X145406075Y-72489760D01*
X145417165Y-72484515D01*
X145428714Y-72480382D01*
X145440614Y-72477402D01*
X145452748Y-72475602D01*
X145465000Y-72475000D01*
X145715000Y-72475000D01*
X145727252Y-72475602D01*
X145727252Y-72475602D01*
G37*
D24*
X145590000Y-73225000D03*
D14*
G36*
X146527252Y-72475602D02*
G01*
X146539386Y-72477402D01*
X146551286Y-72480382D01*
X146562835Y-72484515D01*
X146573925Y-72489760D01*
X146584446Y-72496066D01*
X146594299Y-72503374D01*
X146603388Y-72511612D01*
X146611626Y-72520701D01*
X146618934Y-72530554D01*
X146625240Y-72541075D01*
X146630485Y-72552165D01*
X146634618Y-72563714D01*
X146637598Y-72575614D01*
X146639398Y-72587748D01*
X146640000Y-72600000D01*
X146640000Y-73850000D01*
X146639398Y-73862252D01*
X146637598Y-73874386D01*
X146634618Y-73886286D01*
X146630485Y-73897835D01*
X146625240Y-73908925D01*
X146618934Y-73919446D01*
X146611626Y-73929299D01*
X146603388Y-73938388D01*
X146594299Y-73946626D01*
X146584446Y-73953934D01*
X146573925Y-73960240D01*
X146562835Y-73965485D01*
X146551286Y-73969618D01*
X146539386Y-73972598D01*
X146527252Y-73974398D01*
X146515000Y-73975000D01*
X146265000Y-73975000D01*
X146252748Y-73974398D01*
X146240614Y-73972598D01*
X146228714Y-73969618D01*
X146217165Y-73965485D01*
X146206075Y-73960240D01*
X146195554Y-73953934D01*
X146185701Y-73946626D01*
X146176612Y-73938388D01*
X146168374Y-73929299D01*
X146161066Y-73919446D01*
X146154760Y-73908925D01*
X146149515Y-73897835D01*
X146145382Y-73886286D01*
X146142402Y-73874386D01*
X146140602Y-73862252D01*
X146140000Y-73850000D01*
X146140000Y-72600000D01*
X146140602Y-72587748D01*
X146142402Y-72575614D01*
X146145382Y-72563714D01*
X146149515Y-72552165D01*
X146154760Y-72541075D01*
X146161066Y-72530554D01*
X146168374Y-72520701D01*
X146176612Y-72511612D01*
X146185701Y-72503374D01*
X146195554Y-72496066D01*
X146206075Y-72489760D01*
X146217165Y-72484515D01*
X146228714Y-72480382D01*
X146240614Y-72477402D01*
X146252748Y-72475602D01*
X146265000Y-72475000D01*
X146515000Y-72475000D01*
X146527252Y-72475602D01*
X146527252Y-72475602D01*
G37*
D24*
X146390000Y-73225000D03*
D14*
G36*
X147327252Y-72475602D02*
G01*
X147339386Y-72477402D01*
X147351286Y-72480382D01*
X147362835Y-72484515D01*
X147373925Y-72489760D01*
X147384446Y-72496066D01*
X147394299Y-72503374D01*
X147403388Y-72511612D01*
X147411626Y-72520701D01*
X147418934Y-72530554D01*
X147425240Y-72541075D01*
X147430485Y-72552165D01*
X147434618Y-72563714D01*
X147437598Y-72575614D01*
X147439398Y-72587748D01*
X147440000Y-72600000D01*
X147440000Y-73850000D01*
X147439398Y-73862252D01*
X147437598Y-73874386D01*
X147434618Y-73886286D01*
X147430485Y-73897835D01*
X147425240Y-73908925D01*
X147418934Y-73919446D01*
X147411626Y-73929299D01*
X147403388Y-73938388D01*
X147394299Y-73946626D01*
X147384446Y-73953934D01*
X147373925Y-73960240D01*
X147362835Y-73965485D01*
X147351286Y-73969618D01*
X147339386Y-73972598D01*
X147327252Y-73974398D01*
X147315000Y-73975000D01*
X147065000Y-73975000D01*
X147052748Y-73974398D01*
X147040614Y-73972598D01*
X147028714Y-73969618D01*
X147017165Y-73965485D01*
X147006075Y-73960240D01*
X146995554Y-73953934D01*
X146985701Y-73946626D01*
X146976612Y-73938388D01*
X146968374Y-73929299D01*
X146961066Y-73919446D01*
X146954760Y-73908925D01*
X146949515Y-73897835D01*
X146945382Y-73886286D01*
X146942402Y-73874386D01*
X146940602Y-73862252D01*
X146940000Y-73850000D01*
X146940000Y-72600000D01*
X146940602Y-72587748D01*
X146942402Y-72575614D01*
X146945382Y-72563714D01*
X146949515Y-72552165D01*
X146954760Y-72541075D01*
X146961066Y-72530554D01*
X146968374Y-72520701D01*
X146976612Y-72511612D01*
X146985701Y-72503374D01*
X146995554Y-72496066D01*
X147006075Y-72489760D01*
X147017165Y-72484515D01*
X147028714Y-72480382D01*
X147040614Y-72477402D01*
X147052748Y-72475602D01*
X147065000Y-72475000D01*
X147315000Y-72475000D01*
X147327252Y-72475602D01*
X147327252Y-72475602D01*
G37*
D24*
X147190000Y-73225000D03*
D14*
G36*
X148127252Y-72475602D02*
G01*
X148139386Y-72477402D01*
X148151286Y-72480382D01*
X148162835Y-72484515D01*
X148173925Y-72489760D01*
X148184446Y-72496066D01*
X148194299Y-72503374D01*
X148203388Y-72511612D01*
X148211626Y-72520701D01*
X148218934Y-72530554D01*
X148225240Y-72541075D01*
X148230485Y-72552165D01*
X148234618Y-72563714D01*
X148237598Y-72575614D01*
X148239398Y-72587748D01*
X148240000Y-72600000D01*
X148240000Y-73850000D01*
X148239398Y-73862252D01*
X148237598Y-73874386D01*
X148234618Y-73886286D01*
X148230485Y-73897835D01*
X148225240Y-73908925D01*
X148218934Y-73919446D01*
X148211626Y-73929299D01*
X148203388Y-73938388D01*
X148194299Y-73946626D01*
X148184446Y-73953934D01*
X148173925Y-73960240D01*
X148162835Y-73965485D01*
X148151286Y-73969618D01*
X148139386Y-73972598D01*
X148127252Y-73974398D01*
X148115000Y-73975000D01*
X147865000Y-73975000D01*
X147852748Y-73974398D01*
X147840614Y-73972598D01*
X147828714Y-73969618D01*
X147817165Y-73965485D01*
X147806075Y-73960240D01*
X147795554Y-73953934D01*
X147785701Y-73946626D01*
X147776612Y-73938388D01*
X147768374Y-73929299D01*
X147761066Y-73919446D01*
X147754760Y-73908925D01*
X147749515Y-73897835D01*
X147745382Y-73886286D01*
X147742402Y-73874386D01*
X147740602Y-73862252D01*
X147740000Y-73850000D01*
X147740000Y-72600000D01*
X147740602Y-72587748D01*
X147742402Y-72575614D01*
X147745382Y-72563714D01*
X147749515Y-72552165D01*
X147754760Y-72541075D01*
X147761066Y-72530554D01*
X147768374Y-72520701D01*
X147776612Y-72511612D01*
X147785701Y-72503374D01*
X147795554Y-72496066D01*
X147806075Y-72489760D01*
X147817165Y-72484515D01*
X147828714Y-72480382D01*
X147840614Y-72477402D01*
X147852748Y-72475602D01*
X147865000Y-72475000D01*
X148115000Y-72475000D01*
X148127252Y-72475602D01*
X148127252Y-72475602D01*
G37*
D24*
X147990000Y-73225000D03*
D14*
G36*
X148927252Y-72475602D02*
G01*
X148939386Y-72477402D01*
X148951286Y-72480382D01*
X148962835Y-72484515D01*
X148973925Y-72489760D01*
X148984446Y-72496066D01*
X148994299Y-72503374D01*
X149003388Y-72511612D01*
X149011626Y-72520701D01*
X149018934Y-72530554D01*
X149025240Y-72541075D01*
X149030485Y-72552165D01*
X149034618Y-72563714D01*
X149037598Y-72575614D01*
X149039398Y-72587748D01*
X149040000Y-72600000D01*
X149040000Y-73850000D01*
X149039398Y-73862252D01*
X149037598Y-73874386D01*
X149034618Y-73886286D01*
X149030485Y-73897835D01*
X149025240Y-73908925D01*
X149018934Y-73919446D01*
X149011626Y-73929299D01*
X149003388Y-73938388D01*
X148994299Y-73946626D01*
X148984446Y-73953934D01*
X148973925Y-73960240D01*
X148962835Y-73965485D01*
X148951286Y-73969618D01*
X148939386Y-73972598D01*
X148927252Y-73974398D01*
X148915000Y-73975000D01*
X148665000Y-73975000D01*
X148652748Y-73974398D01*
X148640614Y-73972598D01*
X148628714Y-73969618D01*
X148617165Y-73965485D01*
X148606075Y-73960240D01*
X148595554Y-73953934D01*
X148585701Y-73946626D01*
X148576612Y-73938388D01*
X148568374Y-73929299D01*
X148561066Y-73919446D01*
X148554760Y-73908925D01*
X148549515Y-73897835D01*
X148545382Y-73886286D01*
X148542402Y-73874386D01*
X148540602Y-73862252D01*
X148540000Y-73850000D01*
X148540000Y-72600000D01*
X148540602Y-72587748D01*
X148542402Y-72575614D01*
X148545382Y-72563714D01*
X148549515Y-72552165D01*
X148554760Y-72541075D01*
X148561066Y-72530554D01*
X148568374Y-72520701D01*
X148576612Y-72511612D01*
X148585701Y-72503374D01*
X148595554Y-72496066D01*
X148606075Y-72489760D01*
X148617165Y-72484515D01*
X148628714Y-72480382D01*
X148640614Y-72477402D01*
X148652748Y-72475602D01*
X148665000Y-72475000D01*
X148915000Y-72475000D01*
X148927252Y-72475602D01*
X148927252Y-72475602D01*
G37*
D24*
X148790000Y-73225000D03*
D14*
G36*
X149727252Y-72475602D02*
G01*
X149739386Y-72477402D01*
X149751286Y-72480382D01*
X149762835Y-72484515D01*
X149773925Y-72489760D01*
X149784446Y-72496066D01*
X149794299Y-72503374D01*
X149803388Y-72511612D01*
X149811626Y-72520701D01*
X149818934Y-72530554D01*
X149825240Y-72541075D01*
X149830485Y-72552165D01*
X149834618Y-72563714D01*
X149837598Y-72575614D01*
X149839398Y-72587748D01*
X149840000Y-72600000D01*
X149840000Y-73850000D01*
X149839398Y-73862252D01*
X149837598Y-73874386D01*
X149834618Y-73886286D01*
X149830485Y-73897835D01*
X149825240Y-73908925D01*
X149818934Y-73919446D01*
X149811626Y-73929299D01*
X149803388Y-73938388D01*
X149794299Y-73946626D01*
X149784446Y-73953934D01*
X149773925Y-73960240D01*
X149762835Y-73965485D01*
X149751286Y-73969618D01*
X149739386Y-73972598D01*
X149727252Y-73974398D01*
X149715000Y-73975000D01*
X149465000Y-73975000D01*
X149452748Y-73974398D01*
X149440614Y-73972598D01*
X149428714Y-73969618D01*
X149417165Y-73965485D01*
X149406075Y-73960240D01*
X149395554Y-73953934D01*
X149385701Y-73946626D01*
X149376612Y-73938388D01*
X149368374Y-73929299D01*
X149361066Y-73919446D01*
X149354760Y-73908925D01*
X149349515Y-73897835D01*
X149345382Y-73886286D01*
X149342402Y-73874386D01*
X149340602Y-73862252D01*
X149340000Y-73850000D01*
X149340000Y-72600000D01*
X149340602Y-72587748D01*
X149342402Y-72575614D01*
X149345382Y-72563714D01*
X149349515Y-72552165D01*
X149354760Y-72541075D01*
X149361066Y-72530554D01*
X149368374Y-72520701D01*
X149376612Y-72511612D01*
X149385701Y-72503374D01*
X149395554Y-72496066D01*
X149406075Y-72489760D01*
X149417165Y-72484515D01*
X149428714Y-72480382D01*
X149440614Y-72477402D01*
X149452748Y-72475602D01*
X149465000Y-72475000D01*
X149715000Y-72475000D01*
X149727252Y-72475602D01*
X149727252Y-72475602D01*
G37*
D24*
X149590000Y-73225000D03*
D14*
G36*
X150527252Y-72475602D02*
G01*
X150539386Y-72477402D01*
X150551286Y-72480382D01*
X150562835Y-72484515D01*
X150573925Y-72489760D01*
X150584446Y-72496066D01*
X150594299Y-72503374D01*
X150603388Y-72511612D01*
X150611626Y-72520701D01*
X150618934Y-72530554D01*
X150625240Y-72541075D01*
X150630485Y-72552165D01*
X150634618Y-72563714D01*
X150637598Y-72575614D01*
X150639398Y-72587748D01*
X150640000Y-72600000D01*
X150640000Y-73850000D01*
X150639398Y-73862252D01*
X150637598Y-73874386D01*
X150634618Y-73886286D01*
X150630485Y-73897835D01*
X150625240Y-73908925D01*
X150618934Y-73919446D01*
X150611626Y-73929299D01*
X150603388Y-73938388D01*
X150594299Y-73946626D01*
X150584446Y-73953934D01*
X150573925Y-73960240D01*
X150562835Y-73965485D01*
X150551286Y-73969618D01*
X150539386Y-73972598D01*
X150527252Y-73974398D01*
X150515000Y-73975000D01*
X150265000Y-73975000D01*
X150252748Y-73974398D01*
X150240614Y-73972598D01*
X150228714Y-73969618D01*
X150217165Y-73965485D01*
X150206075Y-73960240D01*
X150195554Y-73953934D01*
X150185701Y-73946626D01*
X150176612Y-73938388D01*
X150168374Y-73929299D01*
X150161066Y-73919446D01*
X150154760Y-73908925D01*
X150149515Y-73897835D01*
X150145382Y-73886286D01*
X150142402Y-73874386D01*
X150140602Y-73862252D01*
X150140000Y-73850000D01*
X150140000Y-72600000D01*
X150140602Y-72587748D01*
X150142402Y-72575614D01*
X150145382Y-72563714D01*
X150149515Y-72552165D01*
X150154760Y-72541075D01*
X150161066Y-72530554D01*
X150168374Y-72520701D01*
X150176612Y-72511612D01*
X150185701Y-72503374D01*
X150195554Y-72496066D01*
X150206075Y-72489760D01*
X150217165Y-72484515D01*
X150228714Y-72480382D01*
X150240614Y-72477402D01*
X150252748Y-72475602D01*
X150265000Y-72475000D01*
X150515000Y-72475000D01*
X150527252Y-72475602D01*
X150527252Y-72475602D01*
G37*
D24*
X150390000Y-73225000D03*
D14*
G36*
X152402252Y-74350602D02*
G01*
X152414386Y-74352402D01*
X152426286Y-74355382D01*
X152437835Y-74359515D01*
X152448925Y-74364760D01*
X152459446Y-74371066D01*
X152469299Y-74378374D01*
X152478388Y-74386612D01*
X152486626Y-74395701D01*
X152493934Y-74405554D01*
X152500240Y-74416075D01*
X152505485Y-74427165D01*
X152509618Y-74438714D01*
X152512598Y-74450614D01*
X152514398Y-74462748D01*
X152515000Y-74475000D01*
X152515000Y-74725000D01*
X152514398Y-74737252D01*
X152512598Y-74749386D01*
X152509618Y-74761286D01*
X152505485Y-74772835D01*
X152500240Y-74783925D01*
X152493934Y-74794446D01*
X152486626Y-74804299D01*
X152478388Y-74813388D01*
X152469299Y-74821626D01*
X152459446Y-74828934D01*
X152448925Y-74835240D01*
X152437835Y-74840485D01*
X152426286Y-74844618D01*
X152414386Y-74847598D01*
X152402252Y-74849398D01*
X152390000Y-74850000D01*
X151140000Y-74850000D01*
X151127748Y-74849398D01*
X151115614Y-74847598D01*
X151103714Y-74844618D01*
X151092165Y-74840485D01*
X151081075Y-74835240D01*
X151070554Y-74828934D01*
X151060701Y-74821626D01*
X151051612Y-74813388D01*
X151043374Y-74804299D01*
X151036066Y-74794446D01*
X151029760Y-74783925D01*
X151024515Y-74772835D01*
X151020382Y-74761286D01*
X151017402Y-74749386D01*
X151015602Y-74737252D01*
X151015000Y-74725000D01*
X151015000Y-74475000D01*
X151015602Y-74462748D01*
X151017402Y-74450614D01*
X151020382Y-74438714D01*
X151024515Y-74427165D01*
X151029760Y-74416075D01*
X151036066Y-74405554D01*
X151043374Y-74395701D01*
X151051612Y-74386612D01*
X151060701Y-74378374D01*
X151070554Y-74371066D01*
X151081075Y-74364760D01*
X151092165Y-74359515D01*
X151103714Y-74355382D01*
X151115614Y-74352402D01*
X151127748Y-74350602D01*
X151140000Y-74350000D01*
X152390000Y-74350000D01*
X152402252Y-74350602D01*
X152402252Y-74350602D01*
G37*
D24*
X151765000Y-74600000D03*
D14*
G36*
X152402252Y-75150602D02*
G01*
X152414386Y-75152402D01*
X152426286Y-75155382D01*
X152437835Y-75159515D01*
X152448925Y-75164760D01*
X152459446Y-75171066D01*
X152469299Y-75178374D01*
X152478388Y-75186612D01*
X152486626Y-75195701D01*
X152493934Y-75205554D01*
X152500240Y-75216075D01*
X152505485Y-75227165D01*
X152509618Y-75238714D01*
X152512598Y-75250614D01*
X152514398Y-75262748D01*
X152515000Y-75275000D01*
X152515000Y-75525000D01*
X152514398Y-75537252D01*
X152512598Y-75549386D01*
X152509618Y-75561286D01*
X152505485Y-75572835D01*
X152500240Y-75583925D01*
X152493934Y-75594446D01*
X152486626Y-75604299D01*
X152478388Y-75613388D01*
X152469299Y-75621626D01*
X152459446Y-75628934D01*
X152448925Y-75635240D01*
X152437835Y-75640485D01*
X152426286Y-75644618D01*
X152414386Y-75647598D01*
X152402252Y-75649398D01*
X152390000Y-75650000D01*
X151140000Y-75650000D01*
X151127748Y-75649398D01*
X151115614Y-75647598D01*
X151103714Y-75644618D01*
X151092165Y-75640485D01*
X151081075Y-75635240D01*
X151070554Y-75628934D01*
X151060701Y-75621626D01*
X151051612Y-75613388D01*
X151043374Y-75604299D01*
X151036066Y-75594446D01*
X151029760Y-75583925D01*
X151024515Y-75572835D01*
X151020382Y-75561286D01*
X151017402Y-75549386D01*
X151015602Y-75537252D01*
X151015000Y-75525000D01*
X151015000Y-75275000D01*
X151015602Y-75262748D01*
X151017402Y-75250614D01*
X151020382Y-75238714D01*
X151024515Y-75227165D01*
X151029760Y-75216075D01*
X151036066Y-75205554D01*
X151043374Y-75195701D01*
X151051612Y-75186612D01*
X151060701Y-75178374D01*
X151070554Y-75171066D01*
X151081075Y-75164760D01*
X151092165Y-75159515D01*
X151103714Y-75155382D01*
X151115614Y-75152402D01*
X151127748Y-75150602D01*
X151140000Y-75150000D01*
X152390000Y-75150000D01*
X152402252Y-75150602D01*
X152402252Y-75150602D01*
G37*
D24*
X151765000Y-75400000D03*
D14*
G36*
X152402252Y-75950602D02*
G01*
X152414386Y-75952402D01*
X152426286Y-75955382D01*
X152437835Y-75959515D01*
X152448925Y-75964760D01*
X152459446Y-75971066D01*
X152469299Y-75978374D01*
X152478388Y-75986612D01*
X152486626Y-75995701D01*
X152493934Y-76005554D01*
X152500240Y-76016075D01*
X152505485Y-76027165D01*
X152509618Y-76038714D01*
X152512598Y-76050614D01*
X152514398Y-76062748D01*
X152515000Y-76075000D01*
X152515000Y-76325000D01*
X152514398Y-76337252D01*
X152512598Y-76349386D01*
X152509618Y-76361286D01*
X152505485Y-76372835D01*
X152500240Y-76383925D01*
X152493934Y-76394446D01*
X152486626Y-76404299D01*
X152478388Y-76413388D01*
X152469299Y-76421626D01*
X152459446Y-76428934D01*
X152448925Y-76435240D01*
X152437835Y-76440485D01*
X152426286Y-76444618D01*
X152414386Y-76447598D01*
X152402252Y-76449398D01*
X152390000Y-76450000D01*
X151140000Y-76450000D01*
X151127748Y-76449398D01*
X151115614Y-76447598D01*
X151103714Y-76444618D01*
X151092165Y-76440485D01*
X151081075Y-76435240D01*
X151070554Y-76428934D01*
X151060701Y-76421626D01*
X151051612Y-76413388D01*
X151043374Y-76404299D01*
X151036066Y-76394446D01*
X151029760Y-76383925D01*
X151024515Y-76372835D01*
X151020382Y-76361286D01*
X151017402Y-76349386D01*
X151015602Y-76337252D01*
X151015000Y-76325000D01*
X151015000Y-76075000D01*
X151015602Y-76062748D01*
X151017402Y-76050614D01*
X151020382Y-76038714D01*
X151024515Y-76027165D01*
X151029760Y-76016075D01*
X151036066Y-76005554D01*
X151043374Y-75995701D01*
X151051612Y-75986612D01*
X151060701Y-75978374D01*
X151070554Y-75971066D01*
X151081075Y-75964760D01*
X151092165Y-75959515D01*
X151103714Y-75955382D01*
X151115614Y-75952402D01*
X151127748Y-75950602D01*
X151140000Y-75950000D01*
X152390000Y-75950000D01*
X152402252Y-75950602D01*
X152402252Y-75950602D01*
G37*
D24*
X151765000Y-76200000D03*
D14*
G36*
X152402252Y-76750602D02*
G01*
X152414386Y-76752402D01*
X152426286Y-76755382D01*
X152437835Y-76759515D01*
X152448925Y-76764760D01*
X152459446Y-76771066D01*
X152469299Y-76778374D01*
X152478388Y-76786612D01*
X152486626Y-76795701D01*
X152493934Y-76805554D01*
X152500240Y-76816075D01*
X152505485Y-76827165D01*
X152509618Y-76838714D01*
X152512598Y-76850614D01*
X152514398Y-76862748D01*
X152515000Y-76875000D01*
X152515000Y-77125000D01*
X152514398Y-77137252D01*
X152512598Y-77149386D01*
X152509618Y-77161286D01*
X152505485Y-77172835D01*
X152500240Y-77183925D01*
X152493934Y-77194446D01*
X152486626Y-77204299D01*
X152478388Y-77213388D01*
X152469299Y-77221626D01*
X152459446Y-77228934D01*
X152448925Y-77235240D01*
X152437835Y-77240485D01*
X152426286Y-77244618D01*
X152414386Y-77247598D01*
X152402252Y-77249398D01*
X152390000Y-77250000D01*
X151140000Y-77250000D01*
X151127748Y-77249398D01*
X151115614Y-77247598D01*
X151103714Y-77244618D01*
X151092165Y-77240485D01*
X151081075Y-77235240D01*
X151070554Y-77228934D01*
X151060701Y-77221626D01*
X151051612Y-77213388D01*
X151043374Y-77204299D01*
X151036066Y-77194446D01*
X151029760Y-77183925D01*
X151024515Y-77172835D01*
X151020382Y-77161286D01*
X151017402Y-77149386D01*
X151015602Y-77137252D01*
X151015000Y-77125000D01*
X151015000Y-76875000D01*
X151015602Y-76862748D01*
X151017402Y-76850614D01*
X151020382Y-76838714D01*
X151024515Y-76827165D01*
X151029760Y-76816075D01*
X151036066Y-76805554D01*
X151043374Y-76795701D01*
X151051612Y-76786612D01*
X151060701Y-76778374D01*
X151070554Y-76771066D01*
X151081075Y-76764760D01*
X151092165Y-76759515D01*
X151103714Y-76755382D01*
X151115614Y-76752402D01*
X151127748Y-76750602D01*
X151140000Y-76750000D01*
X152390000Y-76750000D01*
X152402252Y-76750602D01*
X152402252Y-76750602D01*
G37*
D24*
X151765000Y-77000000D03*
D14*
G36*
X152402252Y-77550602D02*
G01*
X152414386Y-77552402D01*
X152426286Y-77555382D01*
X152437835Y-77559515D01*
X152448925Y-77564760D01*
X152459446Y-77571066D01*
X152469299Y-77578374D01*
X152478388Y-77586612D01*
X152486626Y-77595701D01*
X152493934Y-77605554D01*
X152500240Y-77616075D01*
X152505485Y-77627165D01*
X152509618Y-77638714D01*
X152512598Y-77650614D01*
X152514398Y-77662748D01*
X152515000Y-77675000D01*
X152515000Y-77925000D01*
X152514398Y-77937252D01*
X152512598Y-77949386D01*
X152509618Y-77961286D01*
X152505485Y-77972835D01*
X152500240Y-77983925D01*
X152493934Y-77994446D01*
X152486626Y-78004299D01*
X152478388Y-78013388D01*
X152469299Y-78021626D01*
X152459446Y-78028934D01*
X152448925Y-78035240D01*
X152437835Y-78040485D01*
X152426286Y-78044618D01*
X152414386Y-78047598D01*
X152402252Y-78049398D01*
X152390000Y-78050000D01*
X151140000Y-78050000D01*
X151127748Y-78049398D01*
X151115614Y-78047598D01*
X151103714Y-78044618D01*
X151092165Y-78040485D01*
X151081075Y-78035240D01*
X151070554Y-78028934D01*
X151060701Y-78021626D01*
X151051612Y-78013388D01*
X151043374Y-78004299D01*
X151036066Y-77994446D01*
X151029760Y-77983925D01*
X151024515Y-77972835D01*
X151020382Y-77961286D01*
X151017402Y-77949386D01*
X151015602Y-77937252D01*
X151015000Y-77925000D01*
X151015000Y-77675000D01*
X151015602Y-77662748D01*
X151017402Y-77650614D01*
X151020382Y-77638714D01*
X151024515Y-77627165D01*
X151029760Y-77616075D01*
X151036066Y-77605554D01*
X151043374Y-77595701D01*
X151051612Y-77586612D01*
X151060701Y-77578374D01*
X151070554Y-77571066D01*
X151081075Y-77564760D01*
X151092165Y-77559515D01*
X151103714Y-77555382D01*
X151115614Y-77552402D01*
X151127748Y-77550602D01*
X151140000Y-77550000D01*
X152390000Y-77550000D01*
X152402252Y-77550602D01*
X152402252Y-77550602D01*
G37*
D24*
X151765000Y-77800000D03*
D14*
G36*
X152402252Y-78350602D02*
G01*
X152414386Y-78352402D01*
X152426286Y-78355382D01*
X152437835Y-78359515D01*
X152448925Y-78364760D01*
X152459446Y-78371066D01*
X152469299Y-78378374D01*
X152478388Y-78386612D01*
X152486626Y-78395701D01*
X152493934Y-78405554D01*
X152500240Y-78416075D01*
X152505485Y-78427165D01*
X152509618Y-78438714D01*
X152512598Y-78450614D01*
X152514398Y-78462748D01*
X152515000Y-78475000D01*
X152515000Y-78725000D01*
X152514398Y-78737252D01*
X152512598Y-78749386D01*
X152509618Y-78761286D01*
X152505485Y-78772835D01*
X152500240Y-78783925D01*
X152493934Y-78794446D01*
X152486626Y-78804299D01*
X152478388Y-78813388D01*
X152469299Y-78821626D01*
X152459446Y-78828934D01*
X152448925Y-78835240D01*
X152437835Y-78840485D01*
X152426286Y-78844618D01*
X152414386Y-78847598D01*
X152402252Y-78849398D01*
X152390000Y-78850000D01*
X151140000Y-78850000D01*
X151127748Y-78849398D01*
X151115614Y-78847598D01*
X151103714Y-78844618D01*
X151092165Y-78840485D01*
X151081075Y-78835240D01*
X151070554Y-78828934D01*
X151060701Y-78821626D01*
X151051612Y-78813388D01*
X151043374Y-78804299D01*
X151036066Y-78794446D01*
X151029760Y-78783925D01*
X151024515Y-78772835D01*
X151020382Y-78761286D01*
X151017402Y-78749386D01*
X151015602Y-78737252D01*
X151015000Y-78725000D01*
X151015000Y-78475000D01*
X151015602Y-78462748D01*
X151017402Y-78450614D01*
X151020382Y-78438714D01*
X151024515Y-78427165D01*
X151029760Y-78416075D01*
X151036066Y-78405554D01*
X151043374Y-78395701D01*
X151051612Y-78386612D01*
X151060701Y-78378374D01*
X151070554Y-78371066D01*
X151081075Y-78364760D01*
X151092165Y-78359515D01*
X151103714Y-78355382D01*
X151115614Y-78352402D01*
X151127748Y-78350602D01*
X151140000Y-78350000D01*
X152390000Y-78350000D01*
X152402252Y-78350602D01*
X152402252Y-78350602D01*
G37*
D24*
X151765000Y-78600000D03*
D14*
G36*
X152402252Y-79150602D02*
G01*
X152414386Y-79152402D01*
X152426286Y-79155382D01*
X152437835Y-79159515D01*
X152448925Y-79164760D01*
X152459446Y-79171066D01*
X152469299Y-79178374D01*
X152478388Y-79186612D01*
X152486626Y-79195701D01*
X152493934Y-79205554D01*
X152500240Y-79216075D01*
X152505485Y-79227165D01*
X152509618Y-79238714D01*
X152512598Y-79250614D01*
X152514398Y-79262748D01*
X152515000Y-79275000D01*
X152515000Y-79525000D01*
X152514398Y-79537252D01*
X152512598Y-79549386D01*
X152509618Y-79561286D01*
X152505485Y-79572835D01*
X152500240Y-79583925D01*
X152493934Y-79594446D01*
X152486626Y-79604299D01*
X152478388Y-79613388D01*
X152469299Y-79621626D01*
X152459446Y-79628934D01*
X152448925Y-79635240D01*
X152437835Y-79640485D01*
X152426286Y-79644618D01*
X152414386Y-79647598D01*
X152402252Y-79649398D01*
X152390000Y-79650000D01*
X151140000Y-79650000D01*
X151127748Y-79649398D01*
X151115614Y-79647598D01*
X151103714Y-79644618D01*
X151092165Y-79640485D01*
X151081075Y-79635240D01*
X151070554Y-79628934D01*
X151060701Y-79621626D01*
X151051612Y-79613388D01*
X151043374Y-79604299D01*
X151036066Y-79594446D01*
X151029760Y-79583925D01*
X151024515Y-79572835D01*
X151020382Y-79561286D01*
X151017402Y-79549386D01*
X151015602Y-79537252D01*
X151015000Y-79525000D01*
X151015000Y-79275000D01*
X151015602Y-79262748D01*
X151017402Y-79250614D01*
X151020382Y-79238714D01*
X151024515Y-79227165D01*
X151029760Y-79216075D01*
X151036066Y-79205554D01*
X151043374Y-79195701D01*
X151051612Y-79186612D01*
X151060701Y-79178374D01*
X151070554Y-79171066D01*
X151081075Y-79164760D01*
X151092165Y-79159515D01*
X151103714Y-79155382D01*
X151115614Y-79152402D01*
X151127748Y-79150602D01*
X151140000Y-79150000D01*
X152390000Y-79150000D01*
X152402252Y-79150602D01*
X152402252Y-79150602D01*
G37*
D24*
X151765000Y-79400000D03*
D14*
G36*
X152402252Y-79950602D02*
G01*
X152414386Y-79952402D01*
X152426286Y-79955382D01*
X152437835Y-79959515D01*
X152448925Y-79964760D01*
X152459446Y-79971066D01*
X152469299Y-79978374D01*
X152478388Y-79986612D01*
X152486626Y-79995701D01*
X152493934Y-80005554D01*
X152500240Y-80016075D01*
X152505485Y-80027165D01*
X152509618Y-80038714D01*
X152512598Y-80050614D01*
X152514398Y-80062748D01*
X152515000Y-80075000D01*
X152515000Y-80325000D01*
X152514398Y-80337252D01*
X152512598Y-80349386D01*
X152509618Y-80361286D01*
X152505485Y-80372835D01*
X152500240Y-80383925D01*
X152493934Y-80394446D01*
X152486626Y-80404299D01*
X152478388Y-80413388D01*
X152469299Y-80421626D01*
X152459446Y-80428934D01*
X152448925Y-80435240D01*
X152437835Y-80440485D01*
X152426286Y-80444618D01*
X152414386Y-80447598D01*
X152402252Y-80449398D01*
X152390000Y-80450000D01*
X151140000Y-80450000D01*
X151127748Y-80449398D01*
X151115614Y-80447598D01*
X151103714Y-80444618D01*
X151092165Y-80440485D01*
X151081075Y-80435240D01*
X151070554Y-80428934D01*
X151060701Y-80421626D01*
X151051612Y-80413388D01*
X151043374Y-80404299D01*
X151036066Y-80394446D01*
X151029760Y-80383925D01*
X151024515Y-80372835D01*
X151020382Y-80361286D01*
X151017402Y-80349386D01*
X151015602Y-80337252D01*
X151015000Y-80325000D01*
X151015000Y-80075000D01*
X151015602Y-80062748D01*
X151017402Y-80050614D01*
X151020382Y-80038714D01*
X151024515Y-80027165D01*
X151029760Y-80016075D01*
X151036066Y-80005554D01*
X151043374Y-79995701D01*
X151051612Y-79986612D01*
X151060701Y-79978374D01*
X151070554Y-79971066D01*
X151081075Y-79964760D01*
X151092165Y-79959515D01*
X151103714Y-79955382D01*
X151115614Y-79952402D01*
X151127748Y-79950602D01*
X151140000Y-79950000D01*
X152390000Y-79950000D01*
X152402252Y-79950602D01*
X152402252Y-79950602D01*
G37*
D24*
X151765000Y-80200000D03*
D14*
G36*
X150527252Y-80825602D02*
G01*
X150539386Y-80827402D01*
X150551286Y-80830382D01*
X150562835Y-80834515D01*
X150573925Y-80839760D01*
X150584446Y-80846066D01*
X150594299Y-80853374D01*
X150603388Y-80861612D01*
X150611626Y-80870701D01*
X150618934Y-80880554D01*
X150625240Y-80891075D01*
X150630485Y-80902165D01*
X150634618Y-80913714D01*
X150637598Y-80925614D01*
X150639398Y-80937748D01*
X150640000Y-80950000D01*
X150640000Y-82200000D01*
X150639398Y-82212252D01*
X150637598Y-82224386D01*
X150634618Y-82236286D01*
X150630485Y-82247835D01*
X150625240Y-82258925D01*
X150618934Y-82269446D01*
X150611626Y-82279299D01*
X150603388Y-82288388D01*
X150594299Y-82296626D01*
X150584446Y-82303934D01*
X150573925Y-82310240D01*
X150562835Y-82315485D01*
X150551286Y-82319618D01*
X150539386Y-82322598D01*
X150527252Y-82324398D01*
X150515000Y-82325000D01*
X150265000Y-82325000D01*
X150252748Y-82324398D01*
X150240614Y-82322598D01*
X150228714Y-82319618D01*
X150217165Y-82315485D01*
X150206075Y-82310240D01*
X150195554Y-82303934D01*
X150185701Y-82296626D01*
X150176612Y-82288388D01*
X150168374Y-82279299D01*
X150161066Y-82269446D01*
X150154760Y-82258925D01*
X150149515Y-82247835D01*
X150145382Y-82236286D01*
X150142402Y-82224386D01*
X150140602Y-82212252D01*
X150140000Y-82200000D01*
X150140000Y-80950000D01*
X150140602Y-80937748D01*
X150142402Y-80925614D01*
X150145382Y-80913714D01*
X150149515Y-80902165D01*
X150154760Y-80891075D01*
X150161066Y-80880554D01*
X150168374Y-80870701D01*
X150176612Y-80861612D01*
X150185701Y-80853374D01*
X150195554Y-80846066D01*
X150206075Y-80839760D01*
X150217165Y-80834515D01*
X150228714Y-80830382D01*
X150240614Y-80827402D01*
X150252748Y-80825602D01*
X150265000Y-80825000D01*
X150515000Y-80825000D01*
X150527252Y-80825602D01*
X150527252Y-80825602D01*
G37*
D24*
X150390000Y-81575000D03*
D14*
G36*
X149727252Y-80825602D02*
G01*
X149739386Y-80827402D01*
X149751286Y-80830382D01*
X149762835Y-80834515D01*
X149773925Y-80839760D01*
X149784446Y-80846066D01*
X149794299Y-80853374D01*
X149803388Y-80861612D01*
X149811626Y-80870701D01*
X149818934Y-80880554D01*
X149825240Y-80891075D01*
X149830485Y-80902165D01*
X149834618Y-80913714D01*
X149837598Y-80925614D01*
X149839398Y-80937748D01*
X149840000Y-80950000D01*
X149840000Y-82200000D01*
X149839398Y-82212252D01*
X149837598Y-82224386D01*
X149834618Y-82236286D01*
X149830485Y-82247835D01*
X149825240Y-82258925D01*
X149818934Y-82269446D01*
X149811626Y-82279299D01*
X149803388Y-82288388D01*
X149794299Y-82296626D01*
X149784446Y-82303934D01*
X149773925Y-82310240D01*
X149762835Y-82315485D01*
X149751286Y-82319618D01*
X149739386Y-82322598D01*
X149727252Y-82324398D01*
X149715000Y-82325000D01*
X149465000Y-82325000D01*
X149452748Y-82324398D01*
X149440614Y-82322598D01*
X149428714Y-82319618D01*
X149417165Y-82315485D01*
X149406075Y-82310240D01*
X149395554Y-82303934D01*
X149385701Y-82296626D01*
X149376612Y-82288388D01*
X149368374Y-82279299D01*
X149361066Y-82269446D01*
X149354760Y-82258925D01*
X149349515Y-82247835D01*
X149345382Y-82236286D01*
X149342402Y-82224386D01*
X149340602Y-82212252D01*
X149340000Y-82200000D01*
X149340000Y-80950000D01*
X149340602Y-80937748D01*
X149342402Y-80925614D01*
X149345382Y-80913714D01*
X149349515Y-80902165D01*
X149354760Y-80891075D01*
X149361066Y-80880554D01*
X149368374Y-80870701D01*
X149376612Y-80861612D01*
X149385701Y-80853374D01*
X149395554Y-80846066D01*
X149406075Y-80839760D01*
X149417165Y-80834515D01*
X149428714Y-80830382D01*
X149440614Y-80827402D01*
X149452748Y-80825602D01*
X149465000Y-80825000D01*
X149715000Y-80825000D01*
X149727252Y-80825602D01*
X149727252Y-80825602D01*
G37*
D24*
X149590000Y-81575000D03*
D14*
G36*
X148927252Y-80825602D02*
G01*
X148939386Y-80827402D01*
X148951286Y-80830382D01*
X148962835Y-80834515D01*
X148973925Y-80839760D01*
X148984446Y-80846066D01*
X148994299Y-80853374D01*
X149003388Y-80861612D01*
X149011626Y-80870701D01*
X149018934Y-80880554D01*
X149025240Y-80891075D01*
X149030485Y-80902165D01*
X149034618Y-80913714D01*
X149037598Y-80925614D01*
X149039398Y-80937748D01*
X149040000Y-80950000D01*
X149040000Y-82200000D01*
X149039398Y-82212252D01*
X149037598Y-82224386D01*
X149034618Y-82236286D01*
X149030485Y-82247835D01*
X149025240Y-82258925D01*
X149018934Y-82269446D01*
X149011626Y-82279299D01*
X149003388Y-82288388D01*
X148994299Y-82296626D01*
X148984446Y-82303934D01*
X148973925Y-82310240D01*
X148962835Y-82315485D01*
X148951286Y-82319618D01*
X148939386Y-82322598D01*
X148927252Y-82324398D01*
X148915000Y-82325000D01*
X148665000Y-82325000D01*
X148652748Y-82324398D01*
X148640614Y-82322598D01*
X148628714Y-82319618D01*
X148617165Y-82315485D01*
X148606075Y-82310240D01*
X148595554Y-82303934D01*
X148585701Y-82296626D01*
X148576612Y-82288388D01*
X148568374Y-82279299D01*
X148561066Y-82269446D01*
X148554760Y-82258925D01*
X148549515Y-82247835D01*
X148545382Y-82236286D01*
X148542402Y-82224386D01*
X148540602Y-82212252D01*
X148540000Y-82200000D01*
X148540000Y-80950000D01*
X148540602Y-80937748D01*
X148542402Y-80925614D01*
X148545382Y-80913714D01*
X148549515Y-80902165D01*
X148554760Y-80891075D01*
X148561066Y-80880554D01*
X148568374Y-80870701D01*
X148576612Y-80861612D01*
X148585701Y-80853374D01*
X148595554Y-80846066D01*
X148606075Y-80839760D01*
X148617165Y-80834515D01*
X148628714Y-80830382D01*
X148640614Y-80827402D01*
X148652748Y-80825602D01*
X148665000Y-80825000D01*
X148915000Y-80825000D01*
X148927252Y-80825602D01*
X148927252Y-80825602D01*
G37*
D24*
X148790000Y-81575000D03*
D14*
G36*
X148127252Y-80825602D02*
G01*
X148139386Y-80827402D01*
X148151286Y-80830382D01*
X148162835Y-80834515D01*
X148173925Y-80839760D01*
X148184446Y-80846066D01*
X148194299Y-80853374D01*
X148203388Y-80861612D01*
X148211626Y-80870701D01*
X148218934Y-80880554D01*
X148225240Y-80891075D01*
X148230485Y-80902165D01*
X148234618Y-80913714D01*
X148237598Y-80925614D01*
X148239398Y-80937748D01*
X148240000Y-80950000D01*
X148240000Y-82200000D01*
X148239398Y-82212252D01*
X148237598Y-82224386D01*
X148234618Y-82236286D01*
X148230485Y-82247835D01*
X148225240Y-82258925D01*
X148218934Y-82269446D01*
X148211626Y-82279299D01*
X148203388Y-82288388D01*
X148194299Y-82296626D01*
X148184446Y-82303934D01*
X148173925Y-82310240D01*
X148162835Y-82315485D01*
X148151286Y-82319618D01*
X148139386Y-82322598D01*
X148127252Y-82324398D01*
X148115000Y-82325000D01*
X147865000Y-82325000D01*
X147852748Y-82324398D01*
X147840614Y-82322598D01*
X147828714Y-82319618D01*
X147817165Y-82315485D01*
X147806075Y-82310240D01*
X147795554Y-82303934D01*
X147785701Y-82296626D01*
X147776612Y-82288388D01*
X147768374Y-82279299D01*
X147761066Y-82269446D01*
X147754760Y-82258925D01*
X147749515Y-82247835D01*
X147745382Y-82236286D01*
X147742402Y-82224386D01*
X147740602Y-82212252D01*
X147740000Y-82200000D01*
X147740000Y-80950000D01*
X147740602Y-80937748D01*
X147742402Y-80925614D01*
X147745382Y-80913714D01*
X147749515Y-80902165D01*
X147754760Y-80891075D01*
X147761066Y-80880554D01*
X147768374Y-80870701D01*
X147776612Y-80861612D01*
X147785701Y-80853374D01*
X147795554Y-80846066D01*
X147806075Y-80839760D01*
X147817165Y-80834515D01*
X147828714Y-80830382D01*
X147840614Y-80827402D01*
X147852748Y-80825602D01*
X147865000Y-80825000D01*
X148115000Y-80825000D01*
X148127252Y-80825602D01*
X148127252Y-80825602D01*
G37*
D24*
X147990000Y-81575000D03*
D14*
G36*
X147327252Y-80825602D02*
G01*
X147339386Y-80827402D01*
X147351286Y-80830382D01*
X147362835Y-80834515D01*
X147373925Y-80839760D01*
X147384446Y-80846066D01*
X147394299Y-80853374D01*
X147403388Y-80861612D01*
X147411626Y-80870701D01*
X147418934Y-80880554D01*
X147425240Y-80891075D01*
X147430485Y-80902165D01*
X147434618Y-80913714D01*
X147437598Y-80925614D01*
X147439398Y-80937748D01*
X147440000Y-80950000D01*
X147440000Y-82200000D01*
X147439398Y-82212252D01*
X147437598Y-82224386D01*
X147434618Y-82236286D01*
X147430485Y-82247835D01*
X147425240Y-82258925D01*
X147418934Y-82269446D01*
X147411626Y-82279299D01*
X147403388Y-82288388D01*
X147394299Y-82296626D01*
X147384446Y-82303934D01*
X147373925Y-82310240D01*
X147362835Y-82315485D01*
X147351286Y-82319618D01*
X147339386Y-82322598D01*
X147327252Y-82324398D01*
X147315000Y-82325000D01*
X147065000Y-82325000D01*
X147052748Y-82324398D01*
X147040614Y-82322598D01*
X147028714Y-82319618D01*
X147017165Y-82315485D01*
X147006075Y-82310240D01*
X146995554Y-82303934D01*
X146985701Y-82296626D01*
X146976612Y-82288388D01*
X146968374Y-82279299D01*
X146961066Y-82269446D01*
X146954760Y-82258925D01*
X146949515Y-82247835D01*
X146945382Y-82236286D01*
X146942402Y-82224386D01*
X146940602Y-82212252D01*
X146940000Y-82200000D01*
X146940000Y-80950000D01*
X146940602Y-80937748D01*
X146942402Y-80925614D01*
X146945382Y-80913714D01*
X146949515Y-80902165D01*
X146954760Y-80891075D01*
X146961066Y-80880554D01*
X146968374Y-80870701D01*
X146976612Y-80861612D01*
X146985701Y-80853374D01*
X146995554Y-80846066D01*
X147006075Y-80839760D01*
X147017165Y-80834515D01*
X147028714Y-80830382D01*
X147040614Y-80827402D01*
X147052748Y-80825602D01*
X147065000Y-80825000D01*
X147315000Y-80825000D01*
X147327252Y-80825602D01*
X147327252Y-80825602D01*
G37*
D24*
X147190000Y-81575000D03*
D14*
G36*
X146527252Y-80825602D02*
G01*
X146539386Y-80827402D01*
X146551286Y-80830382D01*
X146562835Y-80834515D01*
X146573925Y-80839760D01*
X146584446Y-80846066D01*
X146594299Y-80853374D01*
X146603388Y-80861612D01*
X146611626Y-80870701D01*
X146618934Y-80880554D01*
X146625240Y-80891075D01*
X146630485Y-80902165D01*
X146634618Y-80913714D01*
X146637598Y-80925614D01*
X146639398Y-80937748D01*
X146640000Y-80950000D01*
X146640000Y-82200000D01*
X146639398Y-82212252D01*
X146637598Y-82224386D01*
X146634618Y-82236286D01*
X146630485Y-82247835D01*
X146625240Y-82258925D01*
X146618934Y-82269446D01*
X146611626Y-82279299D01*
X146603388Y-82288388D01*
X146594299Y-82296626D01*
X146584446Y-82303934D01*
X146573925Y-82310240D01*
X146562835Y-82315485D01*
X146551286Y-82319618D01*
X146539386Y-82322598D01*
X146527252Y-82324398D01*
X146515000Y-82325000D01*
X146265000Y-82325000D01*
X146252748Y-82324398D01*
X146240614Y-82322598D01*
X146228714Y-82319618D01*
X146217165Y-82315485D01*
X146206075Y-82310240D01*
X146195554Y-82303934D01*
X146185701Y-82296626D01*
X146176612Y-82288388D01*
X146168374Y-82279299D01*
X146161066Y-82269446D01*
X146154760Y-82258925D01*
X146149515Y-82247835D01*
X146145382Y-82236286D01*
X146142402Y-82224386D01*
X146140602Y-82212252D01*
X146140000Y-82200000D01*
X146140000Y-80950000D01*
X146140602Y-80937748D01*
X146142402Y-80925614D01*
X146145382Y-80913714D01*
X146149515Y-80902165D01*
X146154760Y-80891075D01*
X146161066Y-80880554D01*
X146168374Y-80870701D01*
X146176612Y-80861612D01*
X146185701Y-80853374D01*
X146195554Y-80846066D01*
X146206075Y-80839760D01*
X146217165Y-80834515D01*
X146228714Y-80830382D01*
X146240614Y-80827402D01*
X146252748Y-80825602D01*
X146265000Y-80825000D01*
X146515000Y-80825000D01*
X146527252Y-80825602D01*
X146527252Y-80825602D01*
G37*
D24*
X146390000Y-81575000D03*
D14*
G36*
X145727252Y-80825602D02*
G01*
X145739386Y-80827402D01*
X145751286Y-80830382D01*
X145762835Y-80834515D01*
X145773925Y-80839760D01*
X145784446Y-80846066D01*
X145794299Y-80853374D01*
X145803388Y-80861612D01*
X145811626Y-80870701D01*
X145818934Y-80880554D01*
X145825240Y-80891075D01*
X145830485Y-80902165D01*
X145834618Y-80913714D01*
X145837598Y-80925614D01*
X145839398Y-80937748D01*
X145840000Y-80950000D01*
X145840000Y-82200000D01*
X145839398Y-82212252D01*
X145837598Y-82224386D01*
X145834618Y-82236286D01*
X145830485Y-82247835D01*
X145825240Y-82258925D01*
X145818934Y-82269446D01*
X145811626Y-82279299D01*
X145803388Y-82288388D01*
X145794299Y-82296626D01*
X145784446Y-82303934D01*
X145773925Y-82310240D01*
X145762835Y-82315485D01*
X145751286Y-82319618D01*
X145739386Y-82322598D01*
X145727252Y-82324398D01*
X145715000Y-82325000D01*
X145465000Y-82325000D01*
X145452748Y-82324398D01*
X145440614Y-82322598D01*
X145428714Y-82319618D01*
X145417165Y-82315485D01*
X145406075Y-82310240D01*
X145395554Y-82303934D01*
X145385701Y-82296626D01*
X145376612Y-82288388D01*
X145368374Y-82279299D01*
X145361066Y-82269446D01*
X145354760Y-82258925D01*
X145349515Y-82247835D01*
X145345382Y-82236286D01*
X145342402Y-82224386D01*
X145340602Y-82212252D01*
X145340000Y-82200000D01*
X145340000Y-80950000D01*
X145340602Y-80937748D01*
X145342402Y-80925614D01*
X145345382Y-80913714D01*
X145349515Y-80902165D01*
X145354760Y-80891075D01*
X145361066Y-80880554D01*
X145368374Y-80870701D01*
X145376612Y-80861612D01*
X145385701Y-80853374D01*
X145395554Y-80846066D01*
X145406075Y-80839760D01*
X145417165Y-80834515D01*
X145428714Y-80830382D01*
X145440614Y-80827402D01*
X145452748Y-80825602D01*
X145465000Y-80825000D01*
X145715000Y-80825000D01*
X145727252Y-80825602D01*
X145727252Y-80825602D01*
G37*
D24*
X145590000Y-81575000D03*
D14*
G36*
X144927252Y-80825602D02*
G01*
X144939386Y-80827402D01*
X144951286Y-80830382D01*
X144962835Y-80834515D01*
X144973925Y-80839760D01*
X144984446Y-80846066D01*
X144994299Y-80853374D01*
X145003388Y-80861612D01*
X145011626Y-80870701D01*
X145018934Y-80880554D01*
X145025240Y-80891075D01*
X145030485Y-80902165D01*
X145034618Y-80913714D01*
X145037598Y-80925614D01*
X145039398Y-80937748D01*
X145040000Y-80950000D01*
X145040000Y-82200000D01*
X145039398Y-82212252D01*
X145037598Y-82224386D01*
X145034618Y-82236286D01*
X145030485Y-82247835D01*
X145025240Y-82258925D01*
X145018934Y-82269446D01*
X145011626Y-82279299D01*
X145003388Y-82288388D01*
X144994299Y-82296626D01*
X144984446Y-82303934D01*
X144973925Y-82310240D01*
X144962835Y-82315485D01*
X144951286Y-82319618D01*
X144939386Y-82322598D01*
X144927252Y-82324398D01*
X144915000Y-82325000D01*
X144665000Y-82325000D01*
X144652748Y-82324398D01*
X144640614Y-82322598D01*
X144628714Y-82319618D01*
X144617165Y-82315485D01*
X144606075Y-82310240D01*
X144595554Y-82303934D01*
X144585701Y-82296626D01*
X144576612Y-82288388D01*
X144568374Y-82279299D01*
X144561066Y-82269446D01*
X144554760Y-82258925D01*
X144549515Y-82247835D01*
X144545382Y-82236286D01*
X144542402Y-82224386D01*
X144540602Y-82212252D01*
X144540000Y-82200000D01*
X144540000Y-80950000D01*
X144540602Y-80937748D01*
X144542402Y-80925614D01*
X144545382Y-80913714D01*
X144549515Y-80902165D01*
X144554760Y-80891075D01*
X144561066Y-80880554D01*
X144568374Y-80870701D01*
X144576612Y-80861612D01*
X144585701Y-80853374D01*
X144595554Y-80846066D01*
X144606075Y-80839760D01*
X144617165Y-80834515D01*
X144628714Y-80830382D01*
X144640614Y-80827402D01*
X144652748Y-80825602D01*
X144665000Y-80825000D01*
X144915000Y-80825000D01*
X144927252Y-80825602D01*
X144927252Y-80825602D01*
G37*
D24*
X144790000Y-81575000D03*
D14*
G36*
X144052252Y-79950602D02*
G01*
X144064386Y-79952402D01*
X144076286Y-79955382D01*
X144087835Y-79959515D01*
X144098925Y-79964760D01*
X144109446Y-79971066D01*
X144119299Y-79978374D01*
X144128388Y-79986612D01*
X144136626Y-79995701D01*
X144143934Y-80005554D01*
X144150240Y-80016075D01*
X144155485Y-80027165D01*
X144159618Y-80038714D01*
X144162598Y-80050614D01*
X144164398Y-80062748D01*
X144165000Y-80075000D01*
X144165000Y-80325000D01*
X144164398Y-80337252D01*
X144162598Y-80349386D01*
X144159618Y-80361286D01*
X144155485Y-80372835D01*
X144150240Y-80383925D01*
X144143934Y-80394446D01*
X144136626Y-80404299D01*
X144128388Y-80413388D01*
X144119299Y-80421626D01*
X144109446Y-80428934D01*
X144098925Y-80435240D01*
X144087835Y-80440485D01*
X144076286Y-80444618D01*
X144064386Y-80447598D01*
X144052252Y-80449398D01*
X144040000Y-80450000D01*
X142790000Y-80450000D01*
X142777748Y-80449398D01*
X142765614Y-80447598D01*
X142753714Y-80444618D01*
X142742165Y-80440485D01*
X142731075Y-80435240D01*
X142720554Y-80428934D01*
X142710701Y-80421626D01*
X142701612Y-80413388D01*
X142693374Y-80404299D01*
X142686066Y-80394446D01*
X142679760Y-80383925D01*
X142674515Y-80372835D01*
X142670382Y-80361286D01*
X142667402Y-80349386D01*
X142665602Y-80337252D01*
X142665000Y-80325000D01*
X142665000Y-80075000D01*
X142665602Y-80062748D01*
X142667402Y-80050614D01*
X142670382Y-80038714D01*
X142674515Y-80027165D01*
X142679760Y-80016075D01*
X142686066Y-80005554D01*
X142693374Y-79995701D01*
X142701612Y-79986612D01*
X142710701Y-79978374D01*
X142720554Y-79971066D01*
X142731075Y-79964760D01*
X142742165Y-79959515D01*
X142753714Y-79955382D01*
X142765614Y-79952402D01*
X142777748Y-79950602D01*
X142790000Y-79950000D01*
X144040000Y-79950000D01*
X144052252Y-79950602D01*
X144052252Y-79950602D01*
G37*
D24*
X143415000Y-80200000D03*
D14*
G36*
X144052252Y-79150602D02*
G01*
X144064386Y-79152402D01*
X144076286Y-79155382D01*
X144087835Y-79159515D01*
X144098925Y-79164760D01*
X144109446Y-79171066D01*
X144119299Y-79178374D01*
X144128388Y-79186612D01*
X144136626Y-79195701D01*
X144143934Y-79205554D01*
X144150240Y-79216075D01*
X144155485Y-79227165D01*
X144159618Y-79238714D01*
X144162598Y-79250614D01*
X144164398Y-79262748D01*
X144165000Y-79275000D01*
X144165000Y-79525000D01*
X144164398Y-79537252D01*
X144162598Y-79549386D01*
X144159618Y-79561286D01*
X144155485Y-79572835D01*
X144150240Y-79583925D01*
X144143934Y-79594446D01*
X144136626Y-79604299D01*
X144128388Y-79613388D01*
X144119299Y-79621626D01*
X144109446Y-79628934D01*
X144098925Y-79635240D01*
X144087835Y-79640485D01*
X144076286Y-79644618D01*
X144064386Y-79647598D01*
X144052252Y-79649398D01*
X144040000Y-79650000D01*
X142790000Y-79650000D01*
X142777748Y-79649398D01*
X142765614Y-79647598D01*
X142753714Y-79644618D01*
X142742165Y-79640485D01*
X142731075Y-79635240D01*
X142720554Y-79628934D01*
X142710701Y-79621626D01*
X142701612Y-79613388D01*
X142693374Y-79604299D01*
X142686066Y-79594446D01*
X142679760Y-79583925D01*
X142674515Y-79572835D01*
X142670382Y-79561286D01*
X142667402Y-79549386D01*
X142665602Y-79537252D01*
X142665000Y-79525000D01*
X142665000Y-79275000D01*
X142665602Y-79262748D01*
X142667402Y-79250614D01*
X142670382Y-79238714D01*
X142674515Y-79227165D01*
X142679760Y-79216075D01*
X142686066Y-79205554D01*
X142693374Y-79195701D01*
X142701612Y-79186612D01*
X142710701Y-79178374D01*
X142720554Y-79171066D01*
X142731075Y-79164760D01*
X142742165Y-79159515D01*
X142753714Y-79155382D01*
X142765614Y-79152402D01*
X142777748Y-79150602D01*
X142790000Y-79150000D01*
X144040000Y-79150000D01*
X144052252Y-79150602D01*
X144052252Y-79150602D01*
G37*
D24*
X143415000Y-79400000D03*
D14*
G36*
X144052252Y-78350602D02*
G01*
X144064386Y-78352402D01*
X144076286Y-78355382D01*
X144087835Y-78359515D01*
X144098925Y-78364760D01*
X144109446Y-78371066D01*
X144119299Y-78378374D01*
X144128388Y-78386612D01*
X144136626Y-78395701D01*
X144143934Y-78405554D01*
X144150240Y-78416075D01*
X144155485Y-78427165D01*
X144159618Y-78438714D01*
X144162598Y-78450614D01*
X144164398Y-78462748D01*
X144165000Y-78475000D01*
X144165000Y-78725000D01*
X144164398Y-78737252D01*
X144162598Y-78749386D01*
X144159618Y-78761286D01*
X144155485Y-78772835D01*
X144150240Y-78783925D01*
X144143934Y-78794446D01*
X144136626Y-78804299D01*
X144128388Y-78813388D01*
X144119299Y-78821626D01*
X144109446Y-78828934D01*
X144098925Y-78835240D01*
X144087835Y-78840485D01*
X144076286Y-78844618D01*
X144064386Y-78847598D01*
X144052252Y-78849398D01*
X144040000Y-78850000D01*
X142790000Y-78850000D01*
X142777748Y-78849398D01*
X142765614Y-78847598D01*
X142753714Y-78844618D01*
X142742165Y-78840485D01*
X142731075Y-78835240D01*
X142720554Y-78828934D01*
X142710701Y-78821626D01*
X142701612Y-78813388D01*
X142693374Y-78804299D01*
X142686066Y-78794446D01*
X142679760Y-78783925D01*
X142674515Y-78772835D01*
X142670382Y-78761286D01*
X142667402Y-78749386D01*
X142665602Y-78737252D01*
X142665000Y-78725000D01*
X142665000Y-78475000D01*
X142665602Y-78462748D01*
X142667402Y-78450614D01*
X142670382Y-78438714D01*
X142674515Y-78427165D01*
X142679760Y-78416075D01*
X142686066Y-78405554D01*
X142693374Y-78395701D01*
X142701612Y-78386612D01*
X142710701Y-78378374D01*
X142720554Y-78371066D01*
X142731075Y-78364760D01*
X142742165Y-78359515D01*
X142753714Y-78355382D01*
X142765614Y-78352402D01*
X142777748Y-78350602D01*
X142790000Y-78350000D01*
X144040000Y-78350000D01*
X144052252Y-78350602D01*
X144052252Y-78350602D01*
G37*
D24*
X143415000Y-78600000D03*
D14*
G36*
X144052252Y-77550602D02*
G01*
X144064386Y-77552402D01*
X144076286Y-77555382D01*
X144087835Y-77559515D01*
X144098925Y-77564760D01*
X144109446Y-77571066D01*
X144119299Y-77578374D01*
X144128388Y-77586612D01*
X144136626Y-77595701D01*
X144143934Y-77605554D01*
X144150240Y-77616075D01*
X144155485Y-77627165D01*
X144159618Y-77638714D01*
X144162598Y-77650614D01*
X144164398Y-77662748D01*
X144165000Y-77675000D01*
X144165000Y-77925000D01*
X144164398Y-77937252D01*
X144162598Y-77949386D01*
X144159618Y-77961286D01*
X144155485Y-77972835D01*
X144150240Y-77983925D01*
X144143934Y-77994446D01*
X144136626Y-78004299D01*
X144128388Y-78013388D01*
X144119299Y-78021626D01*
X144109446Y-78028934D01*
X144098925Y-78035240D01*
X144087835Y-78040485D01*
X144076286Y-78044618D01*
X144064386Y-78047598D01*
X144052252Y-78049398D01*
X144040000Y-78050000D01*
X142790000Y-78050000D01*
X142777748Y-78049398D01*
X142765614Y-78047598D01*
X142753714Y-78044618D01*
X142742165Y-78040485D01*
X142731075Y-78035240D01*
X142720554Y-78028934D01*
X142710701Y-78021626D01*
X142701612Y-78013388D01*
X142693374Y-78004299D01*
X142686066Y-77994446D01*
X142679760Y-77983925D01*
X142674515Y-77972835D01*
X142670382Y-77961286D01*
X142667402Y-77949386D01*
X142665602Y-77937252D01*
X142665000Y-77925000D01*
X142665000Y-77675000D01*
X142665602Y-77662748D01*
X142667402Y-77650614D01*
X142670382Y-77638714D01*
X142674515Y-77627165D01*
X142679760Y-77616075D01*
X142686066Y-77605554D01*
X142693374Y-77595701D01*
X142701612Y-77586612D01*
X142710701Y-77578374D01*
X142720554Y-77571066D01*
X142731075Y-77564760D01*
X142742165Y-77559515D01*
X142753714Y-77555382D01*
X142765614Y-77552402D01*
X142777748Y-77550602D01*
X142790000Y-77550000D01*
X144040000Y-77550000D01*
X144052252Y-77550602D01*
X144052252Y-77550602D01*
G37*
D24*
X143415000Y-77800000D03*
D14*
G36*
X144052252Y-76750602D02*
G01*
X144064386Y-76752402D01*
X144076286Y-76755382D01*
X144087835Y-76759515D01*
X144098925Y-76764760D01*
X144109446Y-76771066D01*
X144119299Y-76778374D01*
X144128388Y-76786612D01*
X144136626Y-76795701D01*
X144143934Y-76805554D01*
X144150240Y-76816075D01*
X144155485Y-76827165D01*
X144159618Y-76838714D01*
X144162598Y-76850614D01*
X144164398Y-76862748D01*
X144165000Y-76875000D01*
X144165000Y-77125000D01*
X144164398Y-77137252D01*
X144162598Y-77149386D01*
X144159618Y-77161286D01*
X144155485Y-77172835D01*
X144150240Y-77183925D01*
X144143934Y-77194446D01*
X144136626Y-77204299D01*
X144128388Y-77213388D01*
X144119299Y-77221626D01*
X144109446Y-77228934D01*
X144098925Y-77235240D01*
X144087835Y-77240485D01*
X144076286Y-77244618D01*
X144064386Y-77247598D01*
X144052252Y-77249398D01*
X144040000Y-77250000D01*
X142790000Y-77250000D01*
X142777748Y-77249398D01*
X142765614Y-77247598D01*
X142753714Y-77244618D01*
X142742165Y-77240485D01*
X142731075Y-77235240D01*
X142720554Y-77228934D01*
X142710701Y-77221626D01*
X142701612Y-77213388D01*
X142693374Y-77204299D01*
X142686066Y-77194446D01*
X142679760Y-77183925D01*
X142674515Y-77172835D01*
X142670382Y-77161286D01*
X142667402Y-77149386D01*
X142665602Y-77137252D01*
X142665000Y-77125000D01*
X142665000Y-76875000D01*
X142665602Y-76862748D01*
X142667402Y-76850614D01*
X142670382Y-76838714D01*
X142674515Y-76827165D01*
X142679760Y-76816075D01*
X142686066Y-76805554D01*
X142693374Y-76795701D01*
X142701612Y-76786612D01*
X142710701Y-76778374D01*
X142720554Y-76771066D01*
X142731075Y-76764760D01*
X142742165Y-76759515D01*
X142753714Y-76755382D01*
X142765614Y-76752402D01*
X142777748Y-76750602D01*
X142790000Y-76750000D01*
X144040000Y-76750000D01*
X144052252Y-76750602D01*
X144052252Y-76750602D01*
G37*
D24*
X143415000Y-77000000D03*
D14*
G36*
X144052252Y-75950602D02*
G01*
X144064386Y-75952402D01*
X144076286Y-75955382D01*
X144087835Y-75959515D01*
X144098925Y-75964760D01*
X144109446Y-75971066D01*
X144119299Y-75978374D01*
X144128388Y-75986612D01*
X144136626Y-75995701D01*
X144143934Y-76005554D01*
X144150240Y-76016075D01*
X144155485Y-76027165D01*
X144159618Y-76038714D01*
X144162598Y-76050614D01*
X144164398Y-76062748D01*
X144165000Y-76075000D01*
X144165000Y-76325000D01*
X144164398Y-76337252D01*
X144162598Y-76349386D01*
X144159618Y-76361286D01*
X144155485Y-76372835D01*
X144150240Y-76383925D01*
X144143934Y-76394446D01*
X144136626Y-76404299D01*
X144128388Y-76413388D01*
X144119299Y-76421626D01*
X144109446Y-76428934D01*
X144098925Y-76435240D01*
X144087835Y-76440485D01*
X144076286Y-76444618D01*
X144064386Y-76447598D01*
X144052252Y-76449398D01*
X144040000Y-76450000D01*
X142790000Y-76450000D01*
X142777748Y-76449398D01*
X142765614Y-76447598D01*
X142753714Y-76444618D01*
X142742165Y-76440485D01*
X142731075Y-76435240D01*
X142720554Y-76428934D01*
X142710701Y-76421626D01*
X142701612Y-76413388D01*
X142693374Y-76404299D01*
X142686066Y-76394446D01*
X142679760Y-76383925D01*
X142674515Y-76372835D01*
X142670382Y-76361286D01*
X142667402Y-76349386D01*
X142665602Y-76337252D01*
X142665000Y-76325000D01*
X142665000Y-76075000D01*
X142665602Y-76062748D01*
X142667402Y-76050614D01*
X142670382Y-76038714D01*
X142674515Y-76027165D01*
X142679760Y-76016075D01*
X142686066Y-76005554D01*
X142693374Y-75995701D01*
X142701612Y-75986612D01*
X142710701Y-75978374D01*
X142720554Y-75971066D01*
X142731075Y-75964760D01*
X142742165Y-75959515D01*
X142753714Y-75955382D01*
X142765614Y-75952402D01*
X142777748Y-75950602D01*
X142790000Y-75950000D01*
X144040000Y-75950000D01*
X144052252Y-75950602D01*
X144052252Y-75950602D01*
G37*
D24*
X143415000Y-76200000D03*
D14*
G36*
X144052252Y-75150602D02*
G01*
X144064386Y-75152402D01*
X144076286Y-75155382D01*
X144087835Y-75159515D01*
X144098925Y-75164760D01*
X144109446Y-75171066D01*
X144119299Y-75178374D01*
X144128388Y-75186612D01*
X144136626Y-75195701D01*
X144143934Y-75205554D01*
X144150240Y-75216075D01*
X144155485Y-75227165D01*
X144159618Y-75238714D01*
X144162598Y-75250614D01*
X144164398Y-75262748D01*
X144165000Y-75275000D01*
X144165000Y-75525000D01*
X144164398Y-75537252D01*
X144162598Y-75549386D01*
X144159618Y-75561286D01*
X144155485Y-75572835D01*
X144150240Y-75583925D01*
X144143934Y-75594446D01*
X144136626Y-75604299D01*
X144128388Y-75613388D01*
X144119299Y-75621626D01*
X144109446Y-75628934D01*
X144098925Y-75635240D01*
X144087835Y-75640485D01*
X144076286Y-75644618D01*
X144064386Y-75647598D01*
X144052252Y-75649398D01*
X144040000Y-75650000D01*
X142790000Y-75650000D01*
X142777748Y-75649398D01*
X142765614Y-75647598D01*
X142753714Y-75644618D01*
X142742165Y-75640485D01*
X142731075Y-75635240D01*
X142720554Y-75628934D01*
X142710701Y-75621626D01*
X142701612Y-75613388D01*
X142693374Y-75604299D01*
X142686066Y-75594446D01*
X142679760Y-75583925D01*
X142674515Y-75572835D01*
X142670382Y-75561286D01*
X142667402Y-75549386D01*
X142665602Y-75537252D01*
X142665000Y-75525000D01*
X142665000Y-75275000D01*
X142665602Y-75262748D01*
X142667402Y-75250614D01*
X142670382Y-75238714D01*
X142674515Y-75227165D01*
X142679760Y-75216075D01*
X142686066Y-75205554D01*
X142693374Y-75195701D01*
X142701612Y-75186612D01*
X142710701Y-75178374D01*
X142720554Y-75171066D01*
X142731075Y-75164760D01*
X142742165Y-75159515D01*
X142753714Y-75155382D01*
X142765614Y-75152402D01*
X142777748Y-75150602D01*
X142790000Y-75150000D01*
X144040000Y-75150000D01*
X144052252Y-75150602D01*
X144052252Y-75150602D01*
G37*
D24*
X143415000Y-75400000D03*
D14*
G36*
X144052252Y-74350602D02*
G01*
X144064386Y-74352402D01*
X144076286Y-74355382D01*
X144087835Y-74359515D01*
X144098925Y-74364760D01*
X144109446Y-74371066D01*
X144119299Y-74378374D01*
X144128388Y-74386612D01*
X144136626Y-74395701D01*
X144143934Y-74405554D01*
X144150240Y-74416075D01*
X144155485Y-74427165D01*
X144159618Y-74438714D01*
X144162598Y-74450614D01*
X144164398Y-74462748D01*
X144165000Y-74475000D01*
X144165000Y-74725000D01*
X144164398Y-74737252D01*
X144162598Y-74749386D01*
X144159618Y-74761286D01*
X144155485Y-74772835D01*
X144150240Y-74783925D01*
X144143934Y-74794446D01*
X144136626Y-74804299D01*
X144128388Y-74813388D01*
X144119299Y-74821626D01*
X144109446Y-74828934D01*
X144098925Y-74835240D01*
X144087835Y-74840485D01*
X144076286Y-74844618D01*
X144064386Y-74847598D01*
X144052252Y-74849398D01*
X144040000Y-74850000D01*
X142790000Y-74850000D01*
X142777748Y-74849398D01*
X142765614Y-74847598D01*
X142753714Y-74844618D01*
X142742165Y-74840485D01*
X142731075Y-74835240D01*
X142720554Y-74828934D01*
X142710701Y-74821626D01*
X142701612Y-74813388D01*
X142693374Y-74804299D01*
X142686066Y-74794446D01*
X142679760Y-74783925D01*
X142674515Y-74772835D01*
X142670382Y-74761286D01*
X142667402Y-74749386D01*
X142665602Y-74737252D01*
X142665000Y-74725000D01*
X142665000Y-74475000D01*
X142665602Y-74462748D01*
X142667402Y-74450614D01*
X142670382Y-74438714D01*
X142674515Y-74427165D01*
X142679760Y-74416075D01*
X142686066Y-74405554D01*
X142693374Y-74395701D01*
X142701612Y-74386612D01*
X142710701Y-74378374D01*
X142720554Y-74371066D01*
X142731075Y-74364760D01*
X142742165Y-74359515D01*
X142753714Y-74355382D01*
X142765614Y-74352402D01*
X142777748Y-74350602D01*
X142790000Y-74350000D01*
X144040000Y-74350000D01*
X144052252Y-74350602D01*
X144052252Y-74350602D01*
G37*
D24*
X143415000Y-74600000D03*
D25*
X117906000Y-123430000D03*
X117906000Y-128030000D03*
X117906000Y-125730000D03*
D26*
X124206000Y-125730000D03*
D27*
X117862513Y-62810099D03*
D14*
G36*
X118640330Y-62527256D02*
G01*
X117579670Y-63587916D01*
X117084696Y-63092942D01*
X118145356Y-62032282D01*
X118640330Y-62527256D01*
X118640330Y-62527256D01*
G37*
D27*
X118675686Y-63623272D03*
D14*
G36*
X119453503Y-63340429D02*
G01*
X118392843Y-64401089D01*
X117897869Y-63906115D01*
X118958529Y-62845455D01*
X119453503Y-63340429D01*
X119453503Y-63340429D01*
G37*
D27*
X119559569Y-64507155D03*
D14*
G36*
X120337386Y-64224312D02*
G01*
X119276726Y-65284972D01*
X118781752Y-64789998D01*
X119842412Y-63729338D01*
X120337386Y-64224312D01*
X120337386Y-64224312D01*
G37*
D27*
X120408098Y-65355684D03*
D14*
G36*
X121185915Y-65072841D02*
G01*
X120125255Y-66133501D01*
X119630281Y-65638527D01*
X120690941Y-64577867D01*
X121185915Y-65072841D01*
X121185915Y-65072841D01*
G37*
D27*
X121256626Y-66204212D03*
D14*
G36*
X122034443Y-65921369D02*
G01*
X120973783Y-66982029D01*
X120478809Y-66487055D01*
X121539469Y-65426395D01*
X122034443Y-65921369D01*
X122034443Y-65921369D01*
G37*
D27*
X111710684Y-68961928D03*
D14*
G36*
X112488501Y-68679085D02*
G01*
X111427841Y-69739745D01*
X110932867Y-69244771D01*
X111993527Y-68184111D01*
X112488501Y-68679085D01*
X112488501Y-68679085D01*
G37*
D27*
X112559212Y-69810456D03*
D14*
G36*
X113337029Y-69527613D02*
G01*
X112276369Y-70588273D01*
X111781395Y-70093299D01*
X112842055Y-69032639D01*
X113337029Y-69527613D01*
X113337029Y-69527613D01*
G37*
D27*
X113407740Y-70658984D03*
D14*
G36*
X114185557Y-70376141D02*
G01*
X113124897Y-71436801D01*
X112629923Y-70941827D01*
X113690583Y-69881167D01*
X114185557Y-70376141D01*
X114185557Y-70376141D01*
G37*
D27*
X114256269Y-71507513D03*
D14*
G36*
X115034086Y-71224670D02*
G01*
X113973426Y-72285330D01*
X113478452Y-71790356D01*
X114539112Y-70729696D01*
X115034086Y-71224670D01*
X115034086Y-71224670D01*
G37*
D27*
X115104797Y-72356041D03*
D14*
G36*
X115882614Y-72073198D02*
G01*
X114821954Y-73133858D01*
X114326980Y-72638884D01*
X115387640Y-71578224D01*
X115882614Y-72073198D01*
X115882614Y-72073198D01*
G37*
D27*
X121504113Y-68360887D03*
D14*
G36*
X121786956Y-69138704D02*
G01*
X120726296Y-68078044D01*
X121221270Y-67583070D01*
X122281930Y-68643730D01*
X121786956Y-69138704D01*
X121786956Y-69138704D01*
G37*
D27*
X120655585Y-69209415D03*
D14*
G36*
X120938428Y-69987232D02*
G01*
X119877768Y-68926572D01*
X120372742Y-68431598D01*
X121433402Y-69492258D01*
X120938428Y-69987232D01*
X120938428Y-69987232D01*
G37*
D27*
X119807057Y-70057944D03*
D14*
G36*
X120089900Y-70835761D02*
G01*
X119029240Y-69775101D01*
X119524214Y-69280127D01*
X120584874Y-70340787D01*
X120089900Y-70835761D01*
X120089900Y-70835761D01*
G37*
D27*
X118958529Y-70906472D03*
D14*
G36*
X119241372Y-71684289D02*
G01*
X118180712Y-70623629D01*
X118675686Y-70128655D01*
X119736346Y-71189315D01*
X119241372Y-71684289D01*
X119241372Y-71684289D01*
G37*
D27*
X118110000Y-71755000D03*
D14*
G36*
X118392843Y-72532817D02*
G01*
X117332183Y-71472157D01*
X117827157Y-70977183D01*
X118887817Y-72037843D01*
X118392843Y-72532817D01*
X118392843Y-72532817D01*
G37*
D27*
X117261472Y-72603528D03*
D14*
G36*
X117544315Y-73381345D02*
G01*
X116483655Y-72320685D01*
X116978629Y-71825711D01*
X118039289Y-72886371D01*
X117544315Y-73381345D01*
X117544315Y-73381345D01*
G37*
D12*
X127559000Y-125730000D03*
X146812000Y-77800000D03*
X121666000Y-62992000D03*
D28*
X130556000Y-65278000D03*
X126492000Y-69596000D03*
D29*
X117971000Y-119519000D03*
X117971000Y-121551000D03*
D12*
X113030000Y-109982000D03*
X108458000Y-110998000D03*
X119126000Y-110998000D03*
X123952000Y-109982000D03*
X130302000Y-110998000D03*
X135128000Y-109982000D03*
X141224000Y-141224000D03*
X154432000Y-141224000D03*
X167640000Y-141224000D03*
D23*
X123698000Y-136144000D03*
X123698000Y-131826000D03*
X152654000Y-148336000D03*
X154686000Y-148336000D03*
X156718000Y-148336000D03*
D28*
X150876000Y-83058000D03*
X144272000Y-71628000D03*
X138303000Y-74676000D03*
X138303000Y-77724000D03*
X152908000Y-85217000D03*
X111506000Y-70866000D03*
X145590000Y-68278000D03*
X121540919Y-64390919D03*
X125730000Y-59436000D03*
X125730000Y-62992000D03*
D29*
X102616000Y-96266000D03*
X114935000Y-132334000D03*
D28*
X132842000Y-131572000D03*
X155194000Y-79502000D03*
X146050000Y-131572000D03*
X156464000Y-79248000D03*
X156972000Y-131572000D03*
X157734000Y-78994000D03*
X145288000Y-76454000D03*
X157734000Y-76454000D03*
X129286000Y-106934000D03*
X141986000Y-91694000D03*
X118110000Y-106934000D03*
X141986000Y-90424000D03*
X107442000Y-106934000D03*
X141986000Y-89154000D03*
D30*
X117906000Y-125730000D02*
X124206000Y-125730000D01*
X124206000Y-118110000D02*
X123571000Y-117475000D01*
X124206000Y-125730000D02*
X124206000Y-118110000D01*
D31*
X127559000Y-125730000D02*
X131826000Y-129997000D01*
X124206000Y-125730000D02*
X127559000Y-125730000D01*
X145008500Y-129997000D02*
X145034000Y-130022500D01*
X131826000Y-129997000D02*
X145008500Y-129997000D01*
X145034000Y-130022500D02*
X158013500Y-130022500D01*
D32*
X145466000Y-74600000D02*
X143415000Y-74600000D01*
X146812000Y-75946000D02*
X145466000Y-74600000D01*
X146812000Y-77800000D02*
X146812000Y-75946000D01*
X143415000Y-77800000D02*
X146812000Y-77800000D01*
X148844000Y-80200000D02*
X151765000Y-80200000D01*
X146812000Y-77800000D02*
X148844000Y-80200000D01*
D31*
X117638000Y-125462000D02*
X117906000Y-125730000D01*
X115316000Y-125462000D02*
X117638000Y-125462000D01*
D32*
X141196000Y-74600000D02*
X143415000Y-74600000D01*
X141196000Y-77800000D02*
X143415000Y-77800000D01*
X151765000Y-81181000D02*
X152908000Y-82324000D01*
X151765000Y-80200000D02*
X151765000Y-81181000D01*
D31*
X121074724Y-62992000D02*
X119559569Y-64507155D01*
X121666000Y-62992000D02*
X121074724Y-62992000D01*
X122936000Y-62992000D02*
X121666000Y-62992000D01*
D32*
X129461500Y-65278000D02*
X130556000Y-65278000D01*
X125222000Y-69596000D02*
X126492000Y-69596000D01*
D33*
X179324000Y-108712000D02*
X158013500Y-130022500D01*
X179324000Y-80010000D02*
X179324000Y-108712000D01*
D34*
X117971000Y-123365000D02*
X117906000Y-123430000D01*
X117971000Y-117475000D02*
X117971000Y-119519000D01*
X117971000Y-119519000D02*
X117971000Y-121551000D01*
X117971000Y-121551000D02*
X117971000Y-123365000D01*
D31*
X113030000Y-108900000D02*
X113030000Y-109982000D01*
X108432500Y-110972500D02*
X108458000Y-110998000D01*
X108432500Y-109728000D02*
X108432500Y-110972500D01*
X119126000Y-109728000D02*
X119126000Y-110998000D01*
X123952000Y-108900000D02*
X123952000Y-109982000D01*
X130276500Y-110972500D02*
X130302000Y-110998000D01*
X130276500Y-109728000D02*
X130276500Y-110972500D01*
X135128000Y-108900000D02*
X135128000Y-109982000D01*
X141224000Y-139979500D02*
X141224000Y-141224000D01*
X154432000Y-139979500D02*
X154432000Y-141224000D01*
X167640000Y-139979500D02*
X167640000Y-141224000D01*
D30*
X123571000Y-136017000D02*
X123698000Y-136144000D01*
X123571000Y-133985000D02*
X123571000Y-136017000D01*
X123571000Y-131953000D02*
X123698000Y-131826000D01*
X123571000Y-133985000D02*
X123571000Y-131953000D01*
D35*
X149987000Y-148336000D02*
X152654000Y-148336000D01*
X149987000Y-148336000D02*
X154686000Y-148336000D01*
X149987000Y-148336000D02*
X156718000Y-148336000D01*
D32*
X150390000Y-82572000D02*
X150876000Y-83058000D01*
X150390000Y-81575000D02*
X150390000Y-82572000D01*
X144790000Y-72532522D02*
X144780000Y-72522522D01*
X144790000Y-73225000D02*
X144790000Y-72532522D01*
X144780000Y-72136000D02*
X144272000Y-71628000D01*
X144780000Y-72522522D02*
X144780000Y-72136000D01*
D31*
X117624000Y-123712000D02*
X117906000Y-123430000D01*
X115316000Y-123712000D02*
X117624000Y-123712000D01*
D32*
X138379000Y-74600000D02*
X138303000Y-74676000D01*
X139446000Y-74600000D02*
X138379000Y-74600000D01*
X138379000Y-77800000D02*
X138303000Y-77724000D01*
X139446000Y-77800000D02*
X138379000Y-77800000D01*
X152908000Y-84074000D02*
X152908000Y-85217000D01*
X112559212Y-69812788D02*
X111506000Y-70866000D01*
X112559212Y-69810456D02*
X112559212Y-69812788D01*
X145590000Y-68278000D02*
X145590000Y-69316500D01*
X121329891Y-64433891D02*
X120408098Y-65355684D01*
X121540919Y-64390919D02*
X121329891Y-64433891D01*
X124677000Y-59436000D02*
X125730000Y-59436000D01*
X124686000Y-62992000D02*
X125730000Y-62992000D01*
D30*
X117971000Y-128095000D02*
X117906000Y-128030000D01*
X117906000Y-133920000D02*
X117971000Y-133985000D01*
X117906000Y-128030000D02*
X117906000Y-133920000D01*
D34*
X102594600Y-96244600D02*
X102616000Y-96266000D01*
X98679000Y-96244600D02*
X102594600Y-96244600D01*
D30*
X117971000Y-135837926D02*
X117971000Y-133985000D01*
X117971000Y-137275000D02*
X117971000Y-135837926D01*
X138286998Y-148336000D02*
X133460998Y-143510000D01*
X124206000Y-143510000D02*
X117971000Y-137275000D01*
X133460998Y-143510000D02*
X124206000Y-143510000D01*
X146431000Y-148336000D02*
X138286998Y-148336000D01*
D34*
X114935000Y-132334000D02*
X114935000Y-133394660D01*
X115525340Y-133985000D02*
X117971000Y-133985000D01*
X114935000Y-133394660D02*
X115525340Y-133985000D01*
D36*
X138684000Y-134438000D02*
X138557000Y-134565000D01*
X132080000Y-134542000D02*
X132057000Y-134565000D01*
X132080000Y-134497000D02*
X131957000Y-134620000D01*
X131826000Y-134489000D02*
X131957000Y-134620000D01*
X131826000Y-131572000D02*
X131826000Y-134489000D01*
D31*
X141111000Y-134620000D02*
X141224000Y-134507000D01*
X138457000Y-134620000D02*
X141111000Y-134620000D01*
D32*
X131826000Y-131572000D02*
X132842000Y-131572000D01*
X154292000Y-78600000D02*
X151765000Y-78600000D01*
X155194000Y-79502000D02*
X154292000Y-78600000D01*
D31*
X141224000Y-136257000D02*
X141224000Y-138404500D01*
X154432000Y-136257000D02*
X154432000Y-138404500D01*
D36*
X151892000Y-134438000D02*
X151765000Y-134565000D01*
X145262500Y-134562500D02*
X145265000Y-134565000D01*
X145034000Y-131572000D02*
X145034000Y-134620000D01*
D31*
X154319000Y-134620000D02*
X154432000Y-134507000D01*
X151534000Y-134620000D02*
X154319000Y-134620000D01*
D32*
X146024500Y-131597500D02*
X146050000Y-131572000D01*
X145034000Y-131597500D02*
X146024500Y-131597500D01*
X155016000Y-77800000D02*
X151765000Y-77800000D01*
X156464000Y-79248000D02*
X155016000Y-77800000D01*
D36*
X158013500Y-134518500D02*
X158115000Y-134620000D01*
X158013500Y-131597500D02*
X158013500Y-134518500D01*
D31*
X167527000Y-134620000D02*
X167640000Y-134507000D01*
X164615000Y-134620000D02*
X167527000Y-134620000D01*
D32*
X156997500Y-131597500D02*
X156972000Y-131572000D01*
X158013500Y-131597500D02*
X156997500Y-131597500D01*
X155740000Y-77000000D02*
X151765000Y-77000000D01*
X157734000Y-78994000D02*
X155740000Y-77000000D01*
D31*
X167640000Y-136257000D02*
X167640000Y-138404500D01*
D32*
X125222000Y-65278000D02*
X127586500Y-65278000D01*
X176784000Y-80010000D02*
X176784000Y-80137000D01*
X176784000Y-77216000D02*
X176784000Y-80010000D01*
X174168000Y-74600000D02*
X176784000Y-77216000D01*
X151765000Y-74600000D02*
X174168000Y-74600000D01*
X171704000Y-80010000D02*
X171704000Y-80137000D01*
X171704000Y-76708000D02*
X171704000Y-80010000D01*
X170396000Y-75400000D02*
X171704000Y-76708000D01*
X151765000Y-75400000D02*
X170396000Y-75400000D01*
X169164000Y-77470000D02*
X168656000Y-76962000D01*
X145288000Y-76454000D02*
X144742000Y-77000000D01*
X144742000Y-77000000D02*
X143415000Y-77000000D01*
X169164000Y-77724000D02*
X169164000Y-77470000D01*
X169164000Y-80010000D02*
X169164000Y-77724000D01*
X168656000Y-76962000D02*
X168402000Y-76708000D01*
X168148000Y-76454000D02*
X157734000Y-76454000D01*
X168402000Y-76708000D02*
X168148000Y-76454000D01*
D31*
X100096781Y-98444600D02*
X100116381Y-98425000D01*
X98679000Y-98444600D02*
X100096781Y-98444600D01*
X98679000Y-98444600D02*
X131718600Y-98444600D01*
X137128000Y-103854000D02*
X137128000Y-107950000D01*
X131718600Y-98444600D02*
X137128000Y-103854000D01*
X98679000Y-100644600D02*
X122488600Y-100644600D01*
X125952000Y-104108000D02*
X125952000Y-107950000D01*
X122488600Y-100644600D02*
X125952000Y-104108000D01*
X98679000Y-102844600D02*
X113512600Y-102844600D01*
X115030000Y-104362000D02*
X115030000Y-107950000D01*
X113512600Y-102844600D02*
X115030000Y-104362000D01*
D32*
X121236612Y-59436000D02*
X117862513Y-62810099D01*
X123227000Y-59436000D02*
X121236612Y-59436000D01*
D36*
X131943000Y-107000000D02*
X131877000Y-106934000D01*
X135128000Y-107000000D02*
X131943000Y-107000000D01*
X131877000Y-109702500D02*
X131851500Y-109728000D01*
X131877000Y-106934000D02*
X131877000Y-109702500D01*
X120767000Y-107000000D02*
X120701000Y-106934000D01*
X123952000Y-107000000D02*
X120767000Y-107000000D01*
X120701000Y-106934000D02*
X120701000Y-109728000D01*
X110073500Y-107000000D02*
X110007500Y-106934000D01*
X113030000Y-107000000D02*
X110073500Y-107000000D01*
X110007500Y-106934000D02*
X110007500Y-109728000D01*
D32*
X145590000Y-73225000D02*
X145590000Y-71168000D01*
X130302000Y-106934000D02*
X129286000Y-106934000D01*
X141986000Y-91694000D02*
X145796000Y-91694000D01*
X148790000Y-88700000D02*
X148790000Y-81575000D01*
X145796000Y-91694000D02*
X148790000Y-88700000D01*
X119126000Y-106934000D02*
X118110000Y-106934000D01*
X141986000Y-90424000D02*
X145542000Y-90424000D01*
X147990000Y-87976000D02*
X147990000Y-81575000D01*
X145542000Y-90424000D02*
X147990000Y-87976000D01*
X108432500Y-106934000D02*
X107442000Y-106934000D01*
X141986000Y-89154000D02*
X145034000Y-89154000D01*
X147190000Y-86998000D02*
X147190000Y-81575000D01*
X145034000Y-89154000D02*
X147190000Y-86998000D01*
X143415000Y-79400000D02*
X130846170Y-79400000D01*
X123109500Y-69596000D02*
X122116085Y-70589415D01*
X122116085Y-70589415D02*
X122116085Y-70669915D01*
X122116085Y-70669915D02*
X120655585Y-69209415D01*
X123647000Y-69596000D02*
X123109500Y-69596000D01*
X130846170Y-79400000D02*
X122116085Y-70669915D01*
X122182838Y-65278000D02*
X121256626Y-66204212D01*
X123647000Y-65278000D02*
X122182838Y-65278000D01*
X155194000Y-82296000D02*
X155194000Y-81026000D01*
X153568000Y-79400000D02*
X151765000Y-79400000D01*
X155194000Y-81026000D02*
X153568000Y-79400000D01*
X128252057Y-80200000D02*
X143415000Y-80200000D01*
X118958529Y-70906472D02*
X128252057Y-80200000D01*
X127930000Y-81575000D02*
X144790000Y-81575000D01*
X118110000Y-71755000D02*
X127930000Y-81575000D01*
M02*
