G04 #@! TF.GenerationSoftware,KiCad,Pcbnew,(5.1.2-1)-1*
G04 #@! TF.CreationDate,2019-08-06T22:00:45+02:00*
G04 #@! TF.ProjectId,RGB-Controller#R,5247422d-436f-46e7-9472-6f6c6c657223,rev?*
G04 #@! TF.SameCoordinates,Original*
G04 #@! TF.FileFunction,Soldermask,Top*
G04 #@! TF.FilePolarity,Negative*
%FSLAX46Y46*%
G04 Gerber Fmt 4.6, Leading zero omitted, Abs format (unit mm)*
G04 Created by KiCad (PCBNEW (5.1.2-1)-1) date 2019-08-06 22:00:45*
%MOMM*%
%LPD*%
G04 APERTURE LIST*
%ADD10C,0.100000*%
G04 APERTURE END LIST*
D10*
G36*
X151038000Y-150387000D02*
G01*
X148936000Y-150387000D01*
X148936000Y-146285000D01*
X151038000Y-146285000D01*
X151038000Y-150387000D01*
X151038000Y-150387000D01*
G37*
G36*
X147482000Y-150387000D02*
G01*
X145380000Y-150387000D01*
X145380000Y-146285000D01*
X147482000Y-146285000D01*
X147482000Y-150387000D01*
X147482000Y-150387000D01*
G37*
G36*
X168019591Y-139495085D02*
G01*
X168053569Y-139505393D01*
X168084890Y-139522134D01*
X168112339Y-139544661D01*
X168134866Y-139572110D01*
X168151607Y-139603431D01*
X168161915Y-139637409D01*
X168166000Y-139678890D01*
X168166000Y-140280110D01*
X168161915Y-140321591D01*
X168151607Y-140355569D01*
X168134866Y-140386890D01*
X168112339Y-140414339D01*
X168084890Y-140436866D01*
X168053569Y-140453607D01*
X168019591Y-140463915D01*
X167978110Y-140468000D01*
X167301890Y-140468000D01*
X167260409Y-140463915D01*
X167226431Y-140453607D01*
X167195110Y-140436866D01*
X167167661Y-140414339D01*
X167145134Y-140386890D01*
X167128393Y-140355569D01*
X167118085Y-140321591D01*
X167114000Y-140280110D01*
X167114000Y-139678890D01*
X167118085Y-139637409D01*
X167128393Y-139603431D01*
X167145134Y-139572110D01*
X167167661Y-139544661D01*
X167195110Y-139522134D01*
X167226431Y-139505393D01*
X167260409Y-139495085D01*
X167301890Y-139491000D01*
X167978110Y-139491000D01*
X168019591Y-139495085D01*
X168019591Y-139495085D01*
G37*
G36*
X154811591Y-139495085D02*
G01*
X154845569Y-139505393D01*
X154876890Y-139522134D01*
X154904339Y-139544661D01*
X154926866Y-139572110D01*
X154943607Y-139603431D01*
X154953915Y-139637409D01*
X154958000Y-139678890D01*
X154958000Y-140280110D01*
X154953915Y-140321591D01*
X154943607Y-140355569D01*
X154926866Y-140386890D01*
X154904339Y-140414339D01*
X154876890Y-140436866D01*
X154845569Y-140453607D01*
X154811591Y-140463915D01*
X154770110Y-140468000D01*
X154093890Y-140468000D01*
X154052409Y-140463915D01*
X154018431Y-140453607D01*
X153987110Y-140436866D01*
X153959661Y-140414339D01*
X153937134Y-140386890D01*
X153920393Y-140355569D01*
X153910085Y-140321591D01*
X153906000Y-140280110D01*
X153906000Y-139678890D01*
X153910085Y-139637409D01*
X153920393Y-139603431D01*
X153937134Y-139572110D01*
X153959661Y-139544661D01*
X153987110Y-139522134D01*
X154018431Y-139505393D01*
X154052409Y-139495085D01*
X154093890Y-139491000D01*
X154770110Y-139491000D01*
X154811591Y-139495085D01*
X154811591Y-139495085D01*
G37*
G36*
X141603591Y-139495085D02*
G01*
X141637569Y-139505393D01*
X141668890Y-139522134D01*
X141696339Y-139544661D01*
X141718866Y-139572110D01*
X141735607Y-139603431D01*
X141745915Y-139637409D01*
X141750000Y-139678890D01*
X141750000Y-140280110D01*
X141745915Y-140321591D01*
X141735607Y-140355569D01*
X141718866Y-140386890D01*
X141696339Y-140414339D01*
X141668890Y-140436866D01*
X141637569Y-140453607D01*
X141603591Y-140463915D01*
X141562110Y-140468000D01*
X140885890Y-140468000D01*
X140844409Y-140463915D01*
X140810431Y-140453607D01*
X140779110Y-140436866D01*
X140751661Y-140414339D01*
X140729134Y-140386890D01*
X140712393Y-140355569D01*
X140702085Y-140321591D01*
X140698000Y-140280110D01*
X140698000Y-139678890D01*
X140702085Y-139637409D01*
X140712393Y-139603431D01*
X140729134Y-139572110D01*
X140751661Y-139544661D01*
X140779110Y-139522134D01*
X140810431Y-139505393D01*
X140844409Y-139495085D01*
X140885890Y-139491000D01*
X141562110Y-139491000D01*
X141603591Y-139495085D01*
X141603591Y-139495085D01*
G37*
G36*
X132263564Y-138109389D02*
G01*
X132454833Y-138188615D01*
X132454835Y-138188616D01*
X132626973Y-138303635D01*
X132773365Y-138450027D01*
X132888385Y-138622167D01*
X132967611Y-138813436D01*
X133008000Y-139016484D01*
X133008000Y-139223516D01*
X132967611Y-139426564D01*
X132911288Y-139562539D01*
X132888384Y-139617835D01*
X132773365Y-139789973D01*
X132626973Y-139936365D01*
X132454835Y-140051384D01*
X132454834Y-140051385D01*
X132454833Y-140051385D01*
X132263564Y-140130611D01*
X132060516Y-140171000D01*
X131853484Y-140171000D01*
X131650436Y-140130611D01*
X131459167Y-140051385D01*
X131459166Y-140051385D01*
X131459165Y-140051384D01*
X131287027Y-139936365D01*
X131140635Y-139789973D01*
X131025616Y-139617835D01*
X131002712Y-139562539D01*
X130946389Y-139426564D01*
X130906000Y-139223516D01*
X130906000Y-139016484D01*
X130946389Y-138813436D01*
X131025615Y-138622167D01*
X131140635Y-138450027D01*
X131287027Y-138303635D01*
X131459165Y-138188616D01*
X131459167Y-138188615D01*
X131650436Y-138109389D01*
X131853484Y-138069000D01*
X132060516Y-138069000D01*
X132263564Y-138109389D01*
X132263564Y-138109389D01*
G37*
G36*
X138763564Y-138109389D02*
G01*
X138954833Y-138188615D01*
X138954835Y-138188616D01*
X139126973Y-138303635D01*
X139273365Y-138450027D01*
X139388385Y-138622167D01*
X139467611Y-138813436D01*
X139508000Y-139016484D01*
X139508000Y-139223516D01*
X139467611Y-139426564D01*
X139411288Y-139562539D01*
X139388384Y-139617835D01*
X139273365Y-139789973D01*
X139126973Y-139936365D01*
X138954835Y-140051384D01*
X138954834Y-140051385D01*
X138954833Y-140051385D01*
X138763564Y-140130611D01*
X138560516Y-140171000D01*
X138353484Y-140171000D01*
X138150436Y-140130611D01*
X137959167Y-140051385D01*
X137959166Y-140051385D01*
X137959165Y-140051384D01*
X137787027Y-139936365D01*
X137640635Y-139789973D01*
X137525616Y-139617835D01*
X137502712Y-139562539D01*
X137446389Y-139426564D01*
X137406000Y-139223516D01*
X137406000Y-139016484D01*
X137446389Y-138813436D01*
X137525615Y-138622167D01*
X137640635Y-138450027D01*
X137787027Y-138303635D01*
X137959165Y-138188616D01*
X137959167Y-138188615D01*
X138150436Y-138109389D01*
X138353484Y-138069000D01*
X138560516Y-138069000D01*
X138763564Y-138109389D01*
X138763564Y-138109389D01*
G37*
G36*
X145340564Y-138109389D02*
G01*
X145531833Y-138188615D01*
X145531835Y-138188616D01*
X145703973Y-138303635D01*
X145850365Y-138450027D01*
X145965385Y-138622167D01*
X146044611Y-138813436D01*
X146085000Y-139016484D01*
X146085000Y-139223516D01*
X146044611Y-139426564D01*
X145988288Y-139562539D01*
X145965384Y-139617835D01*
X145850365Y-139789973D01*
X145703973Y-139936365D01*
X145531835Y-140051384D01*
X145531834Y-140051385D01*
X145531833Y-140051385D01*
X145340564Y-140130611D01*
X145137516Y-140171000D01*
X144930484Y-140171000D01*
X144727436Y-140130611D01*
X144536167Y-140051385D01*
X144536166Y-140051385D01*
X144536165Y-140051384D01*
X144364027Y-139936365D01*
X144217635Y-139789973D01*
X144102616Y-139617835D01*
X144079712Y-139562539D01*
X144023389Y-139426564D01*
X143983000Y-139223516D01*
X143983000Y-139016484D01*
X144023389Y-138813436D01*
X144102615Y-138622167D01*
X144217635Y-138450027D01*
X144364027Y-138303635D01*
X144536165Y-138188616D01*
X144536167Y-138188615D01*
X144727436Y-138109389D01*
X144930484Y-138069000D01*
X145137516Y-138069000D01*
X145340564Y-138109389D01*
X145340564Y-138109389D01*
G37*
G36*
X151840564Y-138109389D02*
G01*
X152031833Y-138188615D01*
X152031835Y-138188616D01*
X152203973Y-138303635D01*
X152350365Y-138450027D01*
X152465385Y-138622167D01*
X152544611Y-138813436D01*
X152585000Y-139016484D01*
X152585000Y-139223516D01*
X152544611Y-139426564D01*
X152488288Y-139562539D01*
X152465384Y-139617835D01*
X152350365Y-139789973D01*
X152203973Y-139936365D01*
X152031835Y-140051384D01*
X152031834Y-140051385D01*
X152031833Y-140051385D01*
X151840564Y-140130611D01*
X151637516Y-140171000D01*
X151430484Y-140171000D01*
X151227436Y-140130611D01*
X151036167Y-140051385D01*
X151036166Y-140051385D01*
X151036165Y-140051384D01*
X150864027Y-139936365D01*
X150717635Y-139789973D01*
X150602616Y-139617835D01*
X150579712Y-139562539D01*
X150523389Y-139426564D01*
X150483000Y-139223516D01*
X150483000Y-139016484D01*
X150523389Y-138813436D01*
X150602615Y-138622167D01*
X150717635Y-138450027D01*
X150864027Y-138303635D01*
X151036165Y-138188616D01*
X151036167Y-138188615D01*
X151227436Y-138109389D01*
X151430484Y-138069000D01*
X151637516Y-138069000D01*
X151840564Y-138109389D01*
X151840564Y-138109389D01*
G37*
G36*
X158421564Y-138109389D02*
G01*
X158612833Y-138188615D01*
X158612835Y-138188616D01*
X158784973Y-138303635D01*
X158931365Y-138450027D01*
X159046385Y-138622167D01*
X159125611Y-138813436D01*
X159166000Y-139016484D01*
X159166000Y-139223516D01*
X159125611Y-139426564D01*
X159069288Y-139562539D01*
X159046384Y-139617835D01*
X158931365Y-139789973D01*
X158784973Y-139936365D01*
X158612835Y-140051384D01*
X158612834Y-140051385D01*
X158612833Y-140051385D01*
X158421564Y-140130611D01*
X158218516Y-140171000D01*
X158011484Y-140171000D01*
X157808436Y-140130611D01*
X157617167Y-140051385D01*
X157617166Y-140051385D01*
X157617165Y-140051384D01*
X157445027Y-139936365D01*
X157298635Y-139789973D01*
X157183616Y-139617835D01*
X157160712Y-139562539D01*
X157104389Y-139426564D01*
X157064000Y-139223516D01*
X157064000Y-139016484D01*
X157104389Y-138813436D01*
X157183615Y-138622167D01*
X157298635Y-138450027D01*
X157445027Y-138303635D01*
X157617165Y-138188616D01*
X157617167Y-138188615D01*
X157808436Y-138109389D01*
X158011484Y-138069000D01*
X158218516Y-138069000D01*
X158421564Y-138109389D01*
X158421564Y-138109389D01*
G37*
G36*
X164921564Y-138109389D02*
G01*
X165112833Y-138188615D01*
X165112835Y-138188616D01*
X165284973Y-138303635D01*
X165431365Y-138450027D01*
X165546385Y-138622167D01*
X165625611Y-138813436D01*
X165666000Y-139016484D01*
X165666000Y-139223516D01*
X165625611Y-139426564D01*
X165569288Y-139562539D01*
X165546384Y-139617835D01*
X165431365Y-139789973D01*
X165284973Y-139936365D01*
X165112835Y-140051384D01*
X165112834Y-140051385D01*
X165112833Y-140051385D01*
X164921564Y-140130611D01*
X164718516Y-140171000D01*
X164511484Y-140171000D01*
X164308436Y-140130611D01*
X164117167Y-140051385D01*
X164117166Y-140051385D01*
X164117165Y-140051384D01*
X163945027Y-139936365D01*
X163798635Y-139789973D01*
X163683616Y-139617835D01*
X163660712Y-139562539D01*
X163604389Y-139426564D01*
X163564000Y-139223516D01*
X163564000Y-139016484D01*
X163604389Y-138813436D01*
X163683615Y-138622167D01*
X163798635Y-138450027D01*
X163945027Y-138303635D01*
X164117165Y-138188616D01*
X164117167Y-138188615D01*
X164308436Y-138109389D01*
X164511484Y-138069000D01*
X164718516Y-138069000D01*
X164921564Y-138109389D01*
X164921564Y-138109389D01*
G37*
G36*
X168019591Y-137920085D02*
G01*
X168053569Y-137930393D01*
X168084890Y-137947134D01*
X168112339Y-137969661D01*
X168134866Y-137997110D01*
X168151607Y-138028431D01*
X168161915Y-138062409D01*
X168166000Y-138103890D01*
X168166000Y-138705110D01*
X168161915Y-138746591D01*
X168151607Y-138780569D01*
X168134866Y-138811890D01*
X168112339Y-138839339D01*
X168084890Y-138861866D01*
X168053569Y-138878607D01*
X168019591Y-138888915D01*
X167978110Y-138893000D01*
X167301890Y-138893000D01*
X167260409Y-138888915D01*
X167226431Y-138878607D01*
X167195110Y-138861866D01*
X167167661Y-138839339D01*
X167145134Y-138811890D01*
X167128393Y-138780569D01*
X167118085Y-138746591D01*
X167114000Y-138705110D01*
X167114000Y-138103890D01*
X167118085Y-138062409D01*
X167128393Y-138028431D01*
X167145134Y-137997110D01*
X167167661Y-137969661D01*
X167195110Y-137947134D01*
X167226431Y-137930393D01*
X167260409Y-137920085D01*
X167301890Y-137916000D01*
X167978110Y-137916000D01*
X168019591Y-137920085D01*
X168019591Y-137920085D01*
G37*
G36*
X154811591Y-137920085D02*
G01*
X154845569Y-137930393D01*
X154876890Y-137947134D01*
X154904339Y-137969661D01*
X154926866Y-137997110D01*
X154943607Y-138028431D01*
X154953915Y-138062409D01*
X154958000Y-138103890D01*
X154958000Y-138705110D01*
X154953915Y-138746591D01*
X154943607Y-138780569D01*
X154926866Y-138811890D01*
X154904339Y-138839339D01*
X154876890Y-138861866D01*
X154845569Y-138878607D01*
X154811591Y-138888915D01*
X154770110Y-138893000D01*
X154093890Y-138893000D01*
X154052409Y-138888915D01*
X154018431Y-138878607D01*
X153987110Y-138861866D01*
X153959661Y-138839339D01*
X153937134Y-138811890D01*
X153920393Y-138780569D01*
X153910085Y-138746591D01*
X153906000Y-138705110D01*
X153906000Y-138103890D01*
X153910085Y-138062409D01*
X153920393Y-138028431D01*
X153937134Y-137997110D01*
X153959661Y-137969661D01*
X153987110Y-137947134D01*
X154018431Y-137930393D01*
X154052409Y-137920085D01*
X154093890Y-137916000D01*
X154770110Y-137916000D01*
X154811591Y-137920085D01*
X154811591Y-137920085D01*
G37*
G36*
X141603591Y-137920085D02*
G01*
X141637569Y-137930393D01*
X141668890Y-137947134D01*
X141696339Y-137969661D01*
X141718866Y-137997110D01*
X141735607Y-138028431D01*
X141745915Y-138062409D01*
X141750000Y-138103890D01*
X141750000Y-138705110D01*
X141745915Y-138746591D01*
X141735607Y-138780569D01*
X141718866Y-138811890D01*
X141696339Y-138839339D01*
X141668890Y-138861866D01*
X141637569Y-138878607D01*
X141603591Y-138888915D01*
X141562110Y-138893000D01*
X140885890Y-138893000D01*
X140844409Y-138888915D01*
X140810431Y-138878607D01*
X140779110Y-138861866D01*
X140751661Y-138839339D01*
X140729134Y-138811890D01*
X140712393Y-138780569D01*
X140702085Y-138746591D01*
X140698000Y-138705110D01*
X140698000Y-138103890D01*
X140702085Y-138062409D01*
X140712393Y-138028431D01*
X140729134Y-137997110D01*
X140751661Y-137969661D01*
X140779110Y-137947134D01*
X140810431Y-137930393D01*
X140844409Y-137920085D01*
X140885890Y-137916000D01*
X141562110Y-137916000D01*
X141603591Y-137920085D01*
X141603591Y-137920085D01*
G37*
G36*
X168004499Y-135685445D02*
G01*
X168041995Y-135696820D01*
X168076554Y-135715292D01*
X168106847Y-135740153D01*
X168131708Y-135770446D01*
X168150180Y-135805005D01*
X168161555Y-135842501D01*
X168166000Y-135887638D01*
X168166000Y-136626362D01*
X168161555Y-136671499D01*
X168150180Y-136708995D01*
X168131708Y-136743554D01*
X168106847Y-136773847D01*
X168076554Y-136798708D01*
X168041995Y-136817180D01*
X168004499Y-136828555D01*
X167959362Y-136833000D01*
X167320638Y-136833000D01*
X167275501Y-136828555D01*
X167238005Y-136817180D01*
X167203446Y-136798708D01*
X167173153Y-136773847D01*
X167148292Y-136743554D01*
X167129820Y-136708995D01*
X167118445Y-136671499D01*
X167114000Y-136626362D01*
X167114000Y-135887638D01*
X167118445Y-135842501D01*
X167129820Y-135805005D01*
X167148292Y-135770446D01*
X167173153Y-135740153D01*
X167203446Y-135715292D01*
X167238005Y-135696820D01*
X167275501Y-135685445D01*
X167320638Y-135681000D01*
X167959362Y-135681000D01*
X168004499Y-135685445D01*
X168004499Y-135685445D01*
G37*
G36*
X154796499Y-135685445D02*
G01*
X154833995Y-135696820D01*
X154868554Y-135715292D01*
X154898847Y-135740153D01*
X154923708Y-135770446D01*
X154942180Y-135805005D01*
X154953555Y-135842501D01*
X154958000Y-135887638D01*
X154958000Y-136626362D01*
X154953555Y-136671499D01*
X154942180Y-136708995D01*
X154923708Y-136743554D01*
X154898847Y-136773847D01*
X154868554Y-136798708D01*
X154833995Y-136817180D01*
X154796499Y-136828555D01*
X154751362Y-136833000D01*
X154112638Y-136833000D01*
X154067501Y-136828555D01*
X154030005Y-136817180D01*
X153995446Y-136798708D01*
X153965153Y-136773847D01*
X153940292Y-136743554D01*
X153921820Y-136708995D01*
X153910445Y-136671499D01*
X153906000Y-136626362D01*
X153906000Y-135887638D01*
X153910445Y-135842501D01*
X153921820Y-135805005D01*
X153940292Y-135770446D01*
X153965153Y-135740153D01*
X153995446Y-135715292D01*
X154030005Y-135696820D01*
X154067501Y-135685445D01*
X154112638Y-135681000D01*
X154751362Y-135681000D01*
X154796499Y-135685445D01*
X154796499Y-135685445D01*
G37*
G36*
X141588499Y-135685445D02*
G01*
X141625995Y-135696820D01*
X141660554Y-135715292D01*
X141690847Y-135740153D01*
X141715708Y-135770446D01*
X141734180Y-135805005D01*
X141745555Y-135842501D01*
X141750000Y-135887638D01*
X141750000Y-136626362D01*
X141745555Y-136671499D01*
X141734180Y-136708995D01*
X141715708Y-136743554D01*
X141690847Y-136773847D01*
X141660554Y-136798708D01*
X141625995Y-136817180D01*
X141588499Y-136828555D01*
X141543362Y-136833000D01*
X140904638Y-136833000D01*
X140859501Y-136828555D01*
X140822005Y-136817180D01*
X140787446Y-136798708D01*
X140757153Y-136773847D01*
X140732292Y-136743554D01*
X140713820Y-136708995D01*
X140702445Y-136671499D01*
X140698000Y-136626362D01*
X140698000Y-135887638D01*
X140702445Y-135842501D01*
X140713820Y-135805005D01*
X140732292Y-135770446D01*
X140757153Y-135740153D01*
X140787446Y-135715292D01*
X140822005Y-135696820D01*
X140859501Y-135685445D01*
X140904638Y-135681000D01*
X141543362Y-135681000D01*
X141588499Y-135685445D01*
X141588499Y-135685445D01*
G37*
G36*
X138763564Y-133609389D02*
G01*
X138954833Y-133688615D01*
X138954835Y-133688616D01*
X139126973Y-133803635D01*
X139273365Y-133950027D01*
X139338752Y-134047885D01*
X139388385Y-134122167D01*
X139467611Y-134313436D01*
X139508000Y-134516484D01*
X139508000Y-134723516D01*
X139467611Y-134926564D01*
X139434720Y-135005969D01*
X139388384Y-135117835D01*
X139273365Y-135289973D01*
X139126973Y-135436365D01*
X138954835Y-135551384D01*
X138954834Y-135551385D01*
X138954833Y-135551385D01*
X138763564Y-135630611D01*
X138560516Y-135671000D01*
X138353484Y-135671000D01*
X138150436Y-135630611D01*
X137959167Y-135551385D01*
X137959166Y-135551385D01*
X137959165Y-135551384D01*
X137787027Y-135436365D01*
X137640635Y-135289973D01*
X137525616Y-135117835D01*
X137479280Y-135005969D01*
X137446389Y-134926564D01*
X137406000Y-134723516D01*
X137406000Y-134516484D01*
X137446389Y-134313436D01*
X137525615Y-134122167D01*
X137575249Y-134047885D01*
X137640635Y-133950027D01*
X137787027Y-133803635D01*
X137959165Y-133688616D01*
X137959167Y-133688615D01*
X138150436Y-133609389D01*
X138353484Y-133569000D01*
X138560516Y-133569000D01*
X138763564Y-133609389D01*
X138763564Y-133609389D01*
G37*
G36*
X132263564Y-133609389D02*
G01*
X132454833Y-133688615D01*
X132454835Y-133688616D01*
X132626973Y-133803635D01*
X132773365Y-133950027D01*
X132838752Y-134047885D01*
X132888385Y-134122167D01*
X132967611Y-134313436D01*
X133008000Y-134516484D01*
X133008000Y-134723516D01*
X132967611Y-134926564D01*
X132934720Y-135005969D01*
X132888384Y-135117835D01*
X132773365Y-135289973D01*
X132626973Y-135436365D01*
X132454835Y-135551384D01*
X132454834Y-135551385D01*
X132454833Y-135551385D01*
X132263564Y-135630611D01*
X132060516Y-135671000D01*
X131853484Y-135671000D01*
X131650436Y-135630611D01*
X131459167Y-135551385D01*
X131459166Y-135551385D01*
X131459165Y-135551384D01*
X131287027Y-135436365D01*
X131140635Y-135289973D01*
X131025616Y-135117835D01*
X130979280Y-135005969D01*
X130946389Y-134926564D01*
X130906000Y-134723516D01*
X130906000Y-134516484D01*
X130946389Y-134313436D01*
X131025615Y-134122167D01*
X131075249Y-134047885D01*
X131140635Y-133950027D01*
X131287027Y-133803635D01*
X131459165Y-133688616D01*
X131459167Y-133688615D01*
X131650436Y-133609389D01*
X131853484Y-133569000D01*
X132060516Y-133569000D01*
X132263564Y-133609389D01*
X132263564Y-133609389D01*
G37*
G36*
X151840564Y-133609389D02*
G01*
X152031833Y-133688615D01*
X152031835Y-133688616D01*
X152203973Y-133803635D01*
X152350365Y-133950027D01*
X152415752Y-134047885D01*
X152465385Y-134122167D01*
X152544611Y-134313436D01*
X152585000Y-134516484D01*
X152585000Y-134723516D01*
X152544611Y-134926564D01*
X152511720Y-135005969D01*
X152465384Y-135117835D01*
X152350365Y-135289973D01*
X152203973Y-135436365D01*
X152031835Y-135551384D01*
X152031834Y-135551385D01*
X152031833Y-135551385D01*
X151840564Y-135630611D01*
X151637516Y-135671000D01*
X151430484Y-135671000D01*
X151227436Y-135630611D01*
X151036167Y-135551385D01*
X151036166Y-135551385D01*
X151036165Y-135551384D01*
X150864027Y-135436365D01*
X150717635Y-135289973D01*
X150602616Y-135117835D01*
X150556280Y-135005969D01*
X150523389Y-134926564D01*
X150483000Y-134723516D01*
X150483000Y-134516484D01*
X150523389Y-134313436D01*
X150602615Y-134122167D01*
X150652249Y-134047885D01*
X150717635Y-133950027D01*
X150864027Y-133803635D01*
X151036165Y-133688616D01*
X151036167Y-133688615D01*
X151227436Y-133609389D01*
X151430484Y-133569000D01*
X151637516Y-133569000D01*
X151840564Y-133609389D01*
X151840564Y-133609389D01*
G37*
G36*
X164921564Y-133609389D02*
G01*
X165112833Y-133688615D01*
X165112835Y-133688616D01*
X165284973Y-133803635D01*
X165431365Y-133950027D01*
X165496752Y-134047885D01*
X165546385Y-134122167D01*
X165625611Y-134313436D01*
X165666000Y-134516484D01*
X165666000Y-134723516D01*
X165625611Y-134926564D01*
X165592720Y-135005969D01*
X165546384Y-135117835D01*
X165431365Y-135289973D01*
X165284973Y-135436365D01*
X165112835Y-135551384D01*
X165112834Y-135551385D01*
X165112833Y-135551385D01*
X164921564Y-135630611D01*
X164718516Y-135671000D01*
X164511484Y-135671000D01*
X164308436Y-135630611D01*
X164117167Y-135551385D01*
X164117166Y-135551385D01*
X164117165Y-135551384D01*
X163945027Y-135436365D01*
X163798635Y-135289973D01*
X163683616Y-135117835D01*
X163637280Y-135005969D01*
X163604389Y-134926564D01*
X163564000Y-134723516D01*
X163564000Y-134516484D01*
X163604389Y-134313436D01*
X163683615Y-134122167D01*
X163733249Y-134047885D01*
X163798635Y-133950027D01*
X163945027Y-133803635D01*
X164117165Y-133688616D01*
X164117167Y-133688615D01*
X164308436Y-133609389D01*
X164511484Y-133569000D01*
X164718516Y-133569000D01*
X164921564Y-133609389D01*
X164921564Y-133609389D01*
G37*
G36*
X145340564Y-133609389D02*
G01*
X145531833Y-133688615D01*
X145531835Y-133688616D01*
X145703973Y-133803635D01*
X145850365Y-133950027D01*
X145915752Y-134047885D01*
X145965385Y-134122167D01*
X146044611Y-134313436D01*
X146085000Y-134516484D01*
X146085000Y-134723516D01*
X146044611Y-134926564D01*
X146011720Y-135005969D01*
X145965384Y-135117835D01*
X145850365Y-135289973D01*
X145703973Y-135436365D01*
X145531835Y-135551384D01*
X145531834Y-135551385D01*
X145531833Y-135551385D01*
X145340564Y-135630611D01*
X145137516Y-135671000D01*
X144930484Y-135671000D01*
X144727436Y-135630611D01*
X144536167Y-135551385D01*
X144536166Y-135551385D01*
X144536165Y-135551384D01*
X144364027Y-135436365D01*
X144217635Y-135289973D01*
X144102616Y-135117835D01*
X144056280Y-135005969D01*
X144023389Y-134926564D01*
X143983000Y-134723516D01*
X143983000Y-134516484D01*
X144023389Y-134313436D01*
X144102615Y-134122167D01*
X144152249Y-134047885D01*
X144217635Y-133950027D01*
X144364027Y-133803635D01*
X144536165Y-133688616D01*
X144536167Y-133688615D01*
X144727436Y-133609389D01*
X144930484Y-133569000D01*
X145137516Y-133569000D01*
X145340564Y-133609389D01*
X145340564Y-133609389D01*
G37*
G36*
X158421564Y-133609389D02*
G01*
X158612833Y-133688615D01*
X158612835Y-133688616D01*
X158784973Y-133803635D01*
X158931365Y-133950027D01*
X158996752Y-134047885D01*
X159046385Y-134122167D01*
X159125611Y-134313436D01*
X159166000Y-134516484D01*
X159166000Y-134723516D01*
X159125611Y-134926564D01*
X159092720Y-135005969D01*
X159046384Y-135117835D01*
X158931365Y-135289973D01*
X158784973Y-135436365D01*
X158612835Y-135551384D01*
X158612834Y-135551385D01*
X158612833Y-135551385D01*
X158421564Y-135630611D01*
X158218516Y-135671000D01*
X158011484Y-135671000D01*
X157808436Y-135630611D01*
X157617167Y-135551385D01*
X157617166Y-135551385D01*
X157617165Y-135551384D01*
X157445027Y-135436365D01*
X157298635Y-135289973D01*
X157183616Y-135117835D01*
X157137280Y-135005969D01*
X157104389Y-134926564D01*
X157064000Y-134723516D01*
X157064000Y-134516484D01*
X157104389Y-134313436D01*
X157183615Y-134122167D01*
X157233249Y-134047885D01*
X157298635Y-133950027D01*
X157445027Y-133803635D01*
X157617165Y-133688616D01*
X157617167Y-133688615D01*
X157808436Y-133609389D01*
X158011484Y-133569000D01*
X158218516Y-133569000D01*
X158421564Y-133609389D01*
X158421564Y-133609389D01*
G37*
G36*
X141588499Y-133935445D02*
G01*
X141625995Y-133946820D01*
X141660554Y-133965292D01*
X141690847Y-133990153D01*
X141715708Y-134020446D01*
X141734180Y-134055005D01*
X141745555Y-134092501D01*
X141750000Y-134137638D01*
X141750000Y-134876362D01*
X141745555Y-134921499D01*
X141734180Y-134958995D01*
X141715708Y-134993554D01*
X141690847Y-135023847D01*
X141660554Y-135048708D01*
X141625995Y-135067180D01*
X141588499Y-135078555D01*
X141543362Y-135083000D01*
X140904638Y-135083000D01*
X140859501Y-135078555D01*
X140822005Y-135067180D01*
X140787446Y-135048708D01*
X140757153Y-135023847D01*
X140732292Y-134993554D01*
X140713820Y-134958995D01*
X140702445Y-134921499D01*
X140698000Y-134876362D01*
X140698000Y-134137638D01*
X140702445Y-134092501D01*
X140713820Y-134055005D01*
X140732292Y-134020446D01*
X140757153Y-133990153D01*
X140787446Y-133965292D01*
X140822005Y-133946820D01*
X140859501Y-133935445D01*
X140904638Y-133931000D01*
X141543362Y-133931000D01*
X141588499Y-133935445D01*
X141588499Y-133935445D01*
G37*
G36*
X154796499Y-133935445D02*
G01*
X154833995Y-133946820D01*
X154868554Y-133965292D01*
X154898847Y-133990153D01*
X154923708Y-134020446D01*
X154942180Y-134055005D01*
X154953555Y-134092501D01*
X154958000Y-134137638D01*
X154958000Y-134876362D01*
X154953555Y-134921499D01*
X154942180Y-134958995D01*
X154923708Y-134993554D01*
X154898847Y-135023847D01*
X154868554Y-135048708D01*
X154833995Y-135067180D01*
X154796499Y-135078555D01*
X154751362Y-135083000D01*
X154112638Y-135083000D01*
X154067501Y-135078555D01*
X154030005Y-135067180D01*
X153995446Y-135048708D01*
X153965153Y-135023847D01*
X153940292Y-134993554D01*
X153921820Y-134958995D01*
X153910445Y-134921499D01*
X153906000Y-134876362D01*
X153906000Y-134137638D01*
X153910445Y-134092501D01*
X153921820Y-134055005D01*
X153940292Y-134020446D01*
X153965153Y-133990153D01*
X153995446Y-133965292D01*
X154030005Y-133946820D01*
X154067501Y-133935445D01*
X154112638Y-133931000D01*
X154751362Y-133931000D01*
X154796499Y-133935445D01*
X154796499Y-133935445D01*
G37*
G36*
X168004499Y-133935445D02*
G01*
X168041995Y-133946820D01*
X168076554Y-133965292D01*
X168106847Y-133990153D01*
X168131708Y-134020446D01*
X168150180Y-134055005D01*
X168161555Y-134092501D01*
X168166000Y-134137638D01*
X168166000Y-134876362D01*
X168161555Y-134921499D01*
X168150180Y-134958995D01*
X168131708Y-134993554D01*
X168106847Y-135023847D01*
X168076554Y-135048708D01*
X168041995Y-135067180D01*
X168004499Y-135078555D01*
X167959362Y-135083000D01*
X167320638Y-135083000D01*
X167275501Y-135078555D01*
X167238005Y-135067180D01*
X167203446Y-135048708D01*
X167173153Y-135023847D01*
X167148292Y-134993554D01*
X167129820Y-134958995D01*
X167118445Y-134921499D01*
X167114000Y-134876362D01*
X167114000Y-134137638D01*
X167118445Y-134092501D01*
X167129820Y-134055005D01*
X167148292Y-134020446D01*
X167173153Y-133990153D01*
X167203446Y-133965292D01*
X167238005Y-133946820D01*
X167275501Y-133935445D01*
X167320638Y-133931000D01*
X167959362Y-133931000D01*
X168004499Y-133935445D01*
X168004499Y-133935445D01*
G37*
G36*
X125226997Y-133138051D02*
G01*
X125260652Y-133148261D01*
X125291665Y-133164838D01*
X125318851Y-133187149D01*
X125341162Y-133214335D01*
X125357739Y-133245348D01*
X125367949Y-133279003D01*
X125372000Y-133320138D01*
X125372000Y-134649862D01*
X125367949Y-134690997D01*
X125357739Y-134724652D01*
X125341162Y-134755665D01*
X125318851Y-134782851D01*
X125291665Y-134805162D01*
X125260652Y-134821739D01*
X125226997Y-134831949D01*
X125185862Y-134836000D01*
X121956138Y-134836000D01*
X121915003Y-134831949D01*
X121881348Y-134821739D01*
X121850335Y-134805162D01*
X121823149Y-134782851D01*
X121800838Y-134755665D01*
X121784261Y-134724652D01*
X121774051Y-134690997D01*
X121770000Y-134649862D01*
X121770000Y-133320138D01*
X121774051Y-133279003D01*
X121784261Y-133245348D01*
X121800838Y-133214335D01*
X121823149Y-133187149D01*
X121850335Y-133164838D01*
X121881348Y-133148261D01*
X121915003Y-133138051D01*
X121956138Y-133134000D01*
X125185862Y-133134000D01*
X125226997Y-133138051D01*
X125226997Y-133138051D01*
G37*
G36*
X119626997Y-133138051D02*
G01*
X119660652Y-133148261D01*
X119691665Y-133164838D01*
X119718851Y-133187149D01*
X119741162Y-133214335D01*
X119757739Y-133245348D01*
X119767949Y-133279003D01*
X119772000Y-133320138D01*
X119772000Y-134649862D01*
X119767949Y-134690997D01*
X119757739Y-134724652D01*
X119741162Y-134755665D01*
X119718851Y-134782851D01*
X119691665Y-134805162D01*
X119660652Y-134821739D01*
X119626997Y-134831949D01*
X119585862Y-134836000D01*
X116356138Y-134836000D01*
X116315003Y-134831949D01*
X116281348Y-134821739D01*
X116250335Y-134805162D01*
X116223149Y-134782851D01*
X116200838Y-134755665D01*
X116184261Y-134724652D01*
X116174051Y-134690997D01*
X116170000Y-134649862D01*
X116170000Y-133320138D01*
X116174051Y-133279003D01*
X116184261Y-133245348D01*
X116200838Y-133214335D01*
X116223149Y-133187149D01*
X116250335Y-133164838D01*
X116281348Y-133148261D01*
X116315003Y-133138051D01*
X116356138Y-133134000D01*
X119585862Y-133134000D01*
X119626997Y-133138051D01*
X119626997Y-133138051D01*
G37*
G36*
X158393091Y-131113085D02*
G01*
X158427069Y-131123393D01*
X158458390Y-131140134D01*
X158485839Y-131162661D01*
X158508366Y-131190110D01*
X158525107Y-131221431D01*
X158535415Y-131255409D01*
X158539500Y-131296890D01*
X158539500Y-131898110D01*
X158535415Y-131939591D01*
X158525107Y-131973569D01*
X158508366Y-132004890D01*
X158485839Y-132032339D01*
X158458390Y-132054866D01*
X158427069Y-132071607D01*
X158393091Y-132081915D01*
X158351610Y-132086000D01*
X157675390Y-132086000D01*
X157633909Y-132081915D01*
X157599931Y-132071607D01*
X157568610Y-132054866D01*
X157541161Y-132032339D01*
X157518634Y-132004890D01*
X157501893Y-131973569D01*
X157491585Y-131939591D01*
X157487500Y-131898110D01*
X157487500Y-131296890D01*
X157491585Y-131255409D01*
X157501893Y-131221431D01*
X157518634Y-131190110D01*
X157541161Y-131162661D01*
X157568610Y-131140134D01*
X157599931Y-131123393D01*
X157633909Y-131113085D01*
X157675390Y-131109000D01*
X158351610Y-131109000D01*
X158393091Y-131113085D01*
X158393091Y-131113085D01*
G37*
G36*
X145413591Y-131113085D02*
G01*
X145447569Y-131123393D01*
X145478890Y-131140134D01*
X145506339Y-131162661D01*
X145528866Y-131190110D01*
X145545607Y-131221431D01*
X145555915Y-131255409D01*
X145560000Y-131296890D01*
X145560000Y-131898110D01*
X145555915Y-131939591D01*
X145545607Y-131973569D01*
X145528866Y-132004890D01*
X145506339Y-132032339D01*
X145478890Y-132054866D01*
X145447569Y-132071607D01*
X145413591Y-132081915D01*
X145372110Y-132086000D01*
X144695890Y-132086000D01*
X144654409Y-132081915D01*
X144620431Y-132071607D01*
X144589110Y-132054866D01*
X144561661Y-132032339D01*
X144539134Y-132004890D01*
X144522393Y-131973569D01*
X144512085Y-131939591D01*
X144508000Y-131898110D01*
X144508000Y-131296890D01*
X144512085Y-131255409D01*
X144522393Y-131221431D01*
X144539134Y-131190110D01*
X144561661Y-131162661D01*
X144589110Y-131140134D01*
X144620431Y-131123393D01*
X144654409Y-131113085D01*
X144695890Y-131109000D01*
X145372110Y-131109000D01*
X145413591Y-131113085D01*
X145413591Y-131113085D01*
G37*
G36*
X132205591Y-131087585D02*
G01*
X132239569Y-131097893D01*
X132270890Y-131114634D01*
X132298339Y-131137161D01*
X132320866Y-131164610D01*
X132337607Y-131195931D01*
X132347915Y-131229909D01*
X132352000Y-131271390D01*
X132352000Y-131872610D01*
X132347915Y-131914091D01*
X132337607Y-131948069D01*
X132320866Y-131979390D01*
X132298339Y-132006839D01*
X132270890Y-132029366D01*
X132239569Y-132046107D01*
X132205591Y-132056415D01*
X132164110Y-132060500D01*
X131487890Y-132060500D01*
X131446409Y-132056415D01*
X131412431Y-132046107D01*
X131381110Y-132029366D01*
X131353661Y-132006839D01*
X131331134Y-131979390D01*
X131314393Y-131948069D01*
X131304085Y-131914091D01*
X131300000Y-131872610D01*
X131300000Y-131271390D01*
X131304085Y-131229909D01*
X131314393Y-131195931D01*
X131331134Y-131164610D01*
X131353661Y-131137161D01*
X131381110Y-131114634D01*
X131412431Y-131097893D01*
X131446409Y-131087585D01*
X131487890Y-131083500D01*
X132164110Y-131083500D01*
X132205591Y-131087585D01*
X132205591Y-131087585D01*
G37*
G36*
X158393091Y-129538085D02*
G01*
X158427069Y-129548393D01*
X158458390Y-129565134D01*
X158485839Y-129587661D01*
X158508366Y-129615110D01*
X158525107Y-129646431D01*
X158535415Y-129680409D01*
X158539500Y-129721890D01*
X158539500Y-130323110D01*
X158535415Y-130364591D01*
X158525107Y-130398569D01*
X158508366Y-130429890D01*
X158485839Y-130457339D01*
X158458390Y-130479866D01*
X158427069Y-130496607D01*
X158393091Y-130506915D01*
X158351610Y-130511000D01*
X157675390Y-130511000D01*
X157633909Y-130506915D01*
X157599931Y-130496607D01*
X157568610Y-130479866D01*
X157541161Y-130457339D01*
X157518634Y-130429890D01*
X157501893Y-130398569D01*
X157491585Y-130364591D01*
X157487500Y-130323110D01*
X157487500Y-129721890D01*
X157491585Y-129680409D01*
X157501893Y-129646431D01*
X157518634Y-129615110D01*
X157541161Y-129587661D01*
X157568610Y-129565134D01*
X157599931Y-129548393D01*
X157633909Y-129538085D01*
X157675390Y-129534000D01*
X158351610Y-129534000D01*
X158393091Y-129538085D01*
X158393091Y-129538085D01*
G37*
G36*
X145413591Y-129538085D02*
G01*
X145447569Y-129548393D01*
X145478890Y-129565134D01*
X145506339Y-129587661D01*
X145528866Y-129615110D01*
X145545607Y-129646431D01*
X145555915Y-129680409D01*
X145560000Y-129721890D01*
X145560000Y-130323110D01*
X145555915Y-130364591D01*
X145545607Y-130398569D01*
X145528866Y-130429890D01*
X145506339Y-130457339D01*
X145478890Y-130479866D01*
X145447569Y-130496607D01*
X145413591Y-130506915D01*
X145372110Y-130511000D01*
X144695890Y-130511000D01*
X144654409Y-130506915D01*
X144620431Y-130496607D01*
X144589110Y-130479866D01*
X144561661Y-130457339D01*
X144539134Y-130429890D01*
X144522393Y-130398569D01*
X144512085Y-130364591D01*
X144508000Y-130323110D01*
X144508000Y-129721890D01*
X144512085Y-129680409D01*
X144522393Y-129646431D01*
X144539134Y-129615110D01*
X144561661Y-129587661D01*
X144589110Y-129565134D01*
X144620431Y-129548393D01*
X144654409Y-129538085D01*
X144695890Y-129534000D01*
X145372110Y-129534000D01*
X145413591Y-129538085D01*
X145413591Y-129538085D01*
G37*
G36*
X132205591Y-129512585D02*
G01*
X132239569Y-129522893D01*
X132270890Y-129539634D01*
X132298339Y-129562161D01*
X132320866Y-129589610D01*
X132337607Y-129620931D01*
X132347915Y-129654909D01*
X132352000Y-129696390D01*
X132352000Y-130297610D01*
X132347915Y-130339091D01*
X132337607Y-130373069D01*
X132320866Y-130404390D01*
X132298339Y-130431839D01*
X132270890Y-130454366D01*
X132239569Y-130471107D01*
X132205591Y-130481415D01*
X132164110Y-130485500D01*
X131487890Y-130485500D01*
X131446409Y-130481415D01*
X131412431Y-130471107D01*
X131381110Y-130454366D01*
X131353661Y-130431839D01*
X131331134Y-130404390D01*
X131314393Y-130373069D01*
X131304085Y-130339091D01*
X131300000Y-130297610D01*
X131300000Y-129696390D01*
X131304085Y-129654909D01*
X131314393Y-129620931D01*
X131331134Y-129589610D01*
X131353661Y-129562161D01*
X131381110Y-129539634D01*
X131412431Y-129522893D01*
X131446409Y-129512585D01*
X131487890Y-129508500D01*
X132164110Y-129508500D01*
X132205591Y-129512585D01*
X132205591Y-129512585D01*
G37*
G36*
X118957000Y-128831000D02*
G01*
X116855000Y-128831000D01*
X116855000Y-127229000D01*
X118957000Y-127229000D01*
X118957000Y-128831000D01*
X118957000Y-128831000D01*
G37*
G36*
X125257000Y-127681000D02*
G01*
X123155000Y-127681000D01*
X123155000Y-123779000D01*
X125257000Y-123779000D01*
X125257000Y-127681000D01*
X125257000Y-127681000D01*
G37*
G36*
X191298019Y-120385462D02*
G01*
X191298022Y-120385463D01*
X191298021Y-120385463D01*
X191944261Y-120653144D01*
X192525863Y-121041758D01*
X193020474Y-121536369D01*
X193409088Y-122117971D01*
X193409088Y-122117972D01*
X193676770Y-122764213D01*
X193813232Y-123450256D01*
X193813232Y-124149744D01*
X193676770Y-124835787D01*
X193641767Y-124920292D01*
X193409088Y-125482029D01*
X193020474Y-126063631D01*
X192525863Y-126558242D01*
X191944261Y-126946856D01*
X191487300Y-127136135D01*
X191298019Y-127214538D01*
X190611976Y-127351000D01*
X189912488Y-127351000D01*
X189226445Y-127214538D01*
X189037164Y-127136135D01*
X188580203Y-126946856D01*
X187998601Y-126558242D01*
X187503990Y-126063631D01*
X187115376Y-125482029D01*
X186882697Y-124920292D01*
X186847694Y-124835787D01*
X186711232Y-124149744D01*
X186711232Y-123450256D01*
X186847694Y-122764213D01*
X187115376Y-122117972D01*
X187115376Y-122117971D01*
X187503990Y-121536369D01*
X187998601Y-121041758D01*
X188580203Y-120653144D01*
X189226443Y-120385463D01*
X189226442Y-120385463D01*
X189226445Y-120385462D01*
X189912488Y-120249000D01*
X190611976Y-120249000D01*
X191298019Y-120385462D01*
X191298019Y-120385462D01*
G37*
G36*
X107293554Y-120385462D02*
G01*
X107293557Y-120385463D01*
X107293556Y-120385463D01*
X107939796Y-120653144D01*
X108521398Y-121041758D01*
X109016009Y-121536369D01*
X109404623Y-122117971D01*
X109404623Y-122117972D01*
X109672305Y-122764213D01*
X109808767Y-123450256D01*
X109808767Y-124149744D01*
X109672305Y-124835787D01*
X109637302Y-124920292D01*
X109404623Y-125482029D01*
X109016009Y-126063631D01*
X108521398Y-126558242D01*
X107939796Y-126946856D01*
X107482835Y-127136135D01*
X107293554Y-127214538D01*
X106607511Y-127351000D01*
X105908023Y-127351000D01*
X105221980Y-127214538D01*
X105032699Y-127136135D01*
X104575738Y-126946856D01*
X103994136Y-126558242D01*
X103499525Y-126063631D01*
X103110911Y-125482029D01*
X102878232Y-124920292D01*
X102843229Y-124835787D01*
X102706767Y-124149744D01*
X102706767Y-123450256D01*
X102843229Y-122764213D01*
X103110911Y-122117972D01*
X103110911Y-122117971D01*
X103499525Y-121536369D01*
X103994136Y-121041758D01*
X104575738Y-120653144D01*
X105221978Y-120385463D01*
X105221977Y-120385463D01*
X105221980Y-120385462D01*
X105908023Y-120249000D01*
X106607511Y-120249000D01*
X107293554Y-120385462D01*
X107293554Y-120385462D01*
G37*
G36*
X118957000Y-126531000D02*
G01*
X116855000Y-126531000D01*
X116855000Y-124929000D01*
X118957000Y-124929000D01*
X118957000Y-126531000D01*
X118957000Y-126531000D01*
G37*
G36*
X115680499Y-124890445D02*
G01*
X115717995Y-124901820D01*
X115752554Y-124920292D01*
X115782847Y-124945153D01*
X115807708Y-124975446D01*
X115826180Y-125010005D01*
X115837555Y-125047501D01*
X115842000Y-125092638D01*
X115842000Y-125831362D01*
X115837555Y-125876499D01*
X115826180Y-125913995D01*
X115807708Y-125948554D01*
X115782847Y-125978847D01*
X115752554Y-126003708D01*
X115717995Y-126022180D01*
X115680499Y-126033555D01*
X115635362Y-126038000D01*
X114996638Y-126038000D01*
X114951501Y-126033555D01*
X114914005Y-126022180D01*
X114879446Y-126003708D01*
X114849153Y-125978847D01*
X114824292Y-125948554D01*
X114805820Y-125913995D01*
X114794445Y-125876499D01*
X114790000Y-125831362D01*
X114790000Y-125092638D01*
X114794445Y-125047501D01*
X114805820Y-125010005D01*
X114824292Y-124975446D01*
X114849153Y-124945153D01*
X114879446Y-124920292D01*
X114914005Y-124901820D01*
X114951501Y-124890445D01*
X114996638Y-124886000D01*
X115635362Y-124886000D01*
X115680499Y-124890445D01*
X115680499Y-124890445D01*
G37*
G36*
X115680499Y-123140445D02*
G01*
X115717995Y-123151820D01*
X115752554Y-123170292D01*
X115782847Y-123195153D01*
X115807708Y-123225446D01*
X115826180Y-123260005D01*
X115837555Y-123297501D01*
X115842000Y-123342638D01*
X115842000Y-124081362D01*
X115837555Y-124126499D01*
X115826180Y-124163995D01*
X115807708Y-124198554D01*
X115782847Y-124228847D01*
X115752554Y-124253708D01*
X115717995Y-124272180D01*
X115680499Y-124283555D01*
X115635362Y-124288000D01*
X114996638Y-124288000D01*
X114951501Y-124283555D01*
X114914005Y-124272180D01*
X114879446Y-124253708D01*
X114849153Y-124228847D01*
X114824292Y-124198554D01*
X114805820Y-124163995D01*
X114794445Y-124126499D01*
X114790000Y-124081362D01*
X114790000Y-123342638D01*
X114794445Y-123297501D01*
X114805820Y-123260005D01*
X114824292Y-123225446D01*
X114849153Y-123195153D01*
X114879446Y-123170292D01*
X114914005Y-123151820D01*
X114951501Y-123140445D01*
X114996638Y-123136000D01*
X115635362Y-123136000D01*
X115680499Y-123140445D01*
X115680499Y-123140445D01*
G37*
G36*
X118957000Y-124231000D02*
G01*
X116855000Y-124231000D01*
X116855000Y-122629000D01*
X118957000Y-122629000D01*
X118957000Y-124231000D01*
X118957000Y-124231000D01*
G37*
G36*
X125226997Y-116628051D02*
G01*
X125260652Y-116638261D01*
X125291665Y-116654838D01*
X125318851Y-116677149D01*
X125341162Y-116704335D01*
X125357739Y-116735348D01*
X125367949Y-116769003D01*
X125372000Y-116810138D01*
X125372000Y-118139862D01*
X125367949Y-118180997D01*
X125357739Y-118214652D01*
X125341162Y-118245665D01*
X125318851Y-118272851D01*
X125291665Y-118295162D01*
X125260652Y-118311739D01*
X125226997Y-118321949D01*
X125185862Y-118326000D01*
X121956138Y-118326000D01*
X121915003Y-118321949D01*
X121881348Y-118311739D01*
X121850335Y-118295162D01*
X121823149Y-118272851D01*
X121800838Y-118245665D01*
X121784261Y-118214652D01*
X121774051Y-118180997D01*
X121770000Y-118139862D01*
X121770000Y-116810138D01*
X121774051Y-116769003D01*
X121784261Y-116735348D01*
X121800838Y-116704335D01*
X121823149Y-116677149D01*
X121850335Y-116654838D01*
X121881348Y-116638261D01*
X121915003Y-116628051D01*
X121956138Y-116624000D01*
X125185862Y-116624000D01*
X125226997Y-116628051D01*
X125226997Y-116628051D01*
G37*
G36*
X119626997Y-116628051D02*
G01*
X119660652Y-116638261D01*
X119691665Y-116654838D01*
X119718851Y-116677149D01*
X119741162Y-116704335D01*
X119757739Y-116735348D01*
X119767949Y-116769003D01*
X119772000Y-116810138D01*
X119772000Y-118139862D01*
X119767949Y-118180997D01*
X119757739Y-118214652D01*
X119741162Y-118245665D01*
X119718851Y-118272851D01*
X119691665Y-118295162D01*
X119660652Y-118311739D01*
X119626997Y-118321949D01*
X119585862Y-118326000D01*
X116356138Y-118326000D01*
X116315003Y-118321949D01*
X116281348Y-118311739D01*
X116250335Y-118295162D01*
X116223149Y-118272851D01*
X116200838Y-118245665D01*
X116184261Y-118214652D01*
X116174051Y-118180997D01*
X116170000Y-118139862D01*
X116170000Y-116810138D01*
X116174051Y-116769003D01*
X116184261Y-116735348D01*
X116200838Y-116704335D01*
X116223149Y-116677149D01*
X116250335Y-116654838D01*
X116281348Y-116638261D01*
X116315003Y-116628051D01*
X116356138Y-116624000D01*
X119585862Y-116624000D01*
X119626997Y-116628051D01*
X119626997Y-116628051D01*
G37*
G36*
X132193591Y-109206085D02*
G01*
X132227569Y-109216393D01*
X132258890Y-109233134D01*
X132286339Y-109255661D01*
X132308866Y-109283110D01*
X132325607Y-109314431D01*
X132335915Y-109348409D01*
X132340000Y-109389890D01*
X132340000Y-110066110D01*
X132335915Y-110107591D01*
X132325607Y-110141569D01*
X132308866Y-110172890D01*
X132286339Y-110200339D01*
X132258890Y-110222866D01*
X132227569Y-110239607D01*
X132193591Y-110249915D01*
X132152110Y-110254000D01*
X131550890Y-110254000D01*
X131509409Y-110249915D01*
X131475431Y-110239607D01*
X131444110Y-110222866D01*
X131416661Y-110200339D01*
X131394134Y-110172890D01*
X131377393Y-110141569D01*
X131367085Y-110107591D01*
X131363000Y-110066110D01*
X131363000Y-109389890D01*
X131367085Y-109348409D01*
X131377393Y-109314431D01*
X131394134Y-109283110D01*
X131416661Y-109255661D01*
X131444110Y-109233134D01*
X131475431Y-109216393D01*
X131509409Y-109206085D01*
X131550890Y-109202000D01*
X132152110Y-109202000D01*
X132193591Y-109206085D01*
X132193591Y-109206085D01*
G37*
G36*
X130618591Y-109206085D02*
G01*
X130652569Y-109216393D01*
X130683890Y-109233134D01*
X130711339Y-109255661D01*
X130733866Y-109283110D01*
X130750607Y-109314431D01*
X130760915Y-109348409D01*
X130765000Y-109389890D01*
X130765000Y-110066110D01*
X130760915Y-110107591D01*
X130750607Y-110141569D01*
X130733866Y-110172890D01*
X130711339Y-110200339D01*
X130683890Y-110222866D01*
X130652569Y-110239607D01*
X130618591Y-110249915D01*
X130577110Y-110254000D01*
X129975890Y-110254000D01*
X129934409Y-110249915D01*
X129900431Y-110239607D01*
X129869110Y-110222866D01*
X129841661Y-110200339D01*
X129819134Y-110172890D01*
X129802393Y-110141569D01*
X129792085Y-110107591D01*
X129788000Y-110066110D01*
X129788000Y-109389890D01*
X129792085Y-109348409D01*
X129802393Y-109314431D01*
X129819134Y-109283110D01*
X129841661Y-109255661D01*
X129869110Y-109233134D01*
X129900431Y-109216393D01*
X129934409Y-109206085D01*
X129975890Y-109202000D01*
X130577110Y-109202000D01*
X130618591Y-109206085D01*
X130618591Y-109206085D01*
G37*
G36*
X121043091Y-109206085D02*
G01*
X121077069Y-109216393D01*
X121108390Y-109233134D01*
X121135839Y-109255661D01*
X121158366Y-109283110D01*
X121175107Y-109314431D01*
X121185415Y-109348409D01*
X121189500Y-109389890D01*
X121189500Y-110066110D01*
X121185415Y-110107591D01*
X121175107Y-110141569D01*
X121158366Y-110172890D01*
X121135839Y-110200339D01*
X121108390Y-110222866D01*
X121077069Y-110239607D01*
X121043091Y-110249915D01*
X121001610Y-110254000D01*
X120400390Y-110254000D01*
X120358909Y-110249915D01*
X120324931Y-110239607D01*
X120293610Y-110222866D01*
X120266161Y-110200339D01*
X120243634Y-110172890D01*
X120226893Y-110141569D01*
X120216585Y-110107591D01*
X120212500Y-110066110D01*
X120212500Y-109389890D01*
X120216585Y-109348409D01*
X120226893Y-109314431D01*
X120243634Y-109283110D01*
X120266161Y-109255661D01*
X120293610Y-109233134D01*
X120324931Y-109216393D01*
X120358909Y-109206085D01*
X120400390Y-109202000D01*
X121001610Y-109202000D01*
X121043091Y-109206085D01*
X121043091Y-109206085D01*
G37*
G36*
X119468091Y-109206085D02*
G01*
X119502069Y-109216393D01*
X119533390Y-109233134D01*
X119560839Y-109255661D01*
X119583366Y-109283110D01*
X119600107Y-109314431D01*
X119610415Y-109348409D01*
X119614500Y-109389890D01*
X119614500Y-110066110D01*
X119610415Y-110107591D01*
X119600107Y-110141569D01*
X119583366Y-110172890D01*
X119560839Y-110200339D01*
X119533390Y-110222866D01*
X119502069Y-110239607D01*
X119468091Y-110249915D01*
X119426610Y-110254000D01*
X118825390Y-110254000D01*
X118783909Y-110249915D01*
X118749931Y-110239607D01*
X118718610Y-110222866D01*
X118691161Y-110200339D01*
X118668634Y-110172890D01*
X118651893Y-110141569D01*
X118641585Y-110107591D01*
X118637500Y-110066110D01*
X118637500Y-109389890D01*
X118641585Y-109348409D01*
X118651893Y-109314431D01*
X118668634Y-109283110D01*
X118691161Y-109255661D01*
X118718610Y-109233134D01*
X118749931Y-109216393D01*
X118783909Y-109206085D01*
X118825390Y-109202000D01*
X119426610Y-109202000D01*
X119468091Y-109206085D01*
X119468091Y-109206085D01*
G37*
G36*
X110349591Y-109206085D02*
G01*
X110383569Y-109216393D01*
X110414890Y-109233134D01*
X110442339Y-109255661D01*
X110464866Y-109283110D01*
X110481607Y-109314431D01*
X110491915Y-109348409D01*
X110496000Y-109389890D01*
X110496000Y-110066110D01*
X110491915Y-110107591D01*
X110481607Y-110141569D01*
X110464866Y-110172890D01*
X110442339Y-110200339D01*
X110414890Y-110222866D01*
X110383569Y-110239607D01*
X110349591Y-110249915D01*
X110308110Y-110254000D01*
X109706890Y-110254000D01*
X109665409Y-110249915D01*
X109631431Y-110239607D01*
X109600110Y-110222866D01*
X109572661Y-110200339D01*
X109550134Y-110172890D01*
X109533393Y-110141569D01*
X109523085Y-110107591D01*
X109519000Y-110066110D01*
X109519000Y-109389890D01*
X109523085Y-109348409D01*
X109533393Y-109314431D01*
X109550134Y-109283110D01*
X109572661Y-109255661D01*
X109600110Y-109233134D01*
X109631431Y-109216393D01*
X109665409Y-109206085D01*
X109706890Y-109202000D01*
X110308110Y-109202000D01*
X110349591Y-109206085D01*
X110349591Y-109206085D01*
G37*
G36*
X108774591Y-109206085D02*
G01*
X108808569Y-109216393D01*
X108839890Y-109233134D01*
X108867339Y-109255661D01*
X108889866Y-109283110D01*
X108906607Y-109314431D01*
X108916915Y-109348409D01*
X108921000Y-109389890D01*
X108921000Y-110066110D01*
X108916915Y-110107591D01*
X108906607Y-110141569D01*
X108889866Y-110172890D01*
X108867339Y-110200339D01*
X108839890Y-110222866D01*
X108808569Y-110239607D01*
X108774591Y-110249915D01*
X108733110Y-110254000D01*
X108131890Y-110254000D01*
X108090409Y-110249915D01*
X108056431Y-110239607D01*
X108025110Y-110222866D01*
X107997661Y-110200339D01*
X107975134Y-110172890D01*
X107958393Y-110141569D01*
X107948085Y-110107591D01*
X107944000Y-110066110D01*
X107944000Y-109389890D01*
X107948085Y-109348409D01*
X107958393Y-109314431D01*
X107975134Y-109283110D01*
X107997661Y-109255661D01*
X108025110Y-109233134D01*
X108056431Y-109216393D01*
X108090409Y-109206085D01*
X108131890Y-109202000D01*
X108733110Y-109202000D01*
X108774591Y-109206085D01*
X108774591Y-109206085D01*
G37*
G36*
X124453000Y-109351000D02*
G01*
X123451000Y-109351000D01*
X123451000Y-108449000D01*
X124453000Y-108449000D01*
X124453000Y-109351000D01*
X124453000Y-109351000D01*
G37*
G36*
X113531000Y-109351000D02*
G01*
X112529000Y-109351000D01*
X112529000Y-108449000D01*
X113531000Y-108449000D01*
X113531000Y-109351000D01*
X113531000Y-109351000D01*
G37*
G36*
X135629000Y-109351000D02*
G01*
X134627000Y-109351000D01*
X134627000Y-108449000D01*
X135629000Y-108449000D01*
X135629000Y-109351000D01*
X135629000Y-109351000D01*
G37*
G36*
X126453000Y-108401000D02*
G01*
X125451000Y-108401000D01*
X125451000Y-107499000D01*
X126453000Y-107499000D01*
X126453000Y-108401000D01*
X126453000Y-108401000D01*
G37*
G36*
X137629000Y-108401000D02*
G01*
X136627000Y-108401000D01*
X136627000Y-107499000D01*
X137629000Y-107499000D01*
X137629000Y-108401000D01*
X137629000Y-108401000D01*
G37*
G36*
X115531000Y-108401000D02*
G01*
X114529000Y-108401000D01*
X114529000Y-107499000D01*
X115531000Y-107499000D01*
X115531000Y-108401000D01*
X115531000Y-108401000D01*
G37*
G36*
X110349591Y-106412085D02*
G01*
X110383569Y-106422393D01*
X110414890Y-106439134D01*
X110442339Y-106461661D01*
X110464866Y-106489110D01*
X110481607Y-106520431D01*
X110491915Y-106554409D01*
X110496000Y-106595890D01*
X110496000Y-107272110D01*
X110491915Y-107313591D01*
X110481607Y-107347569D01*
X110464866Y-107378890D01*
X110442339Y-107406339D01*
X110414890Y-107428866D01*
X110383569Y-107445607D01*
X110349591Y-107455915D01*
X110308110Y-107460000D01*
X109706890Y-107460000D01*
X109665409Y-107455915D01*
X109631431Y-107445607D01*
X109600110Y-107428866D01*
X109572661Y-107406339D01*
X109550134Y-107378890D01*
X109533393Y-107347569D01*
X109523085Y-107313591D01*
X109519000Y-107272110D01*
X109519000Y-106595890D01*
X109523085Y-106554409D01*
X109533393Y-106520431D01*
X109550134Y-106489110D01*
X109572661Y-106461661D01*
X109600110Y-106439134D01*
X109631431Y-106422393D01*
X109665409Y-106412085D01*
X109706890Y-106408000D01*
X110308110Y-106408000D01*
X110349591Y-106412085D01*
X110349591Y-106412085D01*
G37*
G36*
X119468091Y-106412085D02*
G01*
X119502069Y-106422393D01*
X119533390Y-106439134D01*
X119560839Y-106461661D01*
X119583366Y-106489110D01*
X119600107Y-106520431D01*
X119610415Y-106554409D01*
X119614500Y-106595890D01*
X119614500Y-107272110D01*
X119610415Y-107313591D01*
X119600107Y-107347569D01*
X119583366Y-107378890D01*
X119560839Y-107406339D01*
X119533390Y-107428866D01*
X119502069Y-107445607D01*
X119468091Y-107455915D01*
X119426610Y-107460000D01*
X118825390Y-107460000D01*
X118783909Y-107455915D01*
X118749931Y-107445607D01*
X118718610Y-107428866D01*
X118691161Y-107406339D01*
X118668634Y-107378890D01*
X118651893Y-107347569D01*
X118641585Y-107313591D01*
X118637500Y-107272110D01*
X118637500Y-106595890D01*
X118641585Y-106554409D01*
X118651893Y-106520431D01*
X118668634Y-106489110D01*
X118691161Y-106461661D01*
X118718610Y-106439134D01*
X118749931Y-106422393D01*
X118783909Y-106412085D01*
X118825390Y-106408000D01*
X119426610Y-106408000D01*
X119468091Y-106412085D01*
X119468091Y-106412085D01*
G37*
G36*
X108774591Y-106412085D02*
G01*
X108808569Y-106422393D01*
X108839890Y-106439134D01*
X108867339Y-106461661D01*
X108889866Y-106489110D01*
X108906607Y-106520431D01*
X108916915Y-106554409D01*
X108921000Y-106595890D01*
X108921000Y-107272110D01*
X108916915Y-107313591D01*
X108906607Y-107347569D01*
X108889866Y-107378890D01*
X108867339Y-107406339D01*
X108839890Y-107428866D01*
X108808569Y-107445607D01*
X108774591Y-107455915D01*
X108733110Y-107460000D01*
X108131890Y-107460000D01*
X108090409Y-107455915D01*
X108056431Y-107445607D01*
X108025110Y-107428866D01*
X107997661Y-107406339D01*
X107975134Y-107378890D01*
X107958393Y-107347569D01*
X107948085Y-107313591D01*
X107944000Y-107272110D01*
X107944000Y-106595890D01*
X107948085Y-106554409D01*
X107958393Y-106520431D01*
X107975134Y-106489110D01*
X107997661Y-106461661D01*
X108025110Y-106439134D01*
X108056431Y-106422393D01*
X108090409Y-106412085D01*
X108131890Y-106408000D01*
X108733110Y-106408000D01*
X108774591Y-106412085D01*
X108774591Y-106412085D01*
G37*
G36*
X132219091Y-106412085D02*
G01*
X132253069Y-106422393D01*
X132284390Y-106439134D01*
X132311839Y-106461661D01*
X132334366Y-106489110D01*
X132351107Y-106520431D01*
X132361415Y-106554409D01*
X132365500Y-106595890D01*
X132365500Y-107272110D01*
X132361415Y-107313591D01*
X132351107Y-107347569D01*
X132334366Y-107378890D01*
X132311839Y-107406339D01*
X132284390Y-107428866D01*
X132253069Y-107445607D01*
X132219091Y-107455915D01*
X132177610Y-107460000D01*
X131576390Y-107460000D01*
X131534909Y-107455915D01*
X131500931Y-107445607D01*
X131469610Y-107428866D01*
X131442161Y-107406339D01*
X131419634Y-107378890D01*
X131402893Y-107347569D01*
X131392585Y-107313591D01*
X131388500Y-107272110D01*
X131388500Y-106595890D01*
X131392585Y-106554409D01*
X131402893Y-106520431D01*
X131419634Y-106489110D01*
X131442161Y-106461661D01*
X131469610Y-106439134D01*
X131500931Y-106422393D01*
X131534909Y-106412085D01*
X131576390Y-106408000D01*
X132177610Y-106408000D01*
X132219091Y-106412085D01*
X132219091Y-106412085D01*
G37*
G36*
X130644091Y-106412085D02*
G01*
X130678069Y-106422393D01*
X130709390Y-106439134D01*
X130736839Y-106461661D01*
X130759366Y-106489110D01*
X130776107Y-106520431D01*
X130786415Y-106554409D01*
X130790500Y-106595890D01*
X130790500Y-107272110D01*
X130786415Y-107313591D01*
X130776107Y-107347569D01*
X130759366Y-107378890D01*
X130736839Y-107406339D01*
X130709390Y-107428866D01*
X130678069Y-107445607D01*
X130644091Y-107455915D01*
X130602610Y-107460000D01*
X130001390Y-107460000D01*
X129959909Y-107455915D01*
X129925931Y-107445607D01*
X129894610Y-107428866D01*
X129867161Y-107406339D01*
X129844634Y-107378890D01*
X129827893Y-107347569D01*
X129817585Y-107313591D01*
X129813500Y-107272110D01*
X129813500Y-106595890D01*
X129817585Y-106554409D01*
X129827893Y-106520431D01*
X129844634Y-106489110D01*
X129867161Y-106461661D01*
X129894610Y-106439134D01*
X129925931Y-106422393D01*
X129959909Y-106412085D01*
X130001390Y-106408000D01*
X130602610Y-106408000D01*
X130644091Y-106412085D01*
X130644091Y-106412085D01*
G37*
G36*
X121043091Y-106412085D02*
G01*
X121077069Y-106422393D01*
X121108390Y-106439134D01*
X121135839Y-106461661D01*
X121158366Y-106489110D01*
X121175107Y-106520431D01*
X121185415Y-106554409D01*
X121189500Y-106595890D01*
X121189500Y-107272110D01*
X121185415Y-107313591D01*
X121175107Y-107347569D01*
X121158366Y-107378890D01*
X121135839Y-107406339D01*
X121108390Y-107428866D01*
X121077069Y-107445607D01*
X121043091Y-107455915D01*
X121001610Y-107460000D01*
X120400390Y-107460000D01*
X120358909Y-107455915D01*
X120324931Y-107445607D01*
X120293610Y-107428866D01*
X120266161Y-107406339D01*
X120243634Y-107378890D01*
X120226893Y-107347569D01*
X120216585Y-107313591D01*
X120212500Y-107272110D01*
X120212500Y-106595890D01*
X120216585Y-106554409D01*
X120226893Y-106520431D01*
X120243634Y-106489110D01*
X120266161Y-106461661D01*
X120293610Y-106439134D01*
X120324931Y-106422393D01*
X120358909Y-106412085D01*
X120400390Y-106408000D01*
X121001610Y-106408000D01*
X121043091Y-106412085D01*
X121043091Y-106412085D01*
G37*
G36*
X135629000Y-107451000D02*
G01*
X134627000Y-107451000D01*
X134627000Y-106549000D01*
X135629000Y-106549000D01*
X135629000Y-107451000D01*
X135629000Y-107451000D01*
G37*
G36*
X124453000Y-107451000D02*
G01*
X123451000Y-107451000D01*
X123451000Y-106549000D01*
X124453000Y-106549000D01*
X124453000Y-107451000D01*
X124453000Y-107451000D01*
G37*
G36*
X113531000Y-107451000D02*
G01*
X112529000Y-107451000D01*
X112529000Y-106549000D01*
X113531000Y-106549000D01*
X113531000Y-107451000D01*
X113531000Y-107451000D01*
G37*
G36*
X100666421Y-102153743D02*
G01*
X100798557Y-102193827D01*
X100798559Y-102193828D01*
X100920339Y-102258920D01*
X100920341Y-102258921D01*
X100920340Y-102258921D01*
X101027080Y-102346520D01*
X101114679Y-102453260D01*
X101179773Y-102575043D01*
X101219857Y-102707179D01*
X101233391Y-102844600D01*
X101219857Y-102982021D01*
X101179773Y-103114157D01*
X101179772Y-103114159D01*
X101114680Y-103235939D01*
X101027080Y-103342680D01*
X100920339Y-103430280D01*
X100798559Y-103495372D01*
X100798557Y-103495373D01*
X100666421Y-103535457D01*
X100563432Y-103545600D01*
X96794568Y-103545600D01*
X96691579Y-103535457D01*
X96559443Y-103495373D01*
X96559441Y-103495372D01*
X96437661Y-103430280D01*
X96330920Y-103342680D01*
X96243320Y-103235939D01*
X96178228Y-103114159D01*
X96178227Y-103114157D01*
X96138143Y-102982021D01*
X96124609Y-102844600D01*
X96138143Y-102707179D01*
X96178227Y-102575043D01*
X96243321Y-102453260D01*
X96330920Y-102346520D01*
X96437660Y-102258921D01*
X96437659Y-102258921D01*
X96437661Y-102258920D01*
X96559441Y-102193828D01*
X96559443Y-102193827D01*
X96691579Y-102153743D01*
X96794568Y-102143600D01*
X100563432Y-102143600D01*
X100666421Y-102153743D01*
X100666421Y-102153743D01*
G37*
G36*
X100666421Y-99953743D02*
G01*
X100798557Y-99993827D01*
X100798559Y-99993828D01*
X100920339Y-100058920D01*
X100920341Y-100058921D01*
X100920340Y-100058921D01*
X101027080Y-100146520D01*
X101114679Y-100253260D01*
X101179773Y-100375043D01*
X101219857Y-100507179D01*
X101233391Y-100644600D01*
X101219857Y-100782021D01*
X101179773Y-100914157D01*
X101179772Y-100914159D01*
X101114680Y-101035939D01*
X101027080Y-101142680D01*
X100920339Y-101230280D01*
X100798559Y-101295372D01*
X100798557Y-101295373D01*
X100666421Y-101335457D01*
X100563432Y-101345600D01*
X96794568Y-101345600D01*
X96691579Y-101335457D01*
X96559443Y-101295373D01*
X96559441Y-101295372D01*
X96437661Y-101230280D01*
X96330920Y-101142680D01*
X96243320Y-101035939D01*
X96178228Y-100914159D01*
X96178227Y-100914157D01*
X96138143Y-100782021D01*
X96124609Y-100644600D01*
X96138143Y-100507179D01*
X96178227Y-100375043D01*
X96243321Y-100253260D01*
X96330920Y-100146520D01*
X96437660Y-100058921D01*
X96437659Y-100058921D01*
X96437661Y-100058920D01*
X96559441Y-99993828D01*
X96559443Y-99993827D01*
X96691579Y-99953743D01*
X96794568Y-99943600D01*
X100563432Y-99943600D01*
X100666421Y-99953743D01*
X100666421Y-99953743D01*
G37*
G36*
X100666421Y-97753743D02*
G01*
X100798557Y-97793827D01*
X100798559Y-97793828D01*
X100920339Y-97858920D01*
X100920341Y-97858921D01*
X100920340Y-97858921D01*
X101027080Y-97946520D01*
X101114679Y-98053260D01*
X101179773Y-98175043D01*
X101219857Y-98307179D01*
X101233391Y-98444600D01*
X101219857Y-98582021D01*
X101179773Y-98714157D01*
X101179772Y-98714159D01*
X101114680Y-98835939D01*
X101027080Y-98942680D01*
X100920339Y-99030280D01*
X100798559Y-99095372D01*
X100798557Y-99095373D01*
X100666421Y-99135457D01*
X100563432Y-99145600D01*
X96794568Y-99145600D01*
X96691579Y-99135457D01*
X96559443Y-99095373D01*
X96559441Y-99095372D01*
X96437661Y-99030280D01*
X96330920Y-98942680D01*
X96243320Y-98835939D01*
X96178228Y-98714159D01*
X96178227Y-98714157D01*
X96138143Y-98582021D01*
X96124609Y-98444600D01*
X96138143Y-98307179D01*
X96178227Y-98175043D01*
X96243321Y-98053260D01*
X96330920Y-97946520D01*
X96437660Y-97858921D01*
X96437659Y-97858921D01*
X96437661Y-97858920D01*
X96559441Y-97793828D01*
X96559443Y-97793827D01*
X96691579Y-97753743D01*
X96794568Y-97743600D01*
X100563432Y-97743600D01*
X100666421Y-97753743D01*
X100666421Y-97753743D01*
G37*
G36*
X100666421Y-95553743D02*
G01*
X100798557Y-95593827D01*
X100798559Y-95593828D01*
X100920339Y-95658920D01*
X100920341Y-95658921D01*
X100920340Y-95658921D01*
X101027080Y-95746520D01*
X101114679Y-95853260D01*
X101179773Y-95975043D01*
X101219857Y-96107179D01*
X101233391Y-96244600D01*
X101219857Y-96382021D01*
X101179773Y-96514157D01*
X101179772Y-96514159D01*
X101114680Y-96635939D01*
X101027080Y-96742680D01*
X100920339Y-96830280D01*
X100798559Y-96895372D01*
X100798557Y-96895373D01*
X100666421Y-96935457D01*
X100563432Y-96945600D01*
X96794568Y-96945600D01*
X96691579Y-96935457D01*
X96559443Y-96895373D01*
X96559441Y-96895372D01*
X96437661Y-96830280D01*
X96330920Y-96742680D01*
X96243320Y-96635939D01*
X96178228Y-96514159D01*
X96178227Y-96514157D01*
X96138143Y-96382021D01*
X96124609Y-96244600D01*
X96138143Y-96107179D01*
X96178227Y-95975043D01*
X96243321Y-95853260D01*
X96330920Y-95746520D01*
X96437660Y-95658921D01*
X96437659Y-95658921D01*
X96437661Y-95658920D01*
X96559441Y-95593828D01*
X96559443Y-95593827D01*
X96691579Y-95553743D01*
X96794568Y-95543600D01*
X100563432Y-95543600D01*
X100666421Y-95553743D01*
X100666421Y-95553743D01*
G37*
G36*
X107602721Y-92180174D02*
G01*
X107702995Y-92221709D01*
X107702996Y-92221710D01*
X107793242Y-92282010D01*
X107869990Y-92358758D01*
X107869991Y-92358760D01*
X107930291Y-92449005D01*
X107971826Y-92549279D01*
X107993000Y-92655730D01*
X107993000Y-92764270D01*
X107971826Y-92870721D01*
X107930291Y-92970995D01*
X107930290Y-92970996D01*
X107869990Y-93061242D01*
X107793242Y-93137990D01*
X107747812Y-93168345D01*
X107702995Y-93198291D01*
X107602721Y-93239826D01*
X107496270Y-93261000D01*
X107387730Y-93261000D01*
X107281279Y-93239826D01*
X107181005Y-93198291D01*
X107136188Y-93168345D01*
X107090758Y-93137990D01*
X107014010Y-93061242D01*
X106953710Y-92970996D01*
X106953709Y-92970995D01*
X106912174Y-92870721D01*
X106891000Y-92764270D01*
X106891000Y-92655730D01*
X106912174Y-92549279D01*
X106953709Y-92449005D01*
X107014009Y-92358760D01*
X107014010Y-92358758D01*
X107090758Y-92282010D01*
X107181004Y-92221710D01*
X107181005Y-92221709D01*
X107281279Y-92180174D01*
X107387730Y-92159000D01*
X107496270Y-92159000D01*
X107602721Y-92180174D01*
X107602721Y-92180174D01*
G37*
G36*
X118270721Y-92180174D02*
G01*
X118370995Y-92221709D01*
X118370996Y-92221710D01*
X118461242Y-92282010D01*
X118537990Y-92358758D01*
X118537991Y-92358760D01*
X118598291Y-92449005D01*
X118639826Y-92549279D01*
X118661000Y-92655730D01*
X118661000Y-92764270D01*
X118639826Y-92870721D01*
X118598291Y-92970995D01*
X118598290Y-92970996D01*
X118537990Y-93061242D01*
X118461242Y-93137990D01*
X118415812Y-93168345D01*
X118370995Y-93198291D01*
X118270721Y-93239826D01*
X118164270Y-93261000D01*
X118055730Y-93261000D01*
X117949279Y-93239826D01*
X117849005Y-93198291D01*
X117804188Y-93168345D01*
X117758758Y-93137990D01*
X117682010Y-93061242D01*
X117621710Y-92970996D01*
X117621709Y-92970995D01*
X117580174Y-92870721D01*
X117559000Y-92764270D01*
X117559000Y-92655730D01*
X117580174Y-92549279D01*
X117621709Y-92449005D01*
X117682009Y-92358760D01*
X117682010Y-92358758D01*
X117758758Y-92282010D01*
X117849004Y-92221710D01*
X117849005Y-92221709D01*
X117949279Y-92180174D01*
X118055730Y-92159000D01*
X118164270Y-92159000D01*
X118270721Y-92180174D01*
X118270721Y-92180174D01*
G37*
G36*
X129446721Y-92180174D02*
G01*
X129546995Y-92221709D01*
X129546996Y-92221710D01*
X129637242Y-92282010D01*
X129713990Y-92358758D01*
X129713991Y-92358760D01*
X129774291Y-92449005D01*
X129815826Y-92549279D01*
X129837000Y-92655730D01*
X129837000Y-92764270D01*
X129815826Y-92870721D01*
X129774291Y-92970995D01*
X129774290Y-92970996D01*
X129713990Y-93061242D01*
X129637242Y-93137990D01*
X129591812Y-93168345D01*
X129546995Y-93198291D01*
X129446721Y-93239826D01*
X129340270Y-93261000D01*
X129231730Y-93261000D01*
X129125279Y-93239826D01*
X129025005Y-93198291D01*
X128980188Y-93168345D01*
X128934758Y-93137990D01*
X128858010Y-93061242D01*
X128797710Y-92970996D01*
X128797709Y-92970995D01*
X128756174Y-92870721D01*
X128735000Y-92764270D01*
X128735000Y-92655730D01*
X128756174Y-92549279D01*
X128797709Y-92449005D01*
X128858009Y-92358760D01*
X128858010Y-92358758D01*
X128934758Y-92282010D01*
X129025004Y-92221710D01*
X129025005Y-92221709D01*
X129125279Y-92180174D01*
X129231730Y-92159000D01*
X129340270Y-92159000D01*
X129446721Y-92180174D01*
X129446721Y-92180174D01*
G37*
G36*
X153272499Y-83502445D02*
G01*
X153309995Y-83513820D01*
X153344554Y-83532292D01*
X153374847Y-83557153D01*
X153399708Y-83587446D01*
X153418180Y-83622005D01*
X153429555Y-83659501D01*
X153434000Y-83704638D01*
X153434000Y-84443362D01*
X153429555Y-84488499D01*
X153418180Y-84525995D01*
X153399708Y-84560554D01*
X153374847Y-84590847D01*
X153344554Y-84615708D01*
X153309995Y-84634180D01*
X153272499Y-84645555D01*
X153227362Y-84650000D01*
X152588638Y-84650000D01*
X152543501Y-84645555D01*
X152506005Y-84634180D01*
X152471446Y-84615708D01*
X152441153Y-84590847D01*
X152416292Y-84560554D01*
X152397820Y-84525995D01*
X152386445Y-84488499D01*
X152382000Y-84443362D01*
X152382000Y-83704638D01*
X152386445Y-83659501D01*
X152397820Y-83622005D01*
X152416292Y-83587446D01*
X152441153Y-83557153D01*
X152471446Y-83532292D01*
X152506005Y-83513820D01*
X152543501Y-83502445D01*
X152588638Y-83498000D01*
X153227362Y-83498000D01*
X153272499Y-83502445D01*
X153272499Y-83502445D01*
G37*
G36*
X153272499Y-81752445D02*
G01*
X153309995Y-81763820D01*
X153344554Y-81782292D01*
X153374847Y-81807153D01*
X153399708Y-81837446D01*
X153418180Y-81872005D01*
X153429555Y-81909501D01*
X153434000Y-81954638D01*
X153434000Y-82693362D01*
X153429555Y-82738499D01*
X153418180Y-82775995D01*
X153399708Y-82810554D01*
X153374847Y-82840847D01*
X153344554Y-82865708D01*
X153309995Y-82884180D01*
X153272499Y-82895555D01*
X153227362Y-82900000D01*
X152588638Y-82900000D01*
X152543501Y-82895555D01*
X152506005Y-82884180D01*
X152471446Y-82865708D01*
X152441153Y-82840847D01*
X152416292Y-82810554D01*
X152397820Y-82775995D01*
X152386445Y-82738499D01*
X152382000Y-82693362D01*
X152382000Y-81954638D01*
X152386445Y-81909501D01*
X152397820Y-81872005D01*
X152416292Y-81837446D01*
X152441153Y-81807153D01*
X152471446Y-81782292D01*
X152506005Y-81763820D01*
X152543501Y-81752445D01*
X152588638Y-81748000D01*
X153227362Y-81748000D01*
X153272499Y-81752445D01*
X153272499Y-81752445D01*
G37*
G36*
X155354721Y-81766174D02*
G01*
X155454995Y-81807709D01*
X155454996Y-81807710D01*
X155545242Y-81868010D01*
X155621990Y-81944758D01*
X155631968Y-81959691D01*
X155682291Y-82035005D01*
X155723826Y-82135279D01*
X155745000Y-82241730D01*
X155745000Y-82350270D01*
X155723826Y-82456721D01*
X155682291Y-82556995D01*
X155682290Y-82556996D01*
X155621990Y-82647242D01*
X155545242Y-82723990D01*
X155499812Y-82754345D01*
X155454995Y-82784291D01*
X155354721Y-82825826D01*
X155248270Y-82847000D01*
X155139730Y-82847000D01*
X155033279Y-82825826D01*
X154933005Y-82784291D01*
X154888188Y-82754345D01*
X154842758Y-82723990D01*
X154766010Y-82647242D01*
X154705710Y-82556996D01*
X154705709Y-82556995D01*
X154664174Y-82456721D01*
X154643000Y-82350270D01*
X154643000Y-82241730D01*
X154664174Y-82135279D01*
X154705709Y-82035005D01*
X154756032Y-81959691D01*
X154766010Y-81944758D01*
X154842758Y-81868010D01*
X154933004Y-81807710D01*
X154933005Y-81807709D01*
X155033279Y-81766174D01*
X155139730Y-81745000D01*
X155248270Y-81745000D01*
X155354721Y-81766174D01*
X155354721Y-81766174D01*
G37*
G36*
X145020051Y-80776284D02*
G01*
X145036443Y-80781257D01*
X145051555Y-80789334D01*
X145064798Y-80800202D01*
X145075667Y-80813447D01*
X145079761Y-80821106D01*
X145093374Y-80841480D01*
X145110701Y-80858807D01*
X145131076Y-80872421D01*
X145153714Y-80881798D01*
X145177748Y-80886579D01*
X145202252Y-80886579D01*
X145226285Y-80881799D01*
X145248924Y-80872421D01*
X145269298Y-80858808D01*
X145286625Y-80841481D01*
X145300239Y-80821106D01*
X145304333Y-80813447D01*
X145315202Y-80800202D01*
X145328445Y-80789334D01*
X145343557Y-80781257D01*
X145359949Y-80776284D01*
X145383141Y-80774000D01*
X145796859Y-80774000D01*
X145820051Y-80776284D01*
X145836443Y-80781257D01*
X145851555Y-80789334D01*
X145864798Y-80800202D01*
X145875667Y-80813447D01*
X145879761Y-80821106D01*
X145893374Y-80841480D01*
X145910701Y-80858807D01*
X145931076Y-80872421D01*
X145953714Y-80881798D01*
X145977748Y-80886579D01*
X146002252Y-80886579D01*
X146026285Y-80881799D01*
X146048924Y-80872421D01*
X146069298Y-80858808D01*
X146086625Y-80841481D01*
X146100239Y-80821106D01*
X146104333Y-80813447D01*
X146115202Y-80800202D01*
X146128445Y-80789334D01*
X146143557Y-80781257D01*
X146159949Y-80776284D01*
X146183141Y-80774000D01*
X146596859Y-80774000D01*
X146620051Y-80776284D01*
X146636443Y-80781257D01*
X146651555Y-80789334D01*
X146664798Y-80800202D01*
X146675667Y-80813447D01*
X146679761Y-80821106D01*
X146693374Y-80841480D01*
X146710701Y-80858807D01*
X146731076Y-80872421D01*
X146753714Y-80881798D01*
X146777748Y-80886579D01*
X146802252Y-80886579D01*
X146826285Y-80881799D01*
X146848924Y-80872421D01*
X146869298Y-80858808D01*
X146886625Y-80841481D01*
X146900239Y-80821106D01*
X146904333Y-80813447D01*
X146915202Y-80800202D01*
X146928445Y-80789334D01*
X146943557Y-80781257D01*
X146959949Y-80776284D01*
X146983141Y-80774000D01*
X147396859Y-80774000D01*
X147420051Y-80776284D01*
X147436443Y-80781257D01*
X147451555Y-80789334D01*
X147464798Y-80800202D01*
X147475667Y-80813447D01*
X147479761Y-80821106D01*
X147493374Y-80841480D01*
X147510701Y-80858807D01*
X147531076Y-80872421D01*
X147553714Y-80881798D01*
X147577748Y-80886579D01*
X147602252Y-80886579D01*
X147626285Y-80881799D01*
X147648924Y-80872421D01*
X147669298Y-80858808D01*
X147686625Y-80841481D01*
X147700239Y-80821106D01*
X147704333Y-80813447D01*
X147715202Y-80800202D01*
X147728445Y-80789334D01*
X147743557Y-80781257D01*
X147759949Y-80776284D01*
X147783141Y-80774000D01*
X148196859Y-80774000D01*
X148220051Y-80776284D01*
X148236443Y-80781257D01*
X148251555Y-80789334D01*
X148264798Y-80800202D01*
X148275667Y-80813447D01*
X148279761Y-80821106D01*
X148293374Y-80841480D01*
X148310701Y-80858807D01*
X148331076Y-80872421D01*
X148353714Y-80881798D01*
X148377748Y-80886579D01*
X148402252Y-80886579D01*
X148426285Y-80881799D01*
X148448924Y-80872421D01*
X148469298Y-80858808D01*
X148486625Y-80841481D01*
X148500239Y-80821106D01*
X148504333Y-80813447D01*
X148515202Y-80800202D01*
X148528445Y-80789334D01*
X148543557Y-80781257D01*
X148559949Y-80776284D01*
X148583141Y-80774000D01*
X148996859Y-80774000D01*
X149020051Y-80776284D01*
X149036443Y-80781257D01*
X149051555Y-80789334D01*
X149064798Y-80800202D01*
X149075667Y-80813447D01*
X149079761Y-80821106D01*
X149093374Y-80841480D01*
X149110701Y-80858807D01*
X149131076Y-80872421D01*
X149153714Y-80881798D01*
X149177748Y-80886579D01*
X149202252Y-80886579D01*
X149226285Y-80881799D01*
X149248924Y-80872421D01*
X149269298Y-80858808D01*
X149286625Y-80841481D01*
X149300239Y-80821106D01*
X149304333Y-80813447D01*
X149315202Y-80800202D01*
X149328445Y-80789334D01*
X149343557Y-80781257D01*
X149359949Y-80776284D01*
X149383141Y-80774000D01*
X149796859Y-80774000D01*
X149820051Y-80776284D01*
X149836443Y-80781257D01*
X149851555Y-80789334D01*
X149864798Y-80800202D01*
X149875667Y-80813447D01*
X149879761Y-80821106D01*
X149893374Y-80841480D01*
X149910701Y-80858807D01*
X149931076Y-80872421D01*
X149953714Y-80881798D01*
X149977748Y-80886579D01*
X150002252Y-80886579D01*
X150026285Y-80881799D01*
X150048924Y-80872421D01*
X150069298Y-80858808D01*
X150086625Y-80841481D01*
X150100239Y-80821106D01*
X150104333Y-80813447D01*
X150115202Y-80800202D01*
X150128445Y-80789334D01*
X150143557Y-80781257D01*
X150159949Y-80776284D01*
X150183141Y-80774000D01*
X150596859Y-80774000D01*
X150620051Y-80776284D01*
X150636443Y-80781257D01*
X150651555Y-80789334D01*
X150664798Y-80800202D01*
X150675666Y-80813445D01*
X150683743Y-80828557D01*
X150688716Y-80844949D01*
X150691000Y-80868141D01*
X150691000Y-82281859D01*
X150688716Y-82305051D01*
X150683743Y-82321443D01*
X150675666Y-82336555D01*
X150664798Y-82349798D01*
X150651555Y-82360666D01*
X150636443Y-82368743D01*
X150620051Y-82373716D01*
X150596859Y-82376000D01*
X150183141Y-82376000D01*
X150159949Y-82373716D01*
X150143557Y-82368743D01*
X150128445Y-82360666D01*
X150115202Y-82349798D01*
X150104333Y-82336553D01*
X150100239Y-82328894D01*
X150086626Y-82308520D01*
X150069299Y-82291193D01*
X150048924Y-82277579D01*
X150026286Y-82268202D01*
X150002252Y-82263421D01*
X149977748Y-82263421D01*
X149953715Y-82268201D01*
X149931076Y-82277579D01*
X149910702Y-82291192D01*
X149893375Y-82308519D01*
X149879761Y-82328894D01*
X149875667Y-82336553D01*
X149864798Y-82349798D01*
X149851555Y-82360666D01*
X149836443Y-82368743D01*
X149820051Y-82373716D01*
X149796859Y-82376000D01*
X149383141Y-82376000D01*
X149359949Y-82373716D01*
X149343557Y-82368743D01*
X149328445Y-82360666D01*
X149315202Y-82349798D01*
X149304333Y-82336553D01*
X149300239Y-82328894D01*
X149286626Y-82308520D01*
X149269299Y-82291193D01*
X149248924Y-82277579D01*
X149226286Y-82268202D01*
X149202252Y-82263421D01*
X149177748Y-82263421D01*
X149153715Y-82268201D01*
X149131076Y-82277579D01*
X149110702Y-82291192D01*
X149093375Y-82308519D01*
X149079761Y-82328894D01*
X149075667Y-82336553D01*
X149064798Y-82349798D01*
X149051555Y-82360666D01*
X149036443Y-82368743D01*
X149020051Y-82373716D01*
X148996859Y-82376000D01*
X148583141Y-82376000D01*
X148559949Y-82373716D01*
X148543557Y-82368743D01*
X148528445Y-82360666D01*
X148515202Y-82349798D01*
X148504333Y-82336553D01*
X148500239Y-82328894D01*
X148486626Y-82308520D01*
X148469299Y-82291193D01*
X148448924Y-82277579D01*
X148426286Y-82268202D01*
X148402252Y-82263421D01*
X148377748Y-82263421D01*
X148353715Y-82268201D01*
X148331076Y-82277579D01*
X148310702Y-82291192D01*
X148293375Y-82308519D01*
X148279761Y-82328894D01*
X148275667Y-82336553D01*
X148264798Y-82349798D01*
X148251555Y-82360666D01*
X148236443Y-82368743D01*
X148220051Y-82373716D01*
X148196859Y-82376000D01*
X147783141Y-82376000D01*
X147759949Y-82373716D01*
X147743557Y-82368743D01*
X147728445Y-82360666D01*
X147715202Y-82349798D01*
X147704333Y-82336553D01*
X147700239Y-82328894D01*
X147686626Y-82308520D01*
X147669299Y-82291193D01*
X147648924Y-82277579D01*
X147626286Y-82268202D01*
X147602252Y-82263421D01*
X147577748Y-82263421D01*
X147553715Y-82268201D01*
X147531076Y-82277579D01*
X147510702Y-82291192D01*
X147493375Y-82308519D01*
X147479761Y-82328894D01*
X147475667Y-82336553D01*
X147464798Y-82349798D01*
X147451555Y-82360666D01*
X147436443Y-82368743D01*
X147420051Y-82373716D01*
X147396859Y-82376000D01*
X146983141Y-82376000D01*
X146959949Y-82373716D01*
X146943557Y-82368743D01*
X146928445Y-82360666D01*
X146915202Y-82349798D01*
X146904333Y-82336553D01*
X146900239Y-82328894D01*
X146886626Y-82308520D01*
X146869299Y-82291193D01*
X146848924Y-82277579D01*
X146826286Y-82268202D01*
X146802252Y-82263421D01*
X146777748Y-82263421D01*
X146753715Y-82268201D01*
X146731076Y-82277579D01*
X146710702Y-82291192D01*
X146693375Y-82308519D01*
X146679761Y-82328894D01*
X146675667Y-82336553D01*
X146664798Y-82349798D01*
X146651555Y-82360666D01*
X146636443Y-82368743D01*
X146620051Y-82373716D01*
X146596859Y-82376000D01*
X146183141Y-82376000D01*
X146159949Y-82373716D01*
X146143557Y-82368743D01*
X146128445Y-82360666D01*
X146115202Y-82349798D01*
X146104333Y-82336553D01*
X146100239Y-82328894D01*
X146086626Y-82308520D01*
X146069299Y-82291193D01*
X146048924Y-82277579D01*
X146026286Y-82268202D01*
X146002252Y-82263421D01*
X145977748Y-82263421D01*
X145953715Y-82268201D01*
X145931076Y-82277579D01*
X145910702Y-82291192D01*
X145893375Y-82308519D01*
X145879761Y-82328894D01*
X145875667Y-82336553D01*
X145864798Y-82349798D01*
X145851555Y-82360666D01*
X145836443Y-82368743D01*
X145820051Y-82373716D01*
X145796859Y-82376000D01*
X145383141Y-82376000D01*
X145359949Y-82373716D01*
X145343557Y-82368743D01*
X145328445Y-82360666D01*
X145315202Y-82349798D01*
X145304333Y-82336553D01*
X145300239Y-82328894D01*
X145286626Y-82308520D01*
X145269299Y-82291193D01*
X145248924Y-82277579D01*
X145226286Y-82268202D01*
X145202252Y-82263421D01*
X145177748Y-82263421D01*
X145153715Y-82268201D01*
X145131076Y-82277579D01*
X145110702Y-82291192D01*
X145093375Y-82308519D01*
X145079761Y-82328894D01*
X145075667Y-82336553D01*
X145064798Y-82349798D01*
X145051555Y-82360666D01*
X145036443Y-82368743D01*
X145020051Y-82373716D01*
X144996859Y-82376000D01*
X144583141Y-82376000D01*
X144559949Y-82373716D01*
X144543557Y-82368743D01*
X144528445Y-82360666D01*
X144515202Y-82349798D01*
X144504334Y-82336555D01*
X144496257Y-82321443D01*
X144491284Y-82305051D01*
X144489000Y-82281859D01*
X144489000Y-80868141D01*
X144491284Y-80844949D01*
X144496257Y-80828557D01*
X144504334Y-80813445D01*
X144515202Y-80800202D01*
X144528445Y-80789334D01*
X144543557Y-80781257D01*
X144559949Y-80776284D01*
X144583141Y-80774000D01*
X144996859Y-80774000D01*
X145020051Y-80776284D01*
X145020051Y-80776284D01*
G37*
G36*
X131123121Y-81029574D02*
G01*
X131223395Y-81071109D01*
X131223396Y-81071110D01*
X131313642Y-81131410D01*
X131390390Y-81208158D01*
X131390391Y-81208160D01*
X131450691Y-81298405D01*
X131492226Y-81398679D01*
X131513400Y-81505130D01*
X131513400Y-81613670D01*
X131492226Y-81720121D01*
X131450691Y-81820395D01*
X131450690Y-81820396D01*
X131390390Y-81910642D01*
X131313642Y-81987390D01*
X131278307Y-82011000D01*
X131223395Y-82047691D01*
X131123121Y-82089226D01*
X131016670Y-82110400D01*
X130908130Y-82110400D01*
X130801679Y-82089226D01*
X130701405Y-82047691D01*
X130646493Y-82011000D01*
X130611158Y-81987390D01*
X130534410Y-81910642D01*
X130474110Y-81820396D01*
X130474109Y-81820395D01*
X130432574Y-81720121D01*
X130411400Y-81613670D01*
X130411400Y-81505130D01*
X130432574Y-81398679D01*
X130474109Y-81298405D01*
X130534409Y-81208160D01*
X130534410Y-81208158D01*
X130611158Y-81131410D01*
X130701404Y-81071110D01*
X130701405Y-81071109D01*
X130801679Y-81029574D01*
X130908130Y-81008400D01*
X131016670Y-81008400D01*
X131123121Y-81029574D01*
X131123121Y-81029574D01*
G37*
G36*
X166734442Y-79242518D02*
G01*
X166800627Y-79249037D01*
X166970466Y-79300557D01*
X167126991Y-79384222D01*
X167162729Y-79413552D01*
X167264186Y-79496814D01*
X167332340Y-79579861D01*
X167376778Y-79634009D01*
X167460443Y-79790534D01*
X167511963Y-79960373D01*
X167529359Y-80137000D01*
X167511963Y-80313627D01*
X167460443Y-80483466D01*
X167376778Y-80639991D01*
X167357575Y-80663390D01*
X167264186Y-80777186D01*
X167185842Y-80841480D01*
X167126991Y-80889778D01*
X166970466Y-80973443D01*
X166800627Y-81024963D01*
X166734443Y-81031481D01*
X166668260Y-81038000D01*
X166579740Y-81038000D01*
X166513557Y-81031481D01*
X166447373Y-81024963D01*
X166277534Y-80973443D01*
X166121009Y-80889778D01*
X166062158Y-80841480D01*
X165983814Y-80777186D01*
X165890425Y-80663390D01*
X165871222Y-80639991D01*
X165787557Y-80483466D01*
X165736037Y-80313627D01*
X165718641Y-80137000D01*
X165736037Y-79960373D01*
X165787557Y-79790534D01*
X165871222Y-79634009D01*
X165915660Y-79579861D01*
X165983814Y-79496814D01*
X166085271Y-79413552D01*
X166121009Y-79384222D01*
X166277534Y-79300557D01*
X166447373Y-79249037D01*
X166513558Y-79242518D01*
X166579740Y-79236000D01*
X166668260Y-79236000D01*
X166734442Y-79242518D01*
X166734442Y-79242518D01*
G37*
G36*
X169274442Y-79242518D02*
G01*
X169340627Y-79249037D01*
X169510466Y-79300557D01*
X169666991Y-79384222D01*
X169702729Y-79413552D01*
X169804186Y-79496814D01*
X169872340Y-79579861D01*
X169916778Y-79634009D01*
X170000443Y-79790534D01*
X170051963Y-79960373D01*
X170069359Y-80137000D01*
X170051963Y-80313627D01*
X170000443Y-80483466D01*
X169916778Y-80639991D01*
X169897575Y-80663390D01*
X169804186Y-80777186D01*
X169725842Y-80841480D01*
X169666991Y-80889778D01*
X169510466Y-80973443D01*
X169340627Y-81024963D01*
X169274443Y-81031481D01*
X169208260Y-81038000D01*
X169119740Y-81038000D01*
X169053557Y-81031481D01*
X168987373Y-81024963D01*
X168817534Y-80973443D01*
X168661009Y-80889778D01*
X168602158Y-80841480D01*
X168523814Y-80777186D01*
X168430425Y-80663390D01*
X168411222Y-80639991D01*
X168327557Y-80483466D01*
X168276037Y-80313627D01*
X168258641Y-80137000D01*
X168276037Y-79960373D01*
X168327557Y-79790534D01*
X168411222Y-79634009D01*
X168455660Y-79579861D01*
X168523814Y-79496814D01*
X168625271Y-79413552D01*
X168661009Y-79384222D01*
X168817534Y-79300557D01*
X168987373Y-79249037D01*
X169053558Y-79242518D01*
X169119740Y-79236000D01*
X169208260Y-79236000D01*
X169274442Y-79242518D01*
X169274442Y-79242518D01*
G37*
G36*
X171814442Y-79242518D02*
G01*
X171880627Y-79249037D01*
X172050466Y-79300557D01*
X172206991Y-79384222D01*
X172242729Y-79413552D01*
X172344186Y-79496814D01*
X172412340Y-79579861D01*
X172456778Y-79634009D01*
X172540443Y-79790534D01*
X172591963Y-79960373D01*
X172609359Y-80137000D01*
X172591963Y-80313627D01*
X172540443Y-80483466D01*
X172456778Y-80639991D01*
X172437575Y-80663390D01*
X172344186Y-80777186D01*
X172265842Y-80841480D01*
X172206991Y-80889778D01*
X172050466Y-80973443D01*
X171880627Y-81024963D01*
X171814443Y-81031481D01*
X171748260Y-81038000D01*
X171659740Y-81038000D01*
X171593557Y-81031481D01*
X171527373Y-81024963D01*
X171357534Y-80973443D01*
X171201009Y-80889778D01*
X171142158Y-80841480D01*
X171063814Y-80777186D01*
X170970425Y-80663390D01*
X170951222Y-80639991D01*
X170867557Y-80483466D01*
X170816037Y-80313627D01*
X170798641Y-80137000D01*
X170816037Y-79960373D01*
X170867557Y-79790534D01*
X170951222Y-79634009D01*
X170995660Y-79579861D01*
X171063814Y-79496814D01*
X171165271Y-79413552D01*
X171201009Y-79384222D01*
X171357534Y-79300557D01*
X171527373Y-79249037D01*
X171593558Y-79242518D01*
X171659740Y-79236000D01*
X171748260Y-79236000D01*
X171814442Y-79242518D01*
X171814442Y-79242518D01*
G37*
G36*
X174354442Y-79242518D02*
G01*
X174420627Y-79249037D01*
X174590466Y-79300557D01*
X174746991Y-79384222D01*
X174782729Y-79413552D01*
X174884186Y-79496814D01*
X174952340Y-79579861D01*
X174996778Y-79634009D01*
X175080443Y-79790534D01*
X175131963Y-79960373D01*
X175149359Y-80137000D01*
X175131963Y-80313627D01*
X175080443Y-80483466D01*
X174996778Y-80639991D01*
X174977575Y-80663390D01*
X174884186Y-80777186D01*
X174805842Y-80841480D01*
X174746991Y-80889778D01*
X174590466Y-80973443D01*
X174420627Y-81024963D01*
X174354443Y-81031481D01*
X174288260Y-81038000D01*
X174199740Y-81038000D01*
X174133557Y-81031481D01*
X174067373Y-81024963D01*
X173897534Y-80973443D01*
X173741009Y-80889778D01*
X173682158Y-80841480D01*
X173603814Y-80777186D01*
X173510425Y-80663390D01*
X173491222Y-80639991D01*
X173407557Y-80483466D01*
X173356037Y-80313627D01*
X173338641Y-80137000D01*
X173356037Y-79960373D01*
X173407557Y-79790534D01*
X173491222Y-79634009D01*
X173535660Y-79579861D01*
X173603814Y-79496814D01*
X173705271Y-79413552D01*
X173741009Y-79384222D01*
X173897534Y-79300557D01*
X174067373Y-79249037D01*
X174133558Y-79242518D01*
X174199740Y-79236000D01*
X174288260Y-79236000D01*
X174354442Y-79242518D01*
X174354442Y-79242518D01*
G37*
G36*
X176894442Y-79242518D02*
G01*
X176960627Y-79249037D01*
X177130466Y-79300557D01*
X177286991Y-79384222D01*
X177322729Y-79413552D01*
X177424186Y-79496814D01*
X177492340Y-79579861D01*
X177536778Y-79634009D01*
X177620443Y-79790534D01*
X177671963Y-79960373D01*
X177689359Y-80137000D01*
X177671963Y-80313627D01*
X177620443Y-80483466D01*
X177536778Y-80639991D01*
X177517575Y-80663390D01*
X177424186Y-80777186D01*
X177345842Y-80841480D01*
X177286991Y-80889778D01*
X177130466Y-80973443D01*
X176960627Y-81024963D01*
X176894443Y-81031481D01*
X176828260Y-81038000D01*
X176739740Y-81038000D01*
X176673557Y-81031481D01*
X176607373Y-81024963D01*
X176437534Y-80973443D01*
X176281009Y-80889778D01*
X176222158Y-80841480D01*
X176143814Y-80777186D01*
X176050425Y-80663390D01*
X176031222Y-80639991D01*
X175947557Y-80483466D01*
X175896037Y-80313627D01*
X175878641Y-80137000D01*
X175896037Y-79960373D01*
X175947557Y-79790534D01*
X176031222Y-79634009D01*
X176075660Y-79579861D01*
X176143814Y-79496814D01*
X176245271Y-79413552D01*
X176281009Y-79384222D01*
X176437534Y-79300557D01*
X176607373Y-79249037D01*
X176673558Y-79242518D01*
X176739740Y-79236000D01*
X176828260Y-79236000D01*
X176894442Y-79242518D01*
X176894442Y-79242518D01*
G37*
G36*
X180225000Y-81038000D02*
G01*
X178423000Y-81038000D01*
X178423000Y-79236000D01*
X180225000Y-79236000D01*
X180225000Y-81038000D01*
X180225000Y-81038000D01*
G37*
G36*
X128532321Y-79645274D02*
G01*
X128632595Y-79686809D01*
X128677412Y-79716755D01*
X128722842Y-79747110D01*
X128799590Y-79823858D01*
X128799591Y-79823860D01*
X128859891Y-79914105D01*
X128901426Y-80014379D01*
X128922600Y-80120830D01*
X128922600Y-80229370D01*
X128901426Y-80335821D01*
X128859891Y-80436095D01*
X128845976Y-80456920D01*
X128799590Y-80526342D01*
X128722842Y-80603090D01*
X128677412Y-80633445D01*
X128632595Y-80663391D01*
X128532321Y-80704926D01*
X128425870Y-80726100D01*
X128317330Y-80726100D01*
X128210879Y-80704926D01*
X128110605Y-80663391D01*
X128065788Y-80633445D01*
X128020358Y-80603090D01*
X127943610Y-80526342D01*
X127897224Y-80456920D01*
X127883309Y-80436095D01*
X127841774Y-80335821D01*
X127820600Y-80229370D01*
X127820600Y-80120830D01*
X127841774Y-80014379D01*
X127883309Y-79914105D01*
X127943609Y-79823860D01*
X127943610Y-79823858D01*
X128020358Y-79747110D01*
X128065788Y-79716755D01*
X128110605Y-79686809D01*
X128210879Y-79645274D01*
X128317330Y-79624100D01*
X128425870Y-79624100D01*
X128532321Y-79645274D01*
X128532321Y-79645274D01*
G37*
G36*
X152495051Y-74301284D02*
G01*
X152511443Y-74306257D01*
X152526555Y-74314334D01*
X152539798Y-74325202D01*
X152550666Y-74338445D01*
X152558743Y-74353557D01*
X152563716Y-74369949D01*
X152566000Y-74393141D01*
X152566000Y-74806859D01*
X152563716Y-74830051D01*
X152558743Y-74846443D01*
X152550666Y-74861555D01*
X152539798Y-74874798D01*
X152526553Y-74885667D01*
X152518894Y-74889761D01*
X152498520Y-74903374D01*
X152481193Y-74920701D01*
X152467579Y-74941076D01*
X152458202Y-74963714D01*
X152453421Y-74987748D01*
X152453421Y-75012252D01*
X152458201Y-75036285D01*
X152467579Y-75058924D01*
X152481192Y-75079298D01*
X152498519Y-75096625D01*
X152518894Y-75110239D01*
X152526553Y-75114333D01*
X152539798Y-75125202D01*
X152550666Y-75138445D01*
X152558743Y-75153557D01*
X152563716Y-75169949D01*
X152566000Y-75193141D01*
X152566000Y-75606859D01*
X152563716Y-75630051D01*
X152558743Y-75646443D01*
X152550666Y-75661555D01*
X152539798Y-75674798D01*
X152526553Y-75685667D01*
X152518894Y-75689761D01*
X152498520Y-75703374D01*
X152481193Y-75720701D01*
X152467579Y-75741076D01*
X152458202Y-75763714D01*
X152453421Y-75787748D01*
X152453421Y-75812252D01*
X152458201Y-75836285D01*
X152467579Y-75858924D01*
X152481192Y-75879298D01*
X152498519Y-75896625D01*
X152518894Y-75910239D01*
X152526553Y-75914333D01*
X152539798Y-75925202D01*
X152550666Y-75938445D01*
X152558743Y-75953557D01*
X152563716Y-75969949D01*
X152566000Y-75993141D01*
X152566000Y-76406859D01*
X152563716Y-76430051D01*
X152558743Y-76446443D01*
X152550666Y-76461555D01*
X152539798Y-76474798D01*
X152526553Y-76485667D01*
X152518894Y-76489761D01*
X152498520Y-76503374D01*
X152481193Y-76520701D01*
X152467579Y-76541076D01*
X152458202Y-76563714D01*
X152453421Y-76587748D01*
X152453421Y-76612252D01*
X152458201Y-76636285D01*
X152467579Y-76658924D01*
X152481192Y-76679298D01*
X152498519Y-76696625D01*
X152518894Y-76710239D01*
X152526553Y-76714333D01*
X152539798Y-76725202D01*
X152550666Y-76738445D01*
X152558743Y-76753557D01*
X152563716Y-76769949D01*
X152566000Y-76793141D01*
X152566000Y-77206859D01*
X152563716Y-77230051D01*
X152558743Y-77246443D01*
X152550666Y-77261555D01*
X152539798Y-77274798D01*
X152526553Y-77285667D01*
X152518894Y-77289761D01*
X152498520Y-77303374D01*
X152481193Y-77320701D01*
X152467579Y-77341076D01*
X152458202Y-77363714D01*
X152453421Y-77387748D01*
X152453421Y-77412252D01*
X152458201Y-77436285D01*
X152467579Y-77458924D01*
X152481192Y-77479298D01*
X152498519Y-77496625D01*
X152518894Y-77510239D01*
X152526553Y-77514333D01*
X152539798Y-77525202D01*
X152550666Y-77538445D01*
X152558743Y-77553557D01*
X152563716Y-77569949D01*
X152566000Y-77593141D01*
X152566000Y-78006859D01*
X152563716Y-78030051D01*
X152558743Y-78046443D01*
X152550666Y-78061555D01*
X152539798Y-78074798D01*
X152526553Y-78085667D01*
X152518894Y-78089761D01*
X152498520Y-78103374D01*
X152481193Y-78120701D01*
X152467579Y-78141076D01*
X152458202Y-78163714D01*
X152453421Y-78187748D01*
X152453421Y-78212252D01*
X152458201Y-78236285D01*
X152467579Y-78258924D01*
X152481192Y-78279298D01*
X152498519Y-78296625D01*
X152518894Y-78310239D01*
X152526553Y-78314333D01*
X152539798Y-78325202D01*
X152550666Y-78338445D01*
X152558743Y-78353557D01*
X152563716Y-78369949D01*
X152566000Y-78393141D01*
X152566000Y-78806859D01*
X152563716Y-78830051D01*
X152558743Y-78846443D01*
X152550666Y-78861555D01*
X152539798Y-78874798D01*
X152526553Y-78885667D01*
X152518894Y-78889761D01*
X152498520Y-78903374D01*
X152481193Y-78920701D01*
X152467579Y-78941076D01*
X152458202Y-78963714D01*
X152453421Y-78987748D01*
X152453421Y-79012252D01*
X152458201Y-79036285D01*
X152467579Y-79058924D01*
X152481192Y-79079298D01*
X152498519Y-79096625D01*
X152518894Y-79110239D01*
X152526553Y-79114333D01*
X152539798Y-79125202D01*
X152550666Y-79138445D01*
X152558743Y-79153557D01*
X152563716Y-79169949D01*
X152566000Y-79193141D01*
X152566000Y-79606859D01*
X152563716Y-79630051D01*
X152558743Y-79646443D01*
X152550666Y-79661555D01*
X152539798Y-79674798D01*
X152526553Y-79685667D01*
X152518894Y-79689761D01*
X152498520Y-79703374D01*
X152481193Y-79720701D01*
X152467579Y-79741076D01*
X152458202Y-79763714D01*
X152453421Y-79787748D01*
X152453421Y-79812252D01*
X152458201Y-79836285D01*
X152467579Y-79858924D01*
X152481192Y-79879298D01*
X152498519Y-79896625D01*
X152518894Y-79910239D01*
X152526553Y-79914333D01*
X152539798Y-79925202D01*
X152550666Y-79938445D01*
X152558743Y-79953557D01*
X152563716Y-79969949D01*
X152566000Y-79993141D01*
X152566000Y-80406859D01*
X152563716Y-80430051D01*
X152558743Y-80446443D01*
X152550666Y-80461555D01*
X152539798Y-80474798D01*
X152526555Y-80485666D01*
X152511443Y-80493743D01*
X152495051Y-80498716D01*
X152471859Y-80501000D01*
X151058141Y-80501000D01*
X151034949Y-80498716D01*
X151018557Y-80493743D01*
X151003445Y-80485666D01*
X150990202Y-80474798D01*
X150979334Y-80461555D01*
X150971257Y-80446443D01*
X150966284Y-80430051D01*
X150964000Y-80406859D01*
X150964000Y-79993141D01*
X150966284Y-79969949D01*
X150971257Y-79953557D01*
X150979334Y-79938445D01*
X150990202Y-79925202D01*
X151003447Y-79914333D01*
X151011106Y-79910239D01*
X151031480Y-79896626D01*
X151048807Y-79879299D01*
X151062421Y-79858924D01*
X151071798Y-79836286D01*
X151076579Y-79812252D01*
X151076579Y-79787748D01*
X151071799Y-79763715D01*
X151062421Y-79741076D01*
X151048808Y-79720702D01*
X151031481Y-79703375D01*
X151011106Y-79689761D01*
X151003447Y-79685667D01*
X150990202Y-79674798D01*
X150979334Y-79661555D01*
X150971257Y-79646443D01*
X150966284Y-79630051D01*
X150964000Y-79606859D01*
X150964000Y-79193141D01*
X150966284Y-79169949D01*
X150971257Y-79153557D01*
X150979334Y-79138445D01*
X150990202Y-79125202D01*
X151003447Y-79114333D01*
X151011106Y-79110239D01*
X151031480Y-79096626D01*
X151048807Y-79079299D01*
X151062421Y-79058924D01*
X151071798Y-79036286D01*
X151076579Y-79012252D01*
X151076579Y-78987748D01*
X151071799Y-78963715D01*
X151062421Y-78941076D01*
X151048808Y-78920702D01*
X151031481Y-78903375D01*
X151011106Y-78889761D01*
X151003447Y-78885667D01*
X150990202Y-78874798D01*
X150979334Y-78861555D01*
X150971257Y-78846443D01*
X150966284Y-78830051D01*
X150964000Y-78806859D01*
X150964000Y-78393141D01*
X150966284Y-78369949D01*
X150971257Y-78353557D01*
X150979334Y-78338445D01*
X150990202Y-78325202D01*
X151003447Y-78314333D01*
X151011106Y-78310239D01*
X151031480Y-78296626D01*
X151048807Y-78279299D01*
X151062421Y-78258924D01*
X151071798Y-78236286D01*
X151076579Y-78212252D01*
X151076579Y-78187748D01*
X151071799Y-78163715D01*
X151062421Y-78141076D01*
X151048808Y-78120702D01*
X151031481Y-78103375D01*
X151011106Y-78089761D01*
X151003447Y-78085667D01*
X150990202Y-78074798D01*
X150979334Y-78061555D01*
X150971257Y-78046443D01*
X150966284Y-78030051D01*
X150964000Y-78006859D01*
X150964000Y-77593141D01*
X150966284Y-77569949D01*
X150971257Y-77553557D01*
X150979334Y-77538445D01*
X150990202Y-77525202D01*
X151003447Y-77514333D01*
X151011106Y-77510239D01*
X151031480Y-77496626D01*
X151048807Y-77479299D01*
X151062421Y-77458924D01*
X151071798Y-77436286D01*
X151076579Y-77412252D01*
X151076579Y-77387748D01*
X151071799Y-77363715D01*
X151062421Y-77341076D01*
X151048808Y-77320702D01*
X151031481Y-77303375D01*
X151011106Y-77289761D01*
X151003447Y-77285667D01*
X150990202Y-77274798D01*
X150979334Y-77261555D01*
X150971257Y-77246443D01*
X150966284Y-77230051D01*
X150964000Y-77206859D01*
X150964000Y-76793141D01*
X150966284Y-76769949D01*
X150971257Y-76753557D01*
X150979334Y-76738445D01*
X150990202Y-76725202D01*
X151003447Y-76714333D01*
X151011106Y-76710239D01*
X151031480Y-76696626D01*
X151048807Y-76679299D01*
X151062421Y-76658924D01*
X151071798Y-76636286D01*
X151076579Y-76612252D01*
X151076579Y-76587748D01*
X151071799Y-76563715D01*
X151062421Y-76541076D01*
X151048808Y-76520702D01*
X151031481Y-76503375D01*
X151011106Y-76489761D01*
X151003447Y-76485667D01*
X150990202Y-76474798D01*
X150979334Y-76461555D01*
X150971257Y-76446443D01*
X150966284Y-76430051D01*
X150964000Y-76406859D01*
X150964000Y-75993141D01*
X150966284Y-75969949D01*
X150971257Y-75953557D01*
X150979334Y-75938445D01*
X150990202Y-75925202D01*
X151003447Y-75914333D01*
X151011106Y-75910239D01*
X151031480Y-75896626D01*
X151048807Y-75879299D01*
X151062421Y-75858924D01*
X151071798Y-75836286D01*
X151076579Y-75812252D01*
X151076579Y-75787748D01*
X151071799Y-75763715D01*
X151062421Y-75741076D01*
X151048808Y-75720702D01*
X151031481Y-75703375D01*
X151011106Y-75689761D01*
X151003447Y-75685667D01*
X150990202Y-75674798D01*
X150979334Y-75661555D01*
X150971257Y-75646443D01*
X150966284Y-75630051D01*
X150964000Y-75606859D01*
X150964000Y-75193141D01*
X150966284Y-75169949D01*
X150971257Y-75153557D01*
X150979334Y-75138445D01*
X150990202Y-75125202D01*
X151003447Y-75114333D01*
X151011106Y-75110239D01*
X151031480Y-75096626D01*
X151048807Y-75079299D01*
X151062421Y-75058924D01*
X151071798Y-75036286D01*
X151076579Y-75012252D01*
X151076579Y-74987748D01*
X151071799Y-74963715D01*
X151062421Y-74941076D01*
X151048808Y-74920702D01*
X151031481Y-74903375D01*
X151011106Y-74889761D01*
X151003447Y-74885667D01*
X150990202Y-74874798D01*
X150979334Y-74861555D01*
X150971257Y-74846443D01*
X150966284Y-74830051D01*
X150964000Y-74806859D01*
X150964000Y-74393141D01*
X150966284Y-74369949D01*
X150971257Y-74353557D01*
X150979334Y-74338445D01*
X150990202Y-74325202D01*
X151003445Y-74314334D01*
X151018557Y-74306257D01*
X151034949Y-74301284D01*
X151058141Y-74299000D01*
X152471859Y-74299000D01*
X152495051Y-74301284D01*
X152495051Y-74301284D01*
G37*
G36*
X144145051Y-74301284D02*
G01*
X144161443Y-74306257D01*
X144176555Y-74314334D01*
X144189798Y-74325202D01*
X144200666Y-74338445D01*
X144208743Y-74353557D01*
X144213716Y-74369949D01*
X144216000Y-74393141D01*
X144216000Y-74806859D01*
X144213716Y-74830051D01*
X144208743Y-74846443D01*
X144200666Y-74861555D01*
X144189798Y-74874798D01*
X144176553Y-74885667D01*
X144168894Y-74889761D01*
X144148520Y-74903374D01*
X144131193Y-74920701D01*
X144117579Y-74941076D01*
X144108202Y-74963714D01*
X144103421Y-74987748D01*
X144103421Y-75012252D01*
X144108201Y-75036285D01*
X144117579Y-75058924D01*
X144131192Y-75079298D01*
X144148519Y-75096625D01*
X144168894Y-75110239D01*
X144176553Y-75114333D01*
X144189798Y-75125202D01*
X144200666Y-75138445D01*
X144208743Y-75153557D01*
X144213716Y-75169949D01*
X144216000Y-75193141D01*
X144216000Y-75606859D01*
X144213716Y-75630051D01*
X144208743Y-75646443D01*
X144200666Y-75661555D01*
X144189798Y-75674798D01*
X144176553Y-75685667D01*
X144168894Y-75689761D01*
X144148520Y-75703374D01*
X144131193Y-75720701D01*
X144117579Y-75741076D01*
X144108202Y-75763714D01*
X144103421Y-75787748D01*
X144103421Y-75812252D01*
X144108201Y-75836285D01*
X144117579Y-75858924D01*
X144131192Y-75879298D01*
X144148519Y-75896625D01*
X144168894Y-75910239D01*
X144176553Y-75914333D01*
X144189798Y-75925202D01*
X144200666Y-75938445D01*
X144208743Y-75953557D01*
X144213716Y-75969949D01*
X144216000Y-75993141D01*
X144216000Y-76406859D01*
X144213716Y-76430051D01*
X144208743Y-76446443D01*
X144200666Y-76461555D01*
X144189798Y-76474798D01*
X144176553Y-76485667D01*
X144168894Y-76489761D01*
X144148520Y-76503374D01*
X144131193Y-76520701D01*
X144117579Y-76541076D01*
X144108202Y-76563714D01*
X144103421Y-76587748D01*
X144103421Y-76612252D01*
X144108201Y-76636285D01*
X144117579Y-76658924D01*
X144131192Y-76679298D01*
X144148519Y-76696625D01*
X144168894Y-76710239D01*
X144176553Y-76714333D01*
X144189798Y-76725202D01*
X144200666Y-76738445D01*
X144208743Y-76753557D01*
X144213716Y-76769949D01*
X144216000Y-76793141D01*
X144216000Y-77206859D01*
X144213716Y-77230051D01*
X144208743Y-77246443D01*
X144200666Y-77261555D01*
X144189798Y-77274798D01*
X144176553Y-77285667D01*
X144168894Y-77289761D01*
X144148520Y-77303374D01*
X144131193Y-77320701D01*
X144117579Y-77341076D01*
X144108202Y-77363714D01*
X144103421Y-77387748D01*
X144103421Y-77412252D01*
X144108201Y-77436285D01*
X144117579Y-77458924D01*
X144131192Y-77479298D01*
X144148519Y-77496625D01*
X144168894Y-77510239D01*
X144176553Y-77514333D01*
X144189798Y-77525202D01*
X144200666Y-77538445D01*
X144208743Y-77553557D01*
X144213716Y-77569949D01*
X144216000Y-77593141D01*
X144216000Y-78006859D01*
X144213716Y-78030051D01*
X144208743Y-78046443D01*
X144200666Y-78061555D01*
X144189798Y-78074798D01*
X144176553Y-78085667D01*
X144168894Y-78089761D01*
X144148520Y-78103374D01*
X144131193Y-78120701D01*
X144117579Y-78141076D01*
X144108202Y-78163714D01*
X144103421Y-78187748D01*
X144103421Y-78212252D01*
X144108201Y-78236285D01*
X144117579Y-78258924D01*
X144131192Y-78279298D01*
X144148519Y-78296625D01*
X144168894Y-78310239D01*
X144176553Y-78314333D01*
X144189798Y-78325202D01*
X144200666Y-78338445D01*
X144208743Y-78353557D01*
X144213716Y-78369949D01*
X144216000Y-78393141D01*
X144216000Y-78806859D01*
X144213716Y-78830051D01*
X144208743Y-78846443D01*
X144200666Y-78861555D01*
X144189798Y-78874798D01*
X144176553Y-78885667D01*
X144168894Y-78889761D01*
X144148520Y-78903374D01*
X144131193Y-78920701D01*
X144117579Y-78941076D01*
X144108202Y-78963714D01*
X144103421Y-78987748D01*
X144103421Y-79012252D01*
X144108201Y-79036285D01*
X144117579Y-79058924D01*
X144131192Y-79079298D01*
X144148519Y-79096625D01*
X144168894Y-79110239D01*
X144176553Y-79114333D01*
X144189798Y-79125202D01*
X144200666Y-79138445D01*
X144208743Y-79153557D01*
X144213716Y-79169949D01*
X144216000Y-79193141D01*
X144216000Y-79606859D01*
X144213716Y-79630051D01*
X144208743Y-79646443D01*
X144200666Y-79661555D01*
X144189798Y-79674798D01*
X144176553Y-79685667D01*
X144168894Y-79689761D01*
X144148520Y-79703374D01*
X144131193Y-79720701D01*
X144117579Y-79741076D01*
X144108202Y-79763714D01*
X144103421Y-79787748D01*
X144103421Y-79812252D01*
X144108201Y-79836285D01*
X144117579Y-79858924D01*
X144131192Y-79879298D01*
X144148519Y-79896625D01*
X144168894Y-79910239D01*
X144176553Y-79914333D01*
X144189798Y-79925202D01*
X144200666Y-79938445D01*
X144208743Y-79953557D01*
X144213716Y-79969949D01*
X144216000Y-79993141D01*
X144216000Y-80406859D01*
X144213716Y-80430051D01*
X144208743Y-80446443D01*
X144200666Y-80461555D01*
X144189798Y-80474798D01*
X144176555Y-80485666D01*
X144161443Y-80493743D01*
X144145051Y-80498716D01*
X144121859Y-80501000D01*
X142708141Y-80501000D01*
X142684949Y-80498716D01*
X142668557Y-80493743D01*
X142653445Y-80485666D01*
X142640202Y-80474798D01*
X142629334Y-80461555D01*
X142621257Y-80446443D01*
X142616284Y-80430051D01*
X142614000Y-80406859D01*
X142614000Y-79993141D01*
X142616284Y-79969949D01*
X142621257Y-79953557D01*
X142629334Y-79938445D01*
X142640202Y-79925202D01*
X142653447Y-79914333D01*
X142661106Y-79910239D01*
X142681480Y-79896626D01*
X142698807Y-79879299D01*
X142712421Y-79858924D01*
X142721798Y-79836286D01*
X142726579Y-79812252D01*
X142726579Y-79787748D01*
X142721799Y-79763715D01*
X142712421Y-79741076D01*
X142698808Y-79720702D01*
X142681481Y-79703375D01*
X142661106Y-79689761D01*
X142653447Y-79685667D01*
X142640202Y-79674798D01*
X142629334Y-79661555D01*
X142621257Y-79646443D01*
X142616284Y-79630051D01*
X142614000Y-79606859D01*
X142614000Y-79193141D01*
X142616284Y-79169949D01*
X142621257Y-79153557D01*
X142629334Y-79138445D01*
X142640202Y-79125202D01*
X142653447Y-79114333D01*
X142661106Y-79110239D01*
X142681480Y-79096626D01*
X142698807Y-79079299D01*
X142712421Y-79058924D01*
X142721798Y-79036286D01*
X142726579Y-79012252D01*
X142726579Y-78987748D01*
X142721799Y-78963715D01*
X142712421Y-78941076D01*
X142698808Y-78920702D01*
X142681481Y-78903375D01*
X142661106Y-78889761D01*
X142653447Y-78885667D01*
X142640202Y-78874798D01*
X142629334Y-78861555D01*
X142621257Y-78846443D01*
X142616284Y-78830051D01*
X142614000Y-78806859D01*
X142614000Y-78393141D01*
X142616284Y-78369949D01*
X142621257Y-78353557D01*
X142629334Y-78338445D01*
X142640202Y-78325202D01*
X142653447Y-78314333D01*
X142661106Y-78310239D01*
X142681480Y-78296626D01*
X142698807Y-78279299D01*
X142712421Y-78258924D01*
X142721798Y-78236286D01*
X142726579Y-78212252D01*
X142726579Y-78187748D01*
X142721799Y-78163715D01*
X142712421Y-78141076D01*
X142698808Y-78120702D01*
X142681481Y-78103375D01*
X142661106Y-78089761D01*
X142653447Y-78085667D01*
X142640202Y-78074798D01*
X142629334Y-78061555D01*
X142621257Y-78046443D01*
X142616284Y-78030051D01*
X142614000Y-78006859D01*
X142614000Y-77593141D01*
X142616284Y-77569949D01*
X142621257Y-77553557D01*
X142629334Y-77538445D01*
X142640202Y-77525202D01*
X142653447Y-77514333D01*
X142661106Y-77510239D01*
X142681480Y-77496626D01*
X142698807Y-77479299D01*
X142712421Y-77458924D01*
X142721798Y-77436286D01*
X142726579Y-77412252D01*
X142726579Y-77387748D01*
X142721799Y-77363715D01*
X142712421Y-77341076D01*
X142698808Y-77320702D01*
X142681481Y-77303375D01*
X142661106Y-77289761D01*
X142653447Y-77285667D01*
X142640202Y-77274798D01*
X142629334Y-77261555D01*
X142621257Y-77246443D01*
X142616284Y-77230051D01*
X142614000Y-77206859D01*
X142614000Y-76793141D01*
X142616284Y-76769949D01*
X142621257Y-76753557D01*
X142629334Y-76738445D01*
X142640202Y-76725202D01*
X142653447Y-76714333D01*
X142661106Y-76710239D01*
X142681480Y-76696626D01*
X142698807Y-76679299D01*
X142712421Y-76658924D01*
X142721798Y-76636286D01*
X142726579Y-76612252D01*
X142726579Y-76587748D01*
X142721799Y-76563715D01*
X142712421Y-76541076D01*
X142698808Y-76520702D01*
X142681481Y-76503375D01*
X142661106Y-76489761D01*
X142653447Y-76485667D01*
X142640202Y-76474798D01*
X142629334Y-76461555D01*
X142621257Y-76446443D01*
X142616284Y-76430051D01*
X142614000Y-76406859D01*
X142614000Y-75993141D01*
X142616284Y-75969949D01*
X142621257Y-75953557D01*
X142629334Y-75938445D01*
X142640202Y-75925202D01*
X142653447Y-75914333D01*
X142661106Y-75910239D01*
X142681480Y-75896626D01*
X142698807Y-75879299D01*
X142712421Y-75858924D01*
X142721798Y-75836286D01*
X142726579Y-75812252D01*
X142726579Y-75787748D01*
X142721799Y-75763715D01*
X142712421Y-75741076D01*
X142698808Y-75720702D01*
X142681481Y-75703375D01*
X142661106Y-75689761D01*
X142653447Y-75685667D01*
X142640202Y-75674798D01*
X142629334Y-75661555D01*
X142621257Y-75646443D01*
X142616284Y-75630051D01*
X142614000Y-75606859D01*
X142614000Y-75193141D01*
X142616284Y-75169949D01*
X142621257Y-75153557D01*
X142629334Y-75138445D01*
X142640202Y-75125202D01*
X142653447Y-75114333D01*
X142661106Y-75110239D01*
X142681480Y-75096626D01*
X142698807Y-75079299D01*
X142712421Y-75058924D01*
X142721798Y-75036286D01*
X142726579Y-75012252D01*
X142726579Y-74987748D01*
X142721799Y-74963715D01*
X142712421Y-74941076D01*
X142698808Y-74920702D01*
X142681481Y-74903375D01*
X142661106Y-74889761D01*
X142653447Y-74885667D01*
X142640202Y-74874798D01*
X142629334Y-74861555D01*
X142621257Y-74846443D01*
X142616284Y-74830051D01*
X142614000Y-74806859D01*
X142614000Y-74393141D01*
X142616284Y-74369949D01*
X142621257Y-74353557D01*
X142629334Y-74338445D01*
X142640202Y-74325202D01*
X142653445Y-74314334D01*
X142668557Y-74306257D01*
X142684949Y-74301284D01*
X142708141Y-74299000D01*
X144121859Y-74299000D01*
X144145051Y-74301284D01*
X144145051Y-74301284D01*
G37*
G36*
X139860499Y-77278445D02*
G01*
X139897995Y-77289820D01*
X139932554Y-77308292D01*
X139962847Y-77333153D01*
X139987708Y-77363446D01*
X140006180Y-77398005D01*
X140017555Y-77435501D01*
X140022000Y-77480638D01*
X140022000Y-78119362D01*
X140017555Y-78164499D01*
X140006180Y-78201995D01*
X139987708Y-78236554D01*
X139962847Y-78266847D01*
X139932554Y-78291708D01*
X139897995Y-78310180D01*
X139860499Y-78321555D01*
X139815362Y-78326000D01*
X139076638Y-78326000D01*
X139031501Y-78321555D01*
X138994005Y-78310180D01*
X138959446Y-78291708D01*
X138929153Y-78266847D01*
X138904292Y-78236554D01*
X138885820Y-78201995D01*
X138874445Y-78164499D01*
X138870000Y-78119362D01*
X138870000Y-77480638D01*
X138874445Y-77435501D01*
X138885820Y-77398005D01*
X138904292Y-77363446D01*
X138929153Y-77333153D01*
X138959446Y-77308292D01*
X138994005Y-77289820D01*
X139031501Y-77278445D01*
X139076638Y-77274000D01*
X139815362Y-77274000D01*
X139860499Y-77278445D01*
X139860499Y-77278445D01*
G37*
G36*
X141610499Y-77278445D02*
G01*
X141647995Y-77289820D01*
X141682554Y-77308292D01*
X141712847Y-77333153D01*
X141737708Y-77363446D01*
X141756180Y-77398005D01*
X141767555Y-77435501D01*
X141772000Y-77480638D01*
X141772000Y-78119362D01*
X141767555Y-78164499D01*
X141756180Y-78201995D01*
X141737708Y-78236554D01*
X141712847Y-78266847D01*
X141682554Y-78291708D01*
X141647995Y-78310180D01*
X141610499Y-78321555D01*
X141565362Y-78326000D01*
X140826638Y-78326000D01*
X140781501Y-78321555D01*
X140744005Y-78310180D01*
X140709446Y-78291708D01*
X140679153Y-78266847D01*
X140654292Y-78236554D01*
X140635820Y-78201995D01*
X140624445Y-78164499D01*
X140620000Y-78119362D01*
X140620000Y-77480638D01*
X140624445Y-77435501D01*
X140635820Y-77398005D01*
X140654292Y-77363446D01*
X140679153Y-77333153D01*
X140709446Y-77308292D01*
X140744005Y-77289820D01*
X140781501Y-77278445D01*
X140826638Y-77274000D01*
X141565362Y-77274000D01*
X141610499Y-77278445D01*
X141610499Y-77278445D01*
G37*
G36*
X141610499Y-74078445D02*
G01*
X141647995Y-74089820D01*
X141682554Y-74108292D01*
X141712847Y-74133153D01*
X141737708Y-74163446D01*
X141756180Y-74198005D01*
X141767555Y-74235501D01*
X141772000Y-74280638D01*
X141772000Y-74919362D01*
X141767555Y-74964499D01*
X141756180Y-75001995D01*
X141737708Y-75036554D01*
X141712847Y-75066847D01*
X141682554Y-75091708D01*
X141647995Y-75110180D01*
X141610499Y-75121555D01*
X141565362Y-75126000D01*
X140826638Y-75126000D01*
X140781501Y-75121555D01*
X140744005Y-75110180D01*
X140709446Y-75091708D01*
X140679153Y-75066847D01*
X140654292Y-75036554D01*
X140635820Y-75001995D01*
X140624445Y-74964499D01*
X140620000Y-74919362D01*
X140620000Y-74280638D01*
X140624445Y-74235501D01*
X140635820Y-74198005D01*
X140654292Y-74163446D01*
X140679153Y-74133153D01*
X140709446Y-74108292D01*
X140744005Y-74089820D01*
X140781501Y-74078445D01*
X140826638Y-74074000D01*
X141565362Y-74074000D01*
X141610499Y-74078445D01*
X141610499Y-74078445D01*
G37*
G36*
X139860499Y-74078445D02*
G01*
X139897995Y-74089820D01*
X139932554Y-74108292D01*
X139962847Y-74133153D01*
X139987708Y-74163446D01*
X140006180Y-74198005D01*
X140017555Y-74235501D01*
X140022000Y-74280638D01*
X140022000Y-74919362D01*
X140017555Y-74964499D01*
X140006180Y-75001995D01*
X139987708Y-75036554D01*
X139962847Y-75066847D01*
X139932554Y-75091708D01*
X139897995Y-75110180D01*
X139860499Y-75121555D01*
X139815362Y-75126000D01*
X139076638Y-75126000D01*
X139031501Y-75121555D01*
X138994005Y-75110180D01*
X138959446Y-75091708D01*
X138929153Y-75066847D01*
X138904292Y-75036554D01*
X138885820Y-75001995D01*
X138874445Y-74964499D01*
X138870000Y-74919362D01*
X138870000Y-74280638D01*
X138874445Y-74235501D01*
X138885820Y-74198005D01*
X138904292Y-74163446D01*
X138929153Y-74133153D01*
X138959446Y-74108292D01*
X138994005Y-74089820D01*
X139031501Y-74078445D01*
X139076638Y-74074000D01*
X139815362Y-74074000D01*
X139860499Y-74078445D01*
X139860499Y-74078445D01*
G37*
G36*
X145020051Y-72426284D02*
G01*
X145036443Y-72431257D01*
X145051555Y-72439334D01*
X145064798Y-72450202D01*
X145075667Y-72463447D01*
X145079761Y-72471106D01*
X145093374Y-72491480D01*
X145110701Y-72508807D01*
X145131076Y-72522421D01*
X145153714Y-72531798D01*
X145177748Y-72536579D01*
X145202252Y-72536579D01*
X145226285Y-72531799D01*
X145248924Y-72522421D01*
X145269298Y-72508808D01*
X145286625Y-72491481D01*
X145300239Y-72471106D01*
X145304333Y-72463447D01*
X145315202Y-72450202D01*
X145328445Y-72439334D01*
X145343557Y-72431257D01*
X145359949Y-72426284D01*
X145383141Y-72424000D01*
X145796859Y-72424000D01*
X145820051Y-72426284D01*
X145836443Y-72431257D01*
X145851555Y-72439334D01*
X145864798Y-72450202D01*
X145875667Y-72463447D01*
X145879761Y-72471106D01*
X145893374Y-72491480D01*
X145910701Y-72508807D01*
X145931076Y-72522421D01*
X145953714Y-72531798D01*
X145977748Y-72536579D01*
X146002252Y-72536579D01*
X146026285Y-72531799D01*
X146048924Y-72522421D01*
X146069298Y-72508808D01*
X146086625Y-72491481D01*
X146100239Y-72471106D01*
X146104333Y-72463447D01*
X146115202Y-72450202D01*
X146128445Y-72439334D01*
X146143557Y-72431257D01*
X146159949Y-72426284D01*
X146183141Y-72424000D01*
X146596859Y-72424000D01*
X146620051Y-72426284D01*
X146636443Y-72431257D01*
X146651555Y-72439334D01*
X146664798Y-72450202D01*
X146675667Y-72463447D01*
X146679761Y-72471106D01*
X146693374Y-72491480D01*
X146710701Y-72508807D01*
X146731076Y-72522421D01*
X146753714Y-72531798D01*
X146777748Y-72536579D01*
X146802252Y-72536579D01*
X146826285Y-72531799D01*
X146848924Y-72522421D01*
X146869298Y-72508808D01*
X146886625Y-72491481D01*
X146900239Y-72471106D01*
X146904333Y-72463447D01*
X146915202Y-72450202D01*
X146928445Y-72439334D01*
X146943557Y-72431257D01*
X146959949Y-72426284D01*
X146983141Y-72424000D01*
X147396859Y-72424000D01*
X147420051Y-72426284D01*
X147436443Y-72431257D01*
X147451555Y-72439334D01*
X147464798Y-72450202D01*
X147475667Y-72463447D01*
X147479761Y-72471106D01*
X147493374Y-72491480D01*
X147510701Y-72508807D01*
X147531076Y-72522421D01*
X147553714Y-72531798D01*
X147577748Y-72536579D01*
X147602252Y-72536579D01*
X147626285Y-72531799D01*
X147648924Y-72522421D01*
X147669298Y-72508808D01*
X147686625Y-72491481D01*
X147700239Y-72471106D01*
X147704333Y-72463447D01*
X147715202Y-72450202D01*
X147728445Y-72439334D01*
X147743557Y-72431257D01*
X147759949Y-72426284D01*
X147783141Y-72424000D01*
X148196859Y-72424000D01*
X148220051Y-72426284D01*
X148236443Y-72431257D01*
X148251555Y-72439334D01*
X148264798Y-72450202D01*
X148275667Y-72463447D01*
X148279761Y-72471106D01*
X148293374Y-72491480D01*
X148310701Y-72508807D01*
X148331076Y-72522421D01*
X148353714Y-72531798D01*
X148377748Y-72536579D01*
X148402252Y-72536579D01*
X148426285Y-72531799D01*
X148448924Y-72522421D01*
X148469298Y-72508808D01*
X148486625Y-72491481D01*
X148500239Y-72471106D01*
X148504333Y-72463447D01*
X148515202Y-72450202D01*
X148528445Y-72439334D01*
X148543557Y-72431257D01*
X148559949Y-72426284D01*
X148583141Y-72424000D01*
X148996859Y-72424000D01*
X149020051Y-72426284D01*
X149036443Y-72431257D01*
X149051555Y-72439334D01*
X149064798Y-72450202D01*
X149075667Y-72463447D01*
X149079761Y-72471106D01*
X149093374Y-72491480D01*
X149110701Y-72508807D01*
X149131076Y-72522421D01*
X149153714Y-72531798D01*
X149177748Y-72536579D01*
X149202252Y-72536579D01*
X149226285Y-72531799D01*
X149248924Y-72522421D01*
X149269298Y-72508808D01*
X149286625Y-72491481D01*
X149300239Y-72471106D01*
X149304333Y-72463447D01*
X149315202Y-72450202D01*
X149328445Y-72439334D01*
X149343557Y-72431257D01*
X149359949Y-72426284D01*
X149383141Y-72424000D01*
X149796859Y-72424000D01*
X149820051Y-72426284D01*
X149836443Y-72431257D01*
X149851555Y-72439334D01*
X149864798Y-72450202D01*
X149875667Y-72463447D01*
X149879761Y-72471106D01*
X149893374Y-72491480D01*
X149910701Y-72508807D01*
X149931076Y-72522421D01*
X149953714Y-72531798D01*
X149977748Y-72536579D01*
X150002252Y-72536579D01*
X150026285Y-72531799D01*
X150048924Y-72522421D01*
X150069298Y-72508808D01*
X150086625Y-72491481D01*
X150100239Y-72471106D01*
X150104333Y-72463447D01*
X150115202Y-72450202D01*
X150128445Y-72439334D01*
X150143557Y-72431257D01*
X150159949Y-72426284D01*
X150183141Y-72424000D01*
X150596859Y-72424000D01*
X150620051Y-72426284D01*
X150636443Y-72431257D01*
X150651555Y-72439334D01*
X150664798Y-72450202D01*
X150675666Y-72463445D01*
X150683743Y-72478557D01*
X150688716Y-72494949D01*
X150691000Y-72518141D01*
X150691000Y-73931859D01*
X150688716Y-73955051D01*
X150683743Y-73971443D01*
X150675666Y-73986555D01*
X150664798Y-73999798D01*
X150651555Y-74010666D01*
X150636443Y-74018743D01*
X150620051Y-74023716D01*
X150596859Y-74026000D01*
X150183141Y-74026000D01*
X150159949Y-74023716D01*
X150143557Y-74018743D01*
X150128445Y-74010666D01*
X150115202Y-73999798D01*
X150104333Y-73986553D01*
X150100239Y-73978894D01*
X150086626Y-73958520D01*
X150069299Y-73941193D01*
X150048924Y-73927579D01*
X150026286Y-73918202D01*
X150002252Y-73913421D01*
X149977748Y-73913421D01*
X149953715Y-73918201D01*
X149931076Y-73927579D01*
X149910702Y-73941192D01*
X149893375Y-73958519D01*
X149879761Y-73978894D01*
X149875667Y-73986553D01*
X149864798Y-73999798D01*
X149851555Y-74010666D01*
X149836443Y-74018743D01*
X149820051Y-74023716D01*
X149796859Y-74026000D01*
X149383141Y-74026000D01*
X149359949Y-74023716D01*
X149343557Y-74018743D01*
X149328445Y-74010666D01*
X149315202Y-73999798D01*
X149304333Y-73986553D01*
X149300239Y-73978894D01*
X149286626Y-73958520D01*
X149269299Y-73941193D01*
X149248924Y-73927579D01*
X149226286Y-73918202D01*
X149202252Y-73913421D01*
X149177748Y-73913421D01*
X149153715Y-73918201D01*
X149131076Y-73927579D01*
X149110702Y-73941192D01*
X149093375Y-73958519D01*
X149079761Y-73978894D01*
X149075667Y-73986553D01*
X149064798Y-73999798D01*
X149051555Y-74010666D01*
X149036443Y-74018743D01*
X149020051Y-74023716D01*
X148996859Y-74026000D01*
X148583141Y-74026000D01*
X148559949Y-74023716D01*
X148543557Y-74018743D01*
X148528445Y-74010666D01*
X148515202Y-73999798D01*
X148504333Y-73986553D01*
X148500239Y-73978894D01*
X148486626Y-73958520D01*
X148469299Y-73941193D01*
X148448924Y-73927579D01*
X148426286Y-73918202D01*
X148402252Y-73913421D01*
X148377748Y-73913421D01*
X148353715Y-73918201D01*
X148331076Y-73927579D01*
X148310702Y-73941192D01*
X148293375Y-73958519D01*
X148279761Y-73978894D01*
X148275667Y-73986553D01*
X148264798Y-73999798D01*
X148251555Y-74010666D01*
X148236443Y-74018743D01*
X148220051Y-74023716D01*
X148196859Y-74026000D01*
X147783141Y-74026000D01*
X147759949Y-74023716D01*
X147743557Y-74018743D01*
X147728445Y-74010666D01*
X147715202Y-73999798D01*
X147704333Y-73986553D01*
X147700239Y-73978894D01*
X147686626Y-73958520D01*
X147669299Y-73941193D01*
X147648924Y-73927579D01*
X147626286Y-73918202D01*
X147602252Y-73913421D01*
X147577748Y-73913421D01*
X147553715Y-73918201D01*
X147531076Y-73927579D01*
X147510702Y-73941192D01*
X147493375Y-73958519D01*
X147479761Y-73978894D01*
X147475667Y-73986553D01*
X147464798Y-73999798D01*
X147451555Y-74010666D01*
X147436443Y-74018743D01*
X147420051Y-74023716D01*
X147396859Y-74026000D01*
X146983141Y-74026000D01*
X146959949Y-74023716D01*
X146943557Y-74018743D01*
X146928445Y-74010666D01*
X146915202Y-73999798D01*
X146904333Y-73986553D01*
X146900239Y-73978894D01*
X146886626Y-73958520D01*
X146869299Y-73941193D01*
X146848924Y-73927579D01*
X146826286Y-73918202D01*
X146802252Y-73913421D01*
X146777748Y-73913421D01*
X146753715Y-73918201D01*
X146731076Y-73927579D01*
X146710702Y-73941192D01*
X146693375Y-73958519D01*
X146679761Y-73978894D01*
X146675667Y-73986553D01*
X146664798Y-73999798D01*
X146651555Y-74010666D01*
X146636443Y-74018743D01*
X146620051Y-74023716D01*
X146596859Y-74026000D01*
X146183141Y-74026000D01*
X146159949Y-74023716D01*
X146143557Y-74018743D01*
X146128445Y-74010666D01*
X146115202Y-73999798D01*
X146104333Y-73986553D01*
X146100239Y-73978894D01*
X146086626Y-73958520D01*
X146069299Y-73941193D01*
X146048924Y-73927579D01*
X146026286Y-73918202D01*
X146002252Y-73913421D01*
X145977748Y-73913421D01*
X145953715Y-73918201D01*
X145931076Y-73927579D01*
X145910702Y-73941192D01*
X145893375Y-73958519D01*
X145879761Y-73978894D01*
X145875667Y-73986553D01*
X145864798Y-73999798D01*
X145851555Y-74010666D01*
X145836443Y-74018743D01*
X145820051Y-74023716D01*
X145796859Y-74026000D01*
X145383141Y-74026000D01*
X145359949Y-74023716D01*
X145343557Y-74018743D01*
X145328445Y-74010666D01*
X145315202Y-73999798D01*
X145304333Y-73986553D01*
X145300239Y-73978894D01*
X145286626Y-73958520D01*
X145269299Y-73941193D01*
X145248924Y-73927579D01*
X145226286Y-73918202D01*
X145202252Y-73913421D01*
X145177748Y-73913421D01*
X145153715Y-73918201D01*
X145131076Y-73927579D01*
X145110702Y-73941192D01*
X145093375Y-73958519D01*
X145079761Y-73978894D01*
X145075667Y-73986553D01*
X145064798Y-73999798D01*
X145051555Y-74010666D01*
X145036443Y-74018743D01*
X145020051Y-74023716D01*
X144996859Y-74026000D01*
X144583141Y-74026000D01*
X144559949Y-74023716D01*
X144543557Y-74018743D01*
X144528445Y-74010666D01*
X144515202Y-73999798D01*
X144504334Y-73986555D01*
X144496257Y-73971443D01*
X144491284Y-73955051D01*
X144489000Y-73931859D01*
X144489000Y-72518141D01*
X144491284Y-72494949D01*
X144496257Y-72478557D01*
X144504334Y-72463445D01*
X144515202Y-72450202D01*
X144528445Y-72439334D01*
X144543557Y-72431257D01*
X144559949Y-72426284D01*
X144583141Y-72424000D01*
X144996859Y-72424000D01*
X145020051Y-72426284D01*
X145020051Y-72426284D01*
G37*
G36*
X118111414Y-72886371D02*
G01*
X117544315Y-73453470D01*
X116411530Y-72320685D01*
X116978629Y-71753586D01*
X118111414Y-72886371D01*
X118111414Y-72886371D01*
G37*
G36*
X115954739Y-72073198D02*
G01*
X114821954Y-73205983D01*
X114254855Y-72638884D01*
X115387640Y-71506099D01*
X115954739Y-72073198D01*
X115954739Y-72073198D01*
G37*
G36*
X118959942Y-72037843D02*
G01*
X118392843Y-72604942D01*
X117260058Y-71472157D01*
X117827157Y-70905058D01*
X118959942Y-72037843D01*
X118959942Y-72037843D01*
G37*
G36*
X115106211Y-71224670D02*
G01*
X113973426Y-72357455D01*
X113406327Y-71790356D01*
X114539112Y-70657571D01*
X115106211Y-71224670D01*
X115106211Y-71224670D01*
G37*
G36*
X119808471Y-71189315D02*
G01*
X119241372Y-71756414D01*
X118108587Y-70623629D01*
X118675686Y-70056530D01*
X119808471Y-71189315D01*
X119808471Y-71189315D01*
G37*
G36*
X114257682Y-70376141D02*
G01*
X113124897Y-71508926D01*
X112557798Y-70941827D01*
X113690583Y-69809042D01*
X114257682Y-70376141D01*
X114257682Y-70376141D01*
G37*
G36*
X145969591Y-70407085D02*
G01*
X146003569Y-70417393D01*
X146034890Y-70434134D01*
X146062339Y-70456661D01*
X146084866Y-70484110D01*
X146101607Y-70515431D01*
X146111915Y-70549409D01*
X146116000Y-70590890D01*
X146116000Y-71192110D01*
X146111915Y-71233591D01*
X146101607Y-71267569D01*
X146084866Y-71298890D01*
X146062339Y-71326339D01*
X146034890Y-71348866D01*
X146003569Y-71365607D01*
X145969591Y-71375915D01*
X145928110Y-71380000D01*
X145251890Y-71380000D01*
X145210409Y-71375915D01*
X145176431Y-71365607D01*
X145145110Y-71348866D01*
X145117661Y-71326339D01*
X145095134Y-71298890D01*
X145078393Y-71267569D01*
X145068085Y-71233591D01*
X145064000Y-71192110D01*
X145064000Y-70590890D01*
X145068085Y-70549409D01*
X145078393Y-70515431D01*
X145095134Y-70484110D01*
X145117661Y-70456661D01*
X145145110Y-70434134D01*
X145176431Y-70417393D01*
X145210409Y-70407085D01*
X145251890Y-70403000D01*
X145928110Y-70403000D01*
X145969591Y-70407085D01*
X145969591Y-70407085D01*
G37*
G36*
X120656999Y-70340787D02*
G01*
X120089900Y-70907886D01*
X118957115Y-69775101D01*
X119524214Y-69208002D01*
X120656999Y-70340787D01*
X120656999Y-70340787D01*
G37*
G36*
X113409154Y-69527613D02*
G01*
X112276369Y-70660398D01*
X111709270Y-70093299D01*
X112842055Y-68960514D01*
X113409154Y-69527613D01*
X113409154Y-69527613D01*
G37*
G36*
X125564091Y-69074085D02*
G01*
X125598069Y-69084393D01*
X125629390Y-69101134D01*
X125656839Y-69123661D01*
X125679366Y-69151110D01*
X125696107Y-69182431D01*
X125706415Y-69216409D01*
X125710500Y-69257890D01*
X125710500Y-69934110D01*
X125706415Y-69975591D01*
X125696107Y-70009569D01*
X125679366Y-70040890D01*
X125656839Y-70068339D01*
X125629390Y-70090866D01*
X125598069Y-70107607D01*
X125564091Y-70117915D01*
X125522610Y-70122000D01*
X124921390Y-70122000D01*
X124879909Y-70117915D01*
X124845931Y-70107607D01*
X124814610Y-70090866D01*
X124787161Y-70068339D01*
X124764634Y-70040890D01*
X124747893Y-70009569D01*
X124737585Y-69975591D01*
X124733500Y-69934110D01*
X124733500Y-69257890D01*
X124737585Y-69216409D01*
X124747893Y-69182431D01*
X124764634Y-69151110D01*
X124787161Y-69123661D01*
X124814610Y-69101134D01*
X124845931Y-69084393D01*
X124879909Y-69074085D01*
X124921390Y-69070000D01*
X125522610Y-69070000D01*
X125564091Y-69074085D01*
X125564091Y-69074085D01*
G37*
G36*
X123989091Y-69074085D02*
G01*
X124023069Y-69084393D01*
X124054390Y-69101134D01*
X124081839Y-69123661D01*
X124104366Y-69151110D01*
X124121107Y-69182431D01*
X124131415Y-69216409D01*
X124135500Y-69257890D01*
X124135500Y-69934110D01*
X124131415Y-69975591D01*
X124121107Y-70009569D01*
X124104366Y-70040890D01*
X124081839Y-70068339D01*
X124054390Y-70090866D01*
X124023069Y-70107607D01*
X123989091Y-70117915D01*
X123947610Y-70122000D01*
X123346390Y-70122000D01*
X123304909Y-70117915D01*
X123270931Y-70107607D01*
X123239610Y-70090866D01*
X123212161Y-70068339D01*
X123189634Y-70040890D01*
X123172893Y-70009569D01*
X123162585Y-69975591D01*
X123158500Y-69934110D01*
X123158500Y-69257890D01*
X123162585Y-69216409D01*
X123172893Y-69182431D01*
X123189634Y-69151110D01*
X123212161Y-69123661D01*
X123239610Y-69101134D01*
X123270931Y-69084393D01*
X123304909Y-69074085D01*
X123346390Y-69070000D01*
X123947610Y-69070000D01*
X123989091Y-69074085D01*
X123989091Y-69074085D01*
G37*
G36*
X121505527Y-69492258D02*
G01*
X120938428Y-70059357D01*
X119805643Y-68926572D01*
X120372742Y-68359473D01*
X121505527Y-69492258D01*
X121505527Y-69492258D01*
G37*
G36*
X112560626Y-68679085D02*
G01*
X111427841Y-69811870D01*
X110860742Y-69244771D01*
X111993527Y-68111986D01*
X112560626Y-68679085D01*
X112560626Y-68679085D01*
G37*
G36*
X145969591Y-68832085D02*
G01*
X146003569Y-68842393D01*
X146034890Y-68859134D01*
X146062339Y-68881661D01*
X146084866Y-68909110D01*
X146101607Y-68940431D01*
X146111915Y-68974409D01*
X146116000Y-69015890D01*
X146116000Y-69617110D01*
X146111915Y-69658591D01*
X146101607Y-69692569D01*
X146084866Y-69723890D01*
X146062339Y-69751339D01*
X146034890Y-69773866D01*
X146003569Y-69790607D01*
X145969591Y-69800915D01*
X145928110Y-69805000D01*
X145251890Y-69805000D01*
X145210409Y-69800915D01*
X145176431Y-69790607D01*
X145145110Y-69773866D01*
X145117661Y-69751339D01*
X145095134Y-69723890D01*
X145078393Y-69692569D01*
X145068085Y-69658591D01*
X145064000Y-69617110D01*
X145064000Y-69015890D01*
X145068085Y-68974409D01*
X145078393Y-68940431D01*
X145095134Y-68909110D01*
X145117661Y-68881661D01*
X145145110Y-68859134D01*
X145176431Y-68842393D01*
X145210409Y-68832085D01*
X145251890Y-68828000D01*
X145928110Y-68828000D01*
X145969591Y-68832085D01*
X145969591Y-68832085D01*
G37*
G36*
X122354055Y-68643730D02*
G01*
X121786956Y-69210829D01*
X120654171Y-68078044D01*
X121221270Y-67510945D01*
X122354055Y-68643730D01*
X122354055Y-68643730D01*
G37*
G36*
X122106568Y-65921369D02*
G01*
X120973783Y-67054154D01*
X120406684Y-66487055D01*
X121539469Y-65354270D01*
X122106568Y-65921369D01*
X122106568Y-65921369D01*
G37*
G36*
X121258040Y-65072841D02*
G01*
X120125255Y-66205626D01*
X119558156Y-65638527D01*
X120690941Y-64505742D01*
X121258040Y-65072841D01*
X121258040Y-65072841D01*
G37*
G36*
X129833468Y-64531565D02*
G01*
X129872138Y-64543296D01*
X129907777Y-64562346D01*
X129939017Y-64587983D01*
X129964654Y-64619223D01*
X129983704Y-64654862D01*
X129995435Y-64693532D01*
X130000000Y-64739888D01*
X130000000Y-65816112D01*
X129995435Y-65862468D01*
X129983704Y-65901138D01*
X129964654Y-65936777D01*
X129939017Y-65968017D01*
X129907777Y-65993654D01*
X129872138Y-66012704D01*
X129833468Y-66024435D01*
X129787112Y-66029000D01*
X129135888Y-66029000D01*
X129089532Y-66024435D01*
X129050862Y-66012704D01*
X129015223Y-65993654D01*
X128983983Y-65968017D01*
X128958346Y-65936777D01*
X128939296Y-65901138D01*
X128927565Y-65862468D01*
X128923000Y-65816112D01*
X128923000Y-64739888D01*
X128927565Y-64693532D01*
X128939296Y-64654862D01*
X128958346Y-64619223D01*
X128983983Y-64587983D01*
X129015223Y-64562346D01*
X129050862Y-64543296D01*
X129089532Y-64531565D01*
X129135888Y-64527000D01*
X129787112Y-64527000D01*
X129833468Y-64531565D01*
X129833468Y-64531565D01*
G37*
G36*
X127958468Y-64531565D02*
G01*
X127997138Y-64543296D01*
X128032777Y-64562346D01*
X128064017Y-64587983D01*
X128089654Y-64619223D01*
X128108704Y-64654862D01*
X128120435Y-64693532D01*
X128125000Y-64739888D01*
X128125000Y-65816112D01*
X128120435Y-65862468D01*
X128108704Y-65901138D01*
X128089654Y-65936777D01*
X128064017Y-65968017D01*
X128032777Y-65993654D01*
X127997138Y-66012704D01*
X127958468Y-66024435D01*
X127912112Y-66029000D01*
X127260888Y-66029000D01*
X127214532Y-66024435D01*
X127175862Y-66012704D01*
X127140223Y-65993654D01*
X127108983Y-65968017D01*
X127083346Y-65936777D01*
X127064296Y-65901138D01*
X127052565Y-65862468D01*
X127048000Y-65816112D01*
X127048000Y-64739888D01*
X127052565Y-64693532D01*
X127064296Y-64654862D01*
X127083346Y-64619223D01*
X127108983Y-64587983D01*
X127140223Y-64562346D01*
X127175862Y-64543296D01*
X127214532Y-64531565D01*
X127260888Y-64527000D01*
X127912112Y-64527000D01*
X127958468Y-64531565D01*
X127958468Y-64531565D01*
G37*
G36*
X123989091Y-64756085D02*
G01*
X124023069Y-64766393D01*
X124054390Y-64783134D01*
X124081839Y-64805661D01*
X124104366Y-64833110D01*
X124121107Y-64864431D01*
X124131415Y-64898409D01*
X124135500Y-64939890D01*
X124135500Y-65616110D01*
X124131415Y-65657591D01*
X124121107Y-65691569D01*
X124104366Y-65722890D01*
X124081839Y-65750339D01*
X124054390Y-65772866D01*
X124023069Y-65789607D01*
X123989091Y-65799915D01*
X123947610Y-65804000D01*
X123346390Y-65804000D01*
X123304909Y-65799915D01*
X123270931Y-65789607D01*
X123239610Y-65772866D01*
X123212161Y-65750339D01*
X123189634Y-65722890D01*
X123172893Y-65691569D01*
X123162585Y-65657591D01*
X123158500Y-65616110D01*
X123158500Y-64939890D01*
X123162585Y-64898409D01*
X123172893Y-64864431D01*
X123189634Y-64833110D01*
X123212161Y-64805661D01*
X123239610Y-64783134D01*
X123270931Y-64766393D01*
X123304909Y-64756085D01*
X123346390Y-64752000D01*
X123947610Y-64752000D01*
X123989091Y-64756085D01*
X123989091Y-64756085D01*
G37*
G36*
X125564091Y-64756085D02*
G01*
X125598069Y-64766393D01*
X125629390Y-64783134D01*
X125656839Y-64805661D01*
X125679366Y-64833110D01*
X125696107Y-64864431D01*
X125706415Y-64898409D01*
X125710500Y-64939890D01*
X125710500Y-65616110D01*
X125706415Y-65657591D01*
X125696107Y-65691569D01*
X125679366Y-65722890D01*
X125656839Y-65750339D01*
X125629390Y-65772866D01*
X125598069Y-65789607D01*
X125564091Y-65799915D01*
X125522610Y-65804000D01*
X124921390Y-65804000D01*
X124879909Y-65799915D01*
X124845931Y-65789607D01*
X124814610Y-65772866D01*
X124787161Y-65750339D01*
X124764634Y-65722890D01*
X124747893Y-65691569D01*
X124737585Y-65657591D01*
X124733500Y-65616110D01*
X124733500Y-64939890D01*
X124737585Y-64898409D01*
X124747893Y-64864431D01*
X124764634Y-64833110D01*
X124787161Y-64805661D01*
X124814610Y-64783134D01*
X124845931Y-64766393D01*
X124879909Y-64756085D01*
X124921390Y-64752000D01*
X125522610Y-64752000D01*
X125564091Y-64756085D01*
X125564091Y-64756085D01*
G37*
G36*
X120409511Y-64224312D02*
G01*
X119276726Y-65357097D01*
X118709627Y-64789998D01*
X119842412Y-63657213D01*
X120409511Y-64224312D01*
X120409511Y-64224312D01*
G37*
G36*
X119525628Y-63340429D02*
G01*
X118392843Y-64473214D01*
X117825744Y-63906115D01*
X118958529Y-62773330D01*
X119525628Y-63340429D01*
X119525628Y-63340429D01*
G37*
G36*
X118712455Y-62527256D02*
G01*
X117579670Y-63660041D01*
X117012571Y-63092942D01*
X118145356Y-61960157D01*
X118712455Y-62527256D01*
X118712455Y-62527256D01*
G37*
G36*
X123350499Y-62470445D02*
G01*
X123387995Y-62481820D01*
X123422554Y-62500292D01*
X123452847Y-62525153D01*
X123477708Y-62555446D01*
X123496180Y-62590005D01*
X123507555Y-62627501D01*
X123512000Y-62672638D01*
X123512000Y-63311362D01*
X123507555Y-63356499D01*
X123496180Y-63393995D01*
X123477708Y-63428554D01*
X123452847Y-63458847D01*
X123422554Y-63483708D01*
X123387995Y-63502180D01*
X123350499Y-63513555D01*
X123305362Y-63518000D01*
X122566638Y-63518000D01*
X122521501Y-63513555D01*
X122484005Y-63502180D01*
X122449446Y-63483708D01*
X122419153Y-63458847D01*
X122394292Y-63428554D01*
X122375820Y-63393995D01*
X122364445Y-63356499D01*
X122360000Y-63311362D01*
X122360000Y-62672638D01*
X122364445Y-62627501D01*
X122375820Y-62590005D01*
X122394292Y-62555446D01*
X122419153Y-62525153D01*
X122449446Y-62500292D01*
X122484005Y-62481820D01*
X122521501Y-62470445D01*
X122566638Y-62466000D01*
X123305362Y-62466000D01*
X123350499Y-62470445D01*
X123350499Y-62470445D01*
G37*
G36*
X125100499Y-62470445D02*
G01*
X125137995Y-62481820D01*
X125172554Y-62500292D01*
X125202847Y-62525153D01*
X125227708Y-62555446D01*
X125246180Y-62590005D01*
X125257555Y-62627501D01*
X125262000Y-62672638D01*
X125262000Y-63311362D01*
X125257555Y-63356499D01*
X125246180Y-63393995D01*
X125227708Y-63428554D01*
X125202847Y-63458847D01*
X125172554Y-63483708D01*
X125137995Y-63502180D01*
X125100499Y-63513555D01*
X125055362Y-63518000D01*
X124316638Y-63518000D01*
X124271501Y-63513555D01*
X124234005Y-63502180D01*
X124199446Y-63483708D01*
X124169153Y-63458847D01*
X124144292Y-63428554D01*
X124125820Y-63393995D01*
X124114445Y-63356499D01*
X124110000Y-63311362D01*
X124110000Y-62672638D01*
X124114445Y-62627501D01*
X124125820Y-62590005D01*
X124144292Y-62555446D01*
X124169153Y-62525153D01*
X124199446Y-62500292D01*
X124234005Y-62481820D01*
X124271501Y-62470445D01*
X124316638Y-62466000D01*
X125055362Y-62466000D01*
X125100499Y-62470445D01*
X125100499Y-62470445D01*
G37*
G36*
X123736999Y-58635737D02*
G01*
X123746608Y-58638652D01*
X123755472Y-58643390D01*
X123763212Y-58649742D01*
X123763213Y-58649743D01*
X123763237Y-58649763D01*
X123769640Y-58657573D01*
X123769677Y-58657628D01*
X123777480Y-58667147D01*
X123777511Y-58667122D01*
X123788853Y-58680972D01*
X123807779Y-58696537D01*
X123829377Y-58708111D01*
X123852819Y-58715249D01*
X123877202Y-58717676D01*
X123901591Y-58715300D01*
X123925047Y-58708211D01*
X123946670Y-58696682D01*
X123965628Y-58681157D01*
X123981193Y-58662231D01*
X123983029Y-58659175D01*
X123984418Y-58657486D01*
X123984419Y-58657484D01*
X123990801Y-58649725D01*
X123998573Y-58643360D01*
X123998575Y-58643358D01*
X124007399Y-58638654D01*
X124007438Y-58638633D01*
X124017055Y-58635727D01*
X124017085Y-58635718D01*
X124033113Y-58634148D01*
X125170860Y-58634148D01*
X125186999Y-58635737D01*
X125196608Y-58638652D01*
X125205472Y-58643390D01*
X125213237Y-58649763D01*
X125219610Y-58657528D01*
X125224348Y-58666392D01*
X125227263Y-58676001D01*
X125228852Y-58692140D01*
X125228852Y-60179860D01*
X125227263Y-60195999D01*
X125224348Y-60205608D01*
X125219610Y-60214472D01*
X125213237Y-60222237D01*
X125205472Y-60228610D01*
X125196608Y-60233348D01*
X125186999Y-60236263D01*
X125170860Y-60237852D01*
X124033140Y-60237852D01*
X124017001Y-60236263D01*
X124007392Y-60233348D01*
X123998528Y-60228610D01*
X123990763Y-60222237D01*
X123980116Y-60209263D01*
X123973947Y-60200032D01*
X123956619Y-60182706D01*
X123936244Y-60169093D01*
X123913605Y-60159717D01*
X123889572Y-60154937D01*
X123865068Y-60154938D01*
X123841035Y-60159720D01*
X123818396Y-60169098D01*
X123798022Y-60182713D01*
X123780696Y-60200041D01*
X123773825Y-60209317D01*
X123769640Y-60214427D01*
X123763275Y-60222199D01*
X123755516Y-60228581D01*
X123746661Y-60233326D01*
X123743623Y-60234251D01*
X123737085Y-60236242D01*
X123737082Y-60236242D01*
X123737050Y-60236252D01*
X123727000Y-60237247D01*
X123726935Y-60237247D01*
X123720825Y-60237852D01*
X122733140Y-60237852D01*
X122717001Y-60236263D01*
X122707392Y-60233348D01*
X122698528Y-60228610D01*
X122690763Y-60222237D01*
X122684390Y-60214472D01*
X122679652Y-60205608D01*
X122676737Y-60195999D01*
X122675148Y-60179860D01*
X122675148Y-58692140D01*
X122676737Y-58676001D01*
X122679652Y-58666392D01*
X122684390Y-58657528D01*
X122690763Y-58649763D01*
X122698528Y-58643390D01*
X122707392Y-58638652D01*
X122717001Y-58635737D01*
X122733140Y-58634148D01*
X123720860Y-58634148D01*
X123736999Y-58635737D01*
X123736999Y-58635737D01*
G37*
G36*
X149295787Y-47635462D02*
G01*
X149295790Y-47635463D01*
X149295789Y-47635463D01*
X149942029Y-47903144D01*
X150523631Y-48291758D01*
X151018242Y-48786369D01*
X151406856Y-49367971D01*
X151406856Y-49367972D01*
X151674538Y-50014213D01*
X151811000Y-50700256D01*
X151811000Y-51399744D01*
X151674538Y-52085787D01*
X151674537Y-52085789D01*
X151406856Y-52732029D01*
X151018242Y-53313631D01*
X150523631Y-53808242D01*
X149942029Y-54196856D01*
X149485068Y-54386135D01*
X149295787Y-54464538D01*
X148609744Y-54601000D01*
X147910256Y-54601000D01*
X147224213Y-54464538D01*
X147034932Y-54386135D01*
X146577971Y-54196856D01*
X145996369Y-53808242D01*
X145501758Y-53313631D01*
X145113144Y-52732029D01*
X144845463Y-52085789D01*
X144845462Y-52085787D01*
X144709000Y-51399744D01*
X144709000Y-50700256D01*
X144845462Y-50014213D01*
X145113144Y-49367972D01*
X145113144Y-49367971D01*
X145501758Y-48786369D01*
X145996369Y-48291758D01*
X146577971Y-47903144D01*
X147224211Y-47635463D01*
X147224210Y-47635463D01*
X147224213Y-47635462D01*
X147910256Y-47499000D01*
X148609744Y-47499000D01*
X149295787Y-47635462D01*
X149295787Y-47635462D01*
G37*
M02*
