G04 #@! TF.GenerationSoftware,KiCad,Pcbnew,(5.1.2-1)-1*
G04 #@! TF.CreationDate,2019-08-06T22:00:45+02:00*
G04 #@! TF.ProjectId,RGB-Controller#R,5247422d-436f-46e7-9472-6f6c6c657223,rev?*
G04 #@! TF.SameCoordinates,Original*
G04 #@! TF.FileFunction,Legend,Top*
G04 #@! TF.FilePolarity,Positive*
%FSLAX46Y46*%
G04 Gerber Fmt 4.6, Leading zero omitted, Abs format (unit mm)*
G04 Created by KiCad (PCBNEW (5.1.2-1)-1) date 2019-08-06 22:00:45*
%MOMM*%
%LPD*%
G04 APERTURE LIST*
%ADD10C,0.150000*%
%ADD11C,0.300000*%
%ADD12C,0.200000*%
%ADD13C,0.120000*%
%ADD14C,0.100000*%
G04 APERTURE END LIST*
D10*
X167076380Y-83970714D02*
X166076380Y-83970714D01*
X167076380Y-83399285D01*
X166076380Y-83399285D01*
X166981142Y-82351666D02*
X167028761Y-82399285D01*
X167076380Y-82542142D01*
X167076380Y-82637380D01*
X167028761Y-82780238D01*
X166933523Y-82875476D01*
X166838285Y-82923095D01*
X166647809Y-82970714D01*
X166504952Y-82970714D01*
X166314476Y-82923095D01*
X166219238Y-82875476D01*
X166124000Y-82780238D01*
X166076380Y-82637380D01*
X166076380Y-82542142D01*
X166124000Y-82399285D01*
X166171619Y-82351666D01*
D11*
X141157428Y-59098571D02*
X140657428Y-58384285D01*
X140300285Y-59098571D02*
X140300285Y-57598571D01*
X140871714Y-57598571D01*
X141014571Y-57670000D01*
X141086000Y-57741428D01*
X141157428Y-57884285D01*
X141157428Y-58098571D01*
X141086000Y-58241428D01*
X141014571Y-58312857D01*
X140871714Y-58384285D01*
X140300285Y-58384285D01*
X142586000Y-57670000D02*
X142443142Y-57598571D01*
X142228857Y-57598571D01*
X142014571Y-57670000D01*
X141871714Y-57812857D01*
X141800285Y-57955714D01*
X141728857Y-58241428D01*
X141728857Y-58455714D01*
X141800285Y-58741428D01*
X141871714Y-58884285D01*
X142014571Y-59027142D01*
X142228857Y-59098571D01*
X142371714Y-59098571D01*
X142586000Y-59027142D01*
X142657428Y-58955714D01*
X142657428Y-58455714D01*
X142371714Y-58455714D01*
X143800285Y-58312857D02*
X144014571Y-58384285D01*
X144086000Y-58455714D01*
X144157428Y-58598571D01*
X144157428Y-58812857D01*
X144086000Y-58955714D01*
X144014571Y-59027142D01*
X143871714Y-59098571D01*
X143300285Y-59098571D01*
X143300285Y-57598571D01*
X143800285Y-57598571D01*
X143943142Y-57670000D01*
X144014571Y-57741428D01*
X144086000Y-57884285D01*
X144086000Y-58027142D01*
X144014571Y-58170000D01*
X143943142Y-58241428D01*
X143800285Y-58312857D01*
X143300285Y-58312857D01*
X146800285Y-58955714D02*
X146728857Y-59027142D01*
X146514571Y-59098571D01*
X146371714Y-59098571D01*
X146157428Y-59027142D01*
X146014571Y-58884285D01*
X145943142Y-58741428D01*
X145871714Y-58455714D01*
X145871714Y-58241428D01*
X145943142Y-57955714D01*
X146014571Y-57812857D01*
X146157428Y-57670000D01*
X146371714Y-57598571D01*
X146514571Y-57598571D01*
X146728857Y-57670000D01*
X146800285Y-57741428D01*
X147657428Y-59098571D02*
X147514571Y-59027142D01*
X147443142Y-58955714D01*
X147371714Y-58812857D01*
X147371714Y-58384285D01*
X147443142Y-58241428D01*
X147514571Y-58170000D01*
X147657428Y-58098571D01*
X147871714Y-58098571D01*
X148014571Y-58170000D01*
X148086000Y-58241428D01*
X148157428Y-58384285D01*
X148157428Y-58812857D01*
X148086000Y-58955714D01*
X148014571Y-59027142D01*
X147871714Y-59098571D01*
X147657428Y-59098571D01*
X148800285Y-58098571D02*
X148800285Y-59098571D01*
X148800285Y-58241428D02*
X148871714Y-58170000D01*
X149014571Y-58098571D01*
X149228857Y-58098571D01*
X149371714Y-58170000D01*
X149443142Y-58312857D01*
X149443142Y-59098571D01*
X149943142Y-58098571D02*
X150514571Y-58098571D01*
X150157428Y-57598571D02*
X150157428Y-58884285D01*
X150228857Y-59027142D01*
X150371714Y-59098571D01*
X150514571Y-59098571D01*
X151014571Y-59098571D02*
X151014571Y-58098571D01*
X151014571Y-58384285D02*
X151086000Y-58241428D01*
X151157428Y-58170000D01*
X151300285Y-58098571D01*
X151443142Y-58098571D01*
X152157428Y-59098571D02*
X152014571Y-59027142D01*
X151943142Y-58955714D01*
X151871714Y-58812857D01*
X151871714Y-58384285D01*
X151943142Y-58241428D01*
X152014571Y-58170000D01*
X152157428Y-58098571D01*
X152371714Y-58098571D01*
X152514571Y-58170000D01*
X152586000Y-58241428D01*
X152657428Y-58384285D01*
X152657428Y-58812857D01*
X152586000Y-58955714D01*
X152514571Y-59027142D01*
X152371714Y-59098571D01*
X152157428Y-59098571D01*
X153514571Y-59098571D02*
X153371714Y-59027142D01*
X153300285Y-58884285D01*
X153300285Y-57598571D01*
X154300285Y-59098571D02*
X154157428Y-59027142D01*
X154086000Y-58884285D01*
X154086000Y-57598571D01*
X155443142Y-59027142D02*
X155300285Y-59098571D01*
X155014571Y-59098571D01*
X154871714Y-59027142D01*
X154800285Y-58884285D01*
X154800285Y-58312857D01*
X154871714Y-58170000D01*
X155014571Y-58098571D01*
X155300285Y-58098571D01*
X155443142Y-58170000D01*
X155514571Y-58312857D01*
X155514571Y-58455714D01*
X154800285Y-58598571D01*
X156157428Y-59098571D02*
X156157428Y-58098571D01*
X156157428Y-58384285D02*
X156228857Y-58241428D01*
X156300285Y-58170000D01*
X156443142Y-58098571D01*
X156586000Y-58098571D01*
D10*
X159663047Y-141930380D02*
X159663047Y-140930380D01*
X159901142Y-140930380D01*
X160044000Y-140978000D01*
X160139238Y-141073238D01*
X160186857Y-141168476D01*
X160234476Y-141358952D01*
X160234476Y-141501809D01*
X160186857Y-141692285D01*
X160139238Y-141787523D01*
X160044000Y-141882761D01*
X159901142Y-141930380D01*
X159663047Y-141930380D01*
X160853523Y-140930380D02*
X161044000Y-140930380D01*
X161139238Y-140978000D01*
X161234476Y-141073238D01*
X161282095Y-141263714D01*
X161282095Y-141597047D01*
X161234476Y-141787523D01*
X161139238Y-141882761D01*
X161044000Y-141930380D01*
X160853523Y-141930380D01*
X160758285Y-141882761D01*
X160663047Y-141787523D01*
X160615428Y-141597047D01*
X160615428Y-141263714D01*
X160663047Y-141073238D01*
X160758285Y-140978000D01*
X160853523Y-140930380D01*
X161615428Y-140930380D02*
X161853523Y-141930380D01*
X162044000Y-141216095D01*
X162234476Y-141930380D01*
X162472571Y-140930380D01*
X162853523Y-141930380D02*
X162853523Y-140930380D01*
X163424952Y-141930380D01*
X163424952Y-140930380D01*
X146780476Y-141930380D02*
X146780476Y-140930380D01*
X147113809Y-141644666D01*
X147447142Y-140930380D01*
X147447142Y-141930380D01*
X148113809Y-140930380D02*
X148304285Y-140930380D01*
X148399523Y-140978000D01*
X148494761Y-141073238D01*
X148542380Y-141263714D01*
X148542380Y-141597047D01*
X148494761Y-141787523D01*
X148399523Y-141882761D01*
X148304285Y-141930380D01*
X148113809Y-141930380D01*
X148018571Y-141882761D01*
X147923333Y-141787523D01*
X147875714Y-141597047D01*
X147875714Y-141263714D01*
X147923333Y-141073238D01*
X148018571Y-140978000D01*
X148113809Y-140930380D01*
X148970952Y-141930380D02*
X148970952Y-140930380D01*
X149209047Y-140930380D01*
X149351904Y-140978000D01*
X149447142Y-141073238D01*
X149494761Y-141168476D01*
X149542380Y-141358952D01*
X149542380Y-141501809D01*
X149494761Y-141692285D01*
X149447142Y-141787523D01*
X149351904Y-141882761D01*
X149209047Y-141930380D01*
X148970952Y-141930380D01*
X149970952Y-141406571D02*
X150304285Y-141406571D01*
X150447142Y-141930380D02*
X149970952Y-141930380D01*
X149970952Y-140930380D01*
X150447142Y-140930380D01*
X134596285Y-140930380D02*
X134596285Y-141739904D01*
X134643904Y-141835142D01*
X134691523Y-141882761D01*
X134786761Y-141930380D01*
X134977238Y-141930380D01*
X135072476Y-141882761D01*
X135120095Y-141835142D01*
X135167714Y-141739904D01*
X135167714Y-140930380D01*
X135643904Y-141930380D02*
X135643904Y-140930380D01*
X136024857Y-140930380D01*
X136120095Y-140978000D01*
X136167714Y-141025619D01*
X136215333Y-141120857D01*
X136215333Y-141263714D01*
X136167714Y-141358952D01*
X136120095Y-141406571D01*
X136024857Y-141454190D01*
X135643904Y-141454190D01*
X144367714Y-144851428D02*
X145129619Y-144851428D01*
X144748666Y-145232380D02*
X144748666Y-144470476D01*
X146129619Y-145232380D02*
X145558190Y-145232380D01*
X145843904Y-145232380D02*
X145843904Y-144232380D01*
X145748666Y-144375238D01*
X145653428Y-144470476D01*
X145558190Y-144518095D01*
X146510571Y-144327619D02*
X146558190Y-144280000D01*
X146653428Y-144232380D01*
X146891523Y-144232380D01*
X146986761Y-144280000D01*
X147034380Y-144327619D01*
X147082000Y-144422857D01*
X147082000Y-144518095D01*
X147034380Y-144660952D01*
X146462952Y-145232380D01*
X147082000Y-145232380D01*
X147367714Y-144232380D02*
X147701047Y-145232380D01*
X148034380Y-144232380D01*
X149129619Y-145232380D02*
X149129619Y-144232380D01*
X149510571Y-144232380D01*
X149605809Y-144280000D01*
X149653428Y-144327619D01*
X149701047Y-144422857D01*
X149701047Y-144565714D01*
X149653428Y-144660952D01*
X149605809Y-144708571D01*
X149510571Y-144756190D01*
X149129619Y-144756190D01*
X150034380Y-144232380D02*
X150272476Y-145232380D01*
X150462952Y-144518095D01*
X150653428Y-145232380D01*
X150891523Y-144232380D01*
X151843904Y-145232380D02*
X151510571Y-144756190D01*
X151272476Y-145232380D02*
X151272476Y-144232380D01*
X151653428Y-144232380D01*
X151748666Y-144280000D01*
X151796285Y-144327619D01*
X151843904Y-144422857D01*
X151843904Y-144565714D01*
X151796285Y-144660952D01*
X151748666Y-144708571D01*
X151653428Y-144756190D01*
X151272476Y-144756190D01*
D11*
X141224857Y-100246571D02*
X140724857Y-99532285D01*
X140367714Y-100246571D02*
X140367714Y-98746571D01*
X140939142Y-98746571D01*
X141082000Y-98818000D01*
X141153428Y-98889428D01*
X141224857Y-99032285D01*
X141224857Y-99246571D01*
X141153428Y-99389428D01*
X141082000Y-99460857D01*
X140939142Y-99532285D01*
X140367714Y-99532285D01*
X142653428Y-98818000D02*
X142510571Y-98746571D01*
X142296285Y-98746571D01*
X142082000Y-98818000D01*
X141939142Y-98960857D01*
X141867714Y-99103714D01*
X141796285Y-99389428D01*
X141796285Y-99603714D01*
X141867714Y-99889428D01*
X141939142Y-100032285D01*
X142082000Y-100175142D01*
X142296285Y-100246571D01*
X142439142Y-100246571D01*
X142653428Y-100175142D01*
X142724857Y-100103714D01*
X142724857Y-99603714D01*
X142439142Y-99603714D01*
X143867714Y-99460857D02*
X144082000Y-99532285D01*
X144153428Y-99603714D01*
X144224857Y-99746571D01*
X144224857Y-99960857D01*
X144153428Y-100103714D01*
X144082000Y-100175142D01*
X143939142Y-100246571D01*
X143367714Y-100246571D01*
X143367714Y-98746571D01*
X143867714Y-98746571D01*
X144010571Y-98818000D01*
X144082000Y-98889428D01*
X144153428Y-99032285D01*
X144153428Y-99175142D01*
X144082000Y-99318000D01*
X144010571Y-99389428D01*
X143867714Y-99460857D01*
X143367714Y-99460857D01*
X146724857Y-100246571D02*
X146010571Y-100246571D01*
X146010571Y-98746571D01*
X147224857Y-99460857D02*
X147724857Y-99460857D01*
X147939142Y-100246571D02*
X147224857Y-100246571D01*
X147224857Y-98746571D01*
X147939142Y-98746571D01*
X148582000Y-100246571D02*
X148582000Y-98746571D01*
X148939142Y-98746571D01*
X149153428Y-98818000D01*
X149296285Y-98960857D01*
X149367714Y-99103714D01*
X149439142Y-99389428D01*
X149439142Y-99603714D01*
X149367714Y-99889428D01*
X149296285Y-100032285D01*
X149153428Y-100175142D01*
X148939142Y-100246571D01*
X148582000Y-100246571D01*
X151153428Y-100175142D02*
X151367714Y-100246571D01*
X151724857Y-100246571D01*
X151867714Y-100175142D01*
X151939142Y-100103714D01*
X152010571Y-99960857D01*
X152010571Y-99818000D01*
X151939142Y-99675142D01*
X151867714Y-99603714D01*
X151724857Y-99532285D01*
X151439142Y-99460857D01*
X151296285Y-99389428D01*
X151224857Y-99318000D01*
X151153428Y-99175142D01*
X151153428Y-99032285D01*
X151224857Y-98889428D01*
X151296285Y-98818000D01*
X151439142Y-98746571D01*
X151796285Y-98746571D01*
X152010571Y-98818000D01*
X152439142Y-99246571D02*
X153010571Y-99246571D01*
X152653428Y-98746571D02*
X152653428Y-100032285D01*
X152724857Y-100175142D01*
X152867714Y-100246571D01*
X153010571Y-100246571D01*
X153510571Y-100246571D02*
X153510571Y-99246571D01*
X153510571Y-99532285D02*
X153582000Y-99389428D01*
X153653428Y-99318000D01*
X153796285Y-99246571D01*
X153939142Y-99246571D01*
X154439142Y-100246571D02*
X154439142Y-99246571D01*
X154439142Y-98746571D02*
X154367714Y-98818000D01*
X154439142Y-98889428D01*
X154510571Y-98818000D01*
X154439142Y-98746571D01*
X154439142Y-98889428D01*
X155153428Y-99246571D02*
X155153428Y-100746571D01*
X155153428Y-99318000D02*
X155296285Y-99246571D01*
X155582000Y-99246571D01*
X155724857Y-99318000D01*
X155796285Y-99389428D01*
X155867714Y-99532285D01*
X155867714Y-99960857D01*
X155796285Y-100103714D01*
X155724857Y-100175142D01*
X155582000Y-100246571D01*
X155296285Y-100246571D01*
X155153428Y-100175142D01*
D10*
X179395428Y-86455000D02*
X179395428Y-85693095D01*
X179776380Y-86074047D02*
X179014476Y-86074047D01*
X178776380Y-85312142D02*
X178776380Y-84693095D01*
X179157333Y-85026428D01*
X179157333Y-84883571D01*
X179204952Y-84788333D01*
X179252571Y-84740714D01*
X179347809Y-84693095D01*
X179585904Y-84693095D01*
X179681142Y-84740714D01*
X179728761Y-84788333D01*
X179776380Y-84883571D01*
X179776380Y-85169285D01*
X179728761Y-85264523D01*
X179681142Y-85312142D01*
X179728761Y-84216904D02*
X179776380Y-84216904D01*
X179871619Y-84264523D01*
X179919238Y-84312142D01*
X178776380Y-83883571D02*
X178776380Y-83264523D01*
X179157333Y-83597857D01*
X179157333Y-83455000D01*
X179204952Y-83359761D01*
X179252571Y-83312142D01*
X179347809Y-83264523D01*
X179585904Y-83264523D01*
X179681142Y-83312142D01*
X179728761Y-83359761D01*
X179776380Y-83455000D01*
X179776380Y-83740714D01*
X179728761Y-83835952D01*
X179681142Y-83883571D01*
X178776380Y-82978809D02*
X179776380Y-82645476D01*
X178776380Y-82312142D01*
X169616380Y-85589857D02*
X168616380Y-85589857D01*
X169616380Y-85018428D01*
X168616380Y-85018428D01*
X169616380Y-83970809D02*
X169140190Y-84304142D01*
X169616380Y-84542238D02*
X168616380Y-84542238D01*
X168616380Y-84161285D01*
X168664000Y-84066047D01*
X168711619Y-84018428D01*
X168806857Y-83970809D01*
X168949714Y-83970809D01*
X169044952Y-84018428D01*
X169092571Y-84066047D01*
X169140190Y-84161285D01*
X169140190Y-84542238D01*
X169568761Y-83589857D02*
X169616380Y-83447000D01*
X169616380Y-83208904D01*
X169568761Y-83113666D01*
X169521142Y-83066047D01*
X169425904Y-83018428D01*
X169330666Y-83018428D01*
X169235428Y-83066047D01*
X169187809Y-83113666D01*
X169140190Y-83208904D01*
X169092571Y-83399380D01*
X169044952Y-83494619D01*
X168997333Y-83542238D01*
X168902095Y-83589857D01*
X168806857Y-83589857D01*
X168711619Y-83542238D01*
X168664000Y-83494619D01*
X168616380Y-83399380D01*
X168616380Y-83161285D01*
X168664000Y-83018428D01*
X168616380Y-82732714D02*
X168616380Y-82161285D01*
X169616380Y-82447000D02*
X168616380Y-82447000D01*
X173744000Y-84327904D02*
X173696380Y-84423142D01*
X173696380Y-84566000D01*
X173744000Y-84708857D01*
X173839238Y-84804095D01*
X173934476Y-84851714D01*
X174124952Y-84899333D01*
X174267809Y-84899333D01*
X174458285Y-84851714D01*
X174553523Y-84804095D01*
X174648761Y-84708857D01*
X174696380Y-84566000D01*
X174696380Y-84470761D01*
X174648761Y-84327904D01*
X174601142Y-84280285D01*
X174267809Y-84280285D01*
X174267809Y-84470761D01*
X174696380Y-83851714D02*
X173696380Y-83851714D01*
X174696380Y-83280285D01*
X173696380Y-83280285D01*
X174696380Y-82804095D02*
X173696380Y-82804095D01*
X173696380Y-82566000D01*
X173744000Y-82423142D01*
X173839238Y-82327904D01*
X173934476Y-82280285D01*
X174124952Y-82232666D01*
X174267809Y-82232666D01*
X174458285Y-82280285D01*
X174553523Y-82327904D01*
X174648761Y-82423142D01*
X174696380Y-82566000D01*
X174696380Y-82804095D01*
X172108761Y-86447047D02*
X172156380Y-86304190D01*
X172156380Y-86066095D01*
X172108761Y-85970857D01*
X172061142Y-85923238D01*
X171965904Y-85875619D01*
X171870666Y-85875619D01*
X171775428Y-85923238D01*
X171727809Y-85970857D01*
X171680190Y-86066095D01*
X171632571Y-86256571D01*
X171584952Y-86351809D01*
X171537333Y-86399428D01*
X171442095Y-86447047D01*
X171346857Y-86447047D01*
X171251619Y-86399428D01*
X171204000Y-86351809D01*
X171156380Y-86256571D01*
X171156380Y-86018476D01*
X171204000Y-85875619D01*
X171156380Y-85542285D02*
X172156380Y-85304190D01*
X171442095Y-85113714D01*
X172156380Y-84923238D01*
X171156380Y-84685142D01*
X172156380Y-84304190D02*
X171156380Y-84304190D01*
X171156380Y-84066095D01*
X171204000Y-83923238D01*
X171299238Y-83828000D01*
X171394476Y-83780380D01*
X171584952Y-83732761D01*
X171727809Y-83732761D01*
X171918285Y-83780380D01*
X172013523Y-83828000D01*
X172108761Y-83923238D01*
X172156380Y-84066095D01*
X172156380Y-84304190D01*
X172156380Y-83304190D02*
X171156380Y-83304190D01*
X171156380Y-82637523D02*
X171156380Y-82447047D01*
X171204000Y-82351809D01*
X171299238Y-82256571D01*
X171489714Y-82208952D01*
X171823047Y-82208952D01*
X172013523Y-82256571D01*
X172108761Y-82351809D01*
X172156380Y-82447047D01*
X172156380Y-82637523D01*
X172108761Y-82732761D01*
X172013523Y-82828000D01*
X171823047Y-82875619D01*
X171489714Y-82875619D01*
X171299238Y-82828000D01*
X171204000Y-82732761D01*
X171156380Y-82637523D01*
X177315761Y-86716904D02*
X177363380Y-86574047D01*
X177363380Y-86335952D01*
X177315761Y-86240714D01*
X177268142Y-86193095D01*
X177172904Y-86145476D01*
X177077666Y-86145476D01*
X176982428Y-86193095D01*
X176934809Y-86240714D01*
X176887190Y-86335952D01*
X176839571Y-86526428D01*
X176791952Y-86621666D01*
X176744333Y-86669285D01*
X176649095Y-86716904D01*
X176553857Y-86716904D01*
X176458619Y-86669285D01*
X176411000Y-86621666D01*
X176363380Y-86526428D01*
X176363380Y-86288333D01*
X176411000Y-86145476D01*
X176363380Y-85812142D02*
X177363380Y-85574047D01*
X176649095Y-85383571D01*
X177363380Y-85193095D01*
X176363380Y-84955000D01*
X177268142Y-84002619D02*
X177315761Y-84050238D01*
X177363380Y-84193095D01*
X177363380Y-84288333D01*
X177315761Y-84431190D01*
X177220523Y-84526428D01*
X177125285Y-84574047D01*
X176934809Y-84621666D01*
X176791952Y-84621666D01*
X176601476Y-84574047D01*
X176506238Y-84526428D01*
X176411000Y-84431190D01*
X176363380Y-84288333D01*
X176363380Y-84193095D01*
X176411000Y-84050238D01*
X176458619Y-84002619D01*
X177363380Y-83097857D02*
X177363380Y-83574047D01*
X176363380Y-83574047D01*
X177363380Y-82764523D02*
X176363380Y-82764523D01*
X177363380Y-82193095D02*
X176791952Y-82621666D01*
X176363380Y-82193095D02*
X176934809Y-82764523D01*
D11*
X141478857Y-63734000D02*
X141407428Y-63662571D01*
X141264571Y-63448285D01*
X141193142Y-63305428D01*
X141121714Y-63091142D01*
X141050285Y-62734000D01*
X141050285Y-62448285D01*
X141121714Y-62091142D01*
X141193142Y-61876857D01*
X141264571Y-61734000D01*
X141407428Y-61519714D01*
X141478857Y-61448285D01*
X142693142Y-63091142D02*
X142550285Y-63162571D01*
X142264571Y-63162571D01*
X142121714Y-63091142D01*
X142050285Y-63019714D01*
X141978857Y-62876857D01*
X141978857Y-62448285D01*
X142050285Y-62305428D01*
X142121714Y-62234000D01*
X142264571Y-62162571D01*
X142550285Y-62162571D01*
X142693142Y-62234000D01*
X143550285Y-63162571D02*
X143407428Y-63091142D01*
X143336000Y-62948285D01*
X143336000Y-61662571D01*
X143978857Y-63734000D02*
X144050285Y-63662571D01*
X144193142Y-63448285D01*
X144264571Y-63305428D01*
X144336000Y-63091142D01*
X144407428Y-62734000D01*
X144407428Y-62448285D01*
X144336000Y-62091142D01*
X144264571Y-61876857D01*
X144193142Y-61734000D01*
X144050285Y-61519714D01*
X143978857Y-61448285D01*
X146193142Y-62734000D02*
X146907428Y-62734000D01*
X146050285Y-63162571D02*
X146550285Y-61662571D01*
X147050285Y-63162571D01*
X148264571Y-63162571D02*
X147550285Y-63162571D01*
X147550285Y-61662571D01*
X148764571Y-63019714D02*
X148836000Y-63091142D01*
X148764571Y-63162571D01*
X148693142Y-63091142D01*
X148764571Y-63019714D01*
X148764571Y-63162571D01*
X150550285Y-61805428D02*
X150621714Y-61734000D01*
X150764571Y-61662571D01*
X151121714Y-61662571D01*
X151264571Y-61734000D01*
X151336000Y-61805428D01*
X151407428Y-61948285D01*
X151407428Y-62091142D01*
X151336000Y-62305428D01*
X150478857Y-63162571D01*
X151407428Y-63162571D01*
X152336000Y-61662571D02*
X152478857Y-61662571D01*
X152621714Y-61734000D01*
X152693142Y-61805428D01*
X152764571Y-61948285D01*
X152836000Y-62234000D01*
X152836000Y-62591142D01*
X152764571Y-62876857D01*
X152693142Y-63019714D01*
X152621714Y-63091142D01*
X152478857Y-63162571D01*
X152336000Y-63162571D01*
X152193142Y-63091142D01*
X152121714Y-63019714D01*
X152050285Y-62876857D01*
X151978857Y-62591142D01*
X151978857Y-62234000D01*
X152050285Y-61948285D01*
X152121714Y-61805428D01*
X152193142Y-61734000D01*
X152336000Y-61662571D01*
X154264571Y-63162571D02*
X153407428Y-63162571D01*
X153836000Y-63162571D02*
X153836000Y-61662571D01*
X153693142Y-61876857D01*
X153550285Y-62019714D01*
X153407428Y-62091142D01*
X154978857Y-63162571D02*
X155264571Y-63162571D01*
X155407428Y-63091142D01*
X155478857Y-63019714D01*
X155621714Y-62805428D01*
X155693142Y-62519714D01*
X155693142Y-61948285D01*
X155621714Y-61805428D01*
X155550285Y-61734000D01*
X155407428Y-61662571D01*
X155121714Y-61662571D01*
X154978857Y-61734000D01*
X154907428Y-61805428D01*
X154836000Y-61948285D01*
X154836000Y-62305428D01*
X154907428Y-62448285D01*
X154978857Y-62519714D01*
X155121714Y-62591142D01*
X155407428Y-62591142D01*
X155550285Y-62519714D01*
X155621714Y-62448285D01*
X155693142Y-62305428D01*
D12*
X198260000Y-94550000D02*
X198260000Y-104550000D01*
X98260000Y-94550000D02*
X198260000Y-94550000D01*
X198260000Y-104550000D02*
X98260000Y-104550000D01*
D13*
X180654000Y-78807000D02*
X180654000Y-80137000D01*
X179324000Y-78807000D02*
X180654000Y-78807000D01*
X178054000Y-78807000D02*
X178054000Y-81467000D01*
X178054000Y-81467000D02*
X165294000Y-81467000D01*
X178054000Y-78807000D02*
X165294000Y-78807000D01*
X165294000Y-78807000D02*
X165294000Y-81467000D01*
X131662400Y-81559400D02*
G75*
G03X131662400Y-81559400I-700000J0D01*
G01*
X129071600Y-80175100D02*
G75*
G03X129071600Y-80175100I-700000J0D01*
G01*
X124597279Y-64768000D02*
X124271721Y-64768000D01*
X124597279Y-65788000D02*
X124271721Y-65788000D01*
X124271721Y-70106000D02*
X124597279Y-70106000D01*
X124271721Y-69086000D02*
X124597279Y-69086000D01*
X109382779Y-109218000D02*
X109057221Y-109218000D01*
X109382779Y-110238000D02*
X109057221Y-110238000D01*
X120076279Y-109218000D02*
X119750721Y-109218000D01*
X120076279Y-110238000D02*
X119750721Y-110238000D01*
X131226779Y-109218000D02*
X130901221Y-109218000D01*
X131226779Y-110238000D02*
X130901221Y-110238000D01*
X109382779Y-106424000D02*
X109057221Y-106424000D01*
X109382779Y-107444000D02*
X109057221Y-107444000D01*
X120076279Y-106424000D02*
X119750721Y-106424000D01*
X120076279Y-107444000D02*
X119750721Y-107444000D01*
X131252279Y-106424000D02*
X130926721Y-106424000D01*
X131252279Y-107444000D02*
X130926721Y-107444000D01*
X168150000Y-139354779D02*
X168150000Y-139029221D01*
X167130000Y-139354779D02*
X167130000Y-139029221D01*
X158523500Y-130972779D02*
X158523500Y-130647221D01*
X157503500Y-130972779D02*
X157503500Y-130647221D01*
X154942000Y-139354779D02*
X154942000Y-139029221D01*
X153922000Y-139354779D02*
X153922000Y-139029221D01*
X145544000Y-130972779D02*
X145544000Y-130647221D01*
X144524000Y-130972779D02*
X144524000Y-130647221D01*
X141734000Y-139354779D02*
X141734000Y-139029221D01*
X140714000Y-139354779D02*
X140714000Y-139029221D01*
X132336000Y-130947279D02*
X132336000Y-130621721D01*
X131316000Y-130947279D02*
X131316000Y-130621721D01*
X146100000Y-70266779D02*
X146100000Y-69941221D01*
X145080000Y-70266779D02*
X145080000Y-69941221D01*
X152398000Y-83027733D02*
X152398000Y-83370267D01*
X153418000Y-83027733D02*
X153418000Y-83370267D01*
X116727250Y-131743750D02*
X116727250Y-132531250D01*
X116333500Y-132137500D02*
X117121000Y-132137500D01*
X117361000Y-136330563D02*
X118425437Y-137395000D01*
X117361000Y-131639437D02*
X118425437Y-130575000D01*
X117361000Y-131639437D02*
X117361000Y-132925000D01*
X117361000Y-136330563D02*
X117361000Y-135045000D01*
X118425437Y-137395000D02*
X124181000Y-137395000D01*
X118425437Y-130575000D02*
X124181000Y-130575000D01*
X124181000Y-130575000D02*
X124181000Y-132925000D01*
X124181000Y-137395000D02*
X124181000Y-135045000D01*
X140492267Y-75110000D02*
X140149733Y-75110000D01*
X140492267Y-74090000D02*
X140149733Y-74090000D01*
X140492267Y-77290000D02*
X140149733Y-77290000D01*
X140492267Y-78310000D02*
X140149733Y-78310000D01*
X117361000Y-114065000D02*
X117361000Y-116415000D01*
X117361000Y-120885000D02*
X117361000Y-118535000D01*
X123116563Y-120885000D02*
X117361000Y-120885000D01*
X123116563Y-114065000D02*
X117361000Y-114065000D01*
X124181000Y-115129437D02*
X124181000Y-116415000D01*
X124181000Y-119820563D02*
X124181000Y-118535000D01*
X124181000Y-119820563D02*
X123116563Y-120885000D01*
X124181000Y-115129437D02*
X123116563Y-114065000D01*
X125208500Y-119322500D02*
X124421000Y-119322500D01*
X124814750Y-119716250D02*
X124814750Y-118928750D01*
X114806000Y-124758267D02*
X114806000Y-124415733D01*
X115826000Y-124758267D02*
X115826000Y-124415733D01*
X140714000Y-135210733D02*
X140714000Y-135553267D01*
X141734000Y-135210733D02*
X141734000Y-135553267D01*
X154942000Y-135210733D02*
X154942000Y-135553267D01*
X153922000Y-135210733D02*
X153922000Y-135553267D01*
X167130000Y-135210733D02*
X167130000Y-135553267D01*
X168150000Y-135210733D02*
X168150000Y-135553267D01*
X123982267Y-63502000D02*
X123639733Y-63502000D01*
X123982267Y-62482000D02*
X123639733Y-62482000D01*
X126839000Y-66238000D02*
X129524000Y-66238000D01*
X126839000Y-64318000D02*
X126839000Y-66238000D01*
X129524000Y-64318000D02*
X126839000Y-64318000D01*
X151511000Y-145796000D02*
X151511000Y-148336000D01*
X144907000Y-145796000D02*
X151511000Y-145796000D01*
X144907000Y-150876000D02*
X144907000Y-145796000D01*
X151511000Y-150876000D02*
X144907000Y-150876000D01*
X151511000Y-148336000D02*
X151511000Y-150876000D01*
X98979000Y-104544600D02*
X98979000Y-103994600D01*
X98979000Y-94544600D02*
X98979000Y-95094600D01*
X95889000Y-104544600D02*
X102239000Y-104544600D01*
X95889000Y-94544600D02*
X95889000Y-104544600D01*
X102239000Y-94544600D02*
X95889000Y-94544600D01*
X122552000Y-58436000D02*
X125352000Y-58436000D01*
X125352000Y-58436000D02*
X125352000Y-60436000D01*
X125352000Y-60436000D02*
X122552000Y-60436000D01*
X122552000Y-60436000D02*
X122552000Y-58436000D01*
X136888000Y-109530000D02*
X135428000Y-109530000D01*
X136888000Y-106370000D02*
X134728000Y-106370000D01*
X136888000Y-106370000D02*
X136888000Y-107300000D01*
X136888000Y-109530000D02*
X136888000Y-108600000D01*
X125712000Y-109530000D02*
X125712000Y-108600000D01*
X125712000Y-106370000D02*
X125712000Y-107300000D01*
X125712000Y-106370000D02*
X123552000Y-106370000D01*
X125712000Y-109530000D02*
X124252000Y-109530000D01*
X114790000Y-109530000D02*
X113330000Y-109530000D01*
X114790000Y-106370000D02*
X112630000Y-106370000D01*
X114790000Y-106370000D02*
X114790000Y-107300000D01*
X114790000Y-109530000D02*
X114790000Y-108600000D01*
X138707000Y-137620000D02*
X138707000Y-136120000D01*
X137457000Y-133620000D02*
X132957000Y-133620000D01*
X131707000Y-136120000D02*
X131707000Y-137620000D01*
X132957000Y-140120000D02*
X137457000Y-140120000D01*
X146034000Y-140120000D02*
X150534000Y-140120000D01*
X144784000Y-136120000D02*
X144784000Y-137620000D01*
X150534000Y-133620000D02*
X146034000Y-133620000D01*
X151784000Y-137620000D02*
X151784000Y-136120000D01*
X164865000Y-137620000D02*
X164865000Y-136120000D01*
X163615000Y-133620000D02*
X159115000Y-133620000D01*
X157865000Y-136120000D02*
X157865000Y-137620000D01*
X159115000Y-140120000D02*
X163615000Y-140120000D01*
X129986000Y-92710000D02*
G75*
G03X129986000Y-92710000I-700000J0D01*
G01*
X118810000Y-92710000D02*
G75*
G03X118810000Y-92710000I-700000J0D01*
G01*
X108142000Y-92710000D02*
G75*
G03X108142000Y-92710000I-700000J0D01*
G01*
X155894000Y-82296000D02*
G75*
G03X155894000Y-82296000I-700000J0D01*
G01*
X143980000Y-74090000D02*
X142665000Y-74090000D01*
X143980000Y-73790000D02*
X143980000Y-74090000D01*
X144280000Y-73790000D02*
X143980000Y-73790000D01*
X151200000Y-73790000D02*
X151200000Y-74090000D01*
X150900000Y-73790000D02*
X151200000Y-73790000D01*
X143980000Y-81010000D02*
X143980000Y-80710000D01*
X144280000Y-81010000D02*
X143980000Y-81010000D01*
X151200000Y-81010000D02*
X151200000Y-80710000D01*
X150900000Y-81010000D02*
X151200000Y-81010000D01*
X116956000Y-122320000D02*
X122966000Y-122320000D01*
X119206000Y-129140000D02*
X122966000Y-129140000D01*
X122966000Y-122320000D02*
X122966000Y-123580000D01*
X122966000Y-129140000D02*
X122966000Y-127880000D01*
D14*
X111003577Y-68749796D02*
X110791445Y-68537664D01*
X110720735Y-69032639D02*
X111003577Y-68749796D01*
D10*
X181106380Y-80470333D02*
X181820666Y-80470333D01*
X181963523Y-80517952D01*
X182058761Y-80613190D01*
X182106380Y-80756047D01*
X182106380Y-80851285D01*
X181201619Y-80041761D02*
X181154000Y-79994142D01*
X181106380Y-79898904D01*
X181106380Y-79660809D01*
X181154000Y-79565571D01*
X181201619Y-79517952D01*
X181296857Y-79470333D01*
X181392095Y-79470333D01*
X181534952Y-79517952D01*
X182106380Y-80089380D01*
X182106380Y-79470333D01*
X129751295Y-82789780D02*
X130322723Y-82789780D01*
X130037009Y-83789780D02*
X130037009Y-82789780D01*
X130656057Y-83789780D02*
X130656057Y-82789780D01*
X131037009Y-82789780D01*
X131132247Y-82837400D01*
X131179866Y-82885019D01*
X131227485Y-82980257D01*
X131227485Y-83123114D01*
X131179866Y-83218352D01*
X131132247Y-83265971D01*
X131037009Y-83313590D01*
X130656057Y-83313590D01*
X132084628Y-82789780D02*
X131894152Y-82789780D01*
X131798914Y-82837400D01*
X131751295Y-82885019D01*
X131656057Y-83027876D01*
X131608438Y-83218352D01*
X131608438Y-83599304D01*
X131656057Y-83694542D01*
X131703676Y-83742161D01*
X131798914Y-83789780D01*
X131989390Y-83789780D01*
X132084628Y-83742161D01*
X132132247Y-83694542D01*
X132179866Y-83599304D01*
X132179866Y-83361209D01*
X132132247Y-83265971D01*
X132084628Y-83218352D01*
X131989390Y-83170733D01*
X131798914Y-83170733D01*
X131703676Y-83218352D01*
X131656057Y-83265971D01*
X131608438Y-83361209D01*
X127046195Y-77849480D02*
X127617623Y-77849480D01*
X127331909Y-78849480D02*
X127331909Y-77849480D01*
X127950957Y-78849480D02*
X127950957Y-77849480D01*
X128331909Y-77849480D01*
X128427147Y-77897100D01*
X128474766Y-77944719D01*
X128522385Y-78039957D01*
X128522385Y-78182814D01*
X128474766Y-78278052D01*
X128427147Y-78325671D01*
X128331909Y-78373290D01*
X127950957Y-78373290D01*
X129427147Y-77849480D02*
X128950957Y-77849480D01*
X128903338Y-78325671D01*
X128950957Y-78278052D01*
X129046195Y-78230433D01*
X129284290Y-78230433D01*
X129379528Y-78278052D01*
X129427147Y-78325671D01*
X129474766Y-78420909D01*
X129474766Y-78659004D01*
X129427147Y-78754242D01*
X129379528Y-78801861D01*
X129284290Y-78849480D01*
X129046195Y-78849480D01*
X128950957Y-78801861D01*
X128903338Y-78754242D01*
X123817142Y-67160380D02*
X123483809Y-66684190D01*
X123245714Y-67160380D02*
X123245714Y-66160380D01*
X123626666Y-66160380D01*
X123721904Y-66208000D01*
X123769523Y-66255619D01*
X123817142Y-66350857D01*
X123817142Y-66493714D01*
X123769523Y-66588952D01*
X123721904Y-66636571D01*
X123626666Y-66684190D01*
X123245714Y-66684190D01*
X124769523Y-67160380D02*
X124198095Y-67160380D01*
X124483809Y-67160380D02*
X124483809Y-66160380D01*
X124388571Y-66303238D01*
X124293333Y-66398476D01*
X124198095Y-66446095D01*
X125674285Y-66160380D02*
X125198095Y-66160380D01*
X125150476Y-66636571D01*
X125198095Y-66588952D01*
X125293333Y-66541333D01*
X125531428Y-66541333D01*
X125626666Y-66588952D01*
X125674285Y-66636571D01*
X125721904Y-66731809D01*
X125721904Y-66969904D01*
X125674285Y-67065142D01*
X125626666Y-67112761D01*
X125531428Y-67160380D01*
X125293333Y-67160380D01*
X125198095Y-67112761D01*
X125150476Y-67065142D01*
X124071142Y-71572380D02*
X123737809Y-71096190D01*
X123499714Y-71572380D02*
X123499714Y-70572380D01*
X123880666Y-70572380D01*
X123975904Y-70620000D01*
X124023523Y-70667619D01*
X124071142Y-70762857D01*
X124071142Y-70905714D01*
X124023523Y-71000952D01*
X123975904Y-71048571D01*
X123880666Y-71096190D01*
X123499714Y-71096190D01*
X125023523Y-71572380D02*
X124452095Y-71572380D01*
X124737809Y-71572380D02*
X124737809Y-70572380D01*
X124642571Y-70715238D01*
X124547333Y-70810476D01*
X124452095Y-70858095D01*
X125880666Y-70905714D02*
X125880666Y-71572380D01*
X125642571Y-70524761D02*
X125404476Y-71239047D01*
X126023523Y-71239047D01*
X108577142Y-111610380D02*
X108243809Y-111134190D01*
X108005714Y-111610380D02*
X108005714Y-110610380D01*
X108386666Y-110610380D01*
X108481904Y-110658000D01*
X108529523Y-110705619D01*
X108577142Y-110800857D01*
X108577142Y-110943714D01*
X108529523Y-111038952D01*
X108481904Y-111086571D01*
X108386666Y-111134190D01*
X108005714Y-111134190D01*
X109529523Y-111610380D02*
X108958095Y-111610380D01*
X109243809Y-111610380D02*
X109243809Y-110610380D01*
X109148571Y-110753238D01*
X109053333Y-110848476D01*
X108958095Y-110896095D01*
X109862857Y-110610380D02*
X110481904Y-110610380D01*
X110148571Y-110991333D01*
X110291428Y-110991333D01*
X110386666Y-111038952D01*
X110434285Y-111086571D01*
X110481904Y-111181809D01*
X110481904Y-111419904D01*
X110434285Y-111515142D01*
X110386666Y-111562761D01*
X110291428Y-111610380D01*
X110005714Y-111610380D01*
X109910476Y-111562761D01*
X109862857Y-111515142D01*
X119270642Y-111610380D02*
X118937309Y-111134190D01*
X118699214Y-111610380D02*
X118699214Y-110610380D01*
X119080166Y-110610380D01*
X119175404Y-110658000D01*
X119223023Y-110705619D01*
X119270642Y-110800857D01*
X119270642Y-110943714D01*
X119223023Y-111038952D01*
X119175404Y-111086571D01*
X119080166Y-111134190D01*
X118699214Y-111134190D01*
X120223023Y-111610380D02*
X119651595Y-111610380D01*
X119937309Y-111610380D02*
X119937309Y-110610380D01*
X119842071Y-110753238D01*
X119746833Y-110848476D01*
X119651595Y-110896095D01*
X120603976Y-110705619D02*
X120651595Y-110658000D01*
X120746833Y-110610380D01*
X120984928Y-110610380D01*
X121080166Y-110658000D01*
X121127785Y-110705619D01*
X121175404Y-110800857D01*
X121175404Y-110896095D01*
X121127785Y-111038952D01*
X120556357Y-111610380D01*
X121175404Y-111610380D01*
X130421142Y-111610380D02*
X130087809Y-111134190D01*
X129849714Y-111610380D02*
X129849714Y-110610380D01*
X130230666Y-110610380D01*
X130325904Y-110658000D01*
X130373523Y-110705619D01*
X130421142Y-110800857D01*
X130421142Y-110943714D01*
X130373523Y-111038952D01*
X130325904Y-111086571D01*
X130230666Y-111134190D01*
X129849714Y-111134190D01*
X131373523Y-111610380D02*
X130802095Y-111610380D01*
X131087809Y-111610380D02*
X131087809Y-110610380D01*
X130992571Y-110753238D01*
X130897333Y-110848476D01*
X130802095Y-110896095D01*
X132325904Y-111610380D02*
X131754476Y-111610380D01*
X132040190Y-111610380D02*
X132040190Y-110610380D01*
X131944952Y-110753238D01*
X131849714Y-110848476D01*
X131754476Y-110896095D01*
X108577142Y-108816380D02*
X108243809Y-108340190D01*
X108005714Y-108816380D02*
X108005714Y-107816380D01*
X108386666Y-107816380D01*
X108481904Y-107864000D01*
X108529523Y-107911619D01*
X108577142Y-108006857D01*
X108577142Y-108149714D01*
X108529523Y-108244952D01*
X108481904Y-108292571D01*
X108386666Y-108340190D01*
X108005714Y-108340190D01*
X109529523Y-108816380D02*
X108958095Y-108816380D01*
X109243809Y-108816380D02*
X109243809Y-107816380D01*
X109148571Y-107959238D01*
X109053333Y-108054476D01*
X108958095Y-108102095D01*
X110148571Y-107816380D02*
X110243809Y-107816380D01*
X110339047Y-107864000D01*
X110386666Y-107911619D01*
X110434285Y-108006857D01*
X110481904Y-108197333D01*
X110481904Y-108435428D01*
X110434285Y-108625904D01*
X110386666Y-108721142D01*
X110339047Y-108768761D01*
X110243809Y-108816380D01*
X110148571Y-108816380D01*
X110053333Y-108768761D01*
X110005714Y-108721142D01*
X109958095Y-108625904D01*
X109910476Y-108435428D01*
X109910476Y-108197333D01*
X109958095Y-108006857D01*
X110005714Y-107911619D01*
X110053333Y-107864000D01*
X110148571Y-107816380D01*
X119746833Y-108816380D02*
X119413500Y-108340190D01*
X119175404Y-108816380D02*
X119175404Y-107816380D01*
X119556357Y-107816380D01*
X119651595Y-107864000D01*
X119699214Y-107911619D01*
X119746833Y-108006857D01*
X119746833Y-108149714D01*
X119699214Y-108244952D01*
X119651595Y-108292571D01*
X119556357Y-108340190D01*
X119175404Y-108340190D01*
X120223023Y-108816380D02*
X120413500Y-108816380D01*
X120508738Y-108768761D01*
X120556357Y-108721142D01*
X120651595Y-108578285D01*
X120699214Y-108387809D01*
X120699214Y-108006857D01*
X120651595Y-107911619D01*
X120603976Y-107864000D01*
X120508738Y-107816380D01*
X120318261Y-107816380D01*
X120223023Y-107864000D01*
X120175404Y-107911619D01*
X120127785Y-108006857D01*
X120127785Y-108244952D01*
X120175404Y-108340190D01*
X120223023Y-108387809D01*
X120318261Y-108435428D01*
X120508738Y-108435428D01*
X120603976Y-108387809D01*
X120651595Y-108340190D01*
X120699214Y-108244952D01*
X130643333Y-108816380D02*
X130310000Y-108340190D01*
X130071904Y-108816380D02*
X130071904Y-107816380D01*
X130452857Y-107816380D01*
X130548095Y-107864000D01*
X130595714Y-107911619D01*
X130643333Y-108006857D01*
X130643333Y-108149714D01*
X130595714Y-108244952D01*
X130548095Y-108292571D01*
X130452857Y-108340190D01*
X130071904Y-108340190D01*
X131214761Y-108244952D02*
X131119523Y-108197333D01*
X131071904Y-108149714D01*
X131024285Y-108054476D01*
X131024285Y-108006857D01*
X131071904Y-107911619D01*
X131119523Y-107864000D01*
X131214761Y-107816380D01*
X131405238Y-107816380D01*
X131500476Y-107864000D01*
X131548095Y-107911619D01*
X131595714Y-108006857D01*
X131595714Y-108054476D01*
X131548095Y-108149714D01*
X131500476Y-108197333D01*
X131405238Y-108244952D01*
X131214761Y-108244952D01*
X131119523Y-108292571D01*
X131071904Y-108340190D01*
X131024285Y-108435428D01*
X131024285Y-108625904D01*
X131071904Y-108721142D01*
X131119523Y-108768761D01*
X131214761Y-108816380D01*
X131405238Y-108816380D01*
X131500476Y-108768761D01*
X131548095Y-108721142D01*
X131595714Y-108625904D01*
X131595714Y-108435428D01*
X131548095Y-108340190D01*
X131500476Y-108292571D01*
X131405238Y-108244952D01*
X168092380Y-142914666D02*
X167616190Y-143248000D01*
X168092380Y-143486095D02*
X167092380Y-143486095D01*
X167092380Y-143105142D01*
X167140000Y-143009904D01*
X167187619Y-142962285D01*
X167282857Y-142914666D01*
X167425714Y-142914666D01*
X167520952Y-142962285D01*
X167568571Y-143009904D01*
X167616190Y-143105142D01*
X167616190Y-143486095D01*
X167092380Y-142581333D02*
X167092380Y-141914666D01*
X168092380Y-142343238D01*
X157035880Y-130976666D02*
X156559690Y-131310000D01*
X157035880Y-131548095D02*
X156035880Y-131548095D01*
X156035880Y-131167142D01*
X156083500Y-131071904D01*
X156131119Y-131024285D01*
X156226357Y-130976666D01*
X156369214Y-130976666D01*
X156464452Y-131024285D01*
X156512071Y-131071904D01*
X156559690Y-131167142D01*
X156559690Y-131548095D01*
X156035880Y-130119523D02*
X156035880Y-130310000D01*
X156083500Y-130405238D01*
X156131119Y-130452857D01*
X156273976Y-130548095D01*
X156464452Y-130595714D01*
X156845404Y-130595714D01*
X156940642Y-130548095D01*
X156988261Y-130500476D01*
X157035880Y-130405238D01*
X157035880Y-130214761D01*
X156988261Y-130119523D01*
X156940642Y-130071904D01*
X156845404Y-130024285D01*
X156607309Y-130024285D01*
X156512071Y-130071904D01*
X156464452Y-130119523D01*
X156416833Y-130214761D01*
X156416833Y-130405238D01*
X156464452Y-130500476D01*
X156512071Y-130548095D01*
X156607309Y-130595714D01*
X154884380Y-142914666D02*
X154408190Y-143248000D01*
X154884380Y-143486095D02*
X153884380Y-143486095D01*
X153884380Y-143105142D01*
X153932000Y-143009904D01*
X153979619Y-142962285D01*
X154074857Y-142914666D01*
X154217714Y-142914666D01*
X154312952Y-142962285D01*
X154360571Y-143009904D01*
X154408190Y-143105142D01*
X154408190Y-143486095D01*
X153884380Y-142009904D02*
X153884380Y-142486095D01*
X154360571Y-142533714D01*
X154312952Y-142486095D01*
X154265333Y-142390857D01*
X154265333Y-142152761D01*
X154312952Y-142057523D01*
X154360571Y-142009904D01*
X154455809Y-141962285D01*
X154693904Y-141962285D01*
X154789142Y-142009904D01*
X154836761Y-142057523D01*
X154884380Y-142152761D01*
X154884380Y-142390857D01*
X154836761Y-142486095D01*
X154789142Y-142533714D01*
X144056380Y-130976666D02*
X143580190Y-131310000D01*
X144056380Y-131548095D02*
X143056380Y-131548095D01*
X143056380Y-131167142D01*
X143104000Y-131071904D01*
X143151619Y-131024285D01*
X143246857Y-130976666D01*
X143389714Y-130976666D01*
X143484952Y-131024285D01*
X143532571Y-131071904D01*
X143580190Y-131167142D01*
X143580190Y-131548095D01*
X143389714Y-130119523D02*
X144056380Y-130119523D01*
X143008761Y-130357619D02*
X143723047Y-130595714D01*
X143723047Y-129976666D01*
X141676380Y-142914666D02*
X141200190Y-143248000D01*
X141676380Y-143486095D02*
X140676380Y-143486095D01*
X140676380Y-143105142D01*
X140724000Y-143009904D01*
X140771619Y-142962285D01*
X140866857Y-142914666D01*
X141009714Y-142914666D01*
X141104952Y-142962285D01*
X141152571Y-143009904D01*
X141200190Y-143105142D01*
X141200190Y-143486095D01*
X140676380Y-142581333D02*
X140676380Y-141962285D01*
X141057333Y-142295619D01*
X141057333Y-142152761D01*
X141104952Y-142057523D01*
X141152571Y-142009904D01*
X141247809Y-141962285D01*
X141485904Y-141962285D01*
X141581142Y-142009904D01*
X141628761Y-142057523D01*
X141676380Y-142152761D01*
X141676380Y-142438476D01*
X141628761Y-142533714D01*
X141581142Y-142581333D01*
X130848380Y-130951166D02*
X130372190Y-131284500D01*
X130848380Y-131522595D02*
X129848380Y-131522595D01*
X129848380Y-131141642D01*
X129896000Y-131046404D01*
X129943619Y-130998785D01*
X130038857Y-130951166D01*
X130181714Y-130951166D01*
X130276952Y-130998785D01*
X130324571Y-131046404D01*
X130372190Y-131141642D01*
X130372190Y-131522595D01*
X129943619Y-130570214D02*
X129896000Y-130522595D01*
X129848380Y-130427357D01*
X129848380Y-130189261D01*
X129896000Y-130094023D01*
X129943619Y-130046404D01*
X130038857Y-129998785D01*
X130134095Y-129998785D01*
X130276952Y-130046404D01*
X130848380Y-130617833D01*
X130848380Y-129998785D01*
X144612380Y-70270666D02*
X144136190Y-70604000D01*
X144612380Y-70842095D02*
X143612380Y-70842095D01*
X143612380Y-70461142D01*
X143660000Y-70365904D01*
X143707619Y-70318285D01*
X143802857Y-70270666D01*
X143945714Y-70270666D01*
X144040952Y-70318285D01*
X144088571Y-70365904D01*
X144136190Y-70461142D01*
X144136190Y-70842095D01*
X144612380Y-69318285D02*
X144612380Y-69889714D01*
X144612380Y-69604000D02*
X143612380Y-69604000D01*
X143755238Y-69699238D01*
X143850476Y-69794476D01*
X143898095Y-69889714D01*
X153265142Y-86780666D02*
X153312761Y-86828285D01*
X153360380Y-86971142D01*
X153360380Y-87066380D01*
X153312761Y-87209238D01*
X153217523Y-87304476D01*
X153122285Y-87352095D01*
X152931809Y-87399714D01*
X152788952Y-87399714D01*
X152598476Y-87352095D01*
X152503238Y-87304476D01*
X152408000Y-87209238D01*
X152360380Y-87066380D01*
X152360380Y-86971142D01*
X152408000Y-86828285D01*
X152455619Y-86780666D01*
X153360380Y-85828285D02*
X153360380Y-86399714D01*
X153360380Y-86114000D02*
X152360380Y-86114000D01*
X152503238Y-86209238D01*
X152598476Y-86304476D01*
X152646095Y-86399714D01*
X126579333Y-134469142D02*
X126531714Y-134516761D01*
X126388857Y-134564380D01*
X126293619Y-134564380D01*
X126150761Y-134516761D01*
X126055523Y-134421523D01*
X126007904Y-134326285D01*
X125960285Y-134135809D01*
X125960285Y-133992952D01*
X126007904Y-133802476D01*
X126055523Y-133707238D01*
X126150761Y-133612000D01*
X126293619Y-133564380D01*
X126388857Y-133564380D01*
X126531714Y-133612000D01*
X126579333Y-133659619D01*
X126960285Y-133659619D02*
X127007904Y-133612000D01*
X127103142Y-133564380D01*
X127341238Y-133564380D01*
X127436476Y-133612000D01*
X127484095Y-133659619D01*
X127531714Y-133754857D01*
X127531714Y-133850095D01*
X127484095Y-133992952D01*
X126912666Y-134564380D01*
X127531714Y-134564380D01*
X136739333Y-75287142D02*
X136691714Y-75334761D01*
X136548857Y-75382380D01*
X136453619Y-75382380D01*
X136310761Y-75334761D01*
X136215523Y-75239523D01*
X136167904Y-75144285D01*
X136120285Y-74953809D01*
X136120285Y-74810952D01*
X136167904Y-74620476D01*
X136215523Y-74525238D01*
X136310761Y-74430000D01*
X136453619Y-74382380D01*
X136548857Y-74382380D01*
X136691714Y-74430000D01*
X136739333Y-74477619D01*
X137072666Y-74382380D02*
X137691714Y-74382380D01*
X137358380Y-74763333D01*
X137501238Y-74763333D01*
X137596476Y-74810952D01*
X137644095Y-74858571D01*
X137691714Y-74953809D01*
X137691714Y-75191904D01*
X137644095Y-75287142D01*
X137596476Y-75334761D01*
X137501238Y-75382380D01*
X137215523Y-75382380D01*
X137120285Y-75334761D01*
X137072666Y-75287142D01*
X136739333Y-78335142D02*
X136691714Y-78382761D01*
X136548857Y-78430380D01*
X136453619Y-78430380D01*
X136310761Y-78382761D01*
X136215523Y-78287523D01*
X136167904Y-78192285D01*
X136120285Y-78001809D01*
X136120285Y-77858952D01*
X136167904Y-77668476D01*
X136215523Y-77573238D01*
X136310761Y-77478000D01*
X136453619Y-77430380D01*
X136548857Y-77430380D01*
X136691714Y-77478000D01*
X136739333Y-77525619D01*
X137596476Y-77763714D02*
X137596476Y-78430380D01*
X137358380Y-77382761D02*
X137120285Y-78097047D01*
X137739333Y-78097047D01*
X126579333Y-117959142D02*
X126531714Y-118006761D01*
X126388857Y-118054380D01*
X126293619Y-118054380D01*
X126150761Y-118006761D01*
X126055523Y-117911523D01*
X126007904Y-117816285D01*
X125960285Y-117625809D01*
X125960285Y-117482952D01*
X126007904Y-117292476D01*
X126055523Y-117197238D01*
X126150761Y-117102000D01*
X126293619Y-117054380D01*
X126388857Y-117054380D01*
X126531714Y-117102000D01*
X126579333Y-117149619D01*
X127484095Y-117054380D02*
X127007904Y-117054380D01*
X126960285Y-117530571D01*
X127007904Y-117482952D01*
X127103142Y-117435333D01*
X127341238Y-117435333D01*
X127436476Y-117482952D01*
X127484095Y-117530571D01*
X127531714Y-117625809D01*
X127531714Y-117863904D01*
X127484095Y-117959142D01*
X127436476Y-118006761D01*
X127341238Y-118054380D01*
X127103142Y-118054380D01*
X127007904Y-118006761D01*
X126960285Y-117959142D01*
X114243142Y-124753666D02*
X114290761Y-124801285D01*
X114338380Y-124944142D01*
X114338380Y-125039380D01*
X114290761Y-125182238D01*
X114195523Y-125277476D01*
X114100285Y-125325095D01*
X113909809Y-125372714D01*
X113766952Y-125372714D01*
X113576476Y-125325095D01*
X113481238Y-125277476D01*
X113386000Y-125182238D01*
X113338380Y-125039380D01*
X113338380Y-124944142D01*
X113386000Y-124801285D01*
X113433619Y-124753666D01*
X113338380Y-123896523D02*
X113338380Y-124087000D01*
X113386000Y-124182238D01*
X113433619Y-124229857D01*
X113576476Y-124325095D01*
X113766952Y-124372714D01*
X114147904Y-124372714D01*
X114243142Y-124325095D01*
X114290761Y-124277476D01*
X114338380Y-124182238D01*
X114338380Y-123991761D01*
X114290761Y-123896523D01*
X114243142Y-123848904D01*
X114147904Y-123801285D01*
X113909809Y-123801285D01*
X113814571Y-123848904D01*
X113766952Y-123896523D01*
X113719333Y-123991761D01*
X113719333Y-124182238D01*
X113766952Y-124277476D01*
X113814571Y-124325095D01*
X113909809Y-124372714D01*
X143011142Y-135548666D02*
X143058761Y-135596285D01*
X143106380Y-135739142D01*
X143106380Y-135834380D01*
X143058761Y-135977238D01*
X142963523Y-136072476D01*
X142868285Y-136120095D01*
X142677809Y-136167714D01*
X142534952Y-136167714D01*
X142344476Y-136120095D01*
X142249238Y-136072476D01*
X142154000Y-135977238D01*
X142106380Y-135834380D01*
X142106380Y-135739142D01*
X142154000Y-135596285D01*
X142201619Y-135548666D01*
X142106380Y-135215333D02*
X142106380Y-134548666D01*
X143106380Y-134977238D01*
X156219142Y-135548666D02*
X156266761Y-135596285D01*
X156314380Y-135739142D01*
X156314380Y-135834380D01*
X156266761Y-135977238D01*
X156171523Y-136072476D01*
X156076285Y-136120095D01*
X155885809Y-136167714D01*
X155742952Y-136167714D01*
X155552476Y-136120095D01*
X155457238Y-136072476D01*
X155362000Y-135977238D01*
X155314380Y-135834380D01*
X155314380Y-135739142D01*
X155362000Y-135596285D01*
X155409619Y-135548666D01*
X155742952Y-134977238D02*
X155695333Y-135072476D01*
X155647714Y-135120095D01*
X155552476Y-135167714D01*
X155504857Y-135167714D01*
X155409619Y-135120095D01*
X155362000Y-135072476D01*
X155314380Y-134977238D01*
X155314380Y-134786761D01*
X155362000Y-134691523D01*
X155409619Y-134643904D01*
X155504857Y-134596285D01*
X155552476Y-134596285D01*
X155647714Y-134643904D01*
X155695333Y-134691523D01*
X155742952Y-134786761D01*
X155742952Y-134977238D01*
X155790571Y-135072476D01*
X155838190Y-135120095D01*
X155933428Y-135167714D01*
X156123904Y-135167714D01*
X156219142Y-135120095D01*
X156266761Y-135072476D01*
X156314380Y-134977238D01*
X156314380Y-134786761D01*
X156266761Y-134691523D01*
X156219142Y-134643904D01*
X156123904Y-134596285D01*
X155933428Y-134596285D01*
X155838190Y-134643904D01*
X155790571Y-134691523D01*
X155742952Y-134786761D01*
X169427142Y-135548666D02*
X169474761Y-135596285D01*
X169522380Y-135739142D01*
X169522380Y-135834380D01*
X169474761Y-135977238D01*
X169379523Y-136072476D01*
X169284285Y-136120095D01*
X169093809Y-136167714D01*
X168950952Y-136167714D01*
X168760476Y-136120095D01*
X168665238Y-136072476D01*
X168570000Y-135977238D01*
X168522380Y-135834380D01*
X168522380Y-135739142D01*
X168570000Y-135596285D01*
X168617619Y-135548666D01*
X169522380Y-135072476D02*
X169522380Y-134882000D01*
X169474761Y-134786761D01*
X169427142Y-134739142D01*
X169284285Y-134643904D01*
X169093809Y-134596285D01*
X168712857Y-134596285D01*
X168617619Y-134643904D01*
X168570000Y-134691523D01*
X168522380Y-134786761D01*
X168522380Y-134977238D01*
X168570000Y-135072476D01*
X168617619Y-135120095D01*
X168712857Y-135167714D01*
X168950952Y-135167714D01*
X169046190Y-135120095D01*
X169093809Y-135072476D01*
X169141428Y-134977238D01*
X169141428Y-134786761D01*
X169093809Y-134691523D01*
X169046190Y-134643904D01*
X168950952Y-134596285D01*
X126865142Y-63349142D02*
X126817523Y-63396761D01*
X126674666Y-63444380D01*
X126579428Y-63444380D01*
X126436571Y-63396761D01*
X126341333Y-63301523D01*
X126293714Y-63206285D01*
X126246095Y-63015809D01*
X126246095Y-62872952D01*
X126293714Y-62682476D01*
X126341333Y-62587238D01*
X126436571Y-62492000D01*
X126579428Y-62444380D01*
X126674666Y-62444380D01*
X126817523Y-62492000D01*
X126865142Y-62539619D01*
X127817523Y-63444380D02*
X127246095Y-63444380D01*
X127531809Y-63444380D02*
X127531809Y-62444380D01*
X127436571Y-62587238D01*
X127341333Y-62682476D01*
X127246095Y-62730095D01*
X128436571Y-62444380D02*
X128531809Y-62444380D01*
X128627047Y-62492000D01*
X128674666Y-62539619D01*
X128722285Y-62634857D01*
X128769904Y-62825333D01*
X128769904Y-63063428D01*
X128722285Y-63253904D01*
X128674666Y-63349142D01*
X128627047Y-63396761D01*
X128531809Y-63444380D01*
X128436571Y-63444380D01*
X128341333Y-63396761D01*
X128293714Y-63349142D01*
X128246095Y-63253904D01*
X128198476Y-63063428D01*
X128198476Y-62825333D01*
X128246095Y-62634857D01*
X128293714Y-62539619D01*
X128341333Y-62492000D01*
X128436571Y-62444380D01*
X127785904Y-67508380D02*
X127785904Y-66508380D01*
X128024000Y-66508380D01*
X128166857Y-66556000D01*
X128262095Y-66651238D01*
X128309714Y-66746476D01*
X128357333Y-66936952D01*
X128357333Y-67079809D01*
X128309714Y-67270285D01*
X128262095Y-67365523D01*
X128166857Y-67460761D01*
X128024000Y-67508380D01*
X127785904Y-67508380D01*
X129309714Y-67508380D02*
X128738285Y-67508380D01*
X129024000Y-67508380D02*
X129024000Y-66508380D01*
X128928761Y-66651238D01*
X128833523Y-66746476D01*
X128738285Y-66794095D01*
X143430666Y-147788380D02*
X143430666Y-148502666D01*
X143383047Y-148645523D01*
X143287809Y-148740761D01*
X143144952Y-148788380D01*
X143049714Y-148788380D01*
X144430666Y-148788380D02*
X143859238Y-148788380D01*
X144144952Y-148788380D02*
X144144952Y-147788380D01*
X144049714Y-147931238D01*
X143954476Y-148026476D01*
X143859238Y-148074095D01*
X98095666Y-105346980D02*
X98095666Y-106061266D01*
X98048047Y-106204123D01*
X97952809Y-106299361D01*
X97809952Y-106346980D01*
X97714714Y-106346980D01*
X98476619Y-105346980D02*
X99095666Y-105346980D01*
X98762333Y-105727933D01*
X98905190Y-105727933D01*
X99000428Y-105775552D01*
X99048047Y-105823171D01*
X99095666Y-105918409D01*
X99095666Y-106156504D01*
X99048047Y-106251742D01*
X99000428Y-106299361D01*
X98905190Y-106346980D01*
X98619476Y-106346980D01*
X98524238Y-106299361D01*
X98476619Y-106251742D01*
X126674666Y-58888380D02*
X126674666Y-59602666D01*
X126627047Y-59745523D01*
X126531809Y-59840761D01*
X126388952Y-59888380D01*
X126293714Y-59888380D01*
X127150857Y-59888380D02*
X127150857Y-58888380D01*
X127531809Y-58888380D01*
X127627047Y-58936000D01*
X127674666Y-58983619D01*
X127722285Y-59078857D01*
X127722285Y-59221714D01*
X127674666Y-59316952D01*
X127627047Y-59364571D01*
X127531809Y-59412190D01*
X127150857Y-59412190D01*
X128674666Y-59888380D02*
X128103238Y-59888380D01*
X128388952Y-59888380D02*
X128388952Y-58888380D01*
X128293714Y-59031238D01*
X128198476Y-59126476D01*
X128103238Y-59174095D01*
X136556761Y-111291619D02*
X136461523Y-111244000D01*
X136366285Y-111148761D01*
X136223428Y-111005904D01*
X136128190Y-110958285D01*
X136032952Y-110958285D01*
X136080571Y-111196380D02*
X135985333Y-111148761D01*
X135890095Y-111053523D01*
X135842476Y-110863047D01*
X135842476Y-110529714D01*
X135890095Y-110339238D01*
X135985333Y-110244000D01*
X136080571Y-110196380D01*
X136271047Y-110196380D01*
X136366285Y-110244000D01*
X136461523Y-110339238D01*
X136509142Y-110529714D01*
X136509142Y-110863047D01*
X136461523Y-111053523D01*
X136366285Y-111148761D01*
X136271047Y-111196380D01*
X136080571Y-111196380D01*
X137461523Y-111196380D02*
X136890095Y-111196380D01*
X137175809Y-111196380D02*
X137175809Y-110196380D01*
X137080571Y-110339238D01*
X136985333Y-110434476D01*
X136890095Y-110482095D01*
X125380761Y-111291619D02*
X125285523Y-111244000D01*
X125190285Y-111148761D01*
X125047428Y-111005904D01*
X124952190Y-110958285D01*
X124856952Y-110958285D01*
X124904571Y-111196380D02*
X124809333Y-111148761D01*
X124714095Y-111053523D01*
X124666476Y-110863047D01*
X124666476Y-110529714D01*
X124714095Y-110339238D01*
X124809333Y-110244000D01*
X124904571Y-110196380D01*
X125095047Y-110196380D01*
X125190285Y-110244000D01*
X125285523Y-110339238D01*
X125333142Y-110529714D01*
X125333142Y-110863047D01*
X125285523Y-111053523D01*
X125190285Y-111148761D01*
X125095047Y-111196380D01*
X124904571Y-111196380D01*
X125714095Y-110291619D02*
X125761714Y-110244000D01*
X125856952Y-110196380D01*
X126095047Y-110196380D01*
X126190285Y-110244000D01*
X126237904Y-110291619D01*
X126285523Y-110386857D01*
X126285523Y-110482095D01*
X126237904Y-110624952D01*
X125666476Y-111196380D01*
X126285523Y-111196380D01*
X114458761Y-111291619D02*
X114363523Y-111244000D01*
X114268285Y-111148761D01*
X114125428Y-111005904D01*
X114030190Y-110958285D01*
X113934952Y-110958285D01*
X113982571Y-111196380D02*
X113887333Y-111148761D01*
X113792095Y-111053523D01*
X113744476Y-110863047D01*
X113744476Y-110529714D01*
X113792095Y-110339238D01*
X113887333Y-110244000D01*
X113982571Y-110196380D01*
X114173047Y-110196380D01*
X114268285Y-110244000D01*
X114363523Y-110339238D01*
X114411142Y-110529714D01*
X114411142Y-110863047D01*
X114363523Y-111053523D01*
X114268285Y-111148761D01*
X114173047Y-111196380D01*
X113982571Y-111196380D01*
X114744476Y-110196380D02*
X115363523Y-110196380D01*
X115030190Y-110577333D01*
X115173047Y-110577333D01*
X115268285Y-110624952D01*
X115315904Y-110672571D01*
X115363523Y-110767809D01*
X115363523Y-111005904D01*
X115315904Y-111101142D01*
X115268285Y-111148761D01*
X115173047Y-111196380D01*
X114887333Y-111196380D01*
X114792095Y-111148761D01*
X114744476Y-111101142D01*
X133873666Y-133024761D02*
X134016523Y-133072380D01*
X134254619Y-133072380D01*
X134349857Y-133024761D01*
X134397476Y-132977142D01*
X134445095Y-132881904D01*
X134445095Y-132786666D01*
X134397476Y-132691428D01*
X134349857Y-132643809D01*
X134254619Y-132596190D01*
X134064142Y-132548571D01*
X133968904Y-132500952D01*
X133921285Y-132453333D01*
X133873666Y-132358095D01*
X133873666Y-132262857D01*
X133921285Y-132167619D01*
X133968904Y-132120000D01*
X134064142Y-132072380D01*
X134302238Y-132072380D01*
X134445095Y-132120000D01*
X134778428Y-132072380D02*
X135016523Y-133072380D01*
X135207000Y-132358095D01*
X135397476Y-133072380D01*
X135635571Y-132072380D01*
X136540333Y-133072380D02*
X135968904Y-133072380D01*
X136254619Y-133072380D02*
X136254619Y-132072380D01*
X136159380Y-132215238D01*
X136064142Y-132310476D01*
X135968904Y-132358095D01*
X146950666Y-133024761D02*
X147093523Y-133072380D01*
X147331619Y-133072380D01*
X147426857Y-133024761D01*
X147474476Y-132977142D01*
X147522095Y-132881904D01*
X147522095Y-132786666D01*
X147474476Y-132691428D01*
X147426857Y-132643809D01*
X147331619Y-132596190D01*
X147141142Y-132548571D01*
X147045904Y-132500952D01*
X146998285Y-132453333D01*
X146950666Y-132358095D01*
X146950666Y-132262857D01*
X146998285Y-132167619D01*
X147045904Y-132120000D01*
X147141142Y-132072380D01*
X147379238Y-132072380D01*
X147522095Y-132120000D01*
X147855428Y-132072380D02*
X148093523Y-133072380D01*
X148284000Y-132358095D01*
X148474476Y-133072380D01*
X148712571Y-132072380D01*
X149045904Y-132167619D02*
X149093523Y-132120000D01*
X149188761Y-132072380D01*
X149426857Y-132072380D01*
X149522095Y-132120000D01*
X149569714Y-132167619D01*
X149617333Y-132262857D01*
X149617333Y-132358095D01*
X149569714Y-132500952D01*
X148998285Y-133072380D01*
X149617333Y-133072380D01*
X160031666Y-133024761D02*
X160174523Y-133072380D01*
X160412619Y-133072380D01*
X160507857Y-133024761D01*
X160555476Y-132977142D01*
X160603095Y-132881904D01*
X160603095Y-132786666D01*
X160555476Y-132691428D01*
X160507857Y-132643809D01*
X160412619Y-132596190D01*
X160222142Y-132548571D01*
X160126904Y-132500952D01*
X160079285Y-132453333D01*
X160031666Y-132358095D01*
X160031666Y-132262857D01*
X160079285Y-132167619D01*
X160126904Y-132120000D01*
X160222142Y-132072380D01*
X160460238Y-132072380D01*
X160603095Y-132120000D01*
X160936428Y-132072380D02*
X161174523Y-133072380D01*
X161365000Y-132358095D01*
X161555476Y-133072380D01*
X161793571Y-132072380D01*
X162079285Y-132072380D02*
X162698333Y-132072380D01*
X162365000Y-132453333D01*
X162507857Y-132453333D01*
X162603095Y-132500952D01*
X162650714Y-132548571D01*
X162698333Y-132643809D01*
X162698333Y-132881904D01*
X162650714Y-132977142D01*
X162603095Y-133024761D01*
X162507857Y-133072380D01*
X162222142Y-133072380D01*
X162126904Y-133024761D01*
X162079285Y-132977142D01*
X128024095Y-90714380D02*
X128595523Y-90714380D01*
X128309809Y-91714380D02*
X128309809Y-90714380D01*
X128928857Y-91714380D02*
X128928857Y-90714380D01*
X129309809Y-90714380D01*
X129405047Y-90762000D01*
X129452666Y-90809619D01*
X129500285Y-90904857D01*
X129500285Y-91047714D01*
X129452666Y-91142952D01*
X129405047Y-91190571D01*
X129309809Y-91238190D01*
X128928857Y-91238190D01*
X130452666Y-91714380D02*
X129881238Y-91714380D01*
X130166952Y-91714380D02*
X130166952Y-90714380D01*
X130071714Y-90857238D01*
X129976476Y-90952476D01*
X129881238Y-91000095D01*
X116848095Y-90714380D02*
X117419523Y-90714380D01*
X117133809Y-91714380D02*
X117133809Y-90714380D01*
X117752857Y-91714380D02*
X117752857Y-90714380D01*
X118133809Y-90714380D01*
X118229047Y-90762000D01*
X118276666Y-90809619D01*
X118324285Y-90904857D01*
X118324285Y-91047714D01*
X118276666Y-91142952D01*
X118229047Y-91190571D01*
X118133809Y-91238190D01*
X117752857Y-91238190D01*
X118705238Y-90809619D02*
X118752857Y-90762000D01*
X118848095Y-90714380D01*
X119086190Y-90714380D01*
X119181428Y-90762000D01*
X119229047Y-90809619D01*
X119276666Y-90904857D01*
X119276666Y-91000095D01*
X119229047Y-91142952D01*
X118657619Y-91714380D01*
X119276666Y-91714380D01*
X106180095Y-90714380D02*
X106751523Y-90714380D01*
X106465809Y-91714380D02*
X106465809Y-90714380D01*
X107084857Y-91714380D02*
X107084857Y-90714380D01*
X107465809Y-90714380D01*
X107561047Y-90762000D01*
X107608666Y-90809619D01*
X107656285Y-90904857D01*
X107656285Y-91047714D01*
X107608666Y-91142952D01*
X107561047Y-91190571D01*
X107465809Y-91238190D01*
X107084857Y-91238190D01*
X107989619Y-90714380D02*
X108608666Y-90714380D01*
X108275333Y-91095333D01*
X108418190Y-91095333D01*
X108513428Y-91142952D01*
X108561047Y-91190571D01*
X108608666Y-91285809D01*
X108608666Y-91523904D01*
X108561047Y-91619142D01*
X108513428Y-91666761D01*
X108418190Y-91714380D01*
X108132476Y-91714380D01*
X108037238Y-91666761D01*
X107989619Y-91619142D01*
X154186095Y-83526380D02*
X154757523Y-83526380D01*
X154471809Y-84526380D02*
X154471809Y-83526380D01*
X155090857Y-84526380D02*
X155090857Y-83526380D01*
X155471809Y-83526380D01*
X155567047Y-83574000D01*
X155614666Y-83621619D01*
X155662285Y-83716857D01*
X155662285Y-83859714D01*
X155614666Y-83954952D01*
X155567047Y-84002571D01*
X155471809Y-84050190D01*
X155090857Y-84050190D01*
X156519428Y-83859714D02*
X156519428Y-84526380D01*
X156281333Y-83478761D02*
X156043238Y-84193047D01*
X156662285Y-84193047D01*
X149733095Y-70572380D02*
X149733095Y-71381904D01*
X149780714Y-71477142D01*
X149828333Y-71524761D01*
X149923571Y-71572380D01*
X150114047Y-71572380D01*
X150209285Y-71524761D01*
X150256904Y-71477142D01*
X150304523Y-71381904D01*
X150304523Y-70572380D01*
X151304523Y-71572380D02*
X150733095Y-71572380D01*
X151018809Y-71572380D02*
X151018809Y-70572380D01*
X150923571Y-70715238D01*
X150828333Y-70810476D01*
X150733095Y-70858095D01*
X125730095Y-122388380D02*
X125730095Y-123197904D01*
X125777714Y-123293142D01*
X125825333Y-123340761D01*
X125920571Y-123388380D01*
X126111047Y-123388380D01*
X126206285Y-123340761D01*
X126253904Y-123293142D01*
X126301523Y-123197904D01*
X126301523Y-122388380D01*
X126730095Y-122483619D02*
X126777714Y-122436000D01*
X126872952Y-122388380D01*
X127111047Y-122388380D01*
X127206285Y-122436000D01*
X127253904Y-122483619D01*
X127301523Y-122578857D01*
X127301523Y-122674095D01*
X127253904Y-122816952D01*
X126682476Y-123388380D01*
X127301523Y-123388380D01*
X116676026Y-75335522D02*
X117248446Y-75907942D01*
X117349461Y-75941614D01*
X117416805Y-75941614D01*
X117517820Y-75907942D01*
X117652507Y-75773255D01*
X117686179Y-75672240D01*
X117686179Y-75604896D01*
X117652507Y-75503881D01*
X117080087Y-74931461D01*
X117349461Y-74662087D02*
X117787194Y-74224355D01*
X117820866Y-74729431D01*
X117921881Y-74628416D01*
X118022896Y-74594744D01*
X118090240Y-74594744D01*
X118191255Y-74628416D01*
X118359614Y-74796774D01*
X118393286Y-74897790D01*
X118393286Y-74965133D01*
X118359614Y-75066148D01*
X118157583Y-75268179D01*
X118056568Y-75301851D01*
X117989225Y-75301851D01*
M02*
